<?xml version="1.0" encoding="utf-8"?>
<!-- Generator: Adobe Illustrator 24.2.3, SVG Export Plug-In . SVG Version: 6.00 Build 0)  -->
<svg version="1.1" id="Layer_1" xmlns="http://www.w3.org/2000/svg" xmlns:xlink="http://www.w3.org/1999/xlink" x="0px" y="0px"
	 width="1600px" height="1080px" viewBox="0 0 1600 1080" style="enable-background:new 0 0 1600 1080;" xml:space="preserve">
<style type="text/css">
	.st0{fill:#418BF9;}
	.st1{fill:#A82981;}
	.st2{clip-path:url(#SVGID_2_);}
	.st3{fill:#E5BED9;}
	.st4{fill:#FFFFFF;}
	.st5{fill:#C6DCFD;}
	.st6{fill:#FBFBFB;}
	.st7{fill:#F2F2F2;}
	.st8{fill:#C3D9FA;}
	.st9{fill:#356FC6;}
	.st10{clip-path:url(#SVGID_4_);fill:#FBFBFB;}
	.st11{clip-path:url(#SVGID_4_);}
	.st12{fill:#BFD1EB;}
	.st13{clip-path:url(#SVGID_6_);}
	.st14{clip-path:url(#SVGID_8_);fill:#FFFFFF;}
	.st15{clip-path:url(#SVGID_8_);}
	.st16{fill:#C5DCFD;}
	.st17{clip-path:url(#SVGID_10_);fill:#C6DCFD;}
	.st18{clip-path:url(#SVGID_10_);}
	.st19{fill:#D7E6FE;}
	.st20{clip-path:url(#SVGID_12_);}
	.st21{clip-path:url(#SVGID_14_);}
	.st22{clip-path:url(#SVGID_16_);fill:#FBFBFB;}
	.st23{clip-path:url(#SVGID_16_);}
	.st24{clip-path:url(#SVGID_18_);}
	.st25{clip-path:url(#SVGID_20_);}
	.st26{clip-path:url(#SVGID_22_);}
	.st27{clip-path:url(#SVGID_24_);}
	.st28{clip-path:url(#SVGID_26_);fill:#E5BED9;}
	.st29{clip-path:url(#SVGID_28_);}
	.st30{clip-path:url(#SVGID_30_);}
	.st31{clip-path:url(#SVGID_32_);}
</style>
<g>
	<path class="st0" d="M1199.7,257.4c2.1-0.3,5.8-0.8,10.8-1.3c5-0.5,11.4-0.8,18.7-0.8c15.4,0,35.2,1.7,56.3,7.7
		c21.1,6,43.4,16.4,64.1,33.9c29.7,25.1,44,54.7,50.7,72.2c0.9,2.3,3.5,3.5,5.8,2.6c2.3-0.9,3.5-3.5,2.6-5.8
		c-7-18.3-22.1-49.4-53.3-75.8c-21.8-18.4-45.4-29.4-67.4-35.7c-22.1-6.3-42.7-8-58.8-8c-7.6,0-14.2,0.4-19.5,0.9
		c-5.3,0.5-9.2,1-11.4,1.4c-2.5,0.4-4.1,2.7-3.8,5.1C1194.9,256.1,1197.2,257.8,1199.7,257.4L1199.7,257.4z"/>
	<path class="st0" d="M1230.2,272.9l-27.4-20.5l27.5-22.4c1.9-1.6,2.2-4.4,0.7-6.3s-4.4-2.2-6.3-0.7l-32,26
		c-1.1,0.9-1.7,2.2-1.7,3.6c0,1.4,0.7,2.7,1.8,3.5l32,24c2,1.5,4.8,1.1,6.3-0.9S1232.2,274.4,1230.2,272.9L1230.2,272.9z"/>
	<g>
		<defs>
			<polyline id="SVGID_19_" points="870.1,239.2 480.5,239.2 480.5,287.5 870.1,287.5 870.1,239.2 			"/>
		</defs>
		<clipPath id="SVGID_2_">
			<use xlink:href="#SVGID_19_"  style="overflow:visible;"/>
		</clipPath>
		<g class="st2">
			<path class="st3" d="M492.4,239.2l9,26.5h0.1l8.5-26.5H522v38.6h-7.9v-27.3H514l-9.5,27.3H498l-9.4-27.1h-0.1v27.1h-7.9v-38.6
				H492.4z"/>
			<path class="st3" d="M539,286c-1.5,1-3.5,1.5-6.2,1.5c-0.8,0-1.6,0-2.3-0.1c-0.8-0.1-1.6-0.1-2.3-0.2v-6.3
				c0.7,0.1,1.5,0.1,2.2,0.2c0.8,0.1,1.5,0.1,2.3,0.1c1-0.1,1.8-0.5,2.2-1.2c0.5-0.7,0.7-1.4,0.7-2.3c0-0.6-0.1-1.2-0.3-1.7
				l-9.8-26.2h8.2l6.3,19.1h0.1l6.1-19.1h7.9l-11.7,31.4C541.6,283.5,540.5,285.1,539,286z"/>
			<path class="st3" d="M590.7,246.3h-19.1v-7.1H602v6.7l-20.7,24.7h21.2v7.1H570V271L590.7,246.3z"/>
			<path class="st3" d="M606.9,257.7c0.7-1.8,1.7-3.4,2.9-4.6c1.3-1.3,2.8-2.3,4.5-3c1.8-0.7,3.7-1.1,5.9-1.1c2.2,0,4.2,0.4,6,1.1
				c1.8,0.7,3.3,1.7,4.6,3c1.3,1.3,2.2,2.8,2.9,4.6c0.7,1.8,1,3.8,1,6.1c0,2.2-0.3,4.2-1,6c-0.7,1.8-1.7,3.3-2.9,4.6
				c-1.3,1.3-2.8,2.3-4.6,2.9c-1.8,0.7-3.8,1-6,1c-2.2,0-4.2-0.3-5.9-1c-1.8-0.7-3.3-1.7-4.5-2.9c-1.3-1.3-2.2-2.8-2.9-4.6
				c-0.7-1.8-1-3.8-1-6C605.8,261.6,606.2,259.5,606.9,257.7z M613.8,267.1c0.2,1.1,0.6,2,1.1,2.9c0.5,0.8,1.2,1.5,2.1,2
				c0.9,0.5,1.9,0.8,3.2,0.8s2.4-0.3,3.3-0.8c0.9-0.5,1.6-1.2,2.1-2c0.5-0.8,0.9-1.8,1.1-2.9c0.2-1.1,0.3-2.2,0.3-3.3
				c0-1.1-0.1-2.2-0.3-3.3s-0.6-2-1.1-2.9c-0.5-0.8-1.2-1.5-2.1-2c-0.9-0.5-2-0.8-3.3-0.8s-2.4,0.3-3.2,0.8c-0.9,0.5-1.6,1.2-2.1,2
				c-0.5,0.8-0.9,1.8-1.1,2.9s-0.3,2.2-0.3,3.3C613.5,264.9,613.6,266,613.8,267.1z"/>
			<path class="st3" d="M639.9,257.7c0.7-1.8,1.7-3.4,2.9-4.6c1.3-1.3,2.8-2.3,4.5-3c1.8-0.7,3.7-1.1,5.9-1.1c2.2,0,4.2,0.4,6,1.1
				c1.8,0.7,3.3,1.7,4.6,3c1.3,1.3,2.2,2.8,2.9,4.6c0.7,1.8,1,3.8,1,6.1c0,2.2-0.3,4.2-1,6c-0.7,1.8-1.7,3.3-2.9,4.6
				c-1.3,1.3-2.8,2.3-4.6,2.9c-1.8,0.7-3.8,1-6,1c-2.2,0-4.2-0.3-5.9-1c-1.8-0.7-3.3-1.7-4.5-2.9c-1.3-1.3-2.2-2.8-2.9-4.6
				c-0.7-1.8-1-3.8-1-6C638.8,261.6,639.2,259.5,639.9,257.7z M646.8,267.1c0.2,1.1,0.6,2,1.1,2.9c0.5,0.8,1.2,1.5,2.1,2
				c0.9,0.5,1.9,0.8,3.2,0.8s2.4-0.3,3.3-0.8c0.9-0.5,1.6-1.2,2.1-2c0.5-0.8,0.9-1.8,1.1-2.9c0.2-1.1,0.3-2.2,0.3-3.3
				c0-1.1-0.1-2.2-0.3-3.3s-0.6-2-1.1-2.9c-0.5-0.8-1.2-1.5-2.1-2c-0.9-0.5-2-0.8-3.3-0.8s-2.4,0.3-3.2,0.8c-0.9,0.5-1.6,1.2-2.1,2
				c-0.5,0.8-0.9,1.8-1.1,2.9s-0.3,2.2-0.3,3.3C646.5,264.9,646.6,266,646.8,267.1z"/>
			<path class="st3" d="M680.1,249.8v3.8h0.1c1-1.4,2.2-2.6,3.6-3.3c1.4-0.8,3.1-1.2,4.9-1.2c1.8,0,3.4,0.3,4.8,1
				c1.5,0.7,2.6,1.9,3.3,3.6c0.8-1.2,2-2.3,3.4-3.2c1.4-0.9,3.1-1.4,5-1.4c1.5,0,2.8,0.2,4.1,0.5c1.3,0.4,2.3,0.9,3.2,1.7
				c0.9,0.8,1.6,1.8,2.1,3.1c0.5,1.3,0.8,2.8,0.8,4.6v18.7h-7.7v-15.8c0-0.9,0-1.8-0.1-2.6s-0.3-1.5-0.6-2.2
				c-0.3-0.6-0.8-1.1-1.4-1.5c-0.6-0.4-1.5-0.5-2.6-0.5s-2,0.2-2.6,0.6c-0.7,0.4-1.2,1-1.6,1.6c-0.4,0.7-0.6,1.4-0.8,2.3
				c-0.1,0.8-0.2,1.7-0.2,2.6v15.6h-7.7v-15.7c0-0.8,0-1.6-0.1-2.5c0-0.8-0.2-1.6-0.5-2.2c-0.3-0.7-0.7-1.2-1.4-1.6
				c-0.6-0.4-1.6-0.6-2.8-0.6c-0.4,0-0.8,0.1-1.4,0.2c-0.6,0.2-1.2,0.5-1.7,0.9c-0.6,0.5-1,1.1-1.4,1.9c-0.4,0.8-0.6,2-0.6,3.3v16.2
				h-7.7v-27.9H680.1z"/>
			<path class="st3" d="M745.9,239.2v31.4h18.8v7.1h-27.3v-38.6H745.9z"/>
			<path class="st3" d="M768.9,245.5v-6.3h7.7v6.3H768.9z M776.5,249.8v27.9h-7.7v-27.9H776.5z"/>
			<path class="st3" d="M789.9,249.8v3.9h0.2c1-1.6,2.2-2.8,3.8-3.5c1.5-0.7,3.1-1.1,4.8-1.1c2.1,0,3.7,0.3,5,0.8
				c1.3,0.6,2.3,1.3,3.1,2.3c0.8,1,1.3,2.2,1.6,3.6c0.3,1.4,0.5,3,0.5,4.7v17.2h-7.7V262c0-2.3-0.4-4-1.1-5.2
				c-0.7-1.1-2-1.7-3.8-1.7c-2.1,0-3.6,0.6-4.5,1.9c-0.9,1.2-1.4,3.3-1.4,6.1v14.6h-7.7v-27.9H789.9z"/>
			<path class="st3" d="M823,239.2v20.7l9.7-10h9.1l-10.5,10.3l11.7,17.7h-9.3l-7.7-12.5l-3,2.9v9.6h-7.7v-38.6H823z"/>
			<path class="st3" d="M852.1,270.8c0.3,0.6,0.8,1.1,1.3,1.5s1.2,0.7,1.9,0.8c0.7,0.2,1.4,0.3,2.2,0.3c0.5,0,1.1-0.1,1.7-0.2
				c0.6-0.1,1.1-0.3,1.6-0.6c0.5-0.3,0.9-0.6,1.2-1.1c0.3-0.4,0.5-1,0.5-1.7c0-1.2-0.8-2-2.3-2.6c-1.5-0.6-3.7-1.2-6.4-1.7
				c-1.1-0.3-2.2-0.5-3.3-0.9c-1.1-0.3-2-0.8-2.8-1.4c-0.8-0.6-1.5-1.3-2-2.1c-0.5-0.8-0.8-1.9-0.8-3.1c0-1.8,0.4-3.3,1.1-4.4
				c0.7-1.2,1.6-2.1,2.8-2.7c1.2-0.7,2.4-1.1,3.9-1.4s2.9-0.4,4.4-0.4c1.5,0,3,0.1,4.4,0.4c1.4,0.3,2.7,0.8,3.8,1.5
				c1.1,0.7,2,1.6,2.8,2.7c0.7,1.1,1.2,2.6,1.3,4.3h-7.3c-0.1-1.5-0.7-2.5-1.7-3c-1-0.5-2.2-0.8-3.6-0.8c-0.4,0-0.9,0-1.4,0.1
				c-0.5,0.1-1,0.2-1.4,0.4c-0.4,0.2-0.8,0.4-1.1,0.8c-0.3,0.3-0.4,0.8-0.4,1.4c0,0.7,0.3,1.2,0.8,1.7s1.2,0.8,2,1.1
				c0.8,0.3,1.7,0.5,2.8,0.7s2.1,0.5,3.2,0.7c1.1,0.3,2.2,0.6,3.3,0.9c1.1,0.4,2,0.8,2.8,1.4c0.8,0.6,1.5,1.3,2,2.2
				c0.5,0.9,0.8,2,0.8,3.3c0,1.8-0.4,3.4-1.1,4.6c-0.7,1.2-1.7,2.2-2.9,3c-1.2,0.8-2.5,1.3-4.1,1.6c-1.5,0.3-3.1,0.5-4.7,0.5
				c-1.6,0-3.2-0.2-4.8-0.5c-1.5-0.3-2.9-0.9-4.1-1.6c-1.2-0.8-2.2-1.8-3-3c-0.8-1.2-1.2-2.8-1.3-4.7h7.3
				C851.5,269.5,851.7,270.2,852.1,270.8z"/>
		</g>
	</g>
	<path class="st0" d="M514.8,326.7h622c21.5,0,39,17.5,39,39s-17.5,39-39,39h-622c-21.5,0-39-17.5-39-39S493.2,326.7,514.8,326.7z"
		/>
	<g>
		<path class="st4" d="M579.1,357.8h4.4l3.2,8.7c0.3,0.8,0.5,1.6,0.8,2.4l0.4,1.2h0.1l0.5-1.7c0.3-1,0.5-1.7,0.6-1.9l3.1-8.7h4.4
			v18.9h-3.6v-7.5c0-1.1,0.1-2.8,0.4-5.2l0.1-1.1h-0.1l-1.5,4.4l-2.8,7.7h-2.3l-2.8-7.7l-1.5-4.4h-0.1l0.1,1.1
			c0.3,2.4,0.4,4.1,0.4,5.2v7.5h-3.6V357.8z"/>
		<path class="st4" d="M600.1,382.2l0.7-3c0.4,0.1,0.7,0.2,1,0.2c1.3,0,2.1-0.7,2.6-2.1l0.2-0.8l-5.6-14h4l2.2,6.5
			c0.2,0.7,0.5,1.6,0.8,2.7c0.1,0.5,0.3,1,0.4,1.4h0.1c0.3-1.1,0.6-2.5,1-4.1l1.9-6.5h3.8l-5,14.7c-0.7,1.9-1.5,3.2-2.4,4.1
			c-0.9,0.9-2.1,1.3-3.7,1.3C601.4,382.4,600.7,382.3,600.1,382.2z"/>
		<path class="st4" d="M621.7,357.8h4.4l3.2,8.7c0.3,0.8,0.5,1.6,0.8,2.4l0.4,1.2h0.1l0.5-1.7c0.3-1,0.5-1.7,0.6-1.9l3.1-8.7h4.4
			v18.9h-3.6v-7.5c0-1.1,0.1-2.8,0.4-5.2l0.1-1.1h-0.1l-1.5,4.4l-2.8,7.7h-2.3l-2.8-7.7l-1.5-4.4h-0.1l0.1,1.1
			c0.3,2.4,0.4,4.1,0.4,5.2v7.5h-3.6V357.8z"/>
		<path class="st4" d="M655.1,370.7h-8.9c0.2,1.1,0.7,2,1.4,2.5c0.7,0.5,1.6,0.8,2.6,0.8c1,0,2.1-0.3,3.2-1l1.3,2.4
			c-0.7,0.5-1.5,0.9-2.4,1.2c-0.9,0.3-1.8,0.4-2.6,0.4c-1.4,0-2.6-0.3-3.7-0.9c-1.1-0.6-2-1.5-2.6-2.6c-0.6-1.1-0.9-2.5-0.9-4
			c0-1.5,0.3-2.8,0.9-4c0.6-1.1,1.5-2,2.5-2.6c1-0.6,2.1-0.9,3.3-0.9c2,0,3.5,0.6,4.5,1.9c1,1.3,1.6,2.9,1.6,5
			C655.2,369.6,655.2,370.2,655.1,370.7z M651.8,368.1c0-0.9-0.2-1.7-0.6-2.2c-0.4-0.5-1.1-0.8-1.9-0.8c-0.7,0-1.3,0.2-1.9,0.7
			c-0.6,0.5-0.9,1.2-1.1,2.2H651.8z"/>
		<path class="st4" d="M670,370.7h-8.9c0.2,1.1,0.7,2,1.4,2.5c0.7,0.5,1.6,0.8,2.6,0.8c1,0,2.1-0.3,3.2-1l1.3,2.4
			c-0.7,0.5-1.5,0.9-2.4,1.2c-0.9,0.3-1.8,0.4-2.6,0.4c-1.4,0-2.6-0.3-3.7-0.9c-1.1-0.6-2-1.5-2.6-2.6c-0.6-1.1-0.9-2.5-0.9-4
			c0-1.5,0.3-2.8,0.9-4c0.6-1.1,1.5-2,2.5-2.6c1-0.6,2.1-0.9,3.3-0.9c2,0,3.5,0.6,4.5,1.9c1,1.3,1.6,2.9,1.6,5
			C670.1,369.6,670.1,370.2,670,370.7z M666.7,368.1c0-0.9-0.2-1.7-0.6-2.2c-0.4-0.5-1.1-0.8-1.9-0.8c-0.7,0-1.3,0.2-1.9,0.7
			c-0.6,0.5-0.9,1.2-1.1,2.2H666.7z"/>
		<path class="st4" d="M674.6,375.6c-0.8-1-1.2-2.3-1.2-4v-6.1h-2v-3l2.2-0.2l0.5-3.8h3.3v3.8h3.5v3.1h-3.5v6.1
			c0,1.6,0.6,2.3,1.9,2.3c0.4,0,0.9-0.1,1.4-0.3l0.6,2.9c-1,0.3-2.1,0.5-3.1,0.5C676.6,377.1,675.3,376.6,674.6,375.6z"/>
		<path class="st4" d="M684.1,359.5c-0.4-0.4-0.6-0.9-0.6-1.5c0-0.6,0.2-1.1,0.6-1.5c0.4-0.4,1-0.6,1.6-0.6c0.7,0,1.2,0.2,1.6,0.6
			c0.4,0.4,0.6,0.9,0.6,1.5c0,0.6-0.2,1.1-0.6,1.5c-0.4,0.4-1,0.6-1.6,0.6C685.1,360.1,684.5,359.9,684.1,359.5z M683.8,362.4h3.9
			v14.4h-3.9V362.4z"/>
		<path class="st4" d="M691.7,362.4h3.2l0.3,1.9h0.1c0.7-0.7,1.4-1.2,2.2-1.6c0.7-0.4,1.6-0.6,2.5-0.6c1.5,0,2.6,0.5,3.3,1.5
			c0.7,1,1.1,2.4,1.1,4.3v8.9h-4v-8.4c0-1.1-0.2-1.8-0.4-2.2c-0.3-0.4-0.8-0.6-1.5-0.6c-0.5,0-1,0.1-1.4,0.3s-0.9,0.6-1.5,1.2v9.8
			h-3.9V362.4z"/>
		<path class="st4" d="M708.9,382c-1.1-0.6-1.7-1.5-1.7-2.7s0.7-2.2,2.1-3v-0.1c-0.9-0.6-1.3-1.4-1.3-2.4c0-0.5,0.1-1,0.4-1.5
			s0.7-0.9,1.1-1.2V371c-0.6-0.4-1-0.9-1.4-1.6c-0.4-0.7-0.5-1.4-0.5-2.2c0-1.1,0.3-2,0.8-2.8c0.5-0.8,1.2-1.4,2.1-1.8
			c0.9-0.4,1.9-0.6,2.9-0.6c0.7,0,1.5,0.1,2.2,0.3h5.2v2.9h-2.4c0.2,0.2,0.3,0.5,0.4,0.9c0.1,0.4,0.2,0.8,0.2,1.1
			c0,1.6-0.5,2.8-1.6,3.6s-2.4,1.2-4,1.2c-0.6,0-1.2-0.1-1.8-0.3c-0.2,0.2-0.3,0.3-0.4,0.5c-0.1,0.2-0.1,0.4-0.1,0.7
			c0,0.4,0.2,0.6,0.5,0.8c0.3,0.2,0.9,0.3,1.7,0.3h2.4c1.8,0,3.1,0.3,4,0.9c0.9,0.6,1.4,1.5,1.4,2.8c0,1-0.3,1.8-1,2.6
			c-0.6,0.8-1.6,1.4-2.8,1.8c-1.2,0.4-2.6,0.7-4.2,0.7C711.4,382.9,710,382.6,708.9,382z M716.3,379.8c0.7-0.4,1-0.8,1-1.4
			c0-0.5-0.2-0.8-0.6-1c-0.4-0.2-0.9-0.3-1.7-0.3h-1.7c-0.9,0-1.5-0.1-2-0.2c-0.6,0.5-0.9,1-0.9,1.6c0,0.6,0.3,1,0.9,1.3
			c0.6,0.3,1.4,0.5,2.4,0.5C714.8,380.4,715.6,380.2,716.3,379.8z M715,369.1c0.4-0.4,0.6-1.1,0.6-1.9c0-0.8-0.2-1.4-0.6-1.8
			s-0.9-0.7-1.6-0.7c-0.6,0-1.2,0.2-1.5,0.7c-0.4,0.4-0.6,1-0.6,1.8s0.2,1.4,0.6,1.9c0.4,0.5,0.9,0.7,1.5,0.7
			C714.1,369.8,714.6,369.5,715,369.1z"/>
	</g>
	<path class="st4" d="M821.8,361.7c4.1,4.1,4.2,10.8,0,15l0,0l-5,5c-4.2,4.1-10.9,4-15-0.1c-4.1-4.1-4.1-10.7,0-14.9l3-3
		c0.7-0.7,2,0,2,1c0.2,1.4,0.5,2.7,1,4c0.1,0.4-0.7,0.7-1,1l-1,1c-1.9,1.9-2,5-0.1,6.9l0.1,0.1c1.8,1.9,4.9,2,6.8,0.2l0.2-0.2l5-5
		c1.9-1.9,2-5,0.1-6.9l-0.1-0.1c-0.3-0.3-0.8-0.9-1-1c-0.3-0.2,0,0.4,0,0c0-1.1,0.4-2.1,1-3l1-1c0.6-0.4,1.4-0.4,2,0
		C821.2,361,821.5,361.4,821.8,361.7z M831.8,351.7c-4.1-4.1-10.8-4.2-14.9-0.1l-0.1,0.1l-5,5c-4.1,4.1-4.2,10.8,0,15l0,0
		c0.4,0.4,1.5,0.6,2,1c0.5,0.3,0.6,0.4,1,0l2-1c0.6-0.6,0-2.3,0-3c0-0.4,0.3,0.2,0,0c-0.2-0.1-0.7-0.7-1-1c-1.9-1.9-2-5-0.1-6.9
		l0.1-0.1l5-5c1.8-1.9,4.9-2,6.8-0.2l0.2,0.2c1.9,1.9,2,5,0.1,6.9l-0.1,0.1l-1,1c-0.3,0.3-0.1,0.6,0,1c0.5,1.3,0.8,2.6,1,4
		c0,1,0.3,1.7,1,1l3-3C835.9,362.6,836,355.9,831.8,351.7L831.8,351.7z"/>
	<g>
		<path class="st4" d="M849.3,375.9h4.4v-14.5h-3.5v-1.4c1.6-0.3,2.9-0.7,4-1.4h1.7v17.3h4v1.8h-10.6V375.9z"/>
		<path class="st4" d="M862.5,376.4c2.3-2.3,4-4.1,5.2-5.5c1.2-1.4,2.2-2.6,2.9-3.8c0.7-1.2,1-2.2,1-3.3c0-1.2-0.3-2.1-1-2.8
			c-0.6-0.7-1.6-1.1-2.8-1.1c-0.8,0-1.5,0.2-2.2,0.6c-0.7,0.4-1.4,1-2,1.7l-1.3-1.3c0.8-0.9,1.7-1.6,2.6-2.1c0.9-0.5,2-0.8,3.1-0.8
			c1.7,0,3.1,0.5,4.1,1.5c1,1,1.5,2.4,1.5,4c0,1.2-0.3,2.4-1,3.6c-0.7,1.2-1.5,2.5-2.6,3.7c-1.1,1.2-2.6,2.9-4.5,4.9l0.7,0
			c1.1-0.1,2-0.1,2.5-0.1h5.8v1.9h-12.2V376.4z"/>
		<path class="st4" d="M876.9,375.4l1.1-1.4c0.7,0.7,1.4,1.3,2.2,1.7c0.8,0.4,1.7,0.6,2.8,0.6c1.2,0,2.2-0.3,3-1
			c0.8-0.7,1.1-1.6,1.1-2.7c0-2.6-2.1-4-6.3-4v-1.7c2,0,3.4-0.3,4.3-1c0.9-0.7,1.3-1.6,1.3-2.7c0-1-0.3-1.7-0.9-2.3
			c-0.6-0.6-1.5-0.9-2.5-0.9c-1.5,0-2.9,0.7-4.2,2l-1.2-1.4c1.7-1.6,3.5-2.4,5.4-2.4c1.7,0,3,0.4,4,1.3c1,0.9,1.6,2,1.6,3.5
			c0,1.1-0.3,2.1-0.9,2.8c-0.6,0.8-1.5,1.4-2.6,1.8v0.1c1.2,0.3,2.3,0.9,3,1.7c0.8,0.9,1.2,1.9,1.2,3.2c0,1.1-0.3,2.1-0.8,2.9
			c-0.5,0.8-1.3,1.5-2.2,1.9c-0.9,0.4-2,0.7-3.2,0.7C880.6,378.1,878.5,377.2,876.9,375.4z"/>
		<path class="st4" d="M904.7,372.3h-2.7v5.4H900v-5.4h-8.6v-1.4l8.4-12.3h2.3v12h2.7V372.3z M900,370.6v-5.9c0-0.8,0-2,0.1-3.6H900
			c-0.4,0.7-0.7,1.3-0.9,1.6l-0.6,1l-4.8,6.9H900z"/>
		<path class="st4" d="M909,377.4c-1-0.5-1.9-1.1-2.7-1.9l1.1-1.4c0.7,0.7,1.4,1.2,2.2,1.6c0.8,0.4,1.7,0.6,2.7,0.6
			c0.8,0,1.5-0.2,2.2-0.6c0.7-0.4,1.2-0.9,1.6-1.6c0.4-0.7,0.6-1.5,0.6-2.4c0-1.4-0.4-2.4-1.1-3.2c-0.8-0.8-1.8-1.2-3.1-1.2
			c-0.6,0-1.2,0.1-1.7,0.3c-0.5,0.2-1,0.5-1.7,0.9l-1.2-0.8l0.6-9.1h9.4v1.9h-7.5l-0.5,6c0.5-0.3,1-0.5,1.5-0.6
			c0.5-0.1,1-0.2,1.6-0.2c1.7,0,3.2,0.5,4.3,1.5c1.1,1,1.7,2.5,1.7,4.5c0,1.3-0.3,2.5-0.9,3.5c-0.6,1-1.4,1.7-2.3,2.2
			c-1,0.5-2,0.8-3.1,0.8C911.2,378.1,910,377.8,909,377.4z"/>
		<path class="st4" d="M932.4,367.6c1,1,1.4,2.5,1.4,4.4c0,1.2-0.3,2.2-0.8,3.1c-0.5,0.9-1.2,1.6-2,2.2c-0.9,0.5-1.8,0.8-2.8,0.8
			c-1.3,0-2.4-0.3-3.4-1c-1-0.7-1.7-1.7-2.3-3.1c-0.5-1.4-0.8-3-0.8-5c0-2.5,0.3-4.5,1-6.1c0.7-1.6,1.5-2.8,2.6-3.5
			c1.1-0.7,2.3-1.1,3.6-1.1c1.8,0,3.2,0.7,4.5,2l-1.2,1.4c-0.4-0.5-0.9-0.9-1.4-1.1s-1.1-0.4-1.8-0.4c-1.5,0-2.8,0.7-3.7,2
			s-1.5,3.5-1.5,6.5c0.6-0.8,1.3-1.4,2.2-1.8c0.8-0.4,1.6-0.7,2.4-0.7C930.2,366.1,931.5,366.6,932.4,367.6z M930.8,375.1
			c0.7-0.8,1-1.9,1-3.1c0-1.3-0.3-2.4-0.9-3.1c-0.6-0.8-1.5-1.1-2.8-1.1c-0.7,0-1.4,0.2-2.1,0.6c-0.7,0.4-1.4,1.1-2.1,2
			c0.2,1.9,0.6,3.4,1.4,4.4c0.7,1,1.8,1.5,3.1,1.5C929.3,376.3,930.2,375.9,930.8,375.1z"/>
		<path class="st4" d="M942,368.3c0.8-2.6,2.2-5.2,4.1-7.8h-9.7v-1.9h12.2v1.3c-1.5,1.9-2.6,3.8-3.4,5.5c-0.8,1.8-1.4,3.6-1.7,5.5
			s-0.6,4.2-0.7,6.8h-2.2C940.7,374,941.2,370.9,942,368.3z"/>
		<path class="st4" d="M954.1,377.4c-0.9-0.5-1.7-1.1-2.2-1.9c-0.5-0.8-0.8-1.7-0.8-2.7c0-1.2,0.3-2.2,1-3.1
			c0.7-0.9,1.6-1.6,2.6-2.2v-0.1c-1.8-1.3-2.7-2.7-2.7-4.4c0-1,0.2-1.8,0.7-2.5s1.1-1.3,1.9-1.7c0.8-0.4,1.7-0.6,2.7-0.6
			c1.6,0,2.9,0.5,3.9,1.4c1,0.9,1.5,2.2,1.5,3.7c0,0.9-0.3,1.8-0.8,2.6c-0.5,0.8-1.2,1.5-1.9,2.1v0.1c1,0.6,1.9,1.3,2.4,2
			c0.6,0.7,0.9,1.7,0.9,2.8c0,0.9-0.3,1.8-0.8,2.6c-0.5,0.8-1.2,1.4-2.1,1.8c-0.9,0.4-2,0.7-3.2,0.7
			C956.1,378.1,955.1,377.9,954.1,377.4z M960.2,375.5c0.7-0.6,1.1-1.5,1.1-2.5c0-0.8-0.2-1.5-0.7-2.1c-0.5-0.5-1-1-1.7-1.3
			c-0.7-0.3-1.7-0.8-2.9-1.3c-0.9,0.5-1.5,1.2-2.1,1.9c-0.5,0.7-0.8,1.6-0.8,2.4c0,1.1,0.4,2,1.2,2.7c0.8,0.7,1.8,1.1,3.1,1.1
			C958.5,376.4,959.5,376.1,960.2,375.5z M960.8,363.4c0-1-0.3-1.9-0.9-2.5c-0.6-0.7-1.5-1-2.5-1c-0.9,0-1.7,0.3-2.3,0.9
			c-0.6,0.6-0.9,1.4-0.9,2.3c0,1.1,0.4,1.9,1.2,2.5c0.8,0.6,1.9,1.2,3.4,1.8C960.1,366.1,960.8,364.8,960.8,363.4z"/>
		<path class="st4" d="M974.8,359.3c1,0.7,1.8,1.7,2.3,3.1c0.5,1.4,0.8,3,0.8,5c0,2.5-0.3,4.5-1,6.1s-1.5,2.8-2.6,3.5
			c-1.1,0.7-2.3,1.1-3.6,1.1c-1.8,0-3.3-0.7-4.5-2l1.2-1.4c0.4,0.5,0.9,0.9,1.4,1.1c0.5,0.3,1.1,0.4,1.7,0.4c1.5,0,2.8-0.7,3.7-2
			c1-1.3,1.5-3.5,1.5-6.5c-0.6,0.8-1.3,1.4-2.1,1.8c-0.8,0.4-1.6,0.7-2.4,0.7c-1.7,0-3-0.5-4-1.5c-1-1-1.4-2.5-1.4-4.4
			c0-1.2,0.2-2.2,0.8-3.1c0.5-0.9,1.2-1.7,2-2.2c0.9-0.5,1.8-0.8,2.8-0.8C972.7,358.2,973.8,358.6,974.8,359.3z M973.7,367.9
			c0.7-0.4,1.4-1.1,2.1-2c-0.1-1.9-0.6-3.4-1.3-4.4c-0.7-1-1.8-1.6-3.1-1.6c-1,0-1.8,0.4-2.5,1.2s-1,1.9-1,3.1
			c0,1.3,0.3,2.4,0.9,3.1c0.6,0.8,1.5,1.1,2.8,1.1C972.3,368.6,973,368.4,973.7,367.9z"/>
	</g>
	<path class="st4" d="M537.4,352.7h-20.3c-1.9,0-3.4,1.5-3.4,3.4v20.3c0,1.9,1.5,3.4,3.4,3.4h20.3c1.9,0,3.4-1.5,3.4-3.4v-20.3
		C540.8,354.2,539.3,352.7,537.4,352.7z M550.7,355.4l-7.7,5.3v11.1l7.7,5.3c1,0.7,2.4,0.5,3.1-0.6c0.3-0.4,0.4-0.8,0.4-1.3v-18.1
		c0-1.2-1-2.2-2.3-2.2C551.5,355,551.1,355.1,550.7,355.4z"/>
	<path class="st4" d="M1120.2,355.3l9,9l-19.5,19.5l-8,0.9c-0.9,0.1-1.8-0.6-1.9-1.5c0-0.1,0-0.2,0-0.4l0.9-8L1120.2,355.3z
		 M1134.8,353.9l-4.2-4.2c-1.3-1.3-3.5-1.3-4.8,0l-4,4l9,9l4-4C1136.1,357.4,1136.1,355.3,1134.8,353.9L1134.8,353.9z"/>
	<path class="st0" d="M514.8,435.7h622c21.5,0,39,17.5,39,39s-17.5,39-39,39h-622c-21.5,0-39-17.5-39-39S493.2,435.7,514.8,435.7z"
		/>
	<g>
		<path class="st4" d="M582.2,484.9c-1.3-0.8-2.3-1.9-3-3.4c-0.7-1.5-1.1-3.3-1.1-5.3c0-2,0.4-3.8,1.1-5.2c0.7-1.5,1.7-2.6,3-3.3
			c1.3-0.8,2.8-1.2,4.5-1.2c1.7,0,3.2,0.4,4.5,1.2c1.3,0.8,2.3,1.9,3,3.4s1.1,3.2,1.1,5.2s-0.4,3.8-1.1,5.3s-1.7,2.6-3,3.4
			c-1.3,0.8-2.8,1.2-4.5,1.2C585,486.1,583.5,485.7,582.2,484.9z M589.9,480.9c0.8-1.2,1.2-2.7,1.2-4.7c0-2-0.4-3.5-1.2-4.6
			c-0.8-1.1-1.9-1.7-3.2-1.7c-1.4,0-2.5,0.6-3.2,1.7s-1.2,2.7-1.2,4.6c0,2,0.4,3.5,1.2,4.7c0.8,1.2,1.9,1.7,3.2,1.7
			S589.1,482,589.9,480.9z"/>
		<path class="st4" d="M600.2,484.6c-0.8-1-1.2-2.3-1.2-4v-6.1h-2v-3l2.2-0.2l0.5-3.8h3.3v3.8h3.5v3.1H603v6.1
			c0,1.6,0.6,2.3,1.9,2.3c0.4,0,0.9-0.1,1.4-0.3l0.6,2.9c-1,0.3-2.1,0.5-3.1,0.5C602.2,486.1,601,485.6,600.2,484.6z"/>
		<path class="st4" d="M609.4,465.3h3.9v5.1l-0.2,2.7c0.7-0.6,1.4-1.1,2.1-1.5c0.7-0.4,1.5-0.6,2.4-0.6c1.5,0,2.6,0.5,3.3,1.5
			c0.7,1,1.1,2.4,1.1,4.3v8.9h-4v-8.4c0-1.1-0.2-1.8-0.4-2.2c-0.3-0.4-0.8-0.6-1.5-0.6c-0.5,0-1,0.1-1.4,0.3s-0.9,0.6-1.5,1.2v9.8
			h-3.9V465.3z"/>
		<path class="st4" d="M637.6,479.7h-8.9c0.2,1.1,0.7,2,1.4,2.5c0.7,0.5,1.6,0.8,2.6,0.8c1,0,2.1-0.3,3.2-1l1.3,2.4
			c-0.7,0.5-1.5,0.9-2.4,1.2c-0.9,0.3-1.8,0.4-2.6,0.4c-1.4,0-2.6-0.3-3.7-0.9c-1.1-0.6-2-1.5-2.6-2.6c-0.6-1.1-0.9-2.5-0.9-4
			c0-1.5,0.3-2.8,0.9-4c0.6-1.1,1.5-2,2.5-2.6c1-0.6,2.1-0.9,3.3-0.9c2,0,3.5,0.6,4.5,1.9c1,1.3,1.6,2.9,1.6,5
			C637.7,478.6,637.7,479.2,637.6,479.7z M634.3,477.1c0-0.9-0.2-1.7-0.6-2.2c-0.4-0.5-1.1-0.8-1.9-0.8c-0.7,0-1.3,0.2-1.9,0.7
			c-0.6,0.5-0.9,1.2-1.1,2.2H634.3z"/>
		<path class="st4" d="M640.8,471.4h3.2l0.3,2.5h0.1c0.5-0.9,1.1-1.6,1.8-2.1c0.7-0.5,1.5-0.7,2.2-0.7c0.7,0,1.2,0.1,1.7,0.3
			l-0.7,3.4c-0.1,0-0.2-0.1-0.5-0.1c-0.3-0.1-0.6-0.1-1-0.1c-0.6,0-1.2,0.2-1.8,0.7c-0.6,0.4-1.1,1.1-1.5,2.1v8.5h-3.9V471.4z"/>
		<path class="st4" d="M658.2,466.8h4.4l3.2,8.7c0.3,0.8,0.5,1.6,0.8,2.4l0.4,1.2h0.1l0.5-1.7c0.3-1,0.5-1.7,0.6-1.9l3.1-8.7h4.4
			v18.9h-3.6v-7.5c0-1.1,0.1-2.8,0.4-5.2l0.1-1.1h-0.1l-1.5,4.4L668,484h-2.3l-2.8-7.7l-1.5-4.4h-0.1l0.1,1.1
			c0.3,2.4,0.4,4.1,0.4,5.2v7.5h-3.6V466.8z"/>
		<path class="st4" d="M691.5,479.7h-8.9c0.2,1.1,0.7,2,1.4,2.5c0.7,0.5,1.6,0.8,2.6,0.8c1,0,2.1-0.3,3.2-1l1.3,2.4
			c-0.7,0.5-1.5,0.9-2.4,1.2c-0.9,0.3-1.8,0.4-2.6,0.4c-1.4,0-2.6-0.3-3.7-0.9c-1.1-0.6-2-1.5-2.6-2.6c-0.6-1.1-0.9-2.5-0.9-4
			c0-1.5,0.3-2.8,0.9-4c0.6-1.1,1.5-2,2.5-2.6c1-0.6,2.1-0.9,3.3-0.9c2,0,3.5,0.6,4.5,1.9c1,1.3,1.6,2.9,1.6,5
			C691.7,478.6,691.7,479.2,691.5,479.7z M688.3,477.1c0-0.9-0.2-1.7-0.6-2.2c-0.4-0.5-1.1-0.8-1.9-0.8c-0.7,0-1.3,0.2-1.9,0.7
			c-0.6,0.5-0.9,1.2-1.1,2.2H688.3z"/>
		<path class="st4" d="M706.4,479.7h-8.9c0.2,1.1,0.7,2,1.4,2.5c0.7,0.5,1.6,0.8,2.6,0.8c1,0,2.1-0.3,3.2-1l1.3,2.4
			c-0.7,0.5-1.5,0.9-2.4,1.2c-0.9,0.3-1.8,0.4-2.6,0.4c-1.4,0-2.6-0.3-3.7-0.9c-1.1-0.6-2-1.5-2.6-2.6c-0.6-1.1-0.9-2.5-0.9-4
			c0-1.5,0.3-2.8,0.9-4c0.6-1.1,1.5-2,2.5-2.6c1-0.6,2.1-0.9,3.3-0.9c2,0,3.5,0.6,4.5,1.9c1,1.3,1.6,2.9,1.6,5
			C706.6,478.6,706.6,479.2,706.4,479.7z M703.2,477.1c0-0.9-0.2-1.7-0.6-2.2c-0.4-0.5-1.1-0.8-1.9-0.8c-0.7,0-1.3,0.2-1.9,0.7
			c-0.6,0.5-0.9,1.2-1.1,2.2H703.2z"/>
		<path class="st4" d="M711.1,484.6c-0.8-1-1.2-2.3-1.2-4v-6.1h-2v-3l2.2-0.2l0.5-3.8h3.3v3.8h3.5v3.1h-3.5v6.1
			c0,1.6,0.6,2.3,1.9,2.3c0.4,0,0.9-0.1,1.4-0.3l0.6,2.9c-1,0.3-2.1,0.5-3.1,0.5C713,486.1,711.8,485.6,711.1,484.6z"/>
		<path class="st4" d="M720.6,468.5c-0.4-0.4-0.6-0.9-0.6-1.5c0-0.6,0.2-1.1,0.6-1.5c0.4-0.4,1-0.6,1.6-0.6c0.7,0,1.2,0.2,1.6,0.6
			c0.4,0.4,0.6,0.9,0.6,1.5c0,0.6-0.2,1.1-0.6,1.5c-0.4,0.4-1,0.6-1.6,0.6C721.6,469.1,721,468.9,720.6,468.5z M720.2,471.4h3.9
			v14.4h-3.9V471.4z"/>
		<path class="st4" d="M728.1,471.4h3.2l0.3,1.9h0.1c0.7-0.7,1.4-1.2,2.2-1.6c0.7-0.4,1.6-0.6,2.5-0.6c1.5,0,2.6,0.5,3.3,1.5
			c0.7,1,1.1,2.4,1.1,4.3v8.9h-4v-8.4c0-1.1-0.2-1.8-0.4-2.2c-0.3-0.4-0.8-0.6-1.5-0.6c-0.5,0-1,0.1-1.4,0.3s-0.9,0.6-1.5,1.2v9.8
			h-3.9V471.4z"/>
		<path class="st4" d="M745.3,491c-1.1-0.6-1.7-1.5-1.7-2.7s0.7-2.2,2.1-3v-0.1c-0.9-0.6-1.3-1.4-1.3-2.4c0-0.5,0.1-1,0.4-1.5
			s0.7-0.9,1.1-1.2V480c-0.6-0.4-1-0.9-1.4-1.6c-0.4-0.7-0.5-1.4-0.5-2.2c0-1.1,0.3-2,0.8-2.8c0.5-0.8,1.2-1.4,2.1-1.8
			c0.9-0.4,1.9-0.6,2.9-0.6c0.7,0,1.5,0.1,2.2,0.3h5.2v2.9h-2.4c0.2,0.2,0.3,0.5,0.4,0.9c0.1,0.4,0.2,0.8,0.2,1.1
			c0,1.6-0.5,2.8-1.6,3.6s-2.4,1.2-4,1.2c-0.6,0-1.2-0.1-1.8-0.3c-0.2,0.2-0.3,0.3-0.4,0.5c-0.1,0.2-0.1,0.4-0.1,0.7
			c0,0.4,0.2,0.6,0.5,0.8c0.3,0.2,0.9,0.3,1.7,0.3h2.4c1.8,0,3.1,0.3,4,0.9c0.9,0.6,1.4,1.5,1.4,2.8c0,1-0.3,1.8-1,2.6
			c-0.6,0.8-1.6,1.4-2.8,1.8c-1.2,0.4-2.6,0.7-4.2,0.7C747.9,491.9,746.5,491.6,745.3,491z M752.8,488.8c0.7-0.4,1-0.8,1-1.4
			c0-0.5-0.2-0.8-0.6-1c-0.4-0.2-0.9-0.3-1.7-0.3h-1.7c-0.9,0-1.5-0.1-2-0.2c-0.6,0.5-0.9,1-0.9,1.6c0,0.6,0.3,1,0.9,1.3
			c0.6,0.3,1.4,0.5,2.4,0.5C751.3,489.4,752.1,489.2,752.8,488.8z M751.5,478.1c0.4-0.4,0.6-1.1,0.6-1.9c0-0.8-0.2-1.4-0.6-1.8
			s-0.9-0.7-1.6-0.7c-0.6,0-1.2,0.2-1.5,0.7c-0.4,0.4-0.6,1-0.6,1.8s0.2,1.4,0.6,1.9c0.4,0.5,0.9,0.7,1.5,0.7
			C750.6,478.8,751.1,478.5,751.5,478.1z"/>
	</g>
	<path class="st4" d="M821.8,470.7c4.1,4.1,4.2,10.8,0,15l0,0l-5,5c-4.2,4.1-10.9,4-15-0.1c-4.1-4.1-4.1-10.7,0-14.9l3-3
		c0.7-0.7,2,0,2,1c0.2,1.4,0.5,2.7,1,4c0.1,0.4-0.7,0.7-1,1l-1,1c-1.9,1.9-2,5-0.1,6.9l0.1,0.1c1.8,1.9,4.9,2,6.8,0.2l0.2-0.2l5-5
		c1.9-1.9,2-5,0.1-6.9l-0.1-0.1c-0.3-0.3-0.8-0.9-1-1c-0.3-0.2,0,0.4,0,0c0-1.1,0.4-2.1,1-3l1-1c0.6-0.4,1.4-0.4,2,0
		C821.2,470,821.5,470.4,821.8,470.7z M831.8,460.7c-4.1-4.1-10.8-4.2-14.9-0.1l-0.1,0.1l-5,5c-4.1,4.1-4.2,10.8,0,15l0,0
		c0.4,0.4,1.5,0.6,2,1c0.5,0.3,0.6,0.4,1,0l2-1c0.6-0.6,0-2.3,0-3c0-0.4,0.3,0.2,0,0c-0.2-0.1-0.7-0.7-1-1c-1.9-1.9-2-5-0.1-6.9
		l0.1-0.1l5-5c1.8-1.9,4.9-2,6.8-0.2l0.2,0.2c1.9,1.9,2,5,0.1,6.9l-0.1,0.1l-1,1c-0.3,0.3-0.1,0.6,0,1c0.5,1.3,0.8,2.6,1,4
		c0,1,0.3,1.7,1,1l3-3C835.9,471.6,836,464.9,831.8,460.7L831.8,460.7z"/>
	<g>
		<path class="st4" d="M849.3,484.9h4.4v-14.5h-3.5v-1.4c1.6-0.3,2.9-0.7,4-1.4h1.7v17.3h4v1.8h-10.6V484.9z"/>
		<path class="st4" d="M862.5,485.4c2.3-2.3,4-4.1,5.2-5.5c1.2-1.4,2.2-2.6,2.9-3.8c0.7-1.2,1-2.2,1-3.3c0-1.2-0.3-2.1-1-2.8
			c-0.6-0.7-1.6-1.1-2.8-1.1c-0.8,0-1.5,0.2-2.2,0.6c-0.7,0.4-1.4,1-2,1.7l-1.3-1.3c0.8-0.9,1.7-1.6,2.6-2.1c0.9-0.5,2-0.8,3.1-0.8
			c1.7,0,3.1,0.5,4.1,1.5c1,1,1.5,2.4,1.5,4c0,1.2-0.3,2.4-1,3.6c-0.7,1.2-1.5,2.5-2.6,3.7c-1.1,1.2-2.6,2.9-4.5,4.9l0.7,0
			c1.1-0.1,2-0.1,2.5-0.1h5.8v1.9h-12.2V485.4z"/>
		<path class="st4" d="M876.9,484.4l1.1-1.4c0.7,0.7,1.4,1.3,2.2,1.7c0.8,0.4,1.7,0.6,2.8,0.6c1.2,0,2.2-0.3,3-1
			c0.8-0.7,1.1-1.6,1.1-2.7c0-2.6-2.1-4-6.3-4v-1.7c2,0,3.4-0.3,4.3-1c0.9-0.7,1.3-1.6,1.3-2.7c0-1-0.3-1.7-0.9-2.3
			c-0.6-0.6-1.5-0.9-2.5-0.9c-1.5,0-2.9,0.7-4.2,2l-1.2-1.4c1.7-1.6,3.5-2.4,5.4-2.4c1.7,0,3,0.4,4,1.3c1,0.9,1.6,2,1.6,3.5
			c0,1.1-0.3,2.1-0.9,2.8c-0.6,0.8-1.5,1.4-2.6,1.8v0.1c1.2,0.3,2.3,0.9,3,1.7c0.8,0.9,1.2,1.9,1.2,3.2c0,1.1-0.3,2.1-0.8,2.9
			c-0.5,0.8-1.3,1.5-2.2,1.9c-0.9,0.4-2,0.7-3.2,0.7C880.6,487.1,878.5,486.2,876.9,484.4z"/>
		<path class="st4" d="M904.7,481.3h-2.7v5.4H900v-5.4h-8.6v-1.4l8.4-12.3h2.3v12h2.7V481.3z M900,479.6v-5.9c0-0.8,0-2,0.1-3.6H900
			c-0.4,0.7-0.7,1.3-0.9,1.6l-0.6,1l-4.8,6.9H900z"/>
		<path class="st4" d="M909,486.4c-1-0.5-1.9-1.1-2.7-1.9l1.1-1.4c0.7,0.7,1.4,1.2,2.2,1.6c0.8,0.4,1.7,0.6,2.7,0.6
			c0.8,0,1.5-0.2,2.2-0.6c0.7-0.4,1.2-0.9,1.6-1.6c0.4-0.7,0.6-1.5,0.6-2.4c0-1.4-0.4-2.4-1.1-3.2c-0.8-0.8-1.8-1.2-3.1-1.2
			c-0.6,0-1.2,0.1-1.7,0.3c-0.5,0.2-1,0.5-1.7,0.9l-1.2-0.8l0.6-9.1h9.4v1.9h-7.5l-0.5,6c0.5-0.3,1-0.5,1.5-0.6
			c0.5-0.1,1-0.2,1.6-0.2c1.7,0,3.2,0.5,4.3,1.5c1.1,1,1.7,2.5,1.7,4.5c0,1.3-0.3,2.5-0.9,3.5c-0.6,1-1.4,1.7-2.3,2.2
			c-1,0.5-2,0.8-3.1,0.8C911.2,487.1,910,486.8,909,486.4z"/>
		<path class="st4" d="M932.4,476.6c1,1,1.4,2.5,1.4,4.4c0,1.2-0.3,2.2-0.8,3.1c-0.5,0.9-1.2,1.6-2,2.2c-0.9,0.5-1.8,0.8-2.8,0.8
			c-1.3,0-2.4-0.3-3.4-1c-1-0.7-1.7-1.7-2.3-3.1c-0.5-1.4-0.8-3-0.8-5c0-2.5,0.3-4.5,1-6.1c0.7-1.6,1.5-2.8,2.6-3.5
			c1.1-0.7,2.3-1.1,3.6-1.1c1.8,0,3.2,0.7,4.5,2l-1.2,1.4c-0.4-0.5-0.9-0.9-1.4-1.1s-1.1-0.4-1.8-0.4c-1.5,0-2.8,0.7-3.7,2
			s-1.5,3.5-1.5,6.5c0.6-0.8,1.3-1.4,2.2-1.8c0.8-0.4,1.6-0.7,2.4-0.7C930.2,475.1,931.5,475.6,932.4,476.6z M930.8,484.1
			c0.7-0.8,1-1.9,1-3.1c0-1.3-0.3-2.4-0.9-3.1c-0.6-0.8-1.5-1.1-2.8-1.1c-0.7,0-1.4,0.2-2.1,0.6c-0.7,0.4-1.4,1.1-2.1,2
			c0.2,1.9,0.6,3.4,1.4,4.4c0.7,1,1.8,1.5,3.1,1.5C929.3,485.3,930.2,484.9,930.8,484.1z"/>
		<path class="st4" d="M942,477.3c0.8-2.6,2.2-5.2,4.1-7.8h-9.7v-1.9h12.2v1.3c-1.5,1.9-2.6,3.8-3.4,5.5c-0.8,1.8-1.4,3.6-1.7,5.5
			s-0.6,4.2-0.7,6.8h-2.2C940.7,483,941.2,479.9,942,477.3z"/>
		<path class="st4" d="M954.1,486.4c-0.9-0.5-1.7-1.1-2.2-1.9c-0.5-0.8-0.8-1.7-0.8-2.7c0-1.2,0.3-2.2,1-3.1
			c0.7-0.9,1.6-1.6,2.6-2.2v-0.1c-1.8-1.3-2.7-2.7-2.7-4.4c0-1,0.2-1.8,0.7-2.5s1.1-1.3,1.9-1.7c0.8-0.4,1.7-0.6,2.7-0.6
			c1.6,0,2.9,0.5,3.9,1.4c1,0.9,1.5,2.2,1.5,3.7c0,0.9-0.3,1.8-0.8,2.6c-0.5,0.8-1.2,1.5-1.9,2.1v0.1c1,0.6,1.9,1.3,2.4,2
			c0.6,0.7,0.9,1.7,0.9,2.8c0,0.9-0.3,1.8-0.8,2.6c-0.5,0.8-1.2,1.4-2.1,1.8c-0.9,0.4-2,0.7-3.2,0.7
			C956.1,487.1,955.1,486.9,954.1,486.4z M960.2,484.5c0.7-0.6,1.1-1.5,1.1-2.5c0-0.8-0.2-1.5-0.7-2.1c-0.5-0.5-1-1-1.7-1.3
			c-0.7-0.3-1.7-0.8-2.9-1.3c-0.9,0.5-1.5,1.2-2.1,1.9c-0.5,0.7-0.8,1.6-0.8,2.4c0,1.1,0.4,2,1.2,2.7c0.8,0.7,1.8,1.1,3.1,1.1
			C958.5,485.4,959.5,485.1,960.2,484.5z M960.8,472.4c0-1-0.3-1.9-0.9-2.5c-0.6-0.7-1.5-1-2.5-1c-0.9,0-1.7,0.3-2.3,0.9
			c-0.6,0.6-0.9,1.4-0.9,2.3c0,1.1,0.4,1.9,1.2,2.5c0.8,0.6,1.9,1.2,3.4,1.8C960.1,475.1,960.8,473.8,960.8,472.4z"/>
		<path class="st4" d="M974.8,468.3c1,0.7,1.8,1.7,2.3,3.1c0.5,1.4,0.8,3,0.8,5c0,2.5-0.3,4.5-1,6.1s-1.5,2.8-2.6,3.5
			c-1.1,0.7-2.3,1.1-3.6,1.1c-1.8,0-3.3-0.7-4.5-2l1.2-1.4c0.4,0.5,0.9,0.9,1.4,1.1c0.5,0.3,1.1,0.4,1.7,0.4c1.5,0,2.8-0.7,3.7-2
			c1-1.3,1.5-3.5,1.5-6.5c-0.6,0.8-1.3,1.4-2.1,1.8c-0.8,0.4-1.6,0.7-2.4,0.7c-1.7,0-3-0.5-4-1.5c-1-1-1.4-2.5-1.4-4.4
			c0-1.2,0.2-2.2,0.8-3.1c0.5-0.9,1.2-1.7,2-2.2c0.9-0.5,1.8-0.8,2.8-0.8C972.7,467.2,973.8,467.6,974.8,468.3z M973.7,476.9
			c0.7-0.4,1.4-1.1,2.1-2c-0.1-1.9-0.6-3.4-1.3-4.4c-0.7-1-1.8-1.6-3.1-1.6c-1,0-1.8,0.4-2.5,1.2s-1,1.9-1,3.1
			c0,1.3,0.3,2.4,0.9,3.1c0.6,0.8,1.5,1.1,2.8,1.1C972.3,477.6,973,477.4,973.7,476.9z"/>
	</g>
	<path class="st4" d="M537.4,461.7h-20.3c-1.9,0-3.4,1.5-3.4,3.4v20.3c0,1.9,1.5,3.4,3.4,3.4h20.3c1.9,0,3.4-1.5,3.4-3.4v-20.3
		C540.8,463.2,539.3,461.7,537.4,461.7z M550.7,464.4l-7.7,5.3v11.1l7.7,5.3c1,0.7,2.4,0.5,3.1-0.6c0.3-0.4,0.4-0.8,0.4-1.3v-18.1
		c0-1.2-1-2.2-2.3-2.2C551.5,464,551.1,464.1,550.7,464.4z"/>
	<path class="st4" d="M1120.2,464.3l9,9l-19.5,19.5l-8,0.9c-0.9,0.1-1.8-0.6-1.9-1.5c0-0.1,0-0.2,0-0.4l0.9-8L1120.2,464.3z
		 M1134.8,462.9l-4.2-4.2c-1.3-1.3-3.5-1.3-4.8,0l-4,4l9,9l4-4C1136.1,466.4,1136.1,464.3,1134.8,462.9L1134.8,462.9z"/>
	<path class="st0" d="M514.8,544.7h622c21.5,0,39,17.5,39,39s-17.5,39-39,39h-622c-21.5,0-39-17.5-39-39S493.2,544.7,514.8,544.7z"
		/>
	<g>
		<path class="st4" d="M587.9,590H582l-1.3,4.7h-4.1l6-18.9h4.7l6,18.9h-4.2L587.9,590z M587.1,586.9l-0.5-1.9c-0.2-0.9-0.6-2.2-1-4
			l-0.6-2.1h-0.1c-0.6,2.5-1.1,4.5-1.5,6.1l-0.5,1.9H587.1z"/>
		<path class="st4" d="M595.2,580.4h3.2l0.3,1.9h0.1c0.7-0.7,1.4-1.2,2.2-1.6c0.7-0.4,1.6-0.6,2.5-0.6c1.5,0,2.6,0.5,3.3,1.5
			c0.7,1,1.1,2.4,1.1,4.3v8.9h-4v-8.4c0-1.1-0.2-1.8-0.4-2.2c-0.3-0.4-0.8-0.6-1.5-0.6c-0.5,0-1,0.1-1.4,0.3s-0.9,0.6-1.5,1.2v9.8
			h-3.9V580.4z"/>
		<path class="st4" d="M614.3,594.2c-1.1-0.6-1.9-1.5-2.5-2.6c-0.6-1.1-1-2.5-1-4c0-1.5,0.3-2.9,1-4c0.6-1.1,1.5-2,2.5-2.6
			c1.1-0.6,2.2-0.9,3.4-0.9c1.2,0,2.4,0.3,3.4,0.9c1.1,0.6,1.9,1.5,2.6,2.6c0.6,1.2,1,2.5,1,4c0,1.5-0.3,2.9-1,4
			c-0.6,1.1-1.5,2-2.6,2.6c-1.1,0.6-2.2,0.9-3.4,0.9C616.5,595.1,615.4,594.8,614.3,594.2z M619.9,590.7c0.5-0.8,0.8-1.8,0.8-3.1
			s-0.3-2.4-0.8-3.2c-0.5-0.8-1.2-1.2-2.1-1.2c-0.9,0-1.6,0.4-2.1,1.2c-0.5,0.8-0.7,1.8-0.7,3.2s0.2,2.4,0.7,3.1
			c0.5,0.8,1.2,1.1,2.1,1.1C618.7,591.9,619.4,591.5,619.9,590.7z"/>
		<path class="st4" d="M628.7,593.6c-0.8-1-1.2-2.3-1.2-4v-6.1h-2v-3l2.2-0.2l0.5-3.8h3.3v3.8h3.5v3.1h-3.5v6.1
			c0,1.6,0.6,2.3,1.9,2.3c0.4,0,0.9-0.1,1.4-0.3l0.6,2.9c-1,0.3-2.1,0.5-3.1,0.5C630.7,595.1,629.5,594.6,628.7,593.6z"/>
		<path class="st4" d="M637.9,574.3h3.9v5.1l-0.2,2.7c0.7-0.6,1.4-1.1,2.1-1.5c0.7-0.4,1.5-0.6,2.4-0.6c1.5,0,2.6,0.5,3.3,1.5
			c0.7,1,1.1,2.4,1.1,4.3v8.9h-4v-8.4c0-1.1-0.2-1.8-0.4-2.2c-0.3-0.4-0.8-0.6-1.5-0.6c-0.5,0-1,0.1-1.4,0.3s-0.9,0.6-1.5,1.2v9.8
			h-3.9V574.3z"/>
		<path class="st4" d="M666.1,588.7h-8.9c0.2,1.1,0.7,2,1.4,2.5c0.7,0.5,1.6,0.8,2.6,0.8c1,0,2.1-0.3,3.2-1l1.3,2.4
			c-0.7,0.5-1.5,0.9-2.4,1.2c-0.9,0.3-1.8,0.4-2.6,0.4c-1.4,0-2.6-0.3-3.7-0.9c-1.1-0.6-2-1.5-2.6-2.6c-0.6-1.1-0.9-2.5-0.9-4
			c0-1.5,0.3-2.8,0.9-4c0.6-1.1,1.5-2,2.5-2.6c1-0.6,2.1-0.9,3.3-0.9c2,0,3.5,0.6,4.5,1.9c1,1.3,1.6,2.9,1.6,5
			C666.2,587.6,666.2,588.2,666.1,588.7z M662.9,586.1c0-0.9-0.2-1.7-0.6-2.2c-0.4-0.5-1.1-0.8-1.9-0.8c-0.7,0-1.3,0.2-1.9,0.7
			c-0.6,0.5-0.9,1.2-1.1,2.2H662.9z"/>
		<path class="st4" d="M669.3,580.4h3.2l0.3,2.5h0.1c0.5-0.9,1.1-1.6,1.8-2.1c0.7-0.5,1.5-0.7,2.2-0.7c0.7,0,1.2,0.1,1.7,0.3
			l-0.7,3.4c-0.1,0-0.2-0.1-0.5-0.1c-0.3-0.1-0.6-0.1-1-0.1c-0.6,0-1.2,0.2-1.8,0.7c-0.6,0.4-1.1,1.1-1.5,2.1v8.5h-3.9V580.4z"/>
		<path class="st4" d="M686.7,575.8h4.4l3.2,8.7c0.3,0.8,0.5,1.6,0.8,2.4l0.4,1.2h0.1l0.5-1.7c0.3-1,0.5-1.7,0.6-1.9l3.1-8.7h4.4
			v18.9h-3.6v-7.5c0-1.1,0.1-2.8,0.4-5.2l0.1-1.1h-0.1l-1.5,4.4l-2.8,7.7h-2.3l-2.8-7.7l-1.5-4.4h-0.1l0.1,1.1
			c0.3,2.4,0.4,4.1,0.4,5.2v7.5h-3.6V575.8z"/>
		<path class="st4" d="M720,588.7h-8.9c0.2,1.1,0.7,2,1.4,2.5c0.7,0.5,1.6,0.8,2.6,0.8c1,0,2.1-0.3,3.2-1l1.3,2.4
			c-0.7,0.5-1.5,0.9-2.4,1.2c-0.9,0.3-1.8,0.4-2.6,0.4c-1.4,0-2.6-0.3-3.7-0.9c-1.1-0.6-2-1.5-2.6-2.6c-0.6-1.1-0.9-2.5-0.9-4
			c0-1.5,0.3-2.8,0.9-4c0.6-1.1,1.5-2,2.5-2.6c1-0.6,2.1-0.9,3.3-0.9c2,0,3.5,0.6,4.5,1.9c1,1.3,1.6,2.9,1.6,5
			C720.2,587.6,720.2,588.2,720,588.7z M716.8,586.1c0-0.9-0.2-1.7-0.6-2.2c-0.4-0.5-1.1-0.8-1.9-0.8c-0.7,0-1.3,0.2-1.9,0.7
			c-0.6,0.5-0.9,1.2-1.1,2.2H716.8z"/>
		<path class="st4" d="M734.9,588.7h-8.9c0.2,1.1,0.7,2,1.4,2.5c0.7,0.5,1.6,0.8,2.6,0.8c1,0,2.1-0.3,3.2-1l1.3,2.4
			c-0.7,0.5-1.5,0.9-2.4,1.2c-0.9,0.3-1.8,0.4-2.6,0.4c-1.4,0-2.6-0.3-3.7-0.9c-1.1-0.6-2-1.5-2.6-2.6c-0.6-1.1-0.9-2.5-0.9-4
			c0-1.5,0.3-2.8,0.9-4c0.6-1.1,1.5-2,2.5-2.6c1-0.6,2.1-0.9,3.3-0.9c2,0,3.5,0.6,4.5,1.9c1,1.3,1.6,2.9,1.6,5
			C735.1,587.6,735.1,588.2,734.9,588.7z M731.7,586.1c0-0.9-0.2-1.7-0.6-2.2c-0.4-0.5-1.1-0.8-1.9-0.8c-0.7,0-1.3,0.2-1.9,0.7
			c-0.6,0.5-0.9,1.2-1.1,2.2H731.7z"/>
		<path class="st4" d="M739.6,593.6c-0.8-1-1.2-2.3-1.2-4v-6.1h-2v-3l2.2-0.2l0.5-3.8h3.3v3.8h3.5v3.1h-3.5v6.1
			c0,1.6,0.6,2.3,1.9,2.3c0.4,0,0.9-0.1,1.4-0.3l0.6,2.9c-1,0.3-2.1,0.5-3.1,0.5C741.5,595.1,740.3,594.6,739.6,593.6z"/>
		<path class="st4" d="M749.1,577.5c-0.4-0.4-0.6-0.9-0.6-1.5c0-0.6,0.2-1.1,0.6-1.5c0.4-0.4,1-0.6,1.6-0.6c0.7,0,1.2,0.2,1.6,0.6
			c0.4,0.4,0.6,0.9,0.6,1.5c0,0.6-0.2,1.1-0.6,1.5c-0.4,0.4-1,0.6-1.6,0.6C750.1,578.1,749.5,577.9,749.1,577.5z M748.8,580.4h3.9
			v14.4h-3.9V580.4z"/>
		<path class="st4" d="M756.6,580.4h3.2l0.3,1.9h0.1c0.7-0.7,1.4-1.2,2.2-1.6c0.7-0.4,1.6-0.6,2.5-0.6c1.5,0,2.6,0.5,3.3,1.5
			c0.7,1,1.1,2.4,1.1,4.3v8.9h-4v-8.4c0-1.1-0.2-1.8-0.4-2.2c-0.3-0.4-0.8-0.6-1.5-0.6c-0.5,0-1,0.1-1.4,0.3s-0.9,0.6-1.5,1.2v9.8
			h-3.9V580.4z"/>
		<path class="st4" d="M773.9,600c-1.1-0.6-1.7-1.5-1.7-2.7s0.7-2.2,2.1-3v-0.1c-0.9-0.6-1.3-1.4-1.3-2.4c0-0.5,0.1-1,0.4-1.5
			s0.7-0.9,1.1-1.2V589c-0.6-0.4-1-0.9-1.4-1.6c-0.4-0.7-0.5-1.4-0.5-2.2c0-1.1,0.3-2,0.8-2.8c0.5-0.8,1.2-1.4,2.1-1.8
			c0.9-0.4,1.9-0.6,2.9-0.6c0.7,0,1.5,0.1,2.2,0.3h5.2v2.9h-2.4c0.2,0.2,0.3,0.5,0.4,0.9c0.1,0.4,0.2,0.8,0.2,1.1
			c0,1.6-0.5,2.8-1.6,3.6s-2.4,1.2-4,1.2c-0.6,0-1.2-0.1-1.8-0.3c-0.2,0.2-0.3,0.3-0.4,0.5c-0.1,0.2-0.1,0.4-0.1,0.7
			c0,0.4,0.2,0.6,0.5,0.8c0.3,0.2,0.9,0.3,1.7,0.3h2.4c1.8,0,3.1,0.3,4,0.9c0.9,0.6,1.4,1.5,1.4,2.8c0,1-0.3,1.8-1,2.6
			c-0.6,0.8-1.6,1.4-2.8,1.8c-1.2,0.4-2.6,0.7-4.2,0.7C776.4,600.9,775,600.6,773.9,600z M781.3,597.8c0.7-0.4,1-0.8,1-1.4
			c0-0.5-0.2-0.8-0.6-1c-0.4-0.2-0.9-0.3-1.7-0.3h-1.7c-0.9,0-1.5-0.1-2-0.2c-0.6,0.5-0.9,1-0.9,1.6c0,0.6,0.3,1,0.9,1.3
			c0.6,0.3,1.4,0.5,2.4,0.5C779.8,598.4,780.6,598.2,781.3,597.8z M780,587.1c0.4-0.4,0.6-1.1,0.6-1.9c0-0.8-0.2-1.4-0.6-1.8
			s-0.9-0.7-1.6-0.7c-0.6,0-1.2,0.2-1.5,0.7c-0.4,0.4-0.6,1-0.6,1.8s0.2,1.4,0.6,1.9c0.4,0.5,0.9,0.7,1.5,0.7
			C779.1,587.8,779.6,587.5,780,587.1z"/>
	</g>
	<path class="st4" d="M821.8,579.7c4.1,4.1,4.2,10.8,0,15l0,0l-5,5c-4.2,4.1-10.9,4-15-0.1c-4.1-4.1-4.1-10.7,0-14.9l3-3
		c0.7-0.7,2,0,2,1c0.2,1.4,0.5,2.7,1,4c0.1,0.4-0.7,0.7-1,1l-1,1c-1.9,1.9-2,5-0.1,6.9l0.1,0.1c1.8,1.9,4.9,2,6.8,0.2l0.2-0.2l5-5
		c1.9-1.9,2-5,0.1-6.9l-0.1-0.1c-0.3-0.3-0.8-0.9-1-1c-0.3-0.2,0,0.4,0,0c0-1.1,0.4-2.1,1-3l1-1c0.6-0.4,1.4-0.4,2,0
		C821.2,579,821.5,579.4,821.8,579.7z M831.8,569.7c-4.1-4.1-10.8-4.2-14.9-0.1l-0.1,0.1l-5,5c-4.1,4.1-4.2,10.8,0,15l0,0
		c0.4,0.4,1.5,0.6,2,1c0.5,0.3,0.6,0.4,1,0l2-1c0.6-0.6,0-2.3,0-3c0-0.4,0.3,0.2,0,0c-0.2-0.1-0.7-0.7-1-1c-1.9-1.9-2-5-0.1-6.9
		l0.1-0.1l5-5c1.8-1.9,4.9-2,6.8-0.2l0.2,0.2c1.9,1.9,2,5,0.1,6.9l-0.1,0.1l-1,1c-0.3,0.3-0.1,0.6,0,1c0.5,1.3,0.8,2.6,1,4
		c0,1,0.3,1.7,1,1l3-3C835.9,580.6,836,573.9,831.8,569.7L831.8,569.7z"/>
	<g>
		<path class="st4" d="M849.3,593.9h4.4v-14.5h-3.5v-1.4c1.6-0.3,2.9-0.7,4-1.4h1.7v17.3h4v1.8h-10.6V593.9z"/>
		<path class="st4" d="M862.5,594.4c2.3-2.3,4-4.1,5.2-5.5c1.2-1.4,2.2-2.6,2.9-3.8c0.7-1.2,1-2.2,1-3.3c0-1.2-0.3-2.1-1-2.8
			c-0.6-0.7-1.6-1.1-2.8-1.1c-0.8,0-1.5,0.2-2.2,0.6c-0.7,0.4-1.4,1-2,1.7l-1.3-1.3c0.8-0.9,1.7-1.6,2.6-2.1c0.9-0.5,2-0.8,3.1-0.8
			c1.7,0,3.1,0.5,4.1,1.5c1,1,1.5,2.4,1.5,4c0,1.2-0.3,2.4-1,3.6c-0.7,1.2-1.5,2.5-2.6,3.7c-1.1,1.2-2.6,2.9-4.5,4.9l0.7,0
			c1.1-0.1,2-0.1,2.5-0.1h5.8v1.9h-12.2V594.4z"/>
		<path class="st4" d="M876.9,593.4l1.1-1.4c0.7,0.7,1.4,1.3,2.2,1.7c0.8,0.4,1.7,0.6,2.8,0.6c1.2,0,2.2-0.3,3-1
			c0.8-0.7,1.1-1.6,1.1-2.7c0-2.6-2.1-4-6.3-4v-1.7c2,0,3.4-0.3,4.3-1c0.9-0.7,1.3-1.6,1.3-2.7c0-1-0.3-1.7-0.9-2.3
			c-0.6-0.6-1.5-0.9-2.5-0.9c-1.5,0-2.9,0.7-4.2,2l-1.2-1.4c1.7-1.6,3.5-2.4,5.4-2.4c1.7,0,3,0.4,4,1.3c1,0.9,1.6,2,1.6,3.5
			c0,1.1-0.3,2.1-0.9,2.8c-0.6,0.8-1.5,1.4-2.6,1.8v0.1c1.2,0.3,2.3,0.9,3,1.7c0.8,0.9,1.2,1.9,1.2,3.2c0,1.1-0.3,2.1-0.8,2.9
			c-0.5,0.8-1.3,1.5-2.2,1.9c-0.9,0.4-2,0.7-3.2,0.7C880.6,596.1,878.5,595.2,876.9,593.4z"/>
		<path class="st4" d="M904.7,590.3h-2.7v5.4H900v-5.4h-8.6v-1.4l8.4-12.3h2.3v12h2.7V590.3z M900,588.6v-5.9c0-0.8,0-2,0.1-3.6H900
			c-0.4,0.7-0.7,1.3-0.9,1.6l-0.6,1l-4.8,6.9H900z"/>
		<path class="st4" d="M909,595.4c-1-0.5-1.9-1.1-2.7-1.9l1.1-1.4c0.7,0.7,1.4,1.2,2.2,1.6c0.8,0.4,1.7,0.6,2.7,0.6
			c0.8,0,1.5-0.2,2.2-0.6c0.7-0.4,1.2-0.9,1.6-1.6c0.4-0.7,0.6-1.5,0.6-2.4c0-1.4-0.4-2.4-1.1-3.2c-0.8-0.8-1.8-1.2-3.1-1.2
			c-0.6,0-1.2,0.1-1.7,0.3c-0.5,0.2-1,0.5-1.7,0.9l-1.2-0.8l0.6-9.1h9.4v1.9h-7.5l-0.5,6c0.5-0.3,1-0.5,1.5-0.6
			c0.5-0.1,1-0.2,1.6-0.2c1.7,0,3.2,0.5,4.3,1.5c1.1,1,1.7,2.5,1.7,4.5c0,1.3-0.3,2.5-0.9,3.5c-0.6,1-1.4,1.7-2.3,2.2
			c-1,0.5-2,0.8-3.1,0.8C911.2,596.1,910,595.8,909,595.4z"/>
		<path class="st4" d="M932.4,585.6c1,1,1.4,2.5,1.4,4.4c0,1.2-0.3,2.2-0.8,3.1c-0.5,0.9-1.2,1.6-2,2.2c-0.9,0.5-1.8,0.8-2.8,0.8
			c-1.3,0-2.4-0.3-3.4-1c-1-0.7-1.7-1.7-2.3-3.1c-0.5-1.4-0.8-3-0.8-5c0-2.5,0.3-4.5,1-6.1c0.7-1.6,1.5-2.8,2.6-3.5
			c1.1-0.7,2.3-1.1,3.6-1.1c1.8,0,3.2,0.7,4.5,2l-1.2,1.4c-0.4-0.5-0.9-0.9-1.4-1.1s-1.1-0.4-1.8-0.4c-1.5,0-2.8,0.7-3.7,2
			s-1.5,3.5-1.5,6.5c0.6-0.8,1.3-1.4,2.2-1.8c0.8-0.4,1.6-0.7,2.4-0.7C930.2,584.1,931.5,584.6,932.4,585.6z M930.8,593.1
			c0.7-0.8,1-1.9,1-3.1c0-1.3-0.3-2.4-0.9-3.1c-0.6-0.8-1.5-1.1-2.8-1.1c-0.7,0-1.4,0.2-2.1,0.6c-0.7,0.4-1.4,1.1-2.1,2
			c0.2,1.9,0.6,3.4,1.4,4.4c0.7,1,1.8,1.5,3.1,1.5C929.3,594.3,930.2,593.9,930.8,593.1z"/>
		<path class="st4" d="M942,586.3c0.8-2.6,2.2-5.2,4.1-7.8h-9.7v-1.9h12.2v1.3c-1.5,1.9-2.6,3.8-3.4,5.5c-0.8,1.8-1.4,3.6-1.7,5.5
			s-0.6,4.2-0.7,6.8h-2.2C940.7,592,941.2,588.9,942,586.3z"/>
		<path class="st4" d="M954.1,595.4c-0.9-0.5-1.7-1.1-2.2-1.9c-0.5-0.8-0.8-1.7-0.8-2.7c0-1.2,0.3-2.2,1-3.1
			c0.7-0.9,1.6-1.6,2.6-2.2v-0.1c-1.8-1.3-2.7-2.7-2.7-4.4c0-1,0.2-1.8,0.7-2.5s1.1-1.3,1.9-1.7c0.8-0.4,1.7-0.6,2.7-0.6
			c1.6,0,2.9,0.5,3.9,1.4c1,0.9,1.5,2.2,1.5,3.7c0,0.9-0.3,1.8-0.8,2.6c-0.5,0.8-1.2,1.5-1.9,2.1v0.1c1,0.6,1.9,1.3,2.4,2
			c0.6,0.7,0.9,1.7,0.9,2.8c0,0.9-0.3,1.8-0.8,2.6c-0.5,0.8-1.2,1.4-2.1,1.8c-0.9,0.4-2,0.7-3.2,0.7
			C956.1,596.1,955.1,595.9,954.1,595.4z M960.2,593.5c0.7-0.6,1.1-1.5,1.1-2.5c0-0.8-0.2-1.5-0.7-2.1c-0.5-0.5-1-1-1.7-1.3
			c-0.7-0.3-1.7-0.8-2.9-1.3c-0.9,0.5-1.5,1.2-2.1,1.9c-0.5,0.7-0.8,1.6-0.8,2.4c0,1.1,0.4,2,1.2,2.7c0.8,0.7,1.8,1.1,3.1,1.1
			C958.5,594.4,959.5,594.1,960.2,593.5z M960.8,581.4c0-1-0.3-1.9-0.9-2.5c-0.6-0.7-1.5-1-2.5-1c-0.9,0-1.7,0.3-2.3,0.9
			c-0.6,0.6-0.9,1.4-0.9,2.3c0,1.1,0.4,1.9,1.2,2.5c0.8,0.6,1.9,1.2,3.4,1.8C960.1,584.1,960.8,582.8,960.8,581.4z"/>
		<path class="st4" d="M974.8,577.3c1,0.7,1.8,1.7,2.3,3.1c0.5,1.4,0.8,3,0.8,5c0,2.5-0.3,4.5-1,6.1s-1.5,2.8-2.6,3.5
			c-1.1,0.7-2.3,1.1-3.6,1.1c-1.8,0-3.3-0.7-4.5-2l1.2-1.4c0.4,0.5,0.9,0.9,1.4,1.1c0.5,0.3,1.1,0.4,1.7,0.4c1.5,0,2.8-0.7,3.7-2
			c1-1.3,1.5-3.5,1.5-6.5c-0.6,0.8-1.3,1.4-2.1,1.8c-0.8,0.4-1.6,0.7-2.4,0.7c-1.7,0-3-0.5-4-1.5c-1-1-1.4-2.5-1.4-4.4
			c0-1.2,0.2-2.2,0.8-3.1c0.5-0.9,1.2-1.7,2-2.2c0.9-0.5,1.8-0.8,2.8-0.8C972.7,576.2,973.8,576.6,974.8,577.3z M973.7,585.9
			c0.7-0.4,1.4-1.1,2.1-2c-0.1-1.9-0.6-3.4-1.3-4.4c-0.7-1-1.8-1.6-3.1-1.6c-1,0-1.8,0.4-2.5,1.2s-1,1.9-1,3.1
			c0,1.3,0.3,2.4,0.9,3.1c0.6,0.8,1.5,1.1,2.8,1.1C972.3,586.6,973,586.4,973.7,585.9z"/>
	</g>
	<path class="st4" d="M537.4,570.7h-20.3c-1.9,0-3.4,1.5-3.4,3.4v20.3c0,1.9,1.5,3.4,3.4,3.4h20.3c1.9,0,3.4-1.5,3.4-3.4v-20.3
		C540.8,572.2,539.3,570.7,537.4,570.7z M550.7,573.4l-7.7,5.3v11.1l7.7,5.3c1,0.7,2.4,0.5,3.1-0.6c0.3-0.4,0.4-0.8,0.4-1.3v-18.1
		c0-1.2-1-2.2-2.3-2.2C551.5,573,551.1,573.1,550.7,573.4z"/>
	<path class="st4" d="M1120.2,573.3l9,9l-19.5,19.5l-8,0.9c-0.9,0.1-1.8-0.6-1.9-1.5c0-0.1,0-0.2,0-0.4l0.9-8L1120.2,573.3z
		 M1134.8,571.9l-4.2-4.2c-1.3-1.3-3.5-1.3-4.8,0l-4,4l9,9l4-4C1136.1,575.4,1136.1,573.3,1134.8,571.9L1134.8,571.9z"/>
	<path class="st0" d="M514.8,653.7h622c21.5,0,39,17.5,39,39s-17.5,39-39,39h-622c-21.5,0-39-17.5-39-39S493.2,653.7,514.8,653.7z"
		/>
	<g>
		<path class="st4" d="M579.1,684.8h4v15.6h7.6v3.3h-11.6V684.8z"/>
		<path class="st4" d="M594.1,702.9c-0.8-0.8-1.2-1.8-1.2-3.1c0-1.5,0.6-2.7,1.9-3.6c1.3-0.8,3.4-1.4,6.2-1.7
			c-0.1-1.5-0.9-2.3-2.4-2.3c-0.6,0-1.2,0.1-1.8,0.3c-0.6,0.2-1.3,0.6-2,1l-1.4-2.6c2-1.3,4-1.9,6-1.9c1.8,0,3.2,0.5,4.2,1.6
			s1.4,2.7,1.4,4.8v8.3h-3.2l-0.3-1.5h-0.1c-1.4,1.2-2.9,1.9-4.3,1.9C595.9,704.1,594.9,703.7,594.1,702.9z M599.8,700.7
			c0.4-0.2,0.8-0.6,1.3-1v-2.8c-1.6,0.2-2.7,0.5-3.4,1c-0.7,0.4-1,1-1,1.6c0,0.5,0.2,0.9,0.5,1.1c0.3,0.3,0.7,0.4,1.3,0.4
			C599,701,599.4,700.9,599.8,700.7z"/>
		<path class="st4" d="M610.1,703.5c-1-0.4-1.9-0.9-2.6-1.5l1.8-2.5c0.7,0.5,1.3,0.9,1.9,1.2c0.6,0.3,1.2,0.4,1.9,0.4
			c0.7,0,1.1-0.1,1.5-0.4c0.3-0.2,0.5-0.6,0.5-1c0-0.3-0.1-0.6-0.4-0.8c-0.3-0.2-0.6-0.5-1.1-0.7c-0.5-0.2-1-0.4-1.5-0.6
			c-1.1-0.4-2.1-1-2.8-1.6c-0.7-0.6-1.1-1.5-1.1-2.6c0-1.3,0.5-2.4,1.5-3.2c1-0.8,2.3-1.2,3.9-1.2c1.8,0,3.4,0.6,5,1.8l-1.8,2.4
			c-1.1-0.8-2.2-1.2-3.1-1.2c-0.6,0-1,0.1-1.3,0.3c-0.3,0.2-0.4,0.5-0.4,0.9s0.2,0.7,0.6,0.9c0.4,0.2,0.8,0.4,1.3,0.6
			c0.5,0.2,0.8,0.3,1,0.3c1.2,0.4,2.2,1,2.9,1.6s1.1,1.5,1.1,2.7c0,0.9-0.2,1.6-0.7,2.3s-1.1,1.2-2,1.6s-1.9,0.6-3.1,0.6
			C612,704.1,611.1,703.9,610.1,703.5z"/>
		<path class="st4" d="M623,702.6c-0.8-1-1.2-2.3-1.2-4v-6.1h-2v-3l2.2-0.2l0.5-3.8h3.3v3.8h3.5v3.1h-3.5v6.1c0,1.6,0.6,2.3,1.9,2.3
			c0.4,0,0.9-0.1,1.4-0.3l0.6,2.9c-1,0.3-2.1,0.5-3.1,0.5C625,704.1,623.8,703.6,623,702.6z"/>
		<path class="st4" d="M638.3,684.8h4.4l3.2,8.7c0.3,0.8,0.5,1.6,0.8,2.4l0.4,1.2h0.1l0.5-1.7c0.3-1,0.5-1.7,0.6-1.9l3.1-8.7h4.4
			v18.9H652v-7.5c0-1.1,0.1-2.8,0.4-5.2l0.1-1.1h-0.1l-1.5,4.4l-2.8,7.7h-2.3l-2.8-7.7l-1.5-4.4h-0.1l0.1,1.1
			c0.3,2.4,0.4,4.1,0.4,5.2v7.5h-3.6V684.8z"/>
		<path class="st4" d="M671.6,697.7h-8.9c0.2,1.1,0.7,2,1.4,2.5c0.7,0.5,1.6,0.8,2.6,0.8c1,0,2.1-0.3,3.2-1l1.3,2.4
			c-0.7,0.5-1.5,0.9-2.4,1.2c-0.9,0.3-1.8,0.4-2.6,0.4c-1.4,0-2.6-0.3-3.7-0.9c-1.1-0.6-2-1.5-2.6-2.6c-0.6-1.1-0.9-2.5-0.9-4
			c0-1.5,0.3-2.8,0.9-4c0.6-1.1,1.5-2,2.5-2.6c1-0.6,2.1-0.9,3.3-0.9c2,0,3.5,0.6,4.5,1.9c1,1.3,1.6,2.9,1.6,5
			C671.8,696.6,671.8,697.2,671.6,697.7z M668.4,695.1c0-0.9-0.2-1.7-0.6-2.2c-0.4-0.5-1.1-0.8-1.9-0.8c-0.7,0-1.3,0.2-1.9,0.7
			c-0.6,0.5-0.9,1.2-1.1,2.2H668.4z"/>
		<path class="st4" d="M686.5,697.7h-8.9c0.2,1.1,0.7,2,1.4,2.5c0.7,0.5,1.6,0.8,2.6,0.8c1,0,2.1-0.3,3.2-1l1.3,2.4
			c-0.7,0.5-1.5,0.9-2.4,1.2c-0.9,0.3-1.8,0.4-2.6,0.4c-1.4,0-2.6-0.3-3.7-0.9c-1.1-0.6-2-1.5-2.6-2.6c-0.6-1.1-0.9-2.5-0.9-4
			c0-1.5,0.3-2.8,0.9-4c0.6-1.1,1.5-2,2.5-2.6c1-0.6,2.1-0.9,3.3-0.9c2,0,3.5,0.6,4.5,1.9c1,1.3,1.6,2.9,1.6,5
			C686.7,696.6,686.7,697.2,686.5,697.7z M683.3,695.1c0-0.9-0.2-1.7-0.6-2.2c-0.4-0.5-1.1-0.8-1.9-0.8c-0.7,0-1.3,0.2-1.9,0.7
			c-0.6,0.5-0.9,1.2-1.1,2.2H683.3z"/>
		<path class="st4" d="M691.2,702.6c-0.8-1-1.2-2.3-1.2-4v-6.1h-2v-3l2.2-0.2l0.5-3.8h3.3v3.8h3.5v3.1h-3.5v6.1
			c0,1.6,0.6,2.3,1.9,2.3c0.4,0,0.9-0.1,1.4-0.3l0.6,2.9c-1,0.3-2.1,0.5-3.1,0.5C693.1,704.1,691.9,703.6,691.2,702.6z"/>
		<path class="st4" d="M700.7,686.5c-0.4-0.4-0.6-0.9-0.6-1.5c0-0.6,0.2-1.1,0.6-1.5c0.4-0.4,1-0.6,1.6-0.6c0.7,0,1.2,0.2,1.6,0.6
			c0.4,0.4,0.6,0.9,0.6,1.5c0,0.6-0.2,1.1-0.6,1.5c-0.4,0.4-1,0.6-1.6,0.6C701.7,687.1,701.1,686.9,700.7,686.5z M700.4,689.4h3.9
			v14.4h-3.9V689.4z"/>
		<path class="st4" d="M708.2,689.4h3.2l0.3,1.9h0.1c0.7-0.7,1.4-1.2,2.2-1.6c0.7-0.4,1.6-0.6,2.5-0.6c1.5,0,2.6,0.5,3.3,1.5
			c0.7,1,1.1,2.4,1.1,4.3v8.9h-4v-8.4c0-1.1-0.2-1.8-0.4-2.2c-0.3-0.4-0.8-0.6-1.5-0.6c-0.5,0-1,0.1-1.4,0.3s-0.9,0.6-1.5,1.2v9.8
			h-3.9V689.4z"/>
		<path class="st4" d="M725.5,709c-1.1-0.6-1.7-1.5-1.7-2.7c0-1.2,0.7-2.2,2.1-3v-0.1c-0.9-0.6-1.3-1.4-1.3-2.4c0-0.5,0.1-1,0.4-1.5
			s0.7-0.9,1.1-1.2V698c-0.6-0.4-1-0.9-1.4-1.6c-0.4-0.7-0.5-1.4-0.5-2.2c0-1.1,0.3-2,0.8-2.8c0.5-0.8,1.2-1.4,2.1-1.8
			c0.9-0.4,1.9-0.6,2.9-0.6c0.7,0,1.5,0.1,2.2,0.3h5.2v2.9H735c0.2,0.2,0.3,0.5,0.4,0.9c0.1,0.4,0.2,0.8,0.2,1.1
			c0,1.6-0.5,2.8-1.6,3.6s-2.4,1.2-4,1.2c-0.6,0-1.2-0.1-1.8-0.3c-0.2,0.2-0.3,0.3-0.4,0.5s-0.1,0.4-0.1,0.7c0,0.4,0.2,0.6,0.5,0.8
			c0.3,0.2,0.9,0.3,1.7,0.3h2.4c1.8,0,3.1,0.3,4,0.9c0.9,0.6,1.4,1.5,1.4,2.8c0,1-0.3,1.8-1,2.6c-0.6,0.8-1.6,1.4-2.8,1.8
			c-1.2,0.4-2.6,0.7-4.2,0.7C728,709.9,726.6,709.6,725.5,709z M732.9,706.8c0.7-0.4,1-0.8,1-1.4c0-0.5-0.2-0.8-0.6-1
			s-0.9-0.3-1.7-0.3h-1.7c-0.9,0-1.5-0.1-2-0.2c-0.6,0.5-0.9,1-0.9,1.6c0,0.6,0.3,1,0.9,1.3s1.4,0.5,2.4,0.5
			C731.4,707.4,732.2,707.2,732.9,706.8z M731.6,696.1c0.4-0.4,0.6-1.1,0.6-1.9c0-0.8-0.2-1.4-0.6-1.8s-0.9-0.7-1.6-0.7
			c-0.6,0-1.2,0.2-1.5,0.7c-0.4,0.4-0.6,1-0.6,1.8s0.2,1.4,0.6,1.9c0.4,0.5,0.9,0.7,1.5,0.7C730.7,696.8,731.2,696.5,731.6,696.1z"
			/>
	</g>
	<path class="st4" d="M821.8,688.7c4.1,4.1,4.2,10.8,0,15l0,0l-5,5c-4.2,4.1-10.9,4-15-0.1c-4.1-4.1-4.1-10.7,0-14.9l3-3
		c0.7-0.7,2,0,2,1c0.2,1.4,0.5,2.7,1,4c0.1,0.4-0.7,0.7-1,1l-1,1c-1.9,1.9-2,5-0.1,6.9l0.1,0.1c1.8,1.9,4.9,2,6.8,0.2l0.2-0.2l5-5
		c1.9-1.9,2-5,0.1-6.9l-0.1-0.1c-0.3-0.3-0.8-0.9-1-1c-0.3-0.2,0,0.4,0,0c0-1.1,0.4-2.1,1-3l1-1c0.6-0.4,1.4-0.4,2,0
		C821.2,688,821.5,688.4,821.8,688.7z M831.8,678.7c-4.1-4.1-10.8-4.2-14.9-0.1l-0.1,0.1l-5,5c-4.1,4.1-4.2,10.8,0,15l0,0
		c0.4,0.4,1.5,0.6,2,1c0.5,0.3,0.6,0.4,1,0l2-1c0.6-0.6,0-2.3,0-3c0-0.4,0.3,0.2,0,0c-0.2-0.1-0.7-0.7-1-1c-1.9-1.9-2-5-0.1-6.9
		l0.1-0.1l5-5c1.8-1.9,4.9-2,6.8-0.2l0.2,0.2c1.9,1.9,2,5,0.1,6.9l-0.1,0.1l-1,1c-0.3,0.3-0.1,0.6,0,1c0.5,1.3,0.8,2.6,1,4
		c0,1,0.3,1.7,1,1l3-3C835.9,689.6,836,682.9,831.8,678.7L831.8,678.7z"/>
	<g>
		<path class="st4" d="M849.3,702.9h4.4v-14.5h-3.5v-1.4c1.6-0.3,2.9-0.7,4-1.3h1.7v17.3h4v1.8h-10.6V702.9z"/>
		<path class="st4" d="M862.5,703.4c2.3-2.3,4-4.1,5.2-5.5c1.2-1.4,2.2-2.6,2.9-3.8c0.7-1.2,1-2.2,1-3.3c0-1.2-0.3-2.1-1-2.8
			c-0.6-0.7-1.6-1-2.8-1c-0.8,0-1.5,0.2-2.2,0.6s-1.4,1-2,1.7l-1.3-1.3c0.8-0.9,1.7-1.6,2.6-2.1s2-0.8,3.1-0.8
			c1.7,0,3.1,0.5,4.1,1.5c1,1,1.5,2.4,1.5,4c0,1.2-0.3,2.4-1,3.6c-0.7,1.2-1.5,2.5-2.6,3.7c-1.1,1.2-2.6,2.9-4.5,5l0.7,0
			c1.1-0.1,2-0.1,2.5-0.1h5.8v1.9h-12.2V703.4z"/>
		<path class="st4" d="M876.9,702.4l1.1-1.4c0.7,0.7,1.4,1.3,2.2,1.7c0.8,0.4,1.7,0.6,2.8,0.6c1.2,0,2.2-0.3,3-1
			c0.8-0.7,1.1-1.6,1.1-2.7c0-2.6-2.1-4-6.3-4v-1.7c2,0,3.4-0.3,4.3-1c0.9-0.7,1.3-1.6,1.3-2.7c0-1-0.3-1.7-0.9-2.3
			c-0.6-0.6-1.5-0.9-2.5-0.9c-1.5,0-2.9,0.7-4.2,2l-1.2-1.4c1.7-1.6,3.5-2.4,5.4-2.4c1.7,0,3,0.4,4,1.3c1,0.8,1.6,2,1.6,3.5
			c0,1.1-0.3,2.1-0.9,2.8c-0.6,0.8-1.5,1.4-2.6,1.8v0.1c1.2,0.3,2.3,0.9,3,1.7c0.8,0.9,1.2,1.9,1.2,3.2c0,1.1-0.3,2.1-0.8,2.9
			c-0.5,0.8-1.3,1.5-2.2,1.9c-0.9,0.4-2,0.7-3.2,0.7C880.6,705.1,878.5,704.2,876.9,702.4z"/>
		<path class="st4" d="M904.7,699.3h-2.7v5.4H900v-5.4h-8.6v-1.4l8.4-12.3h2.3v12h2.7V699.3z M900,697.6v-5.9c0-0.8,0-2,0.1-3.6H900
			c-0.4,0.7-0.7,1.2-0.9,1.6l-0.6,1l-4.8,6.9H900z"/>
		<path class="st4" d="M909,704.4c-1-0.5-1.9-1.1-2.7-1.9l1.1-1.4c0.7,0.7,1.4,1.2,2.2,1.6c0.8,0.4,1.7,0.6,2.7,0.6
			c0.8,0,1.5-0.2,2.2-0.6s1.2-0.9,1.6-1.6c0.4-0.7,0.6-1.5,0.6-2.4c0-1.4-0.4-2.4-1.1-3.2c-0.8-0.8-1.8-1.2-3.1-1.2
			c-0.6,0-1.2,0.1-1.7,0.3c-0.5,0.2-1,0.5-1.7,0.9l-1.2-0.8l0.6-9.1h9.4v1.9h-7.5l-0.5,6c0.5-0.3,1-0.5,1.5-0.6
			c0.5-0.1,1-0.2,1.6-0.2c1.7,0,3.2,0.5,4.3,1.5s1.7,2.5,1.7,4.5c0,1.3-0.3,2.5-0.9,3.5c-0.6,1-1.4,1.7-2.3,2.2s-2,0.8-3.1,0.8
			C911.2,705.1,910,704.8,909,704.4z"/>
		<path class="st4" d="M932.4,694.6c1,1,1.4,2.5,1.4,4.4c0,1.2-0.3,2.2-0.8,3.1c-0.5,0.9-1.2,1.6-2,2.2c-0.9,0.5-1.8,0.8-2.8,0.8
			c-1.3,0-2.4-0.3-3.4-1c-1-0.7-1.7-1.7-2.3-3.1s-0.8-3-0.8-5c0-2.5,0.3-4.5,1-6.1c0.7-1.6,1.5-2.8,2.6-3.5c1.1-0.7,2.3-1.1,3.6-1.1
			c1.8,0,3.2,0.7,4.5,2l-1.2,1.4c-0.4-0.5-0.9-0.9-1.4-1.1c-0.5-0.3-1.1-0.4-1.8-0.4c-1.5,0-2.8,0.7-3.7,2c-1,1.4-1.5,3.5-1.5,6.5
			c0.6-0.8,1.3-1.4,2.2-1.8c0.8-0.5,1.6-0.7,2.4-0.7C930.2,693.1,931.5,693.6,932.4,694.6z M930.8,702.1c0.7-0.8,1-1.9,1-3.1
			c0-1.3-0.3-2.4-0.9-3.1c-0.6-0.8-1.5-1.1-2.8-1.1c-0.7,0-1.4,0.2-2.1,0.6c-0.7,0.4-1.4,1.1-2.1,2c0.2,1.9,0.6,3.4,1.4,4.4
			c0.7,1,1.8,1.5,3.1,1.5C929.3,703.3,930.2,702.9,930.8,702.1z"/>
		<path class="st4" d="M942,695.3c0.8-2.6,2.2-5.2,4.1-7.8h-9.7v-1.9h12.2v1.3c-1.5,1.9-2.6,3.8-3.4,5.5c-0.8,1.8-1.4,3.6-1.7,5.5
			s-0.6,4.2-0.7,6.8h-2.2C940.7,701,941.2,697.9,942,695.3z"/>
		<path class="st4" d="M954.1,704.4c-0.9-0.4-1.7-1.1-2.2-1.9c-0.5-0.8-0.8-1.7-0.8-2.7c0-1.2,0.3-2.2,1-3.1
			c0.7-0.9,1.6-1.6,2.6-2.2v-0.1c-1.8-1.3-2.7-2.7-2.7-4.4c0-1,0.2-1.8,0.7-2.5s1.1-1.3,1.9-1.7c0.8-0.4,1.7-0.6,2.7-0.6
			c1.6,0,2.9,0.5,3.9,1.4c1,0.9,1.5,2.2,1.5,3.7c0,0.9-0.3,1.8-0.8,2.6s-1.2,1.5-1.9,2.1v0.1c1,0.6,1.9,1.3,2.4,2s0.9,1.7,0.9,2.8
			c0,0.9-0.3,1.8-0.8,2.6c-0.5,0.8-1.2,1.4-2.1,1.8c-0.9,0.5-2,0.7-3.2,0.7C956.1,705.1,955.1,704.9,954.1,704.4z M960.2,702.5
			c0.7-0.7,1.1-1.5,1.1-2.5c0-0.8-0.2-1.5-0.7-2.1c-0.5-0.5-1-1-1.7-1.3c-0.7-0.3-1.7-0.8-2.9-1.3c-0.9,0.5-1.5,1.2-2.1,1.9
			c-0.5,0.7-0.8,1.5-0.8,2.4c0,1.1,0.4,2,1.2,2.7c0.8,0.7,1.8,1.1,3.1,1.1C958.5,703.4,959.5,703.1,960.2,702.5z M960.8,690.4
			c0-1-0.3-1.9-0.9-2.5s-1.5-1-2.5-1c-0.9,0-1.7,0.3-2.3,0.9c-0.6,0.6-0.9,1.4-0.9,2.3c0,1.1,0.4,1.9,1.2,2.5
			c0.8,0.6,1.9,1.2,3.4,1.8C960.1,693.1,960.8,691.8,960.8,690.4z"/>
		<path class="st4" d="M974.8,686.3c1,0.7,1.8,1.7,2.3,3.1s0.8,3,0.8,5c0,2.5-0.3,4.5-1,6.1c-0.7,1.6-1.5,2.8-2.6,3.5
			c-1.1,0.7-2.3,1.1-3.6,1.1c-1.8,0-3.3-0.7-4.5-2l1.2-1.4c0.4,0.5,0.9,0.9,1.4,1.1c0.5,0.3,1.1,0.4,1.7,0.4c1.5,0,2.8-0.7,3.7-2
			s1.5-3.5,1.5-6.5c-0.6,0.8-1.3,1.4-2.1,1.8c-0.8,0.4-1.6,0.7-2.4,0.7c-1.7,0-3-0.5-4-1.5c-1-1-1.4-2.5-1.4-4.4
			c0-1.2,0.2-2.2,0.8-3.1c0.5-0.9,1.2-1.7,2-2.2c0.9-0.5,1.8-0.8,2.8-0.8C972.7,685.2,973.8,685.6,974.8,686.3z M973.7,694.9
			c0.7-0.4,1.4-1.1,2.1-2c-0.1-1.9-0.6-3.4-1.3-4.4c-0.7-1-1.8-1.6-3.1-1.6c-1,0-1.8,0.4-2.5,1.2s-1,1.9-1,3.1
			c0,1.3,0.3,2.4,0.9,3.1c0.6,0.8,1.5,1.1,2.8,1.1C972.3,695.6,973,695.4,973.7,694.9z"/>
	</g>
	<path class="st4" d="M537.4,679.7h-20.3c-1.9,0-3.4,1.5-3.4,3.4v20.3c0,1.9,1.5,3.4,3.4,3.4h20.3c1.9,0,3.4-1.5,3.4-3.4v-20.3
		C540.8,681.2,539.3,679.7,537.4,679.7z M550.7,682.4l-7.7,5.3v11.1l7.7,5.3c1,0.7,2.4,0.5,3.1-0.6c0.3-0.4,0.4-0.8,0.4-1.3v-18.1
		c0-1.2-1-2.2-2.3-2.2C551.5,682,551.1,682.1,550.7,682.4z"/>
	<path class="st4" d="M1120.2,682.3l9,9l-19.5,19.5l-8,0.9c-0.9,0.1-1.8-0.6-1.9-1.5c0-0.1,0-0.2,0-0.4l0.9-8L1120.2,682.3z
		 M1134.8,680.9l-4.2-4.2c-1.3-1.3-3.5-1.3-4.8,0l-4,4l9,9l4-4C1136.1,684.4,1136.1,682.3,1134.8,680.9L1134.8,680.9z"/>
	<path class="st5" d="M514.8,763.7h622c9.1,0,17.4,3.7,23.3,9.7c6,6,9.7,14.2,9.7,23.3c0,9.1-3.7,17.4-9.7,23.3
		c-6,6-14.2,9.7-23.3,9.7h-622c-9.1,0-17.4-3.7-23.3-9.7c-6-6-9.7-14.2-9.7-23.3c0-9.1,3.7-17.4,9.7-23.3
		C497.4,767.4,505.7,763.7,514.8,763.7L514.8,763.7 M1136.8,757.7C1136.8,757.7,1136.8,757.7,1136.8,757.7h-622
		c-10.8,0-20.5,4.4-27.6,11.4c-7.1,7-11.4,16.8-11.4,27.6c0,10.8,4.4,20.5,11.4,27.6c7,7.1,16.8,11.4,27.6,11.4h622
		c10.8,0,20.5-4.4,27.6-11.4c7.1-7,11.4-16.8,11.4-27.6c0-10.8-4.4-20.5-11.4-27.6C1157.3,762.1,1147.5,757.7,1136.8,757.7"/>
	<g>
		<defs>
			<polyline id="SVGID_21_" points="880.8,786.9 770.6,786.9 770.6,808.1 880.8,808.1 880.8,786.9 			"/>
		</defs>
		<clipPath id="SVGID_4_">
			<use xlink:href="#SVGID_21_"  style="overflow:visible;"/>
		</clipPath>
		<g class="st11">
			<path class="st5" d="M781.9,803H776l-1.3,4.7h-4.1l6-18.9h4.7l6,18.9h-4.2L781.9,803z M781.1,799.9l-0.5-1.9
				c-0.2-0.9-0.6-2.2-1-4l-0.6-2.1h-0.1c-0.6,2.5-1.1,4.5-1.5,6.1l-0.5,1.9H781.1z"/>
			<path class="st5" d="M790,806.1c-1.1-1.3-1.6-3.2-1.6-5.5c0-1.5,0.3-2.8,0.8-4c0.6-1.1,1.3-2,2.2-2.6c0.9-0.6,1.9-0.9,2.9-0.9
				c0.8,0,1.4,0.1,1.9,0.4c0.5,0.3,1.1,0.6,1.7,1.2l-0.1-2.2v-5h4v20.4h-3.2l-0.3-1.5h-0.1c-0.5,0.5-1.2,1-1.8,1.3s-1.4,0.5-2.1,0.5
				C792.5,808.1,791.1,807.4,790,806.1z M796.7,804.5c0.4-0.2,0.8-0.6,1.2-1.1v-6.1c-0.7-0.7-1.6-1-2.6-1c-0.8,0-1.5,0.4-2,1.1
				c-0.5,0.7-0.8,1.8-0.8,3.1c0,1.4,0.2,2.5,0.7,3.2c0.5,0.7,1.2,1.1,2.1,1.1C795.8,804.8,796.3,804.7,796.7,804.5z"/>
			<path class="st5" d="M806.6,806.1c-1.1-1.3-1.6-3.2-1.6-5.5c0-1.5,0.3-2.8,0.8-4c0.6-1.1,1.3-2,2.2-2.6c0.9-0.6,1.9-0.9,2.9-0.9
				c0.8,0,1.4,0.1,1.9,0.4c0.5,0.3,1.1,0.6,1.7,1.2l-0.1-2.2v-5h4v20.4h-3.2l-0.3-1.5h-0.1c-0.5,0.5-1.2,1-1.8,1.3s-1.4,0.5-2.1,0.5
				C809,808.1,807.6,807.4,806.6,806.1z M813.2,804.5c0.4-0.2,0.8-0.6,1.2-1.1v-6.1c-0.7-0.7-1.6-1-2.6-1c-0.8,0-1.5,0.4-2,1.1
				c-0.5,0.7-0.8,1.8-0.8,3.1c0,1.4,0.2,2.5,0.7,3.2c0.5,0.7,1.2,1.1,2.1,1.1C812.4,804.8,812.8,804.7,813.2,804.5z"/>
			<path class="st5" d="M828.4,788.8h4v15.6h7.6v3.3h-11.6V788.8z"/>
			<path class="st5" d="M843.3,790.5c-0.4-0.4-0.6-0.9-0.6-1.5c0-0.6,0.2-1.1,0.6-1.5c0.4-0.4,1-0.6,1.6-0.6c0.7,0,1.2,0.2,1.6,0.6
				c0.4,0.4,0.6,0.9,0.6,1.5c0,0.6-0.2,1.1-0.6,1.5c-0.4,0.4-1,0.6-1.6,0.6C844.3,791.1,843.7,790.9,843.3,790.5z M843,793.4h3.9
				v14.4H843V793.4z"/>
			<path class="st5" d="M850.9,793.4h3.2l0.3,1.9h0.1c0.7-0.7,1.4-1.2,2.2-1.6c0.7-0.4,1.6-0.6,2.5-0.6c1.5,0,2.6,0.5,3.3,1.5
				c0.7,1,1.1,2.4,1.1,4.3v8.9h-4v-8.4c0-1.1-0.2-1.8-0.4-2.2c-0.3-0.4-0.8-0.6-1.5-0.6c-0.5,0-1,0.1-1.4,0.3s-0.9,0.6-1.5,1.2v9.8
				h-3.9V793.4z"/>
			<path class="st5" d="M867.3,787.3h3.9v12h0.1l4.8-6h4.3l-5,5.9l5.4,8.5h-4.3l-3.4-5.8l-2,2.2v3.6h-3.9V787.3z"/>
		</g>
	</g>
	<path class="st0" d="M991.8,216.7v3h141c10.2,0,19.5,4.1,26.2,10.8c6.7,6.7,10.8,15.9,10.8,26.2c0,10.2-4.1,19.5-10.8,26.2
		c-6.7,6.7-15.9,10.8-26.2,10.8h-141c-10.2,0-19.5-4.1-26.2-10.8c-6.7-6.7-10.8-15.9-10.8-26.2c0-10.2,4.1-19.5,10.8-26.2
		c6.7-6.7,15.9-10.8,26.2-10.8V216.7v-3c-11.9,0-22.6,4.8-30.4,12.6c-7.8,7.8-12.6,18.5-12.6,30.4c0,11.9,4.8,22.6,12.6,30.4
		c7.8,7.8,18.5,12.6,30.4,12.6h141c11.9,0,22.6-4.8,30.4-12.6c7.8-7.8,12.6-18.5,12.6-30.4c0-11.9-4.8-22.6-12.6-30.4
		c-7.8-7.8-18.5-12.6-30.4-12.6h-141V216.7z"/>
	<circle class="st7" cx="996.8" cy="256.7" r="32"/>
	<path class="st0" d="M984.8,243.7v2h24c0.6,0,1,0.4,1,1v15c0,0.6-0.4,1-1,1h-24c-0.6,0-1-0.4-1-1v-15c0-0.6,0.4-1,1-1V243.7v-2
		c-2.8,0-5,2.2-5,5v15c0,2.8,2.2,5,5,5h24c2.8,0,5-2.2,5-5v-15c0-2.8-2.2-5-5-5h-24V243.7z"/>
	<path class="st0" d="M990.8,272.7h12c1.1,0,2-0.9,2-2c0-1.1-0.9-2-2-2h-12c-1.1,0-2,0.9-2,2C988.8,271.8,989.7,272.7,990.8,272.7"
		/>
	<path class="st0" d="M994.8,264.7v6c0,1.1,0.9,2,2,2c1.1,0,2-0.9,2-2v-6c0-1.1-0.9-2-2-2C995.7,262.7,994.8,263.6,994.8,264.7"/>
	<path class="st0" d="M1067.4,239.2h-15.8c-1.9,0-3.4,1.5-3.4,3.4v29.2c0,1.9,1.5,3.4,3.4,3.4h15.8c1.9,0,3.4-1.5,3.4-3.4v-29.2
		C1070.8,240.7,1069.3,239.2,1067.4,239.2z M1059.6,273c-1.2,0-2.2-1-2.2-2.2s1-2.2,2.2-2.2c1.2,0,2.2,1,2.2,2.2
		C1061.8,272,1060.8,273,1059.6,273L1059.6,273z M1067.4,265.4c0,0.5-0.4,0.8-0.8,0.8h-14.1c-0.5,0-0.8-0.4-0.8-0.8v-21.9
		c0-0.5,0.4-0.8,0.8-0.8h14.1c0.5,0,0.8,0.4,0.8,0.8V265.4z"/>
	<path class="st0" d="M1131.3,250.5c-1-6.3-3.4-10.7-6.2-10.7s-5.2,4.4-6.2,10.7L1131.3,250.5z M1118.4,257.2c0,1.5,0.1,3,0.2,4.5
		h13c0.2-1.5,0.2-3,0.2-4.5c0-1.5-0.1-3-0.2-4.5h-13C1118.5,254.2,1118.4,255.7,1118.4,257.2z M1141.2,250.5c-2-4.8-6.1-8.5-11.1-10
		c1.7,2.4,2.9,6,3.5,10H1141.2z M1120.1,240.5c-5,1.5-9.1,5.1-11.1,10h7.6C1117.2,246.5,1118.4,242.9,1120.1,240.5L1120.1,240.5z
		 M1142,252.7h-8.1c0.1,1.5,0.2,3,0.2,4.5c0,1.5-0.1,3-0.2,4.5h8.1c0.4-1.5,0.6-3,0.6-4.5C1142.5,255.7,1142.3,254.2,1142,252.7z
		 M1116.1,257.2c0-1.5,0.1-3,0.2-4.5h-8.1c-0.8,2.9-0.8,6.1,0,9h8.1C1116.2,260.3,1116.1,258.7,1116.1,257.2z M1118.9,264
		c1,6.3,3.4,10.7,6.2,10.7s5.2-4.4,6.2-10.7L1118.9,264z M1130.1,273.9c5-1.5,9.1-5.1,11.1-10h-7.6
		C1133,268,1131.8,271.6,1130.1,273.9z M1109,264c2,4.8,6.1,8.5,11.1,10c-1.7-2.4-2.9-6-3.5-10H1109z"/>
	<g>
		<path class="st1" d="M1217.9,406.7c-1.1-0.4-2.1-1.1-3-1.9l2.1-2.5c0.6,0.6,1.4,1,2.1,1.4c0.8,0.3,1.5,0.5,2.3,0.5
			c0.9,0,1.5-0.2,2-0.5c0.5-0.3,0.7-0.8,0.7-1.4c0-0.4-0.1-0.7-0.3-0.9c-0.2-0.3-0.5-0.5-0.8-0.6c-0.3-0.2-0.8-0.4-1.5-0.7l-2.3-1
			c-1-0.4-1.9-1-2.6-1.8c-0.7-0.8-1-1.8-1-3c0-1,0.3-1.8,0.8-2.6c0.5-0.8,1.3-1.4,2.2-1.9c0.9-0.5,2-0.7,3.2-0.7c1,0,2,0.2,3,0.6
			c1,0.4,1.8,1,2.6,1.7l-1.9,2.3c-0.6-0.5-1.2-0.8-1.8-1.1c-0.6-0.2-1.2-0.4-1.9-0.4c-0.7,0-1.3,0.2-1.8,0.5
			c-0.4,0.3-0.6,0.7-0.6,1.3c0,0.4,0.1,0.7,0.3,0.9c0.2,0.3,0.5,0.5,0.8,0.6c0.3,0.2,0.8,0.4,1.6,0.7l2.3,0.9c1.1,0.5,2,1.1,2.6,1.8
			c0.6,0.8,0.9,1.7,0.9,2.9c0,1-0.3,1.9-0.8,2.7c-0.5,0.8-1.3,1.5-2.3,2c-1,0.5-2.2,0.7-3.5,0.7
			C1220.2,407.3,1219,407.1,1217.9,406.7z"/>
		<path class="st1" d="M1241.6,401.4h-8.3c0.2,1.1,0.6,1.8,1.3,2.3c0.7,0.5,1.5,0.8,2.4,0.8c1,0,1.9-0.3,3-0.9l1.2,2.2
			c-0.7,0.5-1.4,0.8-2.2,1.1c-0.8,0.3-1.6,0.4-2.4,0.4c-1.3,0-2.4-0.3-3.4-0.8c-1-0.6-1.8-1.4-2.4-2.4s-0.9-2.3-0.9-3.7
			c0-1.4,0.3-2.6,0.9-3.7c0.6-1.1,1.4-1.9,2.3-2.5c1-0.6,2-0.9,3.1-0.9c1.8,0,3.2,0.6,4.2,1.8c1,1.2,1.5,2.7,1.5,4.6
			C1241.7,400.4,1241.7,400.9,1241.6,401.4z M1238.6,398.9c0-0.9-0.2-1.5-0.6-2c-0.4-0.5-1-0.7-1.8-0.7c-0.7,0-1.3,0.2-1.8,0.7
			c-0.5,0.5-0.9,1.2-1,2.1H1238.6z"/>
		<path class="st1" d="M1245.4,406.2c-0.5-0.7-0.8-1.8-0.8-3.1V388h3.7v15.2c0,0.4,0.1,0.7,0.2,0.8c0.1,0.2,0.3,0.3,0.5,0.3
			s0.3,0,0.5-0.1l0.5,2.8c-0.5,0.2-1.2,0.3-1.9,0.3C1246.8,407.3,1245.9,407,1245.4,406.2z"/>
		<path class="st1" d="M1263,401.4h-8.3c0.2,1.1,0.6,1.8,1.3,2.3c0.7,0.5,1.5,0.8,2.4,0.8c1,0,1.9-0.3,3-0.9l1.2,2.2
			c-0.7,0.5-1.4,0.8-2.2,1.1c-0.8,0.3-1.6,0.4-2.4,0.4c-1.3,0-2.4-0.3-3.4-0.8c-1-0.6-1.8-1.4-2.4-2.4s-0.9-2.3-0.9-3.7
			c0-1.4,0.3-2.6,0.9-3.7c0.6-1.1,1.4-1.9,2.3-2.5c1-0.6,2-0.9,3.1-0.9c1.8,0,3.2,0.6,4.2,1.8c1,1.2,1.5,2.7,1.5,4.6
			C1263.2,400.4,1263.1,400.9,1263,401.4z M1260,398.9c0-0.9-0.2-1.5-0.6-2c-0.4-0.5-1-0.7-1.8-0.7c-0.7,0-1.3,0.2-1.8,0.7
			c-0.5,0.5-0.9,1.2-1,2.1H1260z"/>
		<path class="st1" d="M1268.4,406.5c-1-0.6-1.8-1.4-2.3-2.4c-0.6-1.1-0.9-2.3-0.9-3.7c0-1.4,0.3-2.7,0.9-3.8
			c0.6-1.1,1.5-1.9,2.5-2.4c1-0.6,2.2-0.8,3.4-0.8c1.5,0,2.8,0.5,3.9,1.5l-1.8,2.4c-0.3-0.3-0.7-0.5-1-0.6c-0.3-0.1-0.6-0.2-1-0.2
			c-1,0-1.8,0.4-2.4,1.1c-0.6,0.7-0.9,1.7-0.9,2.9c0,1.2,0.3,2.2,0.9,2.9s1.3,1.1,2.3,1.1c0.8,0,1.7-0.3,2.5-1l1.5,2.4
			c-0.6,0.5-1.3,0.9-2.1,1.2c-0.8,0.3-1.5,0.4-2.3,0.4C1270.5,407.3,1269.4,407,1268.4,406.5z"/>
		<path class="st1" d="M1279.9,406c-0.7-0.9-1.1-2.1-1.1-3.7v-5.7h-1.9v-2.8l2.1-0.2l0.4-3.6h3.1v3.6h3.3v2.9h-3.3v5.7
			c0,1.5,0.6,2.2,1.8,2.2c0.4,0,0.8-0.1,1.3-0.3l0.6,2.7c-1,0.3-1.9,0.5-2.9,0.5C1281.7,407.3,1280.6,406.9,1279.9,406z"/>
		<path class="st1" d="M1292.7,393.6h3.7l1.4,6.4c0,0.1,0.2,0.9,0.4,2.5c0,0.3,0.1,0.8,0.2,1.5h0.1c0.3-1.7,0.6-3.1,0.8-3.9l1.6-6.4
			h3.2l1.6,6.4c0.3,1.2,0.5,2.4,0.7,3.4l0.1,0.5h0.1l0.3-1.9c0-0.2,0.1-0.5,0.1-0.8c0-0.3,0.1-0.7,0.2-1.2l1.4-6.4h3.4l-3.3,13.4
			h-4.3l-1.3-5.6c-0.3-1.8-0.6-3.1-0.7-3.9h-0.1c-0.3,1.7-0.5,3-0.7,3.9l-1.3,5.6h-4.2L1292.7,393.6z"/>
		<path class="st1" d="M1314.6,388h3.7v4.7l-0.2,2.5c0.6-0.6,1.3-1.1,1.9-1.4s1.4-0.5,2.2-0.5c1.4,0,2.4,0.5,3.1,1.4s1,2.3,1,4v8.3
			h-3.7v-7.9c0-1-0.1-1.7-0.4-2.1c-0.3-0.4-0.7-0.6-1.4-0.6c-0.5,0-0.9,0.1-1.3,0.3s-0.8,0.6-1.4,1.1v9.1h-3.7V388z"/>
		<path class="st1" d="M1330.2,391c-0.4-0.4-0.6-0.8-0.6-1.4c0-0.6,0.2-1,0.6-1.4c0.4-0.4,0.9-0.6,1.5-0.6s1.1,0.2,1.5,0.6
			c0.4,0.4,0.6,0.8,0.6,1.4c0,0.6-0.2,1-0.6,1.4c-0.4,0.4-0.9,0.6-1.5,0.6S1330.6,391.4,1330.2,391z M1329.9,393.6h3.7V407h-3.7
			V393.6z"/>
		<path class="st1" d="M1339.6,406.5c-1-0.6-1.8-1.4-2.3-2.4c-0.6-1.1-0.9-2.3-0.9-3.7c0-1.4,0.3-2.7,0.9-3.8
			c0.6-1.1,1.5-1.9,2.5-2.4c1-0.6,2.2-0.8,3.4-0.8c1.5,0,2.8,0.5,3.9,1.5l-1.8,2.4c-0.3-0.3-0.7-0.5-1-0.6c-0.3-0.1-0.6-0.2-1-0.2
			c-1,0-1.8,0.4-2.4,1.1c-0.6,0.7-0.9,1.7-0.9,2.9c0,1.2,0.3,2.2,0.9,2.9s1.3,1.1,2.3,1.1c0.8,0,1.7-0.3,2.5-1l1.5,2.4
			c-0.6,0.5-1.3,0.9-2.1,1.2c-0.8,0.3-1.5,0.4-2.3,0.4C1341.7,407.3,1340.6,407,1339.6,406.5z"/>
		<path class="st1" d="M1349.8,388h3.7v4.7l-0.2,2.5c0.6-0.6,1.3-1.1,1.9-1.4s1.4-0.5,2.2-0.5c1.4,0,2.4,0.5,3.1,1.4s1,2.3,1,4v8.3
			h-3.7v-7.9c0-1-0.1-1.7-0.4-2.1c-0.3-0.4-0.7-0.6-1.4-0.6c-0.5,0-0.9,0.1-1.3,0.3s-0.8,0.6-1.4,1.1v9.1h-3.7V388z"/>
		<path class="st1" d="M1371.2,405.5c-1-1.2-1.5-3-1.5-5.1c0-1.4,0.3-2.6,0.8-3.7c0.5-1.1,1.2-1.9,2.1-2.5c0.9-0.6,1.8-0.9,2.7-0.9
			c0.7,0,1.3,0.1,1.8,0.4s1,0.6,1.5,1.1l-0.1-2.1V388h3.7v19h-3l-0.3-1.4h-0.1c-0.5,0.5-1.1,0.9-1.7,1.2c-0.6,0.3-1.3,0.5-1.9,0.5
			C1373.5,407.3,1372.2,406.7,1371.2,405.5z M1377.4,404c0.4-0.2,0.7-0.5,1.1-1v-5.7c-0.7-0.6-1.5-0.9-2.4-0.9c-0.7,0-1.4,0.3-1.9,1
			c-0.5,0.7-0.8,1.7-0.8,2.9c0,1.3,0.2,2.3,0.7,3c0.5,0.7,1.1,1,1.9,1C1376.6,404.3,1377.1,404.2,1377.4,404z"/>
		<path class="st1" d="M1396.8,401.4h-8.3c0.2,1.1,0.6,1.8,1.3,2.3c0.7,0.5,1.5,0.8,2.4,0.8c1,0,1.9-0.3,3-0.9l1.2,2.2
			c-0.7,0.5-1.4,0.8-2.2,1.1c-0.8,0.3-1.6,0.4-2.4,0.4c-1.3,0-2.4-0.3-3.4-0.8c-1-0.6-1.8-1.4-2.4-2.4s-0.9-2.3-0.9-3.7
			c0-1.4,0.3-2.6,0.9-3.7c0.6-1.1,1.4-1.9,2.3-2.5c1-0.6,2-0.9,3.1-0.9c1.8,0,3.2,0.6,4.2,1.8c1,1.2,1.5,2.7,1.5,4.6
			C1397,400.4,1396.9,400.9,1396.8,401.4z M1393.8,398.9c0-0.9-0.2-1.5-0.6-2c-0.4-0.5-1-0.7-1.8-0.7c-0.7,0-1.3,0.2-1.8,0.7
			c-0.5,0.5-0.9,1.2-1,2.1H1393.8z"/>
		<path class="st1" d="M1398.2,393.6h3.7l1.9,6.5l1.1,4.1h0.1l1.1-4.1l1.9-6.5h3.5L1407,407h-4.2L1398.2,393.6z"/>
		<path class="st1" d="M1413.9,391c-0.4-0.4-0.6-0.8-0.6-1.4c0-0.6,0.2-1,0.6-1.4c0.4-0.4,0.9-0.6,1.5-0.6s1.1,0.2,1.5,0.6
			c0.4,0.4,0.6,0.8,0.6,1.4c0,0.6-0.2,1-0.6,1.4c-0.4,0.4-0.9,0.6-1.5,0.6S1414.3,391.4,1413.9,391z M1413.6,393.6h3.7V407h-3.7
			V393.6z"/>
		<path class="st1" d="M1423.3,406.5c-1-0.6-1.8-1.4-2.3-2.4c-0.6-1.1-0.9-2.3-0.9-3.7c0-1.4,0.3-2.7,0.9-3.8
			c0.6-1.1,1.5-1.9,2.5-2.4c1-0.6,2.2-0.8,3.4-0.8c1.5,0,2.8,0.5,3.9,1.5l-1.8,2.4c-0.3-0.3-0.7-0.5-1-0.6c-0.3-0.1-0.6-0.2-1-0.2
			c-1,0-1.8,0.4-2.4,1.1c-0.6,0.7-0.9,1.7-0.9,2.9c0,1.2,0.3,2.2,0.9,2.9s1.3,1.1,2.3,1.1c0.8,0,1.7-0.3,2.5-1l1.5,2.4
			c-0.6,0.5-1.3,0.9-2.1,1.2c-0.8,0.3-1.5,0.4-2.3,0.4C1425.4,407.3,1424.3,407,1423.3,406.5z"/>
		<path class="st1" d="M1443.7,401.4h-8.3c0.2,1.1,0.6,1.8,1.3,2.3c0.7,0.5,1.5,0.8,2.4,0.8c1,0,1.9-0.3,3-0.9l1.2,2.2
			c-0.7,0.5-1.4,0.8-2.2,1.1c-0.8,0.3-1.6,0.4-2.4,0.4c-1.3,0-2.4-0.3-3.4-0.8c-1-0.6-1.8-1.4-2.4-2.4s-0.9-2.3-0.9-3.7
			c0-1.4,0.3-2.6,0.9-3.7c0.6-1.1,1.4-1.9,2.3-2.5c1-0.6,2-0.9,3.1-0.9c1.8,0,3.2,0.6,4.2,1.8c1,1.2,1.5,2.7,1.5,4.6
			C1443.9,400.4,1443.8,400.9,1443.7,401.4z M1440.7,398.9c0-0.9-0.2-1.5-0.6-2c-0.4-0.5-1-0.7-1.8-0.7c-0.7,0-1.3,0.2-1.8,0.7
			c-0.5,0.5-0.9,1.2-1,2.1H1440.7z"/>
		<path class="st1" d="M1451.5,412l0.7-2.8c0.4,0.1,0.7,0.2,0.9,0.2c1.2,0,2-0.6,2.4-1.9l0.2-0.8l-5.2-13.1h3.7l2,6
			c0.2,0.6,0.5,1.5,0.8,2.5c0.1,0.5,0.2,0.9,0.4,1.3h0.1c0.2-1,0.5-2.3,0.9-3.8l1.8-6h3.5l-4.7,13.7c-0.6,1.7-1.4,3-2.2,3.8
			s-2,1.2-3.5,1.2C1452.7,412.3,1452.1,412.2,1451.5,412z"/>
		<path class="st1" d="M1468.2,406.5c-1-0.6-1.8-1.4-2.4-2.4s-0.9-2.3-0.9-3.7c0-1.4,0.3-2.7,0.9-3.8s1.4-1.9,2.4-2.4
			c1-0.6,2-0.8,3.2-0.8c1.1,0,2.2,0.3,3.2,0.8c1,0.6,1.8,1.4,2.4,2.4c0.6,1.1,0.9,2.3,0.9,3.7s-0.3,2.7-0.9,3.7s-1.4,1.9-2.4,2.4
			c-1,0.6-2.1,0.8-3.2,0.8C1470.2,407.3,1469.2,407,1468.2,406.5z M1473.3,403.3c0.5-0.7,0.7-1.7,0.7-2.9s-0.2-2.2-0.7-2.9
			c-0.5-0.7-1.1-1.1-2-1.1c-0.9,0-1.5,0.4-2,1.1c-0.5,0.7-0.7,1.7-0.7,2.9s0.2,2.2,0.7,2.9s1.1,1.1,2,1.1
			C1472.2,404.3,1472.9,404,1473.3,403.3z"/>
		<path class="st1" d="M1481.5,405.9c-0.7-0.9-1-2.3-1-4v-8.3h3.7v7.9c0,1,0.1,1.7,0.4,2.1c0.3,0.4,0.7,0.6,1.4,0.6
			c0.5,0,1-0.1,1.3-0.4c0.4-0.2,0.8-0.7,1.2-1.2v-8.9h3.7V407h-3l-0.3-1.9h-0.1c-0.6,0.7-1.3,1.3-1.9,1.6s-1.4,0.6-2.3,0.6
			C1483.2,407.3,1482.2,406.9,1481.5,405.9z"/>
		<path class="st1" d="M1495.9,393.6h3l0.3,2.3h0.1c0.5-0.9,1-1.5,1.7-2s1.4-0.7,2.1-0.7c0.6,0,1.2,0.1,1.6,0.3l-0.6,3.2
			c-0.1,0-0.2-0.1-0.5-0.1c-0.3-0.1-0.6-0.1-0.9-0.1c-0.6,0-1.1,0.2-1.7,0.6c-0.5,0.4-1,1.1-1.4,1.9v7.9h-3.7V393.6z"/>
		<path class="st1" d="M1512.7,405.9c-0.7-0.9-1-2.3-1-4v-8.3h3.7v7.9c0,1,0.1,1.7,0.4,2.1c0.3,0.4,0.7,0.6,1.4,0.6
			c0.5,0,1-0.1,1.3-0.4c0.4-0.2,0.8-0.7,1.2-1.2v-8.9h3.7V407h-3l-0.3-1.9h-0.1c-0.6,0.7-1.3,1.3-1.9,1.6s-1.4,0.6-2.3,0.6
			C1514.4,407.3,1513.4,406.9,1512.7,405.9z"/>
		<path class="st1" d="M1528.3,406.8c-0.9-0.3-1.7-0.8-2.4-1.4l1.7-2.3c0.6,0.5,1.2,0.8,1.8,1.1c0.6,0.2,1.1,0.4,1.7,0.4
			c0.6,0,1.1-0.1,1.4-0.3c0.3-0.2,0.5-0.5,0.5-1c0-0.3-0.1-0.5-0.4-0.8c-0.2-0.2-0.6-0.4-1-0.6c-0.5-0.2-0.9-0.4-1.4-0.6
			c-1.1-0.4-1.9-0.9-2.6-1.5s-1-1.4-1-2.4c0-1.2,0.5-2.2,1.4-3c0.9-0.8,2.1-1.1,3.6-1.1c1.7,0,3.2,0.6,4.6,1.7l-1.6,2.2
			c-1.1-0.8-2-1.1-2.9-1.1c-0.6,0-1,0.1-1.3,0.3c-0.3,0.2-0.4,0.5-0.4,0.9c0,0.4,0.2,0.7,0.5,0.9c0.4,0.2,0.8,0.4,1.2,0.6
			s0.8,0.3,0.9,0.3c1.1,0.4,2,0.9,2.7,1.5c0.7,0.6,1,1.4,1,2.5c0,0.8-0.2,1.5-0.6,2.2c-0.4,0.6-1,1.1-1.8,1.5
			c-0.8,0.4-1.8,0.6-2.9,0.6C1530.1,407.3,1529.2,407.1,1528.3,406.8z"/>
		<path class="st1" d="M1539.3,391c-0.4-0.4-0.6-0.8-0.6-1.4c0-0.6,0.2-1,0.6-1.4c0.4-0.4,0.9-0.6,1.5-0.6s1.1,0.2,1.5,0.6
			c0.4,0.4,0.6,0.8,0.6,1.4c0,0.6-0.2,1-0.6,1.4c-0.4,0.4-0.9,0.6-1.5,0.6S1539.7,391.4,1539.3,391z M1538.9,393.6h3.7V407h-3.7
			V393.6z"/>
		<path class="st1" d="M1546.3,393.6h3l0.3,1.7h0.1c0.6-0.6,1.3-1.1,2-1.5c0.7-0.4,1.5-0.6,2.3-0.6c1.4,0,2.4,0.5,3.1,1.4s1,2.3,1,4
			v8.3h-3.7v-7.9c0-1-0.1-1.7-0.4-2.1c-0.3-0.4-0.7-0.6-1.4-0.6c-0.5,0-0.9,0.1-1.3,0.3s-0.8,0.6-1.4,1.1v9.1h-3.7V393.6z"/>
		<path class="st1" d="M1562.3,411.9c-1-0.6-1.6-1.4-1.6-2.5c0-1.1,0.6-2,1.9-2.8v-0.1c-0.8-0.5-1.2-1.3-1.2-2.3
			c0-0.5,0.1-0.9,0.4-1.4c0.3-0.4,0.6-0.8,1.1-1.1v-0.1c-0.5-0.4-1-0.8-1.3-1.5c-0.3-0.6-0.5-1.3-0.5-2c0-1,0.2-1.9,0.7-2.6
			s1.2-1.3,2-1.7s1.7-0.6,2.7-0.6c0.7,0,1.4,0.1,2.1,0.3h4.8v2.7h-2.2c0.2,0.2,0.3,0.5,0.4,0.9c0.1,0.4,0.2,0.7,0.2,1.1
			c0,1.5-0.5,2.6-1.5,3.3c-1,0.8-2.2,1.2-3.8,1.2c-0.6,0-1.1-0.1-1.7-0.3c-0.2,0.2-0.3,0.3-0.4,0.5c-0.1,0.2-0.1,0.4-0.1,0.6
			c0,0.3,0.2,0.6,0.5,0.8c0.3,0.2,0.8,0.3,1.6,0.3h2.2c1.7,0,2.9,0.3,3.8,0.8s1.3,1.4,1.3,2.6c0,0.9-0.3,1.7-0.9,2.4
			c-0.6,0.7-1.5,1.3-2.6,1.7c-1.1,0.4-2.4,0.6-3.9,0.6C1564.7,412.7,1563.4,412.5,1562.3,411.9z M1569.2,409.9
			c0.6-0.4,0.9-0.8,0.9-1.3c0-0.4-0.2-0.7-0.5-0.9c-0.3-0.2-0.9-0.2-1.6-0.2h-1.5c-0.8,0-1.4-0.1-1.8-0.2c-0.6,0.4-0.8,0.9-0.8,1.5
			c0,0.5,0.3,1,0.8,1.2c0.6,0.3,1.3,0.4,2.3,0.4C1567.9,410.4,1568.6,410.2,1569.2,409.9z M1568,399.9c0.4-0.4,0.6-1,0.6-1.8
			c0-0.7-0.2-1.3-0.6-1.7c-0.4-0.4-0.8-0.6-1.4-0.6c-0.6,0-1.1,0.2-1.4,0.6c-0.4,0.4-0.5,1-0.5,1.7c0,0.7,0.2,1.3,0.6,1.7
			c0.4,0.4,0.8,0.6,1.4,0.6C1567.2,400.5,1567.7,400.3,1568,399.9z"/>
	</g>
	<path class="st1" d="M1225,439v2h24c0.6,0,1,0.4,1,1v15c0,0.6-0.4,1-1,1h-24c-0.6,0-1-0.4-1-1v-15c0-0.6,0.4-1,1-1V439v-2
		c-2.8,0-5,2.2-5,5v15c0,2.8,2.2,5,5,5h24c2.8,0,5-2.2,5-5v-15c0-2.8-2.2-5-5-5h-24V439z"/>
	<path class="st1" d="M1231,468h12c1.1,0,2-0.9,2-2c0-1.1-0.9-2-2-2h-12c-1.1,0-2,0.9-2,2C1229,467.1,1229.9,468,1231,468"/>
	<path class="st1" d="M1235,460v6c0,1.1,0.9,2,2,2c1.1,0,2-0.9,2-2v-6c0-1.1-0.9-2-2-2C1235.9,458,1235,458.9,1235,460"/>
	<g>
		<path class="st1" d="M1265.3,449.8h6.6v2.6h-6.6V449.8z"/>
		<path class="st1" d="M1280.6,440.4h4.9c2.8,0,4.9,0.7,6.5,2.2s2.3,3.6,2.3,6.6s-0.8,5.1-2.3,6.6c-1.5,1.5-3.6,2.3-6.3,2.3h-5.1
			V440.4z M1285.3,455c3.5,0,5.2-2,5.2-5.9c0-2-0.4-3.5-1.3-4.4c-0.9-0.9-2.2-1.3-3.8-1.3h-1V455H1285.3z"/>
		<path class="st1" d="M1308.3,452.4h-8.3c0.2,1.1,0.6,1.8,1.3,2.3c0.7,0.5,1.5,0.8,2.4,0.8c1,0,1.9-0.3,3-0.9l1.2,2.2
			c-0.7,0.5-1.4,0.8-2.2,1.1c-0.8,0.3-1.6,0.4-2.4,0.4c-1.3,0-2.4-0.3-3.4-0.8c-1-0.6-1.8-1.4-2.4-2.4s-0.9-2.3-0.9-3.7
			c0-1.4,0.3-2.6,0.9-3.7c0.6-1.1,1.4-1.9,2.3-2.5c1-0.6,2-0.9,3.1-0.9c1.8,0,3.2,0.6,4.2,1.8c1,1.2,1.5,2.7,1.5,4.6
			C1308.4,451.4,1308.4,451.9,1308.3,452.4z M1305.3,449.9c0-0.9-0.2-1.5-0.6-2c-0.4-0.5-1-0.7-1.8-0.7c-0.7,0-1.3,0.2-1.8,0.7
			c-0.5,0.5-0.9,1.2-1,2.1H1305.3z"/>
		<path class="st1" d="M1312.4,457.8c-0.9-0.3-1.7-0.8-2.4-1.4l1.7-2.3c0.6,0.5,1.2,0.8,1.8,1.1c0.6,0.2,1.1,0.4,1.7,0.4
			c0.6,0,1.1-0.1,1.4-0.3c0.3-0.2,0.5-0.5,0.5-1c0-0.3-0.1-0.5-0.4-0.8c-0.2-0.2-0.6-0.4-1-0.6c-0.5-0.2-0.9-0.4-1.4-0.6
			c-1.1-0.4-1.9-0.9-2.6-1.5s-1-1.4-1-2.4c0-1.2,0.5-2.2,1.4-3c0.9-0.8,2.1-1.1,3.6-1.1c1.7,0,3.2,0.6,4.6,1.7l-1.6,2.2
			c-1.1-0.8-2-1.1-2.9-1.1c-0.6,0-1,0.1-1.3,0.3c-0.3,0.2-0.4,0.5-0.4,0.9c0,0.4,0.2,0.7,0.5,0.9c0.4,0.2,0.8,0.4,1.2,0.6
			s0.8,0.3,0.9,0.3c1.1,0.4,2,0.9,2.7,1.5c0.7,0.6,1,1.4,1,2.5c0,0.8-0.2,1.5-0.6,2.2c-0.4,0.6-1,1.1-1.8,1.5
			c-0.8,0.4-1.8,0.6-2.9,0.6C1314.2,458.3,1313.3,458.1,1312.4,457.8z"/>
		<path class="st1" d="M1323.1,439h3.6v11.2h0.1l4.5-5.6h4l-4.6,5.5l5,7.9h-4l-3.1-5.4l-1.8,2.1v3.3h-3.6V439z"/>
		<path class="st1" d="M1338.4,457c-0.7-0.9-1.1-2.1-1.1-3.7v-5.7h-1.9v-2.8l2.1-0.2l0.4-3.6h3.1v3.6h3.3v2.9h-3.3v5.7
			c0,1.5,0.6,2.2,1.8,2.2c0.4,0,0.8-0.1,1.3-0.3l0.6,2.7c-1,0.3-1.9,0.5-2.9,0.5C1340.2,458.3,1339.1,457.9,1338.4,457z"/>
		<path class="st1" d="M1348.9,457.5c-1-0.6-1.8-1.4-2.4-2.4s-0.9-2.3-0.9-3.7c0-1.4,0.3-2.7,0.9-3.8s1.4-1.9,2.4-2.4
			c1-0.6,2-0.8,3.2-0.8c1.1,0,2.2,0.3,3.2,0.8c1,0.6,1.8,1.4,2.4,2.4c0.6,1.1,0.9,2.3,0.9,3.7s-0.3,2.7-0.9,3.7s-1.4,1.9-2.4,2.4
			c-1,0.6-2.1,0.8-3.2,0.8C1351,458.3,1349.9,458,1348.9,457.5z M1354.1,454.3c0.5-0.7,0.7-1.7,0.7-2.9s-0.2-2.2-0.7-2.9
			c-0.5-0.7-1.1-1.1-2-1.1c-0.9,0-1.5,0.4-2,1.1c-0.5,0.7-0.7,1.7-0.7,2.9s0.2,2.2,0.7,2.9s1.1,1.1,2,1.1
			C1352.9,455.3,1353.6,455,1354.1,454.3z"/>
		<path class="st1" d="M1361.4,444.6h3l0.3,1.4h0.1c0.6-0.5,1.2-0.9,1.8-1.2s1.3-0.5,2-0.5c1.6,0,2.9,0.6,3.8,1.8
			c0.9,1.2,1.4,2.9,1.4,5c0,1.5-0.3,2.7-0.8,3.8c-0.5,1.1-1.2,1.9-2.1,2.5c-0.9,0.6-1.8,0.9-2.8,0.9c-1.1,0-2.2-0.5-3.3-1.4l0.1,2.2
			v4h-3.7V444.6z M1369.3,454.2c0.5-0.7,0.8-1.7,0.8-3.1c0-2.5-0.8-3.8-2.5-3.8c-0.8,0-1.7,0.4-2.5,1.3v5.7c0.7,0.6,1.5,0.9,2.3,0.9
			C1368.2,455.3,1368.8,454.9,1369.3,454.2z"/>
	</g>
	<g>
		<path class="st1" d="M1267.9,510.8h6.6v2.6h-6.6V510.8z"/>
		<path class="st1" d="M1283.2,501.4h4.1l2.9,8.1c0.3,0.8,0.5,1.5,0.7,2.2l0.4,1.1h0.1l0.5-1.5c0.3-1,0.5-1.6,0.6-1.8l2.9-8.1h4.1
			V519h-3.4v-7c0-1,0.1-2.6,0.4-4.8l0.1-1.1h-0.1l-1.4,4.1l-2.6,7.2h-2.1l-2.6-7.2l-1.4-4.1h-0.1l0.1,1.1c0.2,2.2,0.4,3.8,0.4,4.8v7
			h-3.3V501.4z"/>
		<path class="st1" d="M1305.7,518.5c-1-0.6-1.8-1.4-2.4-2.4s-0.9-2.3-0.9-3.7c0-1.4,0.3-2.7,0.9-3.8s1.4-1.9,2.4-2.4
			c1-0.6,2-0.8,3.2-0.8c1.1,0,2.2,0.3,3.2,0.8c1,0.6,1.8,1.4,2.4,2.4c0.6,1.1,0.9,2.3,0.9,3.7s-0.3,2.7-0.9,3.7s-1.4,1.9-2.4,2.4
			c-1,0.6-2.1,0.8-3.2,0.8C1307.8,519.3,1306.7,519,1305.7,518.5z M1310.9,515.3c0.5-0.7,0.7-1.7,0.7-2.9s-0.2-2.2-0.7-2.9
			c-0.5-0.7-1.1-1.1-2-1.1c-0.9,0-1.5,0.4-2,1.1c-0.5,0.7-0.7,1.7-0.7,2.9s0.2,2.2,0.7,2.9s1.1,1.1,2,1.1
			C1309.8,516.3,1310.5,516,1310.9,515.3z"/>
		<path class="st1" d="M1323.2,518.9c-0.6-0.3-1.2-0.7-1.7-1.3h-0.1l-0.3,1.4h-2.9v-19h3.7v4.7l-0.1,2.1c0.5-0.5,1.1-0.8,1.7-1.1
			c0.6-0.3,1.2-0.4,1.9-0.4c1.6,0,2.9,0.6,3.8,1.8s1.4,2.9,1.4,4.9c0,1.5-0.3,2.8-0.8,3.9c-0.5,1.1-1.2,1.9-2.1,2.5
			c-0.9,0.6-1.8,0.9-2.8,0.9C1324.5,519.3,1323.8,519.2,1323.2,518.9z M1326.2,515.2c0.5-0.7,0.8-1.7,0.8-3.1c0-2.5-0.8-3.8-2.5-3.8
			c-0.8,0-1.7,0.4-2.5,1.3v5.7c0.7,0.6,1.5,0.9,2.3,0.9C1325,516.3,1325.7,515.9,1326.2,515.2z"/>
		<path class="st1" d="M1334,503c-0.4-0.4-0.6-0.8-0.6-1.4c0-0.6,0.2-1,0.6-1.4c0.4-0.4,0.9-0.6,1.5-0.6s1.1,0.2,1.5,0.6
			c0.4,0.4,0.6,0.8,0.6,1.4c0,0.6-0.2,1-0.6,1.4c-0.4,0.4-0.9,0.6-1.5,0.6S1334.3,503.4,1334,503z M1333.6,505.6h3.7V519h-3.7V505.6
			z"/>
		<path class="st1" d="M1341.8,518.2c-0.5-0.7-0.8-1.8-0.8-3.1V500h3.7v15.2c0,0.4,0.1,0.7,0.2,0.8c0.1,0.2,0.3,0.3,0.5,0.3
			s0.3,0,0.5-0.1l0.5,2.8c-0.5,0.2-1.2,0.3-1.9,0.3C1343.2,519.3,1342.3,519,1341.8,518.2z"/>
		<path class="st1" d="M1359.5,513.4h-8.3c0.2,1.1,0.6,1.8,1.3,2.3c0.7,0.5,1.5,0.8,2.4,0.8c1,0,1.9-0.3,3-0.9l1.2,2.2
			c-0.7,0.5-1.4,0.8-2.2,1.1c-0.8,0.3-1.6,0.4-2.4,0.4c-1.3,0-2.4-0.3-3.4-0.8c-1-0.6-1.8-1.4-2.4-2.4s-0.9-2.3-0.9-3.7
			c0-1.4,0.3-2.6,0.9-3.7c0.6-1.1,1.4-1.9,2.3-2.5c1-0.6,2-0.9,3.1-0.9c1.8,0,3.2,0.6,4.2,1.8c1,1.2,1.5,2.7,1.5,4.6
			C1359.6,512.4,1359.6,512.9,1359.5,513.4z M1356.5,510.9c0-0.9-0.2-1.5-0.6-2c-0.4-0.5-1-0.7-1.8-0.7c-0.7,0-1.3,0.2-1.8,0.7
			c-0.5,0.5-0.9,1.2-1,2.1H1356.5z"/>
		<path class="st1" d="M1368.3,518.2c-0.7-0.8-1.1-1.7-1.1-2.9c0-1.4,0.6-2.5,1.8-3.3s3.1-1.3,5.8-1.6c-0.1-1.4-0.8-2.2-2.2-2.2
			c-0.6,0-1.1,0.1-1.7,0.3s-1.2,0.5-1.9,0.9l-1.3-2.4c1.9-1.2,3.8-1.8,5.6-1.8c1.7,0,3,0.5,3.9,1.5s1.3,2.5,1.3,4.5v7.7h-3l-0.3-1.4
			h-0.1c-1.3,1.2-2.7,1.7-4,1.7C1370,519.3,1369,518.9,1368.3,518.2z M1373.6,516.1c0.4-0.2,0.8-0.5,1.2-0.9v-2.6
			c-1.5,0.2-2.5,0.5-3.1,0.9c-0.6,0.4-0.9,0.9-0.9,1.5c0,0.5,0.1,0.8,0.4,1.1c0.3,0.2,0.7,0.4,1.2,0.4
			C1372.8,516.5,1373.2,516.4,1373.6,516.1z"/>
		<path class="st1" d="M1382,505.6h3l0.3,1.7h0.1c0.6-0.6,1.3-1.1,2-1.5c0.7-0.4,1.5-0.6,2.3-0.6c1.4,0,2.4,0.5,3.1,1.4s1,2.3,1,4
			v8.3h-3.7v-7.9c0-1-0.1-1.7-0.4-2.1c-0.3-0.4-0.7-0.6-1.4-0.6c-0.5,0-0.9,0.1-1.3,0.3s-0.8,0.6-1.4,1.1v9.1h-3.7V505.6z"/>
		<path class="st1" d="M1398.1,517.5c-1-1.2-1.5-3-1.5-5.1c0-1.4,0.3-2.6,0.8-3.7c0.5-1.1,1.2-1.9,2.1-2.5c0.9-0.6,1.8-0.9,2.7-0.9
			c0.7,0,1.3,0.1,1.8,0.4s1,0.6,1.5,1.1l-0.1-2.1V500h3.7v19h-3l-0.3-1.4h-0.1c-0.5,0.5-1.1,0.9-1.7,1.2c-0.6,0.3-1.3,0.5-1.9,0.5
			C1400.4,519.3,1399,518.7,1398.1,517.5z M1404.3,516c0.4-0.2,0.7-0.5,1.1-1v-5.7c-0.7-0.6-1.5-0.9-2.4-0.9c-0.7,0-1.4,0.3-1.9,1
			c-0.5,0.7-0.8,1.7-0.8,2.9c0,1.3,0.2,2.3,0.7,3c0.5,0.7,1.1,1,1.9,1C1403.5,516.3,1403.9,516.2,1404.3,516z"/>
		<path class="st1" d="M1421.9,504.5h-4.9v-3.1h13.6v3.1h-4.9V519h-3.7V504.5z"/>
		<path class="st1" d="M1431.7,518.2c-0.7-0.8-1.1-1.7-1.1-2.9c0-1.4,0.6-2.5,1.8-3.3s3.1-1.3,5.8-1.6c-0.1-1.4-0.8-2.2-2.2-2.2
			c-0.6,0-1.1,0.1-1.7,0.3s-1.2,0.5-1.9,0.9l-1.3-2.4c1.9-1.2,3.8-1.8,5.6-1.8c1.7,0,3,0.5,3.9,1.5s1.3,2.5,1.3,4.5v7.7h-3l-0.3-1.4
			h-0.1c-1.3,1.2-2.7,1.7-4,1.7C1433.4,519.3,1432.5,518.9,1431.7,518.2z M1437,516.1c0.4-0.2,0.8-0.5,1.2-0.9v-2.6
			c-1.5,0.2-2.5,0.5-3.1,0.9c-0.6,0.4-0.9,0.9-0.9,1.5c0,0.5,0.1,0.8,0.4,1.1c0.3,0.2,0.7,0.4,1.2,0.4
			C1436.3,516.5,1436.7,516.4,1437,516.1z"/>
		<path class="st1" d="M1450.4,518.9c-0.6-0.3-1.2-0.7-1.7-1.3h-0.1l-0.3,1.4h-2.9v-19h3.7v4.7l-0.1,2.1c0.5-0.5,1.1-0.8,1.7-1.1
			c0.6-0.3,1.2-0.4,1.9-0.4c1.6,0,2.9,0.6,3.8,1.8s1.4,2.9,1.4,4.9c0,1.5-0.3,2.8-0.8,3.9c-0.5,1.1-1.2,1.9-2.1,2.5
			c-0.9,0.6-1.8,0.9-2.8,0.9C1451.6,519.3,1451,519.2,1450.4,518.9z M1453.4,515.2c0.5-0.7,0.8-1.7,0.8-3.1c0-2.5-0.8-3.8-2.5-3.8
			c-0.8,0-1.7,0.4-2.5,1.3v5.7c0.7,0.6,1.5,0.9,2.3,0.9C1452.2,516.3,1452.9,515.9,1453.4,515.2z"/>
		<path class="st1" d="M1461.6,518.2c-0.5-0.7-0.8-1.8-0.8-3.1V500h3.7v15.2c0,0.4,0.1,0.7,0.2,0.8c0.1,0.2,0.3,0.3,0.5,0.3
			s0.3,0,0.5-0.1l0.5,2.8c-0.5,0.2-1.2,0.3-1.9,0.3C1463,519.3,1462.2,519,1461.6,518.2z"/>
		<path class="st1" d="M1479.3,513.4h-8.3c0.2,1.1,0.6,1.8,1.3,2.3c0.7,0.5,1.5,0.8,2.4,0.8c1,0,1.9-0.3,3-0.9l1.2,2.2
			c-0.7,0.5-1.4,0.8-2.2,1.1c-0.8,0.3-1.6,0.4-2.4,0.4c-1.3,0-2.4-0.3-3.4-0.8c-1-0.6-1.8-1.4-2.4-2.4s-0.9-2.3-0.9-3.7
			c0-1.4,0.3-2.6,0.9-3.7c0.6-1.1,1.4-1.9,2.3-2.5c1-0.6,2-0.9,3.1-0.9c1.8,0,3.2,0.6,4.2,1.8c1,1.2,1.5,2.7,1.5,4.6
			C1479.5,512.4,1479.4,512.9,1479.3,513.4z M1476.3,510.9c0-0.9-0.2-1.5-0.6-2c-0.4-0.5-1-0.7-1.8-0.7c-0.7,0-1.3,0.2-1.8,0.7
			c-0.5,0.5-0.9,1.2-1,2.1H1476.3z"/>
		<path class="st1" d="M1483.6,518c-0.7-0.9-1.1-2.1-1.1-3.7v-5.7h-1.9v-2.8l2.1-0.2l0.4-3.6h3.1v3.6h3.3v2.9h-3.3v5.7
			c0,1.5,0.6,2.2,1.8,2.2c0.4,0,0.8-0.1,1.3-0.3l0.6,2.7c-1,0.3-1.9,0.5-2.9,0.5C1485.5,519.3,1484.3,518.9,1483.6,518z"/>
	</g>
	<g>
		<path class="st1" d="M1270.3,571.8h6.6v2.6h-6.6V571.8z"/>
		<path class="st1" d="M1288.5,579.2c-1.2-0.7-2.1-1.8-2.8-3.2c-0.7-1.4-1-3-1-4.9c0-1.9,0.3-3.5,1-4.9s1.6-2.4,2.8-3.1
			c1.2-0.7,2.6-1.1,4.1-1.1s2.9,0.4,4.1,1.1c1.2,0.7,2.1,1.8,2.8,3.1c0.7,1.4,1,3,1,4.9s-0.3,3.5-1,4.9c-0.7,1.4-1.6,2.5-2.8,3.2
			c-1.2,0.7-2.6,1.1-4.1,1.1S1289.7,580,1288.5,579.2z M1295.6,575.5c0.7-1.1,1.1-2.5,1.1-4.4c0-1.8-0.4-3.2-1.1-4.3
			c-0.7-1-1.8-1.6-3-1.6c-1.3,0-2.3,0.5-3,1.6s-1.1,2.5-1.1,4.3s0.4,3.3,1.1,4.4c0.7,1.1,1.8,1.6,3,1.6S1294.9,576.6,1295.6,575.5z"
			/>
		<path class="st1" d="M1305.2,579c-0.7-0.9-1.1-2.1-1.1-3.7v-5.7h-1.9v-2.8l2.1-0.2l0.4-3.6h3.1v3.6h3.3v2.9h-3.3v5.7
			c0,1.5,0.6,2.2,1.8,2.2c0.4,0,0.8-0.1,1.3-0.3l0.6,2.7c-1,0.3-1.9,0.5-2.9,0.5C1307.1,580.3,1305.9,579.9,1305.2,579z"/>
		<path class="st1" d="M1313.8,561h3.7v4.7l-0.2,2.5c0.6-0.6,1.3-1.1,1.9-1.4s1.4-0.5,2.2-0.5c1.4,0,2.4,0.5,3.1,1.4
			c0.7,0.9,1,2.3,1,4v8.3h-3.7v-7.9c0-1-0.1-1.7-0.4-2.1c-0.3-0.4-0.7-0.6-1.4-0.6c-0.5,0-0.9,0.1-1.3,0.3c-0.4,0.2-0.8,0.6-1.3,1.1
			v9.1h-3.7V561z"/>
		<path class="st1" d="M1340,574.4h-8.3c0.2,1.1,0.6,1.8,1.3,2.3c0.7,0.5,1.5,0.8,2.4,0.8c1,0,1.9-0.3,3-0.9l1.2,2.2
			c-0.7,0.5-1.4,0.8-2.2,1.1c-0.8,0.3-1.6,0.4-2.4,0.4c-1.3,0-2.4-0.3-3.4-0.8c-1-0.6-1.8-1.4-2.4-2.4c-0.6-1.1-0.9-2.3-0.9-3.7
			c0-1.4,0.3-2.6,0.9-3.7c0.6-1.1,1.4-1.9,2.3-2.5c1-0.6,2-0.9,3.1-0.9c1.8,0,3.2,0.6,4.2,1.8c1,1.2,1.5,2.7,1.5,4.6
			C1340.2,573.4,1340.1,573.9,1340,574.4z M1337,571.9c0-0.9-0.2-1.5-0.6-2s-1-0.7-1.8-0.7c-0.7,0-1.3,0.2-1.8,0.7
			c-0.5,0.5-0.9,1.2-1,2.1H1337z"/>
		<path class="st1" d="M1343,566.6h3l0.3,2.3h0.1c0.5-0.9,1-1.5,1.7-2c0.7-0.5,1.4-0.7,2.1-0.7c0.6,0,1.2,0.1,1.6,0.3l-0.6,3.2
			c-0.1,0-0.2-0.1-0.5-0.1c-0.3-0.1-0.6-0.1-0.9-0.1c-0.6,0-1.1,0.2-1.7,0.6c-0.5,0.4-1,1.1-1.4,1.9v7.9h-3.7V566.6z"/>
		<path class="st1" d="M1359.6,578.5c-1-1.2-1.5-3-1.5-5.1c0-1.4,0.3-2.6,0.8-3.7c0.5-1.1,1.2-1.9,2.1-2.5c0.9-0.6,1.8-0.9,2.7-0.9
			c0.7,0,1.3,0.1,1.8,0.4s1,0.6,1.5,1.1l-0.1-2.1V561h3.7v19h-3l-0.3-1.4h-0.1c-0.5,0.5-1.1,0.9-1.7,1.2c-0.6,0.3-1.3,0.5-1.9,0.5
			C1361.9,580.3,1360.6,579.7,1359.6,578.5z M1365.8,577c0.4-0.2,0.7-0.5,1.1-1v-5.7c-0.7-0.6-1.5-0.9-2.4-0.9c-0.7,0-1.4,0.3-1.9,1
			c-0.5,0.7-0.8,1.7-0.8,2.9c0,1.3,0.2,2.3,0.7,3c0.4,0.7,1.1,1,1.9,1C1365,577.3,1365.5,577.2,1365.8,577z"/>
		<path class="st1" d="M1385.2,574.4h-8.3c0.2,1.1,0.6,1.8,1.3,2.3c0.7,0.5,1.5,0.8,2.4,0.8c1,0,1.9-0.3,3-0.9l1.2,2.2
			c-0.7,0.5-1.4,0.8-2.2,1.1s-1.6,0.4-2.4,0.4c-1.3,0-2.4-0.3-3.4-0.8c-1-0.6-1.8-1.4-2.4-2.4c-0.6-1.1-0.9-2.3-0.9-3.7
			c0-1.4,0.3-2.6,0.9-3.7c0.6-1.1,1.4-1.9,2.3-2.5c1-0.6,2-0.9,3.1-0.9c1.8,0,3.2,0.6,4.2,1.8c1,1.2,1.5,2.7,1.5,4.6
			C1385.3,573.4,1385.3,573.9,1385.2,574.4z M1382.2,571.9c0-0.9-0.2-1.5-0.6-2c-0.4-0.5-1-0.7-1.8-0.7c-0.7,0-1.3,0.2-1.8,0.7
			s-0.9,1.2-1,2.1H1382.2z"/>
		<path class="st1" d="M1386.6,566.6h3.7l1.9,6.5l1.1,4.1h0.1l1.1-4.1l1.9-6.5h3.5l-4.4,13.4h-4.2L1386.6,566.6z"/>
		<path class="st1" d="M1402.3,564c-0.4-0.4-0.6-0.8-0.6-1.4c0-0.6,0.2-1,0.6-1.4c0.4-0.4,0.9-0.6,1.5-0.6c0.6,0,1.1,0.2,1.5,0.6
			c0.4,0.4,0.6,0.8,0.6,1.4c0,0.6-0.2,1-0.6,1.4c-0.4,0.4-0.9,0.6-1.5,0.6C1403.2,564.6,1402.7,564.4,1402.3,564z M1402,566.6h3.7
			V580h-3.7V566.6z"/>
		<path class="st1" d="M1411.7,579.5c-1-0.6-1.8-1.4-2.3-2.4c-0.6-1.1-0.8-2.3-0.8-3.7c0-1.4,0.3-2.7,0.9-3.8
			c0.6-1.1,1.5-1.9,2.5-2.4c1-0.6,2.2-0.8,3.4-0.8c1.5,0,2.8,0.5,3.9,1.5l-1.8,2.4c-0.3-0.3-0.7-0.5-1-0.6c-0.3-0.1-0.6-0.2-1-0.2
			c-1,0-1.8,0.4-2.4,1.1s-0.9,1.7-0.9,2.9c0,1.2,0.3,2.2,0.9,2.9c0.6,0.7,1.3,1.1,2.3,1.1c0.8,0,1.7-0.3,2.5-1l1.5,2.4
			c-0.6,0.5-1.3,0.9-2.1,1.2s-1.5,0.4-2.3,0.4C1413.8,580.3,1412.7,580,1411.7,579.5z"/>
		<path class="st1" d="M1432.1,574.4h-8.3c0.2,1.1,0.6,1.8,1.3,2.3c0.7,0.5,1.5,0.8,2.4,0.8c1,0,1.9-0.3,3-0.9l1.2,2.2
			c-0.7,0.5-1.4,0.8-2.2,1.1c-0.8,0.3-1.6,0.4-2.4,0.4c-1.3,0-2.4-0.3-3.4-0.8c-1-0.6-1.8-1.4-2.4-2.4c-0.6-1.1-0.9-2.3-0.9-3.7
			c0-1.4,0.3-2.6,0.9-3.7c0.6-1.1,1.4-1.9,2.3-2.5c1-0.6,2-0.9,3.1-0.9c1.8,0,3.2,0.6,4.2,1.8c1,1.2,1.5,2.7,1.5,4.6
			C1432.2,573.4,1432.2,573.9,1432.1,574.4z M1429.1,571.9c0-0.9-0.2-1.5-0.6-2s-1-0.7-1.8-0.7c-0.7,0-1.3,0.2-1.8,0.7
			c-0.5,0.5-0.9,1.2-1,2.1H1429.1z"/>
		<path class="st1" d="M1436.2,579.8c-0.9-0.3-1.7-0.8-2.4-1.4l1.7-2.3c0.6,0.5,1.2,0.8,1.8,1.1c0.6,0.2,1.1,0.4,1.7,0.4
			c0.6,0,1.1-0.1,1.4-0.3c0.3-0.2,0.5-0.5,0.5-1c0-0.3-0.1-0.5-0.4-0.8c-0.2-0.2-0.6-0.4-1-0.6c-0.5-0.2-0.9-0.4-1.4-0.6
			c-1.1-0.4-1.9-0.9-2.6-1.5c-0.7-0.6-1-1.4-1-2.4c0-1.2,0.5-2.2,1.4-3s2.1-1.1,3.6-1.1c1.7,0,3.2,0.6,4.6,1.7l-1.6,2.2
			c-1.1-0.8-2-1.1-2.9-1.1c-0.6,0-1,0.1-1.3,0.3c-0.3,0.2-0.4,0.5-0.4,0.9c0,0.4,0.2,0.7,0.5,0.9c0.4,0.2,0.8,0.4,1.2,0.6
			c0.5,0.2,0.8,0.3,0.9,0.3c1.1,0.4,2,0.9,2.7,1.5c0.7,0.6,1,1.4,1,2.5c0,0.8-0.2,1.5-0.6,2.2c-0.4,0.6-1,1.1-1.8,1.5
			s-1.8,0.6-2.9,0.6C1438,580.3,1437.1,580.1,1436.2,579.8z"/>
	</g>
	<path class="st1" d="M1244.6,490.5h-15.8c-1.9,0-3.4,1.5-3.4,3.4v29.2c0,1.9,1.5,3.4,3.4,3.4h15.8c1.9,0,3.4-1.5,3.4-3.4v-29.2
		C1248,492,1246.5,490.5,1244.6,490.5z M1236.8,524.2c-1.2,0-2.2-1-2.2-2.2c0-1.2,1-2.2,2.2-2.2s2.2,1,2.2,2.2
		C1239,523.2,1238,524.2,1236.8,524.2L1236.8,524.2z M1244.6,516.7c0,0.5-0.4,0.8-0.8,0.8h-14.1c-0.5,0-0.8-0.4-0.8-0.8v-21.9
		c0-0.5,0.4-0.8,0.8-0.8h14.1c0.5,0,0.8,0.4,0.8,0.8V516.7z"/>
	<path class="st1" d="M1243.5,561.7c-1-6.3-3.4-10.7-6.2-10.7c-2.8,0-5.2,4.4-6.2,10.7L1243.5,561.7z M1230.6,568.5
		c0,1.5,0.1,3,0.2,4.5h13c0.2-1.5,0.2-3,0.2-4.5c0-1.5-0.1-3-0.2-4.5h-13C1230.6,565.5,1230.6,567,1230.6,568.5z M1253.4,561.7
		c-2-4.8-6.1-8.5-11.1-10c1.7,2.4,2.9,6,3.5,10H1253.4z M1232.3,551.8c-5,1.5-9.1,5.1-11.1,10h7.6
		C1229.4,557.7,1230.6,554.2,1232.3,551.8L1232.3,551.8z M1254.1,564h-8.1c0.1,1.5,0.2,3,0.2,4.5c0,1.5-0.1,3-0.2,4.5h8.1
		c0.4-1.5,0.6-3,0.6-4.5C1254.7,567,1254.5,565.5,1254.1,564z M1228.3,568.5c0-1.5,0.1-3,0.2-4.5h-8.1c-0.8,2.9-0.8,6.1,0,9h8.1
		C1228.4,571.5,1228.3,570,1228.3,568.5z M1231.1,575.2c1,6.3,3.4,10.7,6.2,10.7c2.8,0,5.2-4.4,6.2-10.7L1231.1,575.2z
		 M1242.3,585.2c5-1.5,9.1-5.1,11.1-10h-7.6C1245.2,579.2,1244,582.8,1242.3,585.2z M1221.2,575.2c2,4.8,6.1,8.5,11.1,10
		c-1.7-2.4-2.9-6-3.5-10H1221.2z"/>
	<path class="st4" d="M1285.3,421.9c1.9,0,1.9-3,0-3C1283.4,418.9,1283.4,421.9,1285.3,421.9z"/>
</g>
</svg>
