<?xml version="1.0" encoding="utf-8"?>
<!-- Generator: Adobe Illustrator 24.2.3, SVG Export Plug-In . SVG Version: 6.00 Build 0)  -->
<svg version="1.1" id="Layer_1" xmlns="http://www.w3.org/2000/svg" xmlns:xlink="http://www.w3.org/1999/xlink" x="0px" y="0px"
	 width="1600px" height="1080px" viewBox="0 0 1600 1080" style="enable-background:new 0 0 1600 1080;" xml:space="preserve">
<style type="text/css">
	.st0{fill:#418BF9;}
	.st1{fill:#A82981;}
	.st2{clip-path:url(#SVGID_2_);}
	.st3{fill:#E5BED9;}
	.st4{fill:#FFFFFF;}
	.st5{fill:#C6DCFD;}
	.st6{fill:#FBFBFB;}
	.st7{fill:#F2F2F2;}
	.st8{fill:#C3D9FA;}
	.st9{fill:#356FC6;}
	.st10{clip-path:url(#SVGID_4_);fill:#FBFBFB;}
	.st11{clip-path:url(#SVGID_4_);}
	.st12{fill:#BFD1EB;}
	.st13{clip-path:url(#SVGID_6_);}
	.st14{clip-path:url(#SVGID_8_);fill:#FFFFFF;}
	.st15{clip-path:url(#SVGID_8_);}
	.st16{fill:#C5DCFD;}
	.st17{clip-path:url(#SVGID_10_);fill:#C6DCFD;}
	.st18{clip-path:url(#SVGID_10_);}
	.st19{fill:#D7E6FE;}
	.st20{clip-path:url(#SVGID_12_);}
	.st21{clip-path:url(#SVGID_14_);}
	.st22{clip-path:url(#SVGID_16_);fill:#FBFBFB;}
	.st23{clip-path:url(#SVGID_16_);}
	.st24{clip-path:url(#SVGID_18_);}
	.st25{clip-path:url(#SVGID_20_);}
	.st26{clip-path:url(#SVGID_22_);}
	.st27{clip-path:url(#SVGID_24_);}
	.st28{clip-path:url(#SVGID_26_);fill:#E5BED9;}
	.st29{clip-path:url(#SVGID_28_);}
	.st30{clip-path:url(#SVGID_30_);}
	.st31{clip-path:url(#SVGID_32_);}
</style>
<g>
	<g>
		<defs>
			<polyline id="SVGID_29_" points="870.1,239.2 480.5,239.2 480.5,287.5 870.1,287.5 870.1,239.2 			"/>
		</defs>
		<clipPath id="SVGID_2_">
			<use xlink:href="#SVGID_29_"  style="overflow:visible;"/>
		</clipPath>
		<g class="st2">
			<path class="st3" d="M492.4,239.2l9,26.5h0.1l8.5-26.5H522v38.6h-7.9v-27.3H514l-9.5,27.3H498l-9.4-27.1h-0.1v27.1h-7.9v-38.6
				H492.4z"/>
			<path class="st3" d="M539,286c-1.5,1-3.5,1.5-6.2,1.5c-0.8,0-1.6,0-2.3-0.1c-0.8-0.1-1.6-0.1-2.3-0.2v-6.3
				c0.7,0.1,1.5,0.1,2.2,0.2c0.8,0.1,1.5,0.1,2.3,0.1c1-0.1,1.8-0.5,2.2-1.2c0.5-0.7,0.7-1.4,0.7-2.3c0-0.6-0.1-1.2-0.3-1.7
				l-9.8-26.2h8.2l6.3,19.1h0.1l6.1-19.1h7.9l-11.7,31.4C541.6,283.5,540.5,285.1,539,286z"/>
			<path class="st3" d="M590.7,246.3h-19.1v-7.1H602v6.7l-20.7,24.7h21.2v7.1H570V271L590.7,246.3z"/>
			<path class="st3" d="M606.9,257.7c0.7-1.8,1.7-3.4,2.9-4.6c1.3-1.3,2.8-2.3,4.5-3c1.8-0.7,3.7-1.1,5.9-1.1c2.2,0,4.2,0.4,6,1.1
				c1.8,0.7,3.3,1.7,4.6,3c1.3,1.3,2.2,2.8,2.9,4.6c0.7,1.8,1,3.8,1,6.1c0,2.2-0.3,4.2-1,6c-0.7,1.8-1.7,3.3-2.9,4.6
				c-1.3,1.3-2.8,2.3-4.6,2.9c-1.8,0.7-3.8,1-6,1c-2.2,0-4.2-0.3-5.9-1c-1.8-0.7-3.3-1.7-4.5-2.9c-1.3-1.3-2.2-2.8-2.9-4.6
				c-0.7-1.8-1-3.8-1-6C605.8,261.6,606.2,259.5,606.9,257.7z M613.8,267.1c0.2,1.1,0.6,2,1.1,2.9c0.5,0.8,1.2,1.5,2.1,2
				c0.9,0.5,1.9,0.8,3.2,0.8s2.4-0.3,3.3-0.8c0.9-0.5,1.6-1.2,2.1-2c0.5-0.8,0.9-1.8,1.1-2.9c0.2-1.1,0.3-2.2,0.3-3.3
				c0-1.1-0.1-2.2-0.3-3.3s-0.6-2-1.1-2.9c-0.5-0.8-1.2-1.5-2.1-2c-0.9-0.5-2-0.8-3.3-0.8s-2.4,0.3-3.2,0.8c-0.9,0.5-1.6,1.2-2.1,2
				c-0.5,0.8-0.9,1.8-1.1,2.9s-0.3,2.2-0.3,3.3C613.5,264.9,613.6,266,613.8,267.1z"/>
			<path class="st3" d="M639.9,257.7c0.7-1.8,1.7-3.4,2.9-4.6c1.3-1.3,2.8-2.3,4.5-3c1.8-0.7,3.7-1.1,5.9-1.1c2.2,0,4.2,0.4,6,1.1
				c1.8,0.7,3.3,1.7,4.6,3c1.3,1.3,2.2,2.8,2.9,4.6c0.7,1.8,1,3.8,1,6.1c0,2.2-0.3,4.2-1,6c-0.7,1.8-1.7,3.3-2.9,4.6
				c-1.3,1.3-2.8,2.3-4.6,2.9c-1.8,0.7-3.8,1-6,1c-2.2,0-4.2-0.3-5.9-1c-1.8-0.7-3.3-1.7-4.5-2.9c-1.3-1.3-2.2-2.8-2.9-4.6
				c-0.7-1.8-1-3.8-1-6C638.8,261.6,639.2,259.5,639.9,257.7z M646.8,267.1c0.2,1.1,0.6,2,1.1,2.9c0.5,0.8,1.2,1.5,2.1,2
				c0.9,0.5,1.9,0.8,3.2,0.8s2.4-0.3,3.3-0.8c0.9-0.5,1.6-1.2,2.1-2c0.5-0.8,0.9-1.8,1.1-2.9c0.2-1.1,0.3-2.2,0.3-3.3
				c0-1.1-0.1-2.2-0.3-3.3s-0.6-2-1.1-2.9c-0.5-0.8-1.2-1.5-2.1-2c-0.9-0.5-2-0.8-3.3-0.8s-2.4,0.3-3.2,0.8c-0.9,0.5-1.6,1.2-2.1,2
				c-0.5,0.8-0.9,1.8-1.1,2.9s-0.3,2.2-0.3,3.3C646.5,264.9,646.6,266,646.8,267.1z"/>
			<path class="st3" d="M680.1,249.8v3.8h0.1c1-1.4,2.2-2.6,3.6-3.3c1.4-0.8,3.1-1.2,4.9-1.2c1.8,0,3.4,0.3,4.8,1
				c1.5,0.7,2.6,1.9,3.3,3.6c0.8-1.2,2-2.3,3.4-3.2c1.4-0.9,3.1-1.4,5-1.4c1.5,0,2.8,0.2,4.1,0.5c1.3,0.4,2.3,0.9,3.2,1.7
				c0.9,0.8,1.6,1.8,2.1,3.1c0.5,1.3,0.8,2.8,0.8,4.6v18.7h-7.7v-15.8c0-0.9,0-1.8-0.1-2.6s-0.3-1.5-0.6-2.2
				c-0.3-0.6-0.8-1.1-1.4-1.5c-0.6-0.4-1.5-0.5-2.6-0.5s-2,0.2-2.6,0.6c-0.7,0.4-1.2,1-1.6,1.6c-0.4,0.7-0.6,1.4-0.8,2.3
				c-0.1,0.8-0.2,1.7-0.2,2.6v15.6h-7.7v-15.7c0-0.8,0-1.6-0.1-2.5c0-0.8-0.2-1.6-0.5-2.2c-0.3-0.7-0.7-1.2-1.4-1.6
				c-0.6-0.4-1.6-0.6-2.8-0.6c-0.4,0-0.8,0.1-1.4,0.2c-0.6,0.2-1.2,0.5-1.7,0.9c-0.6,0.5-1,1.1-1.4,1.9c-0.4,0.8-0.6,2-0.6,3.3v16.2
				h-7.7v-27.9H680.1z"/>
			<path class="st3" d="M745.9,239.2v31.4h18.8v7.1h-27.3v-38.6H745.9z"/>
			<path class="st3" d="M768.9,245.5v-6.3h7.7v6.3H768.9z M776.5,249.8v27.9h-7.7v-27.9H776.5z"/>
			<path class="st3" d="M789.9,249.8v3.9h0.2c1-1.6,2.2-2.8,3.8-3.5c1.5-0.7,3.1-1.1,4.8-1.1c2.1,0,3.7,0.3,5,0.8
				c1.3,0.6,2.3,1.3,3.1,2.3c0.8,1,1.3,2.2,1.6,3.6c0.3,1.4,0.5,3,0.5,4.7v17.2h-7.7V262c0-2.3-0.4-4-1.1-5.2
				c-0.7-1.1-2-1.7-3.8-1.7c-2.1,0-3.6,0.6-4.5,1.9c-0.9,1.2-1.4,3.3-1.4,6.1v14.6h-7.7v-27.9H789.9z"/>
			<path class="st3" d="M823,239.2v20.7l9.7-10h9.1l-10.5,10.3l11.7,17.7h-9.3l-7.7-12.5l-3,2.9v9.6h-7.7v-38.6H823z"/>
			<path class="st3" d="M852.1,270.8c0.3,0.6,0.8,1.1,1.3,1.5s1.2,0.7,1.9,0.8c0.7,0.2,1.4,0.3,2.2,0.3c0.5,0,1.1-0.1,1.7-0.2
				c0.6-0.1,1.1-0.3,1.6-0.6c0.5-0.3,0.9-0.6,1.2-1.1c0.3-0.4,0.5-1,0.5-1.7c0-1.2-0.8-2-2.3-2.6c-1.5-0.6-3.7-1.2-6.4-1.7
				c-1.1-0.3-2.2-0.5-3.3-0.9c-1.1-0.3-2-0.8-2.8-1.4c-0.8-0.6-1.5-1.3-2-2.1c-0.5-0.8-0.8-1.9-0.8-3.1c0-1.8,0.4-3.3,1.1-4.4
				c0.7-1.2,1.6-2.1,2.8-2.7c1.2-0.7,2.4-1.1,3.9-1.4s2.9-0.4,4.4-0.4c1.5,0,3,0.1,4.4,0.4c1.4,0.3,2.7,0.8,3.8,1.5
				c1.1,0.7,2,1.6,2.8,2.7c0.7,1.1,1.2,2.6,1.3,4.3h-7.3c-0.1-1.5-0.7-2.5-1.7-3c-1-0.5-2.2-0.8-3.6-0.8c-0.4,0-0.9,0-1.4,0.1
				c-0.5,0.1-1,0.2-1.4,0.4c-0.4,0.2-0.8,0.4-1.1,0.8c-0.3,0.3-0.4,0.8-0.4,1.4c0,0.7,0.3,1.2,0.8,1.7s1.2,0.8,2,1.1
				c0.8,0.3,1.7,0.5,2.8,0.7s2.1,0.5,3.2,0.7c1.1,0.3,2.2,0.6,3.3,0.9c1.1,0.4,2,0.8,2.8,1.4c0.8,0.6,1.5,1.3,2,2.2
				c0.5,0.9,0.8,2,0.8,3.3c0,1.8-0.4,3.4-1.1,4.6c-0.7,1.2-1.7,2.2-2.9,3c-1.2,0.8-2.5,1.3-4.1,1.6c-1.5,0.3-3.1,0.5-4.7,0.5
				c-1.6,0-3.2-0.2-4.8-0.5c-1.5-0.3-2.9-0.9-4.1-1.6c-1.2-0.8-2.2-1.8-3-3c-0.8-1.2-1.2-2.8-1.3-4.7h7.3
				C851.5,269.5,851.7,270.2,852.1,270.8z"/>
		</g>
	</g>
	<path class="st0" d="M514.8,326.7h622c21.5,0,39,17.5,39,39s-17.5,39-39,39h-622c-21.5,0-39-17.5-39-39S493.2,326.7,514.8,326.7z"
		/>
	<g>
		<path class="st4" d="M579.1,357.8h4.4l3.2,8.7c0.3,0.8,0.5,1.6,0.8,2.4l0.4,1.2h0.1l0.5-1.7c0.3-1,0.5-1.7,0.6-1.9l3.1-8.7h4.4
			v18.9h-3.6v-7.5c0-1.1,0.1-2.8,0.4-5.2l0.1-1.1h-0.1l-1.5,4.4l-2.8,7.7h-2.3l-2.8-7.7l-1.5-4.4h-0.1l0.1,1.1
			c0.3,2.4,0.4,4.1,0.4,5.2v7.5h-3.6V357.8z"/>
		<path class="st4" d="M600.1,382.2l0.7-3c0.4,0.1,0.7,0.2,1,0.2c1.3,0,2.1-0.7,2.6-2.1l0.2-0.8l-5.6-14h4l2.2,6.5
			c0.2,0.7,0.5,1.6,0.8,2.7c0.1,0.5,0.3,1,0.4,1.4h0.1c0.3-1.1,0.6-2.5,1-4.1l1.9-6.5h3.8l-5,14.7c-0.7,1.9-1.5,3.2-2.4,4.1
			c-0.9,0.9-2.1,1.3-3.7,1.3C601.4,382.4,600.7,382.3,600.1,382.2z"/>
		<path class="st4" d="M621.7,357.8h4.4l3.2,8.7c0.3,0.8,0.5,1.6,0.8,2.4l0.4,1.2h0.1l0.5-1.7c0.3-1,0.5-1.7,0.6-1.9l3.1-8.7h4.4
			v18.9h-3.6v-7.5c0-1.1,0.1-2.8,0.4-5.2l0.1-1.1h-0.1l-1.5,4.4l-2.8,7.7h-2.3l-2.8-7.7l-1.5-4.4h-0.1l0.1,1.1
			c0.3,2.4,0.4,4.1,0.4,5.2v7.5h-3.6V357.8z"/>
		<path class="st4" d="M655.1,370.7h-8.9c0.2,1.1,0.7,2,1.4,2.5c0.7,0.5,1.6,0.8,2.6,0.8c1,0,2.1-0.3,3.2-1l1.3,2.4
			c-0.7,0.5-1.5,0.9-2.4,1.2c-0.9,0.3-1.8,0.4-2.6,0.4c-1.4,0-2.6-0.3-3.7-0.9c-1.1-0.6-2-1.5-2.6-2.6c-0.6-1.1-0.9-2.5-0.9-4
			c0-1.5,0.3-2.8,0.9-4c0.6-1.1,1.5-2,2.5-2.6c1-0.6,2.1-0.9,3.3-0.9c2,0,3.5,0.6,4.5,1.9c1,1.3,1.6,2.9,1.6,5
			C655.2,369.6,655.2,370.2,655.1,370.7z M651.8,368.1c0-0.9-0.2-1.7-0.6-2.2c-0.4-0.5-1.1-0.8-1.9-0.8c-0.7,0-1.3,0.2-1.9,0.7
			c-0.6,0.5-0.9,1.2-1.1,2.2H651.8z"/>
		<path class="st4" d="M670,370.7h-8.9c0.2,1.1,0.7,2,1.4,2.5c0.7,0.5,1.6,0.8,2.6,0.8c1,0,2.1-0.3,3.2-1l1.3,2.4
			c-0.7,0.5-1.5,0.9-2.4,1.2c-0.9,0.3-1.8,0.4-2.6,0.4c-1.4,0-2.6-0.3-3.7-0.9c-1.1-0.6-2-1.5-2.6-2.6c-0.6-1.1-0.9-2.5-0.9-4
			c0-1.5,0.3-2.8,0.9-4c0.6-1.1,1.5-2,2.5-2.6c1-0.6,2.1-0.9,3.3-0.9c2,0,3.5,0.6,4.5,1.9c1,1.3,1.6,2.9,1.6,5
			C670.1,369.6,670.1,370.2,670,370.7z M666.7,368.1c0-0.9-0.2-1.7-0.6-2.2c-0.4-0.5-1.1-0.8-1.9-0.8c-0.7,0-1.3,0.2-1.9,0.7
			c-0.6,0.5-0.9,1.2-1.1,2.2H666.7z"/>
		<path class="st4" d="M674.6,375.6c-0.8-1-1.2-2.3-1.2-4v-6.1h-2v-3l2.2-0.2l0.5-3.8h3.3v3.8h3.5v3.1h-3.5v6.1
			c0,1.6,0.6,2.3,1.9,2.3c0.4,0,0.9-0.1,1.4-0.3l0.6,2.9c-1,0.3-2.1,0.5-3.1,0.5C676.6,377.1,675.3,376.6,674.6,375.6z"/>
		<path class="st4" d="M684.1,359.5c-0.4-0.4-0.6-0.9-0.6-1.5c0-0.6,0.2-1.1,0.6-1.5c0.4-0.4,1-0.6,1.6-0.6c0.7,0,1.2,0.2,1.6,0.6
			c0.4,0.4,0.6,0.9,0.6,1.5c0,0.6-0.2,1.1-0.6,1.5c-0.4,0.4-1,0.6-1.6,0.6C685.1,360.1,684.5,359.9,684.1,359.5z M683.8,362.4h3.9
			v14.4h-3.9V362.4z"/>
		<path class="st4" d="M691.7,362.4h3.2l0.3,1.9h0.1c0.7-0.7,1.4-1.2,2.2-1.6c0.7-0.4,1.6-0.6,2.5-0.6c1.5,0,2.6,0.5,3.3,1.5
			c0.7,1,1.1,2.4,1.1,4.3v8.9h-4v-8.4c0-1.1-0.2-1.8-0.4-2.2c-0.3-0.4-0.8-0.6-1.5-0.6c-0.5,0-1,0.1-1.4,0.3s-0.9,0.6-1.5,1.2v9.8
			h-3.9V362.4z"/>
		<path class="st4" d="M708.9,382c-1.1-0.6-1.7-1.5-1.7-2.7s0.7-2.2,2.1-3v-0.1c-0.9-0.6-1.3-1.4-1.3-2.4c0-0.5,0.1-1,0.4-1.5
			s0.7-0.9,1.1-1.2V371c-0.6-0.4-1-0.9-1.4-1.6c-0.4-0.7-0.5-1.4-0.5-2.2c0-1.1,0.3-2,0.8-2.8c0.5-0.8,1.2-1.4,2.1-1.8
			c0.9-0.4,1.9-0.6,2.9-0.6c0.7,0,1.5,0.1,2.2,0.3h5.2v2.9h-2.4c0.2,0.2,0.3,0.5,0.4,0.9c0.1,0.4,0.2,0.8,0.2,1.1
			c0,1.6-0.5,2.8-1.6,3.6s-2.4,1.2-4,1.2c-0.6,0-1.2-0.1-1.8-0.3c-0.2,0.2-0.3,0.3-0.4,0.5c-0.1,0.2-0.1,0.4-0.1,0.7
			c0,0.4,0.2,0.6,0.5,0.8c0.3,0.2,0.9,0.3,1.7,0.3h2.4c1.8,0,3.1,0.3,4,0.9c0.9,0.6,1.4,1.5,1.4,2.8c0,1-0.3,1.8-1,2.6
			c-0.6,0.8-1.6,1.4-2.8,1.8c-1.2,0.4-2.6,0.7-4.2,0.7C711.4,382.9,710,382.6,708.9,382z M716.3,379.8c0.7-0.4,1-0.8,1-1.4
			c0-0.5-0.2-0.8-0.6-1c-0.4-0.2-0.9-0.3-1.7-0.3h-1.7c-0.9,0-1.5-0.1-2-0.2c-0.6,0.5-0.9,1-0.9,1.6c0,0.6,0.3,1,0.9,1.3
			c0.6,0.3,1.4,0.5,2.4,0.5C714.8,380.4,715.6,380.2,716.3,379.8z M715,369.1c0.4-0.4,0.6-1.1,0.6-1.9c0-0.8-0.2-1.4-0.6-1.8
			s-0.9-0.7-1.6-0.7c-0.6,0-1.2,0.2-1.5,0.7c-0.4,0.4-0.6,1-0.6,1.8s0.2,1.4,0.6,1.9c0.4,0.5,0.9,0.7,1.5,0.7
			C714.1,369.8,714.6,369.5,715,369.1z"/>
	</g>
	<path class="st4" d="M821.8,361.7c4.1,4.1,4.2,10.8,0,15l0,0l-5,5c-4.2,4.1-10.9,4-15-0.1c-4.1-4.1-4.1-10.7,0-14.9l3-3
		c0.7-0.7,2,0,2,1c0.2,1.4,0.5,2.7,1,4c0.1,0.4-0.7,0.7-1,1l-1,1c-1.9,1.9-2,5-0.1,6.9l0.1,0.1c1.8,1.9,4.9,2,6.8,0.2l0.2-0.2l5-5
		c1.9-1.9,2-5,0.1-6.9l-0.1-0.1c-0.3-0.3-0.8-0.9-1-1c-0.3-0.2,0,0.4,0,0c0-1.1,0.4-2.1,1-3l1-1c0.6-0.4,1.4-0.4,2,0
		C821.2,361,821.5,361.4,821.8,361.7z M831.8,351.7c-4.1-4.1-10.8-4.2-14.9-0.1l-0.1,0.1l-5,5c-4.1,4.1-4.2,10.8,0,15l0,0
		c0.4,0.4,1.5,0.6,2,1c0.5,0.3,0.6,0.4,1,0l2-1c0.6-0.6,0-2.3,0-3c0-0.4,0.3,0.2,0,0c-0.2-0.1-0.7-0.7-1-1c-1.9-1.9-2-5-0.1-6.9
		l0.1-0.1l5-5c1.8-1.9,4.9-2,6.8-0.2l0.2,0.2c1.9,1.9,2,5,0.1,6.9l-0.1,0.1l-1,1c-0.3,0.3-0.1,0.6,0,1c0.5,1.3,0.8,2.6,1,4
		c0,1,0.3,1.7,1,1l3-3C835.9,362.6,836,355.9,831.8,351.7L831.8,351.7z"/>
	<g>
		<path class="st4" d="M849.3,375.9h4.4v-14.5h-3.5v-1.4c1.6-0.3,2.9-0.7,4-1.4h1.7v17.3h4v1.8h-10.6V375.9z"/>
		<path class="st4" d="M862.5,376.4c2.3-2.3,4-4.1,5.2-5.5c1.2-1.4,2.2-2.6,2.9-3.8c0.7-1.2,1-2.2,1-3.3c0-1.2-0.3-2.1-1-2.8
			c-0.6-0.7-1.6-1.1-2.8-1.1c-0.8,0-1.5,0.2-2.2,0.6c-0.7,0.4-1.4,1-2,1.7l-1.3-1.3c0.8-0.9,1.7-1.6,2.6-2.1c0.9-0.5,2-0.8,3.1-0.8
			c1.7,0,3.1,0.5,4.1,1.5c1,1,1.5,2.4,1.5,4c0,1.2-0.3,2.4-1,3.6c-0.7,1.2-1.5,2.5-2.6,3.7c-1.1,1.2-2.6,2.9-4.5,4.9l0.7,0
			c1.1-0.1,2-0.1,2.5-0.1h5.8v1.9h-12.2V376.4z"/>
		<path class="st4" d="M876.9,375.4l1.1-1.4c0.7,0.7,1.4,1.3,2.2,1.7c0.8,0.4,1.7,0.6,2.8,0.6c1.2,0,2.2-0.3,3-1
			c0.8-0.7,1.1-1.6,1.1-2.7c0-2.6-2.1-4-6.3-4v-1.7c2,0,3.4-0.3,4.3-1c0.9-0.7,1.3-1.6,1.3-2.7c0-1-0.3-1.7-0.9-2.3
			c-0.6-0.6-1.5-0.9-2.5-0.9c-1.5,0-2.9,0.7-4.2,2l-1.2-1.4c1.7-1.6,3.5-2.4,5.4-2.4c1.7,0,3,0.4,4,1.3c1,0.9,1.6,2,1.6,3.5
			c0,1.1-0.3,2.1-0.9,2.8c-0.6,0.8-1.5,1.4-2.6,1.8v0.1c1.2,0.3,2.3,0.9,3,1.7c0.8,0.9,1.2,1.9,1.2,3.2c0,1.1-0.3,2.1-0.8,2.9
			c-0.5,0.8-1.3,1.5-2.2,1.9c-0.9,0.4-2,0.7-3.2,0.7C880.6,378.1,878.5,377.2,876.9,375.4z"/>
		<path class="st4" d="M904.7,372.3h-2.7v5.4H900v-5.4h-8.6v-1.4l8.4-12.3h2.3v12h2.7V372.3z M900,370.6v-5.9c0-0.8,0-2,0.1-3.6H900
			c-0.4,0.7-0.7,1.3-0.9,1.6l-0.6,1l-4.8,6.9H900z"/>
		<path class="st4" d="M909,377.4c-1-0.5-1.9-1.1-2.7-1.9l1.1-1.4c0.7,0.7,1.4,1.2,2.2,1.6c0.8,0.4,1.7,0.6,2.7,0.6
			c0.8,0,1.5-0.2,2.2-0.6c0.7-0.4,1.2-0.9,1.6-1.6c0.4-0.7,0.6-1.5,0.6-2.4c0-1.4-0.4-2.4-1.1-3.2c-0.8-0.8-1.8-1.2-3.1-1.2
			c-0.6,0-1.2,0.1-1.7,0.3c-0.5,0.2-1,0.5-1.7,0.9l-1.2-0.8l0.6-9.1h9.4v1.9h-7.5l-0.5,6c0.5-0.3,1-0.5,1.5-0.6
			c0.5-0.1,1-0.2,1.6-0.2c1.7,0,3.2,0.5,4.3,1.5c1.1,1,1.7,2.5,1.7,4.5c0,1.3-0.3,2.5-0.9,3.5c-0.6,1-1.4,1.7-2.3,2.2
			c-1,0.5-2,0.8-3.1,0.8C911.2,378.1,910,377.8,909,377.4z"/>
		<path class="st4" d="M932.4,367.6c1,1,1.4,2.5,1.4,4.4c0,1.2-0.3,2.2-0.8,3.1c-0.5,0.9-1.2,1.6-2,2.2c-0.9,0.5-1.8,0.8-2.8,0.8
			c-1.3,0-2.4-0.3-3.4-1c-1-0.7-1.7-1.7-2.3-3.1c-0.5-1.4-0.8-3-0.8-5c0-2.5,0.3-4.5,1-6.1c0.7-1.6,1.5-2.8,2.6-3.5
			c1.1-0.7,2.3-1.1,3.6-1.1c1.8,0,3.2,0.7,4.5,2l-1.2,1.4c-0.4-0.5-0.9-0.9-1.4-1.1s-1.1-0.4-1.8-0.4c-1.5,0-2.8,0.7-3.7,2
			s-1.5,3.5-1.5,6.5c0.6-0.8,1.3-1.4,2.2-1.8c0.8-0.4,1.6-0.7,2.4-0.7C930.2,366.1,931.5,366.6,932.4,367.6z M930.8,375.1
			c0.7-0.8,1-1.9,1-3.1c0-1.3-0.3-2.4-0.9-3.1c-0.6-0.8-1.5-1.1-2.8-1.1c-0.7,0-1.4,0.2-2.1,0.6c-0.7,0.4-1.4,1.1-2.1,2
			c0.2,1.9,0.6,3.4,1.4,4.4c0.7,1,1.8,1.5,3.1,1.5C929.3,376.3,930.2,375.9,930.8,375.1z"/>
		<path class="st4" d="M942,368.3c0.8-2.6,2.2-5.2,4.1-7.8h-9.7v-1.9h12.2v1.3c-1.5,1.9-2.6,3.8-3.4,5.5c-0.8,1.8-1.4,3.6-1.7,5.5
			s-0.6,4.2-0.7,6.8h-2.2C940.7,374,941.2,370.9,942,368.3z"/>
		<path class="st4" d="M954.1,377.4c-0.9-0.5-1.7-1.1-2.2-1.9c-0.5-0.8-0.8-1.7-0.8-2.7c0-1.2,0.3-2.2,1-3.1
			c0.7-0.9,1.6-1.6,2.6-2.2v-0.1c-1.8-1.3-2.7-2.7-2.7-4.4c0-1,0.2-1.8,0.7-2.5s1.1-1.3,1.9-1.7c0.8-0.4,1.7-0.6,2.7-0.6
			c1.6,0,2.9,0.5,3.9,1.4c1,0.9,1.5,2.2,1.5,3.7c0,0.9-0.3,1.8-0.8,2.6c-0.5,0.8-1.2,1.5-1.9,2.1v0.1c1,0.6,1.9,1.3,2.4,2
			c0.6,0.7,0.9,1.7,0.9,2.8c0,0.9-0.3,1.8-0.8,2.6c-0.5,0.8-1.2,1.4-2.1,1.8c-0.9,0.4-2,0.7-3.2,0.7
			C956.1,378.1,955.1,377.9,954.1,377.4z M960.2,375.5c0.7-0.6,1.1-1.5,1.1-2.5c0-0.8-0.2-1.5-0.7-2.1c-0.5-0.5-1-1-1.7-1.3
			c-0.7-0.3-1.7-0.8-2.9-1.3c-0.9,0.5-1.5,1.2-2.1,1.9c-0.5,0.7-0.8,1.6-0.8,2.4c0,1.1,0.4,2,1.2,2.7c0.8,0.7,1.8,1.1,3.1,1.1
			C958.5,376.4,959.5,376.1,960.2,375.5z M960.8,363.4c0-1-0.3-1.9-0.9-2.5c-0.6-0.7-1.5-1-2.5-1c-0.9,0-1.7,0.3-2.3,0.9
			c-0.6,0.6-0.9,1.4-0.9,2.3c0,1.1,0.4,1.9,1.2,2.5c0.8,0.6,1.9,1.2,3.4,1.8C960.1,366.1,960.8,364.8,960.8,363.4z"/>
		<path class="st4" d="M974.8,359.3c1,0.7,1.8,1.7,2.3,3.1c0.5,1.4,0.8,3,0.8,5c0,2.5-0.3,4.5-1,6.1s-1.5,2.8-2.6,3.5
			c-1.1,0.7-2.3,1.1-3.6,1.1c-1.8,0-3.3-0.7-4.5-2l1.2-1.4c0.4,0.5,0.9,0.9,1.4,1.1c0.5,0.3,1.1,0.4,1.7,0.4c1.5,0,2.8-0.7,3.7-2
			c1-1.3,1.5-3.5,1.5-6.5c-0.6,0.8-1.3,1.4-2.1,1.8c-0.8,0.4-1.6,0.7-2.4,0.7c-1.7,0-3-0.5-4-1.5c-1-1-1.4-2.5-1.4-4.4
			c0-1.2,0.2-2.2,0.8-3.1c0.5-0.9,1.2-1.7,2-2.2c0.9-0.5,1.8-0.8,2.8-0.8C972.7,358.2,973.8,358.6,974.8,359.3z M973.7,367.9
			c0.7-0.4,1.4-1.1,2.1-2c-0.1-1.9-0.6-3.4-1.3-4.4c-0.7-1-1.8-1.6-3.1-1.6c-1,0-1.8,0.4-2.5,1.2s-1,1.9-1,3.1
			c0,1.3,0.3,2.4,0.9,3.1c0.6,0.8,1.5,1.1,2.8,1.1C972.3,368.6,973,368.4,973.7,367.9z"/>
	</g>
	<path class="st4" d="M537.4,352.7h-20.3c-1.9,0-3.4,1.5-3.4,3.4v20.3c0,1.9,1.5,3.4,3.4,3.4h20.3c1.9,0,3.4-1.5,3.4-3.4v-20.3
		C540.8,354.2,539.3,352.7,537.4,352.7z M550.7,355.4l-7.7,5.3v11.1l7.7,5.3c1,0.7,2.4,0.5,3.1-0.6c0.3-0.4,0.4-0.8,0.4-1.3v-18.1
		c0-1.2-1-2.2-2.3-2.2C551.5,355,551.1,355.1,550.7,355.4z"/>
	<path class="st4" d="M1120.2,355.3l9,9l-19.5,19.5l-8,0.9c-0.9,0.1-1.8-0.6-1.9-1.5c0-0.1,0-0.2,0-0.4l0.9-8L1120.2,355.3z
		 M1134.8,353.9l-4.2-4.2c-1.3-1.3-3.5-1.3-4.8,0l-4,4l9,9l4-4C1136.1,357.4,1136.1,355.3,1134.8,353.9L1134.8,353.9z"/>
	<path class="st0" d="M514.8,435.7h622c21.5,0,39,17.5,39,39s-17.5,39-39,39h-622c-21.5,0-39-17.5-39-39S493.2,435.7,514.8,435.7z"
		/>
	<g>
		<path class="st4" d="M582.2,484.9c-1.3-0.8-2.3-1.9-3-3.4c-0.7-1.5-1.1-3.3-1.1-5.3c0-2,0.4-3.8,1.1-5.2c0.7-1.5,1.7-2.6,3-3.3
			c1.3-0.8,2.8-1.2,4.5-1.2c1.7,0,3.2,0.4,4.5,1.2c1.3,0.8,2.3,1.9,3,3.4s1.1,3.2,1.1,5.2s-0.4,3.8-1.1,5.3s-1.7,2.6-3,3.4
			c-1.3,0.8-2.8,1.2-4.5,1.2C585,486.1,583.5,485.7,582.2,484.9z M589.9,480.9c0.8-1.2,1.2-2.7,1.2-4.7c0-2-0.4-3.5-1.2-4.6
			c-0.8-1.1-1.9-1.7-3.2-1.7c-1.4,0-2.5,0.6-3.2,1.7s-1.2,2.7-1.2,4.6c0,2,0.4,3.5,1.2,4.7c0.8,1.2,1.9,1.7,3.2,1.7
			S589.1,482,589.9,480.9z"/>
		<path class="st4" d="M600.2,484.6c-0.8-1-1.2-2.3-1.2-4v-6.1h-2v-3l2.2-0.2l0.5-3.8h3.3v3.8h3.5v3.1H603v6.1
			c0,1.6,0.6,2.3,1.9,2.3c0.4,0,0.9-0.1,1.4-0.3l0.6,2.9c-1,0.3-2.1,0.5-3.1,0.5C602.2,486.1,601,485.6,600.2,484.6z"/>
		<path class="st4" d="M609.4,465.3h3.9v5.1l-0.2,2.7c0.7-0.6,1.4-1.1,2.1-1.5c0.7-0.4,1.5-0.6,2.4-0.6c1.5,0,2.6,0.5,3.3,1.5
			c0.7,1,1.1,2.4,1.1,4.3v8.9h-4v-8.4c0-1.1-0.2-1.8-0.4-2.2c-0.3-0.4-0.8-0.6-1.5-0.6c-0.5,0-1,0.1-1.4,0.3s-0.9,0.6-1.5,1.2v9.8
			h-3.9V465.3z"/>
		<path class="st4" d="M637.6,479.7h-8.9c0.2,1.1,0.7,2,1.4,2.5c0.7,0.5,1.6,0.8,2.6,0.8c1,0,2.1-0.3,3.2-1l1.3,2.4
			c-0.7,0.5-1.5,0.9-2.4,1.2c-0.9,0.3-1.8,0.4-2.6,0.4c-1.4,0-2.6-0.3-3.7-0.9c-1.1-0.6-2-1.5-2.6-2.6c-0.6-1.1-0.9-2.5-0.9-4
			c0-1.5,0.3-2.8,0.9-4c0.6-1.1,1.5-2,2.5-2.6c1-0.6,2.1-0.9,3.3-0.9c2,0,3.5,0.6,4.5,1.9c1,1.3,1.6,2.9,1.6,5
			C637.7,478.6,637.7,479.2,637.6,479.7z M634.3,477.1c0-0.9-0.2-1.7-0.6-2.2c-0.4-0.5-1.1-0.8-1.9-0.8c-0.7,0-1.3,0.2-1.9,0.7
			c-0.6,0.5-0.9,1.2-1.1,2.2H634.3z"/>
		<path class="st4" d="M640.8,471.4h3.2l0.3,2.5h0.1c0.5-0.9,1.1-1.6,1.8-2.1c0.7-0.5,1.5-0.7,2.2-0.7c0.7,0,1.2,0.1,1.7,0.3
			l-0.7,3.4c-0.1,0-0.2-0.1-0.5-0.1c-0.3-0.1-0.6-0.1-1-0.1c-0.6,0-1.2,0.2-1.8,0.7c-0.6,0.4-1.1,1.1-1.5,2.1v8.5h-3.9V471.4z"/>
		<path class="st4" d="M658.2,466.8h4.4l3.2,8.7c0.3,0.8,0.5,1.6,0.8,2.4l0.4,1.2h0.1l0.5-1.7c0.3-1,0.5-1.7,0.6-1.9l3.1-8.7h4.4
			v18.9h-3.6v-7.5c0-1.1,0.1-2.8,0.4-5.2l0.1-1.1h-0.1l-1.5,4.4L668,484h-2.3l-2.8-7.7l-1.5-4.4h-0.1l0.1,1.1
			c0.3,2.4,0.4,4.1,0.4,5.2v7.5h-3.6V466.8z"/>
		<path class="st4" d="M691.5,479.7h-8.9c0.2,1.1,0.7,2,1.4,2.5c0.7,0.5,1.6,0.8,2.6,0.8c1,0,2.1-0.3,3.2-1l1.3,2.4
			c-0.7,0.5-1.5,0.9-2.4,1.2c-0.9,0.3-1.8,0.4-2.6,0.4c-1.4,0-2.6-0.3-3.7-0.9c-1.1-0.6-2-1.5-2.6-2.6c-0.6-1.1-0.9-2.5-0.9-4
			c0-1.5,0.3-2.8,0.9-4c0.6-1.1,1.5-2,2.5-2.6c1-0.6,2.1-0.9,3.3-0.9c2,0,3.5,0.6,4.5,1.9c1,1.3,1.6,2.9,1.6,5
			C691.7,478.6,691.7,479.2,691.5,479.7z M688.3,477.1c0-0.9-0.2-1.7-0.6-2.2c-0.4-0.5-1.1-0.8-1.9-0.8c-0.7,0-1.3,0.2-1.9,0.7
			c-0.6,0.5-0.9,1.2-1.1,2.2H688.3z"/>
		<path class="st4" d="M706.4,479.7h-8.9c0.2,1.1,0.7,2,1.4,2.5c0.7,0.5,1.6,0.8,2.6,0.8c1,0,2.1-0.3,3.2-1l1.3,2.4
			c-0.7,0.5-1.5,0.9-2.4,1.2c-0.9,0.3-1.8,0.4-2.6,0.4c-1.4,0-2.6-0.3-3.7-0.9c-1.1-0.6-2-1.5-2.6-2.6c-0.6-1.1-0.9-2.5-0.9-4
			c0-1.5,0.3-2.8,0.9-4c0.6-1.1,1.5-2,2.5-2.6c1-0.6,2.1-0.9,3.3-0.9c2,0,3.5,0.6,4.5,1.9c1,1.3,1.6,2.9,1.6,5
			C706.6,478.6,706.6,479.2,706.4,479.7z M703.2,477.1c0-0.9-0.2-1.7-0.6-2.2c-0.4-0.5-1.1-0.8-1.9-0.8c-0.7,0-1.3,0.2-1.9,0.7
			c-0.6,0.5-0.9,1.2-1.1,2.2H703.2z"/>
		<path class="st4" d="M711.1,484.6c-0.8-1-1.2-2.3-1.2-4v-6.1h-2v-3l2.2-0.2l0.5-3.8h3.3v3.8h3.5v3.1h-3.5v6.1
			c0,1.6,0.6,2.3,1.9,2.3c0.4,0,0.9-0.1,1.4-0.3l0.6,2.9c-1,0.3-2.1,0.5-3.1,0.5C713,486.1,711.8,485.6,711.1,484.6z"/>
		<path class="st4" d="M720.6,468.5c-0.4-0.4-0.6-0.9-0.6-1.5c0-0.6,0.2-1.1,0.6-1.5c0.4-0.4,1-0.6,1.6-0.6c0.7,0,1.2,0.2,1.6,0.6
			c0.4,0.4,0.6,0.9,0.6,1.5c0,0.6-0.2,1.1-0.6,1.5c-0.4,0.4-1,0.6-1.6,0.6C721.6,469.1,721,468.9,720.6,468.5z M720.2,471.4h3.9
			v14.4h-3.9V471.4z"/>
		<path class="st4" d="M728.1,471.4h3.2l0.3,1.9h0.1c0.7-0.7,1.4-1.2,2.2-1.6c0.7-0.4,1.6-0.6,2.5-0.6c1.5,0,2.6,0.5,3.3,1.5
			c0.7,1,1.1,2.4,1.1,4.3v8.9h-4v-8.4c0-1.1-0.2-1.8-0.4-2.2c-0.3-0.4-0.8-0.6-1.5-0.6c-0.5,0-1,0.1-1.4,0.3s-0.9,0.6-1.5,1.2v9.8
			h-3.9V471.4z"/>
		<path class="st4" d="M745.3,491c-1.1-0.6-1.7-1.5-1.7-2.7s0.7-2.2,2.1-3v-0.1c-0.9-0.6-1.3-1.4-1.3-2.4c0-0.5,0.1-1,0.4-1.5
			s0.7-0.9,1.1-1.2V480c-0.6-0.4-1-0.9-1.4-1.6c-0.4-0.7-0.5-1.4-0.5-2.2c0-1.1,0.3-2,0.8-2.8c0.5-0.8,1.2-1.4,2.1-1.8
			c0.9-0.4,1.9-0.6,2.9-0.6c0.7,0,1.5,0.1,2.2,0.3h5.2v2.9h-2.4c0.2,0.2,0.3,0.5,0.4,0.9c0.1,0.4,0.2,0.8,0.2,1.1
			c0,1.6-0.5,2.8-1.6,3.6s-2.4,1.2-4,1.2c-0.6,0-1.2-0.1-1.8-0.3c-0.2,0.2-0.3,0.3-0.4,0.5c-0.1,0.2-0.1,0.4-0.1,0.7
			c0,0.4,0.2,0.6,0.5,0.8c0.3,0.2,0.9,0.3,1.7,0.3h2.4c1.8,0,3.1,0.3,4,0.9c0.9,0.6,1.4,1.5,1.4,2.8c0,1-0.3,1.8-1,2.6
			c-0.6,0.8-1.6,1.4-2.8,1.8c-1.2,0.4-2.6,0.7-4.2,0.7C747.9,491.9,746.5,491.6,745.3,491z M752.8,488.8c0.7-0.4,1-0.8,1-1.4
			c0-0.5-0.2-0.8-0.6-1c-0.4-0.2-0.9-0.3-1.7-0.3h-1.7c-0.9,0-1.5-0.1-2-0.2c-0.6,0.5-0.9,1-0.9,1.6c0,0.6,0.3,1,0.9,1.3
			c0.6,0.3,1.4,0.5,2.4,0.5C751.3,489.4,752.1,489.2,752.8,488.8z M751.5,478.1c0.4-0.4,0.6-1.1,0.6-1.9c0-0.8-0.2-1.4-0.6-1.8
			s-0.9-0.7-1.6-0.7c-0.6,0-1.2,0.2-1.5,0.7c-0.4,0.4-0.6,1-0.6,1.8s0.2,1.4,0.6,1.9c0.4,0.5,0.9,0.7,1.5,0.7
			C750.6,478.8,751.1,478.5,751.5,478.1z"/>
	</g>
	<path class="st4" d="M821.8,470.7c4.1,4.1,4.2,10.8,0,15l0,0l-5,5c-4.2,4.1-10.9,4-15-0.1c-4.1-4.1-4.1-10.7,0-14.9l3-3
		c0.7-0.7,2,0,2,1c0.2,1.4,0.5,2.7,1,4c0.1,0.4-0.7,0.7-1,1l-1,1c-1.9,1.9-2,5-0.1,6.9l0.1,0.1c1.8,1.9,4.9,2,6.8,0.2l0.2-0.2l5-5
		c1.9-1.9,2-5,0.1-6.9l-0.1-0.1c-0.3-0.3-0.8-0.9-1-1c-0.3-0.2,0,0.4,0,0c0-1.1,0.4-2.1,1-3l1-1c0.6-0.4,1.4-0.4,2,0
		C821.2,470,821.5,470.4,821.8,470.7z M831.8,460.7c-4.1-4.1-10.8-4.2-14.9-0.1l-0.1,0.1l-5,5c-4.1,4.1-4.2,10.8,0,15l0,0
		c0.4,0.4,1.5,0.6,2,1c0.5,0.3,0.6,0.4,1,0l2-1c0.6-0.6,0-2.3,0-3c0-0.4,0.3,0.2,0,0c-0.2-0.1-0.7-0.7-1-1c-1.9-1.9-2-5-0.1-6.9
		l0.1-0.1l5-5c1.8-1.9,4.9-2,6.8-0.2l0.2,0.2c1.9,1.9,2,5,0.1,6.9l-0.1,0.1l-1,1c-0.3,0.3-0.1,0.6,0,1c0.5,1.3,0.8,2.6,1,4
		c0,1,0.3,1.7,1,1l3-3C835.9,471.6,836,464.9,831.8,460.7L831.8,460.7z"/>
	<g>
		<path class="st4" d="M849.3,484.9h4.4v-14.5h-3.5v-1.4c1.6-0.3,2.9-0.7,4-1.4h1.7v17.3h4v1.8h-10.6V484.9z"/>
		<path class="st4" d="M862.5,485.4c2.3-2.3,4-4.1,5.2-5.5c1.2-1.4,2.2-2.6,2.9-3.8c0.7-1.2,1-2.2,1-3.3c0-1.2-0.3-2.1-1-2.8
			c-0.6-0.7-1.6-1.1-2.8-1.1c-0.8,0-1.5,0.2-2.2,0.6c-0.7,0.4-1.4,1-2,1.7l-1.3-1.3c0.8-0.9,1.7-1.6,2.6-2.1c0.9-0.5,2-0.8,3.1-0.8
			c1.7,0,3.1,0.5,4.1,1.5c1,1,1.5,2.4,1.5,4c0,1.2-0.3,2.4-1,3.6c-0.7,1.2-1.5,2.5-2.6,3.7c-1.1,1.2-2.6,2.9-4.5,4.9l0.7,0
			c1.1-0.1,2-0.1,2.5-0.1h5.8v1.9h-12.2V485.4z"/>
		<path class="st4" d="M876.9,484.4l1.1-1.4c0.7,0.7,1.4,1.3,2.2,1.7c0.8,0.4,1.7,0.6,2.8,0.6c1.2,0,2.2-0.3,3-1
			c0.8-0.7,1.1-1.6,1.1-2.7c0-2.6-2.1-4-6.3-4v-1.7c2,0,3.4-0.3,4.3-1c0.9-0.7,1.3-1.6,1.3-2.7c0-1-0.3-1.7-0.9-2.3
			c-0.6-0.6-1.5-0.9-2.5-0.9c-1.5,0-2.9,0.7-4.2,2l-1.2-1.4c1.7-1.6,3.5-2.4,5.4-2.4c1.7,0,3,0.4,4,1.3c1,0.9,1.6,2,1.6,3.5
			c0,1.1-0.3,2.1-0.9,2.8c-0.6,0.8-1.5,1.4-2.6,1.8v0.1c1.2,0.3,2.3,0.9,3,1.7c0.8,0.9,1.2,1.9,1.2,3.2c0,1.1-0.3,2.1-0.8,2.9
			c-0.5,0.8-1.3,1.5-2.2,1.9c-0.9,0.4-2,0.7-3.2,0.7C880.6,487.1,878.5,486.2,876.9,484.4z"/>
		<path class="st4" d="M904.7,481.3h-2.7v5.4H900v-5.4h-8.6v-1.4l8.4-12.3h2.3v12h2.7V481.3z M900,479.6v-5.9c0-0.8,0-2,0.1-3.6H900
			c-0.4,0.7-0.7,1.3-0.9,1.6l-0.6,1l-4.8,6.9H900z"/>
		<path class="st4" d="M909,486.4c-1-0.5-1.9-1.1-2.7-1.9l1.1-1.4c0.7,0.7,1.4,1.2,2.2,1.6c0.8,0.4,1.7,0.6,2.7,0.6
			c0.8,0,1.5-0.2,2.2-0.6c0.7-0.4,1.2-0.9,1.6-1.6c0.4-0.7,0.6-1.5,0.6-2.4c0-1.4-0.4-2.4-1.1-3.2c-0.8-0.8-1.8-1.2-3.1-1.2
			c-0.6,0-1.2,0.1-1.7,0.3c-0.5,0.2-1,0.5-1.7,0.9l-1.2-0.8l0.6-9.1h9.4v1.9h-7.5l-0.5,6c0.5-0.3,1-0.5,1.5-0.6
			c0.5-0.1,1-0.2,1.6-0.2c1.7,0,3.2,0.5,4.3,1.5c1.1,1,1.7,2.5,1.7,4.5c0,1.3-0.3,2.5-0.9,3.5c-0.6,1-1.4,1.7-2.3,2.2
			c-1,0.5-2,0.8-3.1,0.8C911.2,487.1,910,486.8,909,486.4z"/>
		<path class="st4" d="M932.4,476.6c1,1,1.4,2.5,1.4,4.4c0,1.2-0.3,2.2-0.8,3.1c-0.5,0.9-1.2,1.6-2,2.2c-0.9,0.5-1.8,0.8-2.8,0.8
			c-1.3,0-2.4-0.3-3.4-1c-1-0.7-1.7-1.7-2.3-3.1c-0.5-1.4-0.8-3-0.8-5c0-2.5,0.3-4.5,1-6.1c0.7-1.6,1.5-2.8,2.6-3.5
			c1.1-0.7,2.3-1.1,3.6-1.1c1.8,0,3.2,0.7,4.5,2l-1.2,1.4c-0.4-0.5-0.9-0.9-1.4-1.1s-1.1-0.4-1.8-0.4c-1.5,0-2.8,0.7-3.7,2
			s-1.5,3.5-1.5,6.5c0.6-0.8,1.3-1.4,2.2-1.8c0.8-0.4,1.6-0.7,2.4-0.7C930.2,475.1,931.5,475.6,932.4,476.6z M930.8,484.1
			c0.7-0.8,1-1.9,1-3.1c0-1.3-0.3-2.4-0.9-3.1c-0.6-0.8-1.5-1.1-2.8-1.1c-0.7,0-1.4,0.2-2.1,0.6c-0.7,0.4-1.4,1.1-2.1,2
			c0.2,1.9,0.6,3.4,1.4,4.4c0.7,1,1.8,1.5,3.1,1.5C929.3,485.3,930.2,484.9,930.8,484.1z"/>
		<path class="st4" d="M942,477.3c0.8-2.6,2.2-5.2,4.1-7.8h-9.7v-1.9h12.2v1.3c-1.5,1.9-2.6,3.8-3.4,5.5c-0.8,1.8-1.4,3.6-1.7,5.5
			s-0.6,4.2-0.7,6.8h-2.2C940.7,483,941.2,479.9,942,477.3z"/>
		<path class="st4" d="M954.1,486.4c-0.9-0.5-1.7-1.1-2.2-1.9c-0.5-0.8-0.8-1.7-0.8-2.7c0-1.2,0.3-2.2,1-3.1
			c0.7-0.9,1.6-1.6,2.6-2.2v-0.1c-1.8-1.3-2.7-2.7-2.7-4.4c0-1,0.2-1.8,0.7-2.5s1.1-1.3,1.9-1.7c0.8-0.4,1.7-0.6,2.7-0.6
			c1.6,0,2.9,0.5,3.9,1.4c1,0.9,1.5,2.2,1.5,3.7c0,0.9-0.3,1.8-0.8,2.6c-0.5,0.8-1.2,1.5-1.9,2.1v0.1c1,0.6,1.9,1.3,2.4,2
			c0.6,0.7,0.9,1.7,0.9,2.8c0,0.9-0.3,1.8-0.8,2.6c-0.5,0.8-1.2,1.4-2.1,1.8c-0.9,0.4-2,0.7-3.2,0.7
			C956.1,487.1,955.1,486.9,954.1,486.4z M960.2,484.5c0.7-0.6,1.1-1.5,1.1-2.5c0-0.8-0.2-1.5-0.7-2.1c-0.5-0.5-1-1-1.7-1.3
			c-0.7-0.3-1.7-0.8-2.9-1.3c-0.9,0.5-1.5,1.2-2.1,1.9c-0.5,0.7-0.8,1.6-0.8,2.4c0,1.1,0.4,2,1.2,2.7c0.8,0.7,1.8,1.1,3.1,1.1
			C958.5,485.4,959.5,485.1,960.2,484.5z M960.8,472.4c0-1-0.3-1.9-0.9-2.5c-0.6-0.7-1.5-1-2.5-1c-0.9,0-1.7,0.3-2.3,0.9
			c-0.6,0.6-0.9,1.4-0.9,2.3c0,1.1,0.4,1.9,1.2,2.5c0.8,0.6,1.9,1.2,3.4,1.8C960.1,475.1,960.8,473.8,960.8,472.4z"/>
		<path class="st4" d="M974.8,468.3c1,0.7,1.8,1.7,2.3,3.1c0.5,1.4,0.8,3,0.8,5c0,2.5-0.3,4.5-1,6.1s-1.5,2.8-2.6,3.5
			c-1.1,0.7-2.3,1.1-3.6,1.1c-1.8,0-3.3-0.7-4.5-2l1.2-1.4c0.4,0.5,0.9,0.9,1.4,1.1c0.5,0.3,1.1,0.4,1.7,0.4c1.5,0,2.8-0.7,3.7-2
			c1-1.3,1.5-3.5,1.5-6.5c-0.6,0.8-1.3,1.4-2.1,1.8c-0.8,0.4-1.6,0.7-2.4,0.7c-1.7,0-3-0.5-4-1.5c-1-1-1.4-2.5-1.4-4.4
			c0-1.2,0.2-2.2,0.8-3.1c0.5-0.9,1.2-1.7,2-2.2c0.9-0.5,1.8-0.8,2.8-0.8C972.7,467.2,973.8,467.6,974.8,468.3z M973.7,476.9
			c0.7-0.4,1.4-1.1,2.1-2c-0.1-1.9-0.6-3.4-1.3-4.4c-0.7-1-1.8-1.6-3.1-1.6c-1,0-1.8,0.4-2.5,1.2s-1,1.9-1,3.1
			c0,1.3,0.3,2.4,0.9,3.1c0.6,0.8,1.5,1.1,2.8,1.1C972.3,477.6,973,477.4,973.7,476.9z"/>
	</g>
	<path class="st4" d="M537.4,461.7h-20.3c-1.9,0-3.4,1.5-3.4,3.4v20.3c0,1.9,1.5,3.4,3.4,3.4h20.3c1.9,0,3.4-1.5,3.4-3.4v-20.3
		C540.8,463.2,539.3,461.7,537.4,461.7z M550.7,464.4l-7.7,5.3v11.1l7.7,5.3c1,0.7,2.4,0.5,3.1-0.6c0.3-0.4,0.4-0.8,0.4-1.3v-18.1
		c0-1.2-1-2.2-2.3-2.2C551.5,464,551.1,464.1,550.7,464.4z"/>
	<path class="st4" d="M1120.2,464.3l9,9l-19.5,19.5l-8,0.9c-0.9,0.1-1.8-0.6-1.9-1.5c0-0.1,0-0.2,0-0.4l0.9-8L1120.2,464.3z
		 M1134.8,462.9l-4.2-4.2c-1.3-1.3-3.5-1.3-4.8,0l-4,4l9,9l4-4C1136.1,466.4,1136.1,464.3,1134.8,462.9L1134.8,462.9z"/>
	<path class="st0" d="M514.8,544.7h622c21.5,0,39,17.5,39,39s-17.5,39-39,39h-622c-21.5,0-39-17.5-39-39S493.2,544.7,514.8,544.7z"
		/>
	<g>
		<path class="st4" d="M587.9,590H582l-1.3,4.7h-4.1l6-18.9h4.7l6,18.9h-4.2L587.9,590z M587.1,586.9l-0.5-1.9c-0.2-0.9-0.6-2.2-1-4
			l-0.6-2.1h-0.1c-0.6,2.5-1.1,4.5-1.5,6.1l-0.5,1.9H587.1z"/>
		<path class="st4" d="M595.2,580.4h3.2l0.3,1.9h0.1c0.7-0.7,1.4-1.2,2.2-1.6c0.7-0.4,1.6-0.6,2.5-0.6c1.5,0,2.6,0.5,3.3,1.5
			c0.7,1,1.1,2.4,1.1,4.3v8.9h-4v-8.4c0-1.1-0.2-1.8-0.4-2.2c-0.3-0.4-0.8-0.6-1.5-0.6c-0.5,0-1,0.1-1.4,0.3s-0.9,0.6-1.5,1.2v9.8
			h-3.9V580.4z"/>
		<path class="st4" d="M614.3,594.2c-1.1-0.6-1.9-1.5-2.5-2.6c-0.6-1.1-1-2.5-1-4c0-1.5,0.3-2.9,1-4c0.6-1.1,1.5-2,2.5-2.6
			c1.1-0.6,2.2-0.9,3.4-0.9c1.2,0,2.4,0.3,3.4,0.9c1.1,0.6,1.9,1.5,2.6,2.6c0.6,1.2,1,2.5,1,4c0,1.5-0.3,2.9-1,4
			c-0.6,1.1-1.5,2-2.6,2.6c-1.1,0.6-2.2,0.9-3.4,0.9C616.5,595.1,615.4,594.8,614.3,594.2z M619.9,590.7c0.5-0.8,0.8-1.8,0.8-3.1
			s-0.3-2.4-0.8-3.2c-0.5-0.8-1.2-1.2-2.1-1.2c-0.9,0-1.6,0.4-2.1,1.2c-0.5,0.8-0.7,1.8-0.7,3.2s0.2,2.4,0.7,3.1
			c0.5,0.8,1.2,1.1,2.1,1.1C618.7,591.9,619.4,591.5,619.9,590.7z"/>
		<path class="st4" d="M628.7,593.6c-0.8-1-1.2-2.3-1.2-4v-6.1h-2v-3l2.2-0.2l0.5-3.8h3.3v3.8h3.5v3.1h-3.5v6.1
			c0,1.6,0.6,2.3,1.9,2.3c0.4,0,0.9-0.1,1.4-0.3l0.6,2.9c-1,0.3-2.1,0.5-3.1,0.5C630.7,595.1,629.5,594.6,628.7,593.6z"/>
		<path class="st4" d="M637.9,574.3h3.9v5.1l-0.2,2.7c0.7-0.6,1.4-1.1,2.1-1.5c0.7-0.4,1.5-0.6,2.4-0.6c1.5,0,2.6,0.5,3.3,1.5
			c0.7,1,1.1,2.4,1.1,4.3v8.9h-4v-8.4c0-1.1-0.2-1.8-0.4-2.2c-0.3-0.4-0.8-0.6-1.5-0.6c-0.5,0-1,0.1-1.4,0.3s-0.9,0.6-1.5,1.2v9.8
			h-3.9V574.3z"/>
		<path class="st4" d="M666.1,588.7h-8.9c0.2,1.1,0.7,2,1.4,2.5c0.7,0.5,1.6,0.8,2.6,0.8c1,0,2.1-0.3,3.2-1l1.3,2.4
			c-0.7,0.5-1.5,0.9-2.4,1.2c-0.9,0.3-1.8,0.4-2.6,0.4c-1.4,0-2.6-0.3-3.7-0.9c-1.1-0.6-2-1.5-2.6-2.6c-0.6-1.1-0.9-2.5-0.9-4
			c0-1.5,0.3-2.8,0.9-4c0.6-1.1,1.5-2,2.5-2.6c1-0.6,2.1-0.9,3.3-0.9c2,0,3.5,0.6,4.5,1.9c1,1.3,1.6,2.9,1.6,5
			C666.2,587.6,666.2,588.2,666.1,588.7z M662.9,586.1c0-0.9-0.2-1.7-0.6-2.2c-0.4-0.5-1.1-0.8-1.9-0.8c-0.7,0-1.3,0.2-1.9,0.7
			c-0.6,0.5-0.9,1.2-1.1,2.2H662.9z"/>
		<path class="st4" d="M669.3,580.4h3.2l0.3,2.5h0.1c0.5-0.9,1.1-1.6,1.8-2.1c0.7-0.5,1.5-0.7,2.2-0.7c0.7,0,1.2,0.1,1.7,0.3
			l-0.7,3.4c-0.1,0-0.2-0.1-0.5-0.1c-0.3-0.1-0.6-0.1-1-0.1c-0.6,0-1.2,0.2-1.8,0.7c-0.6,0.4-1.1,1.1-1.5,2.1v8.5h-3.9V580.4z"/>
		<path class="st4" d="M686.7,575.8h4.4l3.2,8.7c0.3,0.8,0.5,1.6,0.8,2.4l0.4,1.2h0.1l0.5-1.7c0.3-1,0.5-1.7,0.6-1.9l3.1-8.7h4.4
			v18.9h-3.6v-7.5c0-1.1,0.1-2.8,0.4-5.2l0.1-1.1h-0.1l-1.5,4.4l-2.8,7.7h-2.3l-2.8-7.7l-1.5-4.4h-0.1l0.1,1.1
			c0.3,2.4,0.4,4.1,0.4,5.2v7.5h-3.6V575.8z"/>
		<path class="st4" d="M720,588.7h-8.9c0.2,1.1,0.7,2,1.4,2.5c0.7,0.5,1.6,0.8,2.6,0.8c1,0,2.1-0.3,3.2-1l1.3,2.4
			c-0.7,0.5-1.5,0.9-2.4,1.2c-0.9,0.3-1.8,0.4-2.6,0.4c-1.4,0-2.6-0.3-3.7-0.9c-1.1-0.6-2-1.5-2.6-2.6c-0.6-1.1-0.9-2.5-0.9-4
			c0-1.5,0.3-2.8,0.9-4c0.6-1.1,1.5-2,2.5-2.6c1-0.6,2.1-0.9,3.3-0.9c2,0,3.5,0.6,4.5,1.9c1,1.3,1.6,2.9,1.6,5
			C720.2,587.6,720.2,588.2,720,588.7z M716.8,586.1c0-0.9-0.2-1.7-0.6-2.2c-0.4-0.5-1.1-0.8-1.9-0.8c-0.7,0-1.3,0.2-1.9,0.7
			c-0.6,0.5-0.9,1.2-1.1,2.2H716.8z"/>
		<path class="st4" d="M734.9,588.7h-8.9c0.2,1.1,0.7,2,1.4,2.5c0.7,0.5,1.6,0.8,2.6,0.8c1,0,2.1-0.3,3.2-1l1.3,2.4
			c-0.7,0.5-1.5,0.9-2.4,1.2c-0.9,0.3-1.8,0.4-2.6,0.4c-1.4,0-2.6-0.3-3.7-0.9c-1.1-0.6-2-1.5-2.6-2.6c-0.6-1.1-0.9-2.5-0.9-4
			c0-1.5,0.3-2.8,0.9-4c0.6-1.1,1.5-2,2.5-2.6c1-0.6,2.1-0.9,3.3-0.9c2,0,3.5,0.6,4.5,1.9c1,1.3,1.6,2.9,1.6,5
			C735.1,587.6,735.1,588.2,734.9,588.7z M731.7,586.1c0-0.9-0.2-1.7-0.6-2.2c-0.4-0.5-1.1-0.8-1.9-0.8c-0.7,0-1.3,0.2-1.9,0.7
			c-0.6,0.5-0.9,1.2-1.1,2.2H731.7z"/>
		<path class="st4" d="M739.6,593.6c-0.8-1-1.2-2.3-1.2-4v-6.1h-2v-3l2.2-0.2l0.5-3.8h3.3v3.8h3.5v3.1h-3.5v6.1
			c0,1.6,0.6,2.3,1.9,2.3c0.4,0,0.9-0.1,1.4-0.3l0.6,2.9c-1,0.3-2.1,0.5-3.1,0.5C741.5,595.1,740.3,594.6,739.6,593.6z"/>
		<path class="st4" d="M749.1,577.5c-0.4-0.4-0.6-0.9-0.6-1.5c0-0.6,0.2-1.1,0.6-1.5c0.4-0.4,1-0.6,1.6-0.6c0.7,0,1.2,0.2,1.6,0.6
			c0.4,0.4,0.6,0.9,0.6,1.5c0,0.6-0.2,1.1-0.6,1.5c-0.4,0.4-1,0.6-1.6,0.6C750.1,578.1,749.5,577.9,749.1,577.5z M748.8,580.4h3.9
			v14.4h-3.9V580.4z"/>
		<path class="st4" d="M756.6,580.4h3.2l0.3,1.9h0.1c0.7-0.7,1.4-1.2,2.2-1.6c0.7-0.4,1.6-0.6,2.5-0.6c1.5,0,2.6,0.5,3.3,1.5
			c0.7,1,1.1,2.4,1.1,4.3v8.9h-4v-8.4c0-1.1-0.2-1.8-0.4-2.2c-0.3-0.4-0.8-0.6-1.5-0.6c-0.5,0-1,0.1-1.4,0.3s-0.9,0.6-1.5,1.2v9.8
			h-3.9V580.4z"/>
		<path class="st4" d="M773.9,600c-1.1-0.6-1.7-1.5-1.7-2.7s0.7-2.2,2.1-3v-0.1c-0.9-0.6-1.3-1.4-1.3-2.4c0-0.5,0.1-1,0.4-1.5
			s0.7-0.9,1.1-1.2V589c-0.6-0.4-1-0.9-1.4-1.6c-0.4-0.7-0.5-1.4-0.5-2.2c0-1.1,0.3-2,0.8-2.8c0.5-0.8,1.2-1.4,2.1-1.8
			c0.9-0.4,1.9-0.6,2.9-0.6c0.7,0,1.5,0.1,2.2,0.3h5.2v2.9h-2.4c0.2,0.2,0.3,0.5,0.4,0.9c0.1,0.4,0.2,0.8,0.2,1.1
			c0,1.6-0.5,2.8-1.6,3.6s-2.4,1.2-4,1.2c-0.6,0-1.2-0.1-1.8-0.3c-0.2,0.2-0.3,0.3-0.4,0.5c-0.1,0.2-0.1,0.4-0.1,0.7
			c0,0.4,0.2,0.6,0.5,0.8c0.3,0.2,0.9,0.3,1.7,0.3h2.4c1.8,0,3.1,0.3,4,0.9c0.9,0.6,1.4,1.5,1.4,2.8c0,1-0.3,1.8-1,2.6
			c-0.6,0.8-1.6,1.4-2.8,1.8c-1.2,0.4-2.6,0.7-4.2,0.7C776.4,600.9,775,600.6,773.9,600z M781.3,597.8c0.7-0.4,1-0.8,1-1.4
			c0-0.5-0.2-0.8-0.6-1c-0.4-0.2-0.9-0.3-1.7-0.3h-1.7c-0.9,0-1.5-0.1-2-0.2c-0.6,0.5-0.9,1-0.9,1.6c0,0.6,0.3,1,0.9,1.3
			c0.6,0.3,1.4,0.5,2.4,0.5C779.8,598.4,780.6,598.2,781.3,597.8z M780,587.1c0.4-0.4,0.6-1.1,0.6-1.9c0-0.8-0.2-1.4-0.6-1.8
			s-0.9-0.7-1.6-0.7c-0.6,0-1.2,0.2-1.5,0.7c-0.4,0.4-0.6,1-0.6,1.8s0.2,1.4,0.6,1.9c0.4,0.5,0.9,0.7,1.5,0.7
			C779.1,587.8,779.6,587.5,780,587.1z"/>
	</g>
	<path class="st4" d="M821.8,579.7c4.1,4.1,4.2,10.8,0,15l0,0l-5,5c-4.2,4.1-10.9,4-15-0.1c-4.1-4.1-4.1-10.7,0-14.9l3-3
		c0.7-0.7,2,0,2,1c0.2,1.4,0.5,2.7,1,4c0.1,0.4-0.7,0.7-1,1l-1,1c-1.9,1.9-2,5-0.1,6.9l0.1,0.1c1.8,1.9,4.9,2,6.8,0.2l0.2-0.2l5-5
		c1.9-1.9,2-5,0.1-6.9l-0.1-0.1c-0.3-0.3-0.8-0.9-1-1c-0.3-0.2,0,0.4,0,0c0-1.1,0.4-2.1,1-3l1-1c0.6-0.4,1.4-0.4,2,0
		C821.2,579,821.5,579.4,821.8,579.7z M831.8,569.7c-4.1-4.1-10.8-4.2-14.9-0.1l-0.1,0.1l-5,5c-4.1,4.1-4.2,10.8,0,15l0,0
		c0.4,0.4,1.5,0.6,2,1c0.5,0.3,0.6,0.4,1,0l2-1c0.6-0.6,0-2.3,0-3c0-0.4,0.3,0.2,0,0c-0.2-0.1-0.7-0.7-1-1c-1.9-1.9-2-5-0.1-6.9
		l0.1-0.1l5-5c1.8-1.9,4.9-2,6.8-0.2l0.2,0.2c1.9,1.9,2,5,0.1,6.9l-0.1,0.1l-1,1c-0.3,0.3-0.1,0.6,0,1c0.5,1.3,0.8,2.6,1,4
		c0,1,0.3,1.7,1,1l3-3C835.9,580.6,836,573.9,831.8,569.7L831.8,569.7z"/>
	<g>
		<path class="st4" d="M849.3,593.9h4.4v-14.5h-3.5v-1.4c1.6-0.3,2.9-0.7,4-1.4h1.7v17.3h4v1.8h-10.6V593.9z"/>
		<path class="st4" d="M862.5,594.4c2.3-2.3,4-4.1,5.2-5.5c1.2-1.4,2.2-2.6,2.9-3.8c0.7-1.2,1-2.2,1-3.3c0-1.2-0.3-2.1-1-2.8
			c-0.6-0.7-1.6-1.1-2.8-1.1c-0.8,0-1.5,0.2-2.2,0.6c-0.7,0.4-1.4,1-2,1.7l-1.3-1.3c0.8-0.9,1.7-1.6,2.6-2.1c0.9-0.5,2-0.8,3.1-0.8
			c1.7,0,3.1,0.5,4.1,1.5c1,1,1.5,2.4,1.5,4c0,1.2-0.3,2.4-1,3.6c-0.7,1.2-1.5,2.5-2.6,3.7c-1.1,1.2-2.6,2.9-4.5,4.9l0.7,0
			c1.1-0.1,2-0.1,2.5-0.1h5.8v1.9h-12.2V594.4z"/>
		<path class="st4" d="M876.9,593.4l1.1-1.4c0.7,0.7,1.4,1.3,2.2,1.7c0.8,0.4,1.7,0.6,2.8,0.6c1.2,0,2.2-0.3,3-1
			c0.8-0.7,1.1-1.6,1.1-2.7c0-2.6-2.1-4-6.3-4v-1.7c2,0,3.4-0.3,4.3-1c0.9-0.7,1.3-1.6,1.3-2.7c0-1-0.3-1.7-0.9-2.3
			c-0.6-0.6-1.5-0.9-2.5-0.9c-1.5,0-2.9,0.7-4.2,2l-1.2-1.4c1.7-1.6,3.5-2.4,5.4-2.4c1.7,0,3,0.4,4,1.3c1,0.9,1.6,2,1.6,3.5
			c0,1.1-0.3,2.1-0.9,2.8c-0.6,0.8-1.5,1.4-2.6,1.8v0.1c1.2,0.3,2.3,0.9,3,1.7c0.8,0.9,1.2,1.9,1.2,3.2c0,1.1-0.3,2.1-0.8,2.9
			c-0.5,0.8-1.3,1.5-2.2,1.9c-0.9,0.4-2,0.7-3.2,0.7C880.6,596.1,878.5,595.2,876.9,593.4z"/>
		<path class="st4" d="M904.7,590.3h-2.7v5.4H900v-5.4h-8.6v-1.4l8.4-12.3h2.3v12h2.7V590.3z M900,588.6v-5.9c0-0.8,0-2,0.1-3.6H900
			c-0.4,0.7-0.7,1.3-0.9,1.6l-0.6,1l-4.8,6.9H900z"/>
		<path class="st4" d="M909,595.4c-1-0.5-1.9-1.1-2.7-1.9l1.1-1.4c0.7,0.7,1.4,1.2,2.2,1.6c0.8,0.4,1.7,0.6,2.7,0.6
			c0.8,0,1.5-0.2,2.2-0.6c0.7-0.4,1.2-0.9,1.6-1.6c0.4-0.7,0.6-1.5,0.6-2.4c0-1.4-0.4-2.4-1.1-3.2c-0.8-0.8-1.8-1.2-3.1-1.2
			c-0.6,0-1.2,0.1-1.7,0.3c-0.5,0.2-1,0.5-1.7,0.9l-1.2-0.8l0.6-9.1h9.4v1.9h-7.5l-0.5,6c0.5-0.3,1-0.5,1.5-0.6
			c0.5-0.1,1-0.2,1.6-0.2c1.7,0,3.2,0.5,4.3,1.5c1.1,1,1.7,2.5,1.7,4.5c0,1.3-0.3,2.5-0.9,3.5c-0.6,1-1.4,1.7-2.3,2.2
			c-1,0.5-2,0.8-3.1,0.8C911.2,596.1,910,595.8,909,595.4z"/>
		<path class="st4" d="M932.4,585.6c1,1,1.4,2.5,1.4,4.4c0,1.2-0.3,2.2-0.8,3.1c-0.5,0.9-1.2,1.6-2,2.2c-0.9,0.5-1.8,0.8-2.8,0.8
			c-1.3,0-2.4-0.3-3.4-1c-1-0.7-1.7-1.7-2.3-3.1c-0.5-1.4-0.8-3-0.8-5c0-2.5,0.3-4.5,1-6.1c0.7-1.6,1.5-2.8,2.6-3.5
			c1.1-0.7,2.3-1.1,3.6-1.1c1.8,0,3.2,0.7,4.5,2l-1.2,1.4c-0.4-0.5-0.9-0.9-1.4-1.1s-1.1-0.4-1.8-0.4c-1.5,0-2.8,0.7-3.7,2
			s-1.5,3.5-1.5,6.5c0.6-0.8,1.3-1.4,2.2-1.8c0.8-0.4,1.6-0.7,2.4-0.7C930.2,584.1,931.5,584.6,932.4,585.6z M930.8,593.1
			c0.7-0.8,1-1.9,1-3.1c0-1.3-0.3-2.4-0.9-3.1c-0.6-0.8-1.5-1.1-2.8-1.1c-0.7,0-1.4,0.2-2.1,0.6c-0.7,0.4-1.4,1.1-2.1,2
			c0.2,1.9,0.6,3.4,1.4,4.4c0.7,1,1.8,1.5,3.1,1.5C929.3,594.3,930.2,593.9,930.8,593.1z"/>
		<path class="st4" d="M942,586.3c0.8-2.6,2.2-5.2,4.1-7.8h-9.7v-1.9h12.2v1.3c-1.5,1.9-2.6,3.8-3.4,5.5c-0.8,1.8-1.4,3.6-1.7,5.5
			s-0.6,4.2-0.7,6.8h-2.2C940.7,592,941.2,588.9,942,586.3z"/>
		<path class="st4" d="M954.1,595.4c-0.9-0.5-1.7-1.1-2.2-1.9c-0.5-0.8-0.8-1.7-0.8-2.7c0-1.2,0.3-2.2,1-3.1
			c0.7-0.9,1.6-1.6,2.6-2.2v-0.1c-1.8-1.3-2.7-2.7-2.7-4.4c0-1,0.2-1.8,0.7-2.5s1.1-1.3,1.9-1.7c0.8-0.4,1.7-0.6,2.7-0.6
			c1.6,0,2.9,0.5,3.9,1.4c1,0.9,1.5,2.2,1.5,3.7c0,0.9-0.3,1.8-0.8,2.6c-0.5,0.8-1.2,1.5-1.9,2.1v0.1c1,0.6,1.9,1.3,2.4,2
			c0.6,0.7,0.9,1.7,0.9,2.8c0,0.9-0.3,1.8-0.8,2.6c-0.5,0.8-1.2,1.4-2.1,1.8c-0.9,0.4-2,0.7-3.2,0.7
			C956.1,596.1,955.1,595.9,954.1,595.4z M960.2,593.5c0.7-0.6,1.1-1.5,1.1-2.5c0-0.8-0.2-1.5-0.7-2.1c-0.5-0.5-1-1-1.7-1.3
			c-0.7-0.3-1.7-0.8-2.9-1.3c-0.9,0.5-1.5,1.2-2.1,1.9c-0.5,0.7-0.8,1.6-0.8,2.4c0,1.1,0.4,2,1.2,2.7c0.8,0.7,1.8,1.1,3.1,1.1
			C958.5,594.4,959.5,594.1,960.2,593.5z M960.8,581.4c0-1-0.3-1.9-0.9-2.5c-0.6-0.7-1.5-1-2.5-1c-0.9,0-1.7,0.3-2.3,0.9
			c-0.6,0.6-0.9,1.4-0.9,2.3c0,1.1,0.4,1.9,1.2,2.5c0.8,0.6,1.9,1.2,3.4,1.8C960.1,584.1,960.8,582.8,960.8,581.4z"/>
		<path class="st4" d="M974.8,577.3c1,0.7,1.8,1.7,2.3,3.1c0.5,1.4,0.8,3,0.8,5c0,2.5-0.3,4.5-1,6.1s-1.5,2.8-2.6,3.5
			c-1.1,0.7-2.3,1.1-3.6,1.1c-1.8,0-3.3-0.7-4.5-2l1.2-1.4c0.4,0.5,0.9,0.9,1.4,1.1c0.5,0.3,1.1,0.4,1.7,0.4c1.5,0,2.8-0.7,3.7-2
			c1-1.3,1.5-3.5,1.5-6.5c-0.6,0.8-1.3,1.4-2.1,1.8c-0.8,0.4-1.6,0.7-2.4,0.7c-1.7,0-3-0.5-4-1.5c-1-1-1.4-2.5-1.4-4.4
			c0-1.2,0.2-2.2,0.8-3.1c0.5-0.9,1.2-1.7,2-2.2c0.9-0.5,1.8-0.8,2.8-0.8C972.7,576.2,973.8,576.6,974.8,577.3z M973.7,585.9
			c0.7-0.4,1.4-1.1,2.1-2c-0.1-1.9-0.6-3.4-1.3-4.4c-0.7-1-1.8-1.6-3.1-1.6c-1,0-1.8,0.4-2.5,1.2s-1,1.9-1,3.1
			c0,1.3,0.3,2.4,0.9,3.1c0.6,0.8,1.5,1.1,2.8,1.1C972.3,586.6,973,586.4,973.7,585.9z"/>
	</g>
	<path class="st4" d="M537.4,570.7h-20.3c-1.9,0-3.4,1.5-3.4,3.4v20.3c0,1.9,1.5,3.4,3.4,3.4h20.3c1.9,0,3.4-1.5,3.4-3.4v-20.3
		C540.8,572.2,539.3,570.7,537.4,570.7z M550.7,573.4l-7.7,5.3v11.1l7.7,5.3c1,0.7,2.4,0.5,3.1-0.6c0.3-0.4,0.4-0.8,0.4-1.3v-18.1
		c0-1.2-1-2.2-2.3-2.2C551.5,573,551.1,573.1,550.7,573.4z"/>
	<path class="st4" d="M1120.2,573.3l9,9l-19.5,19.5l-8,0.9c-0.9,0.1-1.8-0.6-1.9-1.5c0-0.1,0-0.2,0-0.4l0.9-8L1120.2,573.3z
		 M1134.8,571.9l-4.2-4.2c-1.3-1.3-3.5-1.3-4.8,0l-4,4l9,9l4-4C1136.1,575.4,1136.1,573.3,1134.8,571.9L1134.8,571.9z"/>
	<path class="st0" d="M514.8,653.7h622c21.5,0,39,17.5,39,39s-17.5,39-39,39h-622c-21.5,0-39-17.5-39-39S493.2,653.7,514.8,653.7z"
		/>
	<g>
		<path class="st4" d="M579.1,684.8h4v15.6h7.6v3.3h-11.6V684.8z"/>
		<path class="st4" d="M594.1,702.9c-0.8-0.8-1.2-1.8-1.2-3.1c0-1.5,0.6-2.7,1.9-3.6c1.3-0.8,3.4-1.4,6.2-1.7
			c-0.1-1.5-0.9-2.3-2.4-2.3c-0.6,0-1.2,0.1-1.8,0.3c-0.6,0.2-1.3,0.6-2,1l-1.4-2.6c2-1.3,4-1.9,6-1.9c1.8,0,3.2,0.5,4.2,1.6
			s1.4,2.7,1.4,4.8v8.3h-3.2l-0.3-1.5h-0.1c-1.4,1.2-2.9,1.9-4.3,1.9C595.9,704.1,594.9,703.7,594.1,702.9z M599.8,700.7
			c0.4-0.2,0.8-0.6,1.3-1v-2.8c-1.6,0.2-2.7,0.5-3.4,1c-0.7,0.4-1,1-1,1.6c0,0.5,0.2,0.9,0.5,1.1c0.3,0.3,0.7,0.4,1.3,0.4
			C599,701,599.4,700.9,599.8,700.7z"/>
		<path class="st4" d="M610.1,703.5c-1-0.4-1.9-0.9-2.6-1.5l1.8-2.5c0.7,0.5,1.3,0.9,1.9,1.2c0.6,0.3,1.2,0.4,1.9,0.4
			c0.7,0,1.1-0.1,1.5-0.4c0.3-0.2,0.5-0.6,0.5-1c0-0.3-0.1-0.6-0.4-0.8c-0.3-0.2-0.6-0.5-1.1-0.7c-0.5-0.2-1-0.4-1.5-0.6
			c-1.1-0.4-2.1-1-2.8-1.6c-0.7-0.6-1.1-1.5-1.1-2.6c0-1.3,0.5-2.4,1.5-3.2c1-0.8,2.3-1.2,3.9-1.2c1.8,0,3.4,0.6,5,1.8l-1.8,2.4
			c-1.1-0.8-2.2-1.2-3.1-1.2c-0.6,0-1,0.1-1.3,0.3c-0.3,0.2-0.4,0.5-0.4,0.9s0.2,0.7,0.6,0.9c0.4,0.2,0.8,0.4,1.3,0.6
			c0.5,0.2,0.8,0.3,1,0.3c1.2,0.4,2.2,1,2.9,1.6s1.1,1.5,1.1,2.7c0,0.9-0.2,1.6-0.7,2.3s-1.1,1.2-2,1.6s-1.9,0.6-3.1,0.6
			C612,704.1,611.1,703.9,610.1,703.5z"/>
		<path class="st4" d="M623,702.6c-0.8-1-1.2-2.3-1.2-4v-6.1h-2v-3l2.2-0.2l0.5-3.8h3.3v3.8h3.5v3.1h-3.5v6.1c0,1.6,0.6,2.3,1.9,2.3
			c0.4,0,0.9-0.1,1.4-0.3l0.6,2.9c-1,0.3-2.1,0.5-3.1,0.5C625,704.1,623.8,703.6,623,702.6z"/>
		<path class="st4" d="M638.3,684.8h4.4l3.2,8.7c0.3,0.8,0.5,1.6,0.8,2.4l0.4,1.2h0.1l0.5-1.7c0.3-1,0.5-1.7,0.6-1.9l3.1-8.7h4.4
			v18.9H652v-7.5c0-1.1,0.1-2.8,0.4-5.2l0.1-1.1h-0.1l-1.5,4.4l-2.8,7.7h-2.3l-2.8-7.7l-1.5-4.4h-0.1l0.1,1.1
			c0.3,2.4,0.4,4.1,0.4,5.2v7.5h-3.6V684.8z"/>
		<path class="st4" d="M671.6,697.7h-8.9c0.2,1.1,0.7,2,1.4,2.5c0.7,0.5,1.6,0.8,2.6,0.8c1,0,2.1-0.3,3.2-1l1.3,2.4
			c-0.7,0.5-1.5,0.9-2.4,1.2c-0.9,0.3-1.8,0.4-2.6,0.4c-1.4,0-2.6-0.3-3.7-0.9c-1.1-0.6-2-1.5-2.6-2.6c-0.6-1.1-0.9-2.5-0.9-4
			c0-1.5,0.3-2.8,0.9-4c0.6-1.1,1.5-2,2.5-2.6c1-0.6,2.1-0.9,3.3-0.9c2,0,3.5,0.6,4.5,1.9c1,1.3,1.6,2.9,1.6,5
			C671.8,696.6,671.8,697.2,671.6,697.7z M668.4,695.1c0-0.9-0.2-1.7-0.6-2.2c-0.4-0.5-1.1-0.8-1.9-0.8c-0.7,0-1.3,0.2-1.9,0.7
			c-0.6,0.5-0.9,1.2-1.1,2.2H668.4z"/>
		<path class="st4" d="M686.5,697.7h-8.9c0.2,1.1,0.7,2,1.4,2.5c0.7,0.5,1.6,0.8,2.6,0.8c1,0,2.1-0.3,3.2-1l1.3,2.4
			c-0.7,0.5-1.5,0.9-2.4,1.2c-0.9,0.3-1.8,0.4-2.6,0.4c-1.4,0-2.6-0.3-3.7-0.9c-1.1-0.6-2-1.5-2.6-2.6c-0.6-1.1-0.9-2.5-0.9-4
			c0-1.5,0.3-2.8,0.9-4c0.6-1.1,1.5-2,2.5-2.6c1-0.6,2.1-0.9,3.3-0.9c2,0,3.5,0.6,4.5,1.9c1,1.3,1.6,2.9,1.6,5
			C686.7,696.6,686.7,697.2,686.5,697.7z M683.3,695.1c0-0.9-0.2-1.7-0.6-2.2c-0.4-0.5-1.1-0.8-1.9-0.8c-0.7,0-1.3,0.2-1.9,0.7
			c-0.6,0.5-0.9,1.2-1.1,2.2H683.3z"/>
		<path class="st4" d="M691.2,702.6c-0.8-1-1.2-2.3-1.2-4v-6.1h-2v-3l2.2-0.2l0.5-3.8h3.3v3.8h3.5v3.1h-3.5v6.1
			c0,1.6,0.6,2.3,1.9,2.3c0.4,0,0.9-0.1,1.4-0.3l0.6,2.9c-1,0.3-2.1,0.5-3.1,0.5C693.1,704.1,691.9,703.6,691.2,702.6z"/>
		<path class="st4" d="M700.7,686.5c-0.4-0.4-0.6-0.9-0.6-1.5c0-0.6,0.2-1.1,0.6-1.5c0.4-0.4,1-0.6,1.6-0.6c0.7,0,1.2,0.2,1.6,0.6
			c0.4,0.4,0.6,0.9,0.6,1.5c0,0.6-0.2,1.1-0.6,1.5c-0.4,0.4-1,0.6-1.6,0.6C701.7,687.1,701.1,686.9,700.7,686.5z M700.4,689.4h3.9
			v14.4h-3.9V689.4z"/>
		<path class="st4" d="M708.2,689.4h3.2l0.3,1.9h0.1c0.7-0.7,1.4-1.2,2.2-1.6c0.7-0.4,1.6-0.6,2.5-0.6c1.5,0,2.6,0.5,3.3,1.5
			c0.7,1,1.1,2.4,1.1,4.3v8.9h-4v-8.4c0-1.1-0.2-1.8-0.4-2.2c-0.3-0.4-0.8-0.6-1.5-0.6c-0.5,0-1,0.1-1.4,0.3s-0.9,0.6-1.5,1.2v9.8
			h-3.9V689.4z"/>
		<path class="st4" d="M725.5,709c-1.1-0.6-1.7-1.5-1.7-2.7c0-1.2,0.7-2.2,2.1-3v-0.1c-0.9-0.6-1.3-1.4-1.3-2.4c0-0.5,0.1-1,0.4-1.5
			s0.7-0.9,1.1-1.2V698c-0.6-0.4-1-0.9-1.4-1.6c-0.4-0.7-0.5-1.4-0.5-2.2c0-1.1,0.3-2,0.8-2.8c0.5-0.8,1.2-1.4,2.1-1.8
			c0.9-0.4,1.9-0.6,2.9-0.6c0.7,0,1.5,0.1,2.2,0.3h5.2v2.9H735c0.2,0.2,0.3,0.5,0.4,0.9c0.1,0.4,0.2,0.8,0.2,1.1
			c0,1.6-0.5,2.8-1.6,3.6s-2.4,1.2-4,1.2c-0.6,0-1.2-0.1-1.8-0.3c-0.2,0.2-0.3,0.3-0.4,0.5s-0.1,0.4-0.1,0.7c0,0.4,0.2,0.6,0.5,0.8
			c0.3,0.2,0.9,0.3,1.7,0.3h2.4c1.8,0,3.1,0.3,4,0.9c0.9,0.6,1.4,1.5,1.4,2.8c0,1-0.3,1.8-1,2.6c-0.6,0.8-1.6,1.4-2.8,1.8
			c-1.2,0.4-2.6,0.7-4.2,0.7C728,709.9,726.6,709.6,725.5,709z M732.9,706.8c0.7-0.4,1-0.8,1-1.4c0-0.5-0.2-0.8-0.6-1
			s-0.9-0.3-1.7-0.3h-1.7c-0.9,0-1.5-0.1-2-0.2c-0.6,0.5-0.9,1-0.9,1.6c0,0.6,0.3,1,0.9,1.3s1.4,0.5,2.4,0.5
			C731.4,707.4,732.2,707.2,732.9,706.8z M731.6,696.1c0.4-0.4,0.6-1.1,0.6-1.9c0-0.8-0.2-1.4-0.6-1.8s-0.9-0.7-1.6-0.7
			c-0.6,0-1.2,0.2-1.5,0.7c-0.4,0.4-0.6,1-0.6,1.8s0.2,1.4,0.6,1.9c0.4,0.5,0.9,0.7,1.5,0.7C730.7,696.8,731.2,696.5,731.6,696.1z"
			/>
	</g>
	<path class="st4" d="M821.8,688.7c4.1,4.1,4.2,10.8,0,15l0,0l-5,5c-4.2,4.1-10.9,4-15-0.1c-4.1-4.1-4.1-10.7,0-14.9l3-3
		c0.7-0.7,2,0,2,1c0.2,1.4,0.5,2.7,1,4c0.1,0.4-0.7,0.7-1,1l-1,1c-1.9,1.9-2,5-0.1,6.9l0.1,0.1c1.8,1.9,4.9,2,6.8,0.2l0.2-0.2l5-5
		c1.9-1.9,2-5,0.1-6.9l-0.1-0.1c-0.3-0.3-0.8-0.9-1-1c-0.3-0.2,0,0.4,0,0c0-1.1,0.4-2.1,1-3l1-1c0.6-0.4,1.4-0.4,2,0
		C821.2,688,821.5,688.4,821.8,688.7z M831.8,678.7c-4.1-4.1-10.8-4.2-14.9-0.1l-0.1,0.1l-5,5c-4.1,4.1-4.2,10.8,0,15l0,0
		c0.4,0.4,1.5,0.6,2,1c0.5,0.3,0.6,0.4,1,0l2-1c0.6-0.6,0-2.3,0-3c0-0.4,0.3,0.2,0,0c-0.2-0.1-0.7-0.7-1-1c-1.9-1.9-2-5-0.1-6.9
		l0.1-0.1l5-5c1.8-1.9,4.9-2,6.8-0.2l0.2,0.2c1.9,1.9,2,5,0.1,6.9l-0.1,0.1l-1,1c-0.3,0.3-0.1,0.6,0,1c0.5,1.3,0.8,2.6,1,4
		c0,1,0.3,1.7,1,1l3-3C835.9,689.6,836,682.9,831.8,678.7L831.8,678.7z"/>
	<g>
		<path class="st4" d="M849.3,702.9h4.4v-14.5h-3.5v-1.4c1.6-0.3,2.9-0.7,4-1.3h1.7v17.3h4v1.8h-10.6V702.9z"/>
		<path class="st4" d="M862.5,703.4c2.3-2.3,4-4.1,5.2-5.5c1.2-1.4,2.2-2.6,2.9-3.8c0.7-1.2,1-2.2,1-3.3c0-1.2-0.3-2.1-1-2.8
			c-0.6-0.7-1.6-1-2.8-1c-0.8,0-1.5,0.2-2.2,0.6s-1.4,1-2,1.7l-1.3-1.3c0.8-0.9,1.7-1.6,2.6-2.1s2-0.8,3.1-0.8
			c1.7,0,3.1,0.5,4.1,1.5c1,1,1.5,2.4,1.5,4c0,1.2-0.3,2.4-1,3.6c-0.7,1.2-1.5,2.5-2.6,3.7c-1.1,1.2-2.6,2.9-4.5,5l0.7,0
			c1.1-0.1,2-0.1,2.5-0.1h5.8v1.9h-12.2V703.4z"/>
		<path class="st4" d="M876.9,702.4l1.1-1.4c0.7,0.7,1.4,1.3,2.2,1.7c0.8,0.4,1.7,0.6,2.8,0.6c1.2,0,2.2-0.3,3-1
			c0.8-0.7,1.1-1.6,1.1-2.7c0-2.6-2.1-4-6.3-4v-1.7c2,0,3.4-0.3,4.3-1c0.9-0.7,1.3-1.6,1.3-2.7c0-1-0.3-1.7-0.9-2.3
			c-0.6-0.6-1.5-0.9-2.5-0.9c-1.5,0-2.9,0.7-4.2,2l-1.2-1.4c1.7-1.6,3.5-2.4,5.4-2.4c1.7,0,3,0.4,4,1.3c1,0.8,1.6,2,1.6,3.5
			c0,1.1-0.3,2.1-0.9,2.8c-0.6,0.8-1.5,1.4-2.6,1.8v0.1c1.2,0.3,2.3,0.9,3,1.7c0.8,0.9,1.2,1.9,1.2,3.2c0,1.1-0.3,2.1-0.8,2.9
			c-0.5,0.8-1.3,1.5-2.2,1.9c-0.9,0.4-2,0.7-3.2,0.7C880.6,705.1,878.5,704.2,876.9,702.4z"/>
		<path class="st4" d="M904.7,699.3h-2.7v5.4H900v-5.4h-8.6v-1.4l8.4-12.3h2.3v12h2.7V699.3z M900,697.6v-5.9c0-0.8,0-2,0.1-3.6H900
			c-0.4,0.7-0.7,1.2-0.9,1.6l-0.6,1l-4.8,6.9H900z"/>
		<path class="st4" d="M909,704.4c-1-0.5-1.9-1.1-2.7-1.9l1.1-1.4c0.7,0.7,1.4,1.2,2.2,1.6c0.8,0.4,1.7,0.6,2.7,0.6
			c0.8,0,1.5-0.2,2.2-0.6s1.2-0.9,1.6-1.6c0.4-0.7,0.6-1.5,0.6-2.4c0-1.4-0.4-2.4-1.1-3.2c-0.8-0.8-1.8-1.2-3.1-1.2
			c-0.6,0-1.2,0.1-1.7,0.3c-0.5,0.2-1,0.5-1.7,0.9l-1.2-0.8l0.6-9.1h9.4v1.9h-7.5l-0.5,6c0.5-0.3,1-0.5,1.5-0.6
			c0.5-0.1,1-0.2,1.6-0.2c1.7,0,3.2,0.5,4.3,1.5s1.7,2.5,1.7,4.5c0,1.3-0.3,2.5-0.9,3.5c-0.6,1-1.4,1.7-2.3,2.2s-2,0.8-3.1,0.8
			C911.2,705.1,910,704.8,909,704.4z"/>
		<path class="st4" d="M932.4,694.6c1,1,1.4,2.5,1.4,4.4c0,1.2-0.3,2.2-0.8,3.1c-0.5,0.9-1.2,1.6-2,2.2c-0.9,0.5-1.8,0.8-2.8,0.8
			c-1.3,0-2.4-0.3-3.4-1c-1-0.7-1.7-1.7-2.3-3.1s-0.8-3-0.8-5c0-2.5,0.3-4.5,1-6.1c0.7-1.6,1.5-2.8,2.6-3.5c1.1-0.7,2.3-1.1,3.6-1.1
			c1.8,0,3.2,0.7,4.5,2l-1.2,1.4c-0.4-0.5-0.9-0.9-1.4-1.1c-0.5-0.3-1.1-0.4-1.8-0.4c-1.5,0-2.8,0.7-3.7,2c-1,1.4-1.5,3.5-1.5,6.5
			c0.6-0.8,1.3-1.4,2.2-1.8c0.8-0.5,1.6-0.7,2.4-0.7C930.2,693.1,931.5,693.6,932.4,694.6z M930.8,702.1c0.7-0.8,1-1.9,1-3.1
			c0-1.3-0.3-2.4-0.9-3.1c-0.6-0.8-1.5-1.1-2.8-1.1c-0.7,0-1.4,0.2-2.1,0.6c-0.7,0.4-1.4,1.1-2.1,2c0.2,1.9,0.6,3.4,1.4,4.4
			c0.7,1,1.8,1.5,3.1,1.5C929.3,703.3,930.2,702.9,930.8,702.1z"/>
		<path class="st4" d="M942,695.3c0.8-2.6,2.2-5.2,4.1-7.8h-9.7v-1.9h12.2v1.3c-1.5,1.9-2.6,3.8-3.4,5.5c-0.8,1.8-1.4,3.6-1.7,5.5
			s-0.6,4.2-0.7,6.8h-2.2C940.7,701,941.2,697.9,942,695.3z"/>
		<path class="st4" d="M954.1,704.4c-0.9-0.4-1.7-1.1-2.2-1.9c-0.5-0.8-0.8-1.7-0.8-2.7c0-1.2,0.3-2.2,1-3.1
			c0.7-0.9,1.6-1.6,2.6-2.2v-0.1c-1.8-1.3-2.7-2.7-2.7-4.4c0-1,0.2-1.8,0.7-2.5s1.1-1.3,1.9-1.7c0.8-0.4,1.7-0.6,2.7-0.6
			c1.6,0,2.9,0.5,3.9,1.4c1,0.9,1.5,2.2,1.5,3.7c0,0.9-0.3,1.8-0.8,2.6s-1.2,1.5-1.9,2.1v0.1c1,0.6,1.9,1.3,2.4,2s0.9,1.7,0.9,2.8
			c0,0.9-0.3,1.8-0.8,2.6c-0.5,0.8-1.2,1.4-2.1,1.8c-0.9,0.5-2,0.7-3.2,0.7C956.1,705.1,955.1,704.9,954.1,704.4z M960.2,702.5
			c0.7-0.7,1.1-1.5,1.1-2.5c0-0.8-0.2-1.5-0.7-2.1c-0.5-0.5-1-1-1.7-1.3c-0.7-0.3-1.7-0.8-2.9-1.3c-0.9,0.5-1.5,1.2-2.1,1.9
			c-0.5,0.7-0.8,1.5-0.8,2.4c0,1.1,0.4,2,1.2,2.7c0.8,0.7,1.8,1.1,3.1,1.1C958.5,703.4,959.5,703.1,960.2,702.5z M960.8,690.4
			c0-1-0.3-1.9-0.9-2.5s-1.5-1-2.5-1c-0.9,0-1.7,0.3-2.3,0.9c-0.6,0.6-0.9,1.4-0.9,2.3c0,1.1,0.4,1.9,1.2,2.5
			c0.8,0.6,1.9,1.2,3.4,1.8C960.1,693.1,960.8,691.8,960.8,690.4z"/>
		<path class="st4" d="M974.8,686.3c1,0.7,1.8,1.7,2.3,3.1s0.8,3,0.8,5c0,2.5-0.3,4.5-1,6.1c-0.7,1.6-1.5,2.8-2.6,3.5
			c-1.1,0.7-2.3,1.1-3.6,1.1c-1.8,0-3.3-0.7-4.5-2l1.2-1.4c0.4,0.5,0.9,0.9,1.4,1.1c0.5,0.3,1.1,0.4,1.7,0.4c1.5,0,2.8-0.7,3.7-2
			s1.5-3.5,1.5-6.5c-0.6,0.8-1.3,1.4-2.1,1.8c-0.8,0.4-1.6,0.7-2.4,0.7c-1.7,0-3-0.5-4-1.5c-1-1-1.4-2.5-1.4-4.4
			c0-1.2,0.2-2.2,0.8-3.1c0.5-0.9,1.2-1.7,2-2.2c0.9-0.5,1.8-0.8,2.8-0.8C972.7,685.2,973.8,685.6,974.8,686.3z M973.7,694.9
			c0.7-0.4,1.4-1.1,2.1-2c-0.1-1.9-0.6-3.4-1.3-4.4c-0.7-1-1.8-1.6-3.1-1.6c-1,0-1.8,0.4-2.5,1.2s-1,1.9-1,3.1
			c0,1.3,0.3,2.4,0.9,3.1c0.6,0.8,1.5,1.1,2.8,1.1C972.3,695.6,973,695.4,973.7,694.9z"/>
	</g>
	<path class="st4" d="M537.4,679.7h-20.3c-1.9,0-3.4,1.5-3.4,3.4v20.3c0,1.9,1.5,3.4,3.4,3.4h20.3c1.9,0,3.4-1.5,3.4-3.4v-20.3
		C540.8,681.2,539.3,679.7,537.4,679.7z M550.7,682.4l-7.7,5.3v11.1l7.7,5.3c1,0.7,2.4,0.5,3.1-0.6c0.3-0.4,0.4-0.8,0.4-1.3v-18.1
		c0-1.2-1-2.2-2.3-2.2C551.5,682,551.1,682.1,550.7,682.4z"/>
	<path class="st4" d="M1120.2,682.3l9,9l-19.5,19.5l-8,0.9c-0.9,0.1-1.8-0.6-1.9-1.5c0-0.1,0-0.2,0-0.4l0.9-8L1120.2,682.3z
		 M1134.8,680.9l-4.2-4.2c-1.3-1.3-3.5-1.3-4.8,0l-4,4l9,9l4-4C1136.1,684.4,1136.1,682.3,1134.8,680.9L1134.8,680.9z"/>
	<path class="st5" d="M514.8,763.7h622c9.1,0,17.4,3.7,23.3,9.7c6,6,9.7,14.2,9.7,23.3c0,9.1-3.7,17.4-9.7,23.3
		c-6,6-14.2,9.7-23.3,9.7h-622c-9.1,0-17.4-3.7-23.3-9.7c-6-6-9.7-14.2-9.7-23.3c0-9.1,3.7-17.4,9.7-23.3
		C497.4,767.4,505.7,763.7,514.8,763.7L514.8,763.7 M1136.8,757.7C1136.8,757.7,1136.8,757.7,1136.8,757.7h-622
		c-10.8,0-20.5,4.4-27.6,11.4c-7.1,7-11.4,16.8-11.4,27.6c0,10.8,4.4,20.5,11.4,27.6c7,7.1,16.8,11.4,27.6,11.4h622
		c10.8,0,20.5-4.4,27.6-11.4c7.1-7,11.4-16.8,11.4-27.6c0-10.8-4.4-20.5-11.4-27.6C1157.3,762.1,1147.5,757.7,1136.8,757.7"/>
	<g>
		<defs>
			<polyline id="SVGID_31_" points="880.8,786.9 770.6,786.9 770.6,808.1 880.8,808.1 880.8,786.9 			"/>
		</defs>
		<clipPath id="SVGID_4_">
			<use xlink:href="#SVGID_31_"  style="overflow:visible;"/>
		</clipPath>
		<g class="st11">
			<path class="st5" d="M781.9,803H776l-1.3,4.7h-4.1l6-18.9h4.7l6,18.9h-4.2L781.9,803z M781.1,799.9l-0.5-1.9
				c-0.2-0.9-0.6-2.2-1-4l-0.6-2.1h-0.1c-0.6,2.5-1.1,4.5-1.5,6.1l-0.5,1.9H781.1z"/>
			<path class="st5" d="M790,806.1c-1.1-1.3-1.6-3.2-1.6-5.5c0-1.5,0.3-2.8,0.8-4c0.6-1.1,1.3-2,2.2-2.6c0.9-0.6,1.9-0.9,2.9-0.9
				c0.8,0,1.4,0.1,1.9,0.4c0.5,0.3,1.1,0.6,1.7,1.2l-0.1-2.2v-5h4v20.4h-3.2l-0.3-1.5h-0.1c-0.5,0.5-1.2,1-1.8,1.3s-1.4,0.5-2.1,0.5
				C792.5,808.1,791.1,807.4,790,806.1z M796.7,804.5c0.4-0.2,0.8-0.6,1.2-1.1v-6.1c-0.7-0.7-1.6-1-2.6-1c-0.8,0-1.5,0.4-2,1.1
				c-0.5,0.7-0.8,1.8-0.8,3.1c0,1.4,0.2,2.5,0.7,3.2c0.5,0.7,1.2,1.1,2.1,1.1C795.8,804.8,796.3,804.7,796.7,804.5z"/>
			<path class="st5" d="M806.6,806.1c-1.1-1.3-1.6-3.2-1.6-5.5c0-1.5,0.3-2.8,0.8-4c0.6-1.1,1.3-2,2.2-2.6c0.9-0.6,1.9-0.9,2.9-0.9
				c0.8,0,1.4,0.1,1.9,0.4c0.5,0.3,1.1,0.6,1.7,1.2l-0.1-2.2v-5h4v20.4h-3.2l-0.3-1.5h-0.1c-0.5,0.5-1.2,1-1.8,1.3s-1.4,0.5-2.1,0.5
				C809,808.1,807.6,807.4,806.6,806.1z M813.2,804.5c0.4-0.2,0.8-0.6,1.2-1.1v-6.1c-0.7-0.7-1.6-1-2.6-1c-0.8,0-1.5,0.4-2,1.1
				c-0.5,0.7-0.8,1.8-0.8,3.1c0,1.4,0.2,2.5,0.7,3.2c0.5,0.7,1.2,1.1,2.1,1.1C812.4,804.8,812.8,804.7,813.2,804.5z"/>
			<path class="st5" d="M828.4,788.8h4v15.6h7.6v3.3h-11.6V788.8z"/>
			<path class="st5" d="M843.3,790.5c-0.4-0.4-0.6-0.9-0.6-1.5c0-0.6,0.2-1.1,0.6-1.5c0.4-0.4,1-0.6,1.6-0.6c0.7,0,1.2,0.2,1.6,0.6
				c0.4,0.4,0.6,0.9,0.6,1.5c0,0.6-0.2,1.1-0.6,1.5c-0.4,0.4-1,0.6-1.6,0.6C844.3,791.1,843.7,790.9,843.3,790.5z M843,793.4h3.9
				v14.4H843V793.4z"/>
			<path class="st5" d="M850.9,793.4h3.2l0.3,1.9h0.1c0.7-0.7,1.4-1.2,2.2-1.6c0.7-0.4,1.6-0.6,2.5-0.6c1.5,0,2.6,0.5,3.3,1.5
				c0.7,1,1.1,2.4,1.1,4.3v8.9h-4v-8.4c0-1.1-0.2-1.8-0.4-2.2c-0.3-0.4-0.8-0.6-1.5-0.6c-0.5,0-1,0.1-1.4,0.3s-0.9,0.6-1.5,1.2v9.8
				h-3.9V793.4z"/>
			<path class="st5" d="M867.3,787.3h3.9v12h0.1l4.8-6h4.3l-5,5.9l5.4,8.5h-4.3l-3.4-5.8l-2,2.2v3.6h-3.9V787.3z"/>
		</g>
	</g>
	<path class="st5" d="M991.8,219.7h141c10.2,0,19.5,4.1,26.2,10.8c6.7,6.7,10.8,15.9,10.8,26.2c0,10.2-4.1,19.5-10.8,26.2
		c-6.7,6.7-15.9,10.8-26.2,10.8h-141c-10.2,0-19.5-4.1-26.2-10.8c-6.7-6.7-10.8-15.9-10.8-26.2c0-10.2,4.1-19.5,10.8-26.2
		C972.3,223.9,981.6,219.7,991.8,219.7L991.8,219.7 M1132.8,213.7C1132.8,213.7,1132.8,213.7,1132.8,213.7h-141
		c-11.9,0-22.6,4.8-30.4,12.6c-7.8,7.8-12.6,18.5-12.6,30.4c0,11.9,4.8,22.6,12.6,30.4c7.8,7.8,18.5,12.6,30.4,12.6h141
		c11.9,0,22.6-4.8,30.4-12.6c7.8-7.8,12.6-18.5,12.6-30.4c0-11.9-4.8-22.6-12.6-30.4C1155.4,218.5,1144.7,213.7,1132.8,213.7"/>
	<path class="st6" d="M1008.8,245.7h-24c-0.6,0-1,0.4-1,1v15c0,0.6,0.4,1,1,1h12l0,0l0,0h12c0.6,0,1-0.4,1-1v-15
		C1009.8,246.2,1009.3,245.7,1008.8,245.7 M984.8,241.7h24c2.8,0,5,2.2,5,5v15c0,2.8-2.2,5-5,5h-10v2h4c1.1,0,2,0.9,2,2
		c0,1.1-0.9,2-2,2h-12c-1.1,0-2-0.9-2-2c0-1.1,0.9-2,2-2h4v-2h-10c-2.8,0-5-2.2-5-5v-15C979.8,244,982,241.7,984.8,241.7
		L984.8,241.7 M996.8,224.7c-17.7,0-32,14.3-32,32c0,17.7,14.3,32,32,32c17.7,0,32-14.3,32-32
		C1028.8,239.1,1014.5,224.7,996.8,224.7"/>
	<path class="st5" d="M1008.8,241.7h-24c-2.8,0-5,2.2-5,5v15c0,2.8,2.2,5,5,5h10v-2c0-1.1,0.9-2,2-2h-12c-0.6,0-1-0.4-1-1v-15
		c0-0.6,0.4-1,1-1l0,0h24c0.6,0,1,0.4,1,1v15c0,0.6-0.4,1-1,1h-12c1.1,0,2,0.9,2,2v2h10c2.8,0,5-2.2,5-5v-15
		C1013.8,244,1011.5,241.7,1008.8,241.7"/>
	<path class="st5" d="M1002.8,268.7h-4v2c0,1.1-0.9,2-2,2s-2-0.9-2-2v-2h-4c-1.1,0-2,0.9-2,2c0,1.1,0.9,2,2,2h12c1.1,0,2-0.9,2-2
		C1004.8,269.6,1003.9,268.7,1002.8,268.7"/>
	<path class="st5" d="M996.8,262.7L996.8,262.7c-1.1,0-2,0.9-2,2v2v2v2c0,1.1,0.9,2,2,2s2-0.9,2-2v-2v-2v-2
		C998.8,263.6,997.9,262.7,996.8,262.7L996.8,262.7"/>
	<path class="st5" d="M1059.6,273c-1.2,0-2.2-1-2.2-2.2c0-1.2,1-2.3,2.2-2.3c1.2,0,2.2,1,2.2,2.3C1061.8,272,1060.8,273,1059.6,273
		L1059.6,273 M1052.5,266.2c-0.5,0-0.8-0.4-0.8-0.8v-21.9c0-0.5,0.4-0.8,0.8-0.8h14.1c0.5,0,0.8,0.4,0.8,0.8v21.9
		c0,0.5-0.4,0.8-0.8,0.8H1052.5 M1067.4,239.2h-15.8c-1.9,0-3.4,1.5-3.4,3.4v29.2c0,1.9,1.5,3.4,3.4,3.4h15.8c1.9,0,3.4-1.5,3.4-3.4
		v-29.2C1070.8,240.7,1069.3,239.2,1067.4,239.2"/>
	<path class="st5" d="M1116.6,264h-7.6c2,4.8,6.1,8.5,11.1,10C1118.4,271.6,1117.2,268,1116.6,264 M1118.9,264
		c1,6.3,3.4,10.7,6.2,10.7c2.8,0,5.2-4.4,6.2-10.7L1118.9,264 M1141.2,264h-7.6c-0.6,4-1.8,7.6-3.5,10
		C1135.1,272.4,1139.2,268.8,1141.2,264 M1116.4,252.7h-8.1c-0.8,2.9-0.8,6.1,0,9h8.1c-0.1-1.5-0.2-3-0.2-4.5
		C1116.1,255.7,1116.2,254.2,1116.4,252.7 M1131.6,252.7h-13c-0.2,1.5-0.2,3-0.2,4.5c0,1.5,0.1,3,0.2,4.5h13c0.2-1.5,0.2-3,0.2-4.5
		C1131.9,255.7,1131.8,254.2,1131.6,252.7 M1142,252.7h-8.1c0.1,1.5,0.2,3,0.2,4.5c0,1.5-0.1,3-0.2,4.5h8.1c0.4-1.5,0.6-3,0.6-4.5
		C1142.5,255.7,1142.3,254.2,1142,252.7 M1120.1,240.5L1120.1,240.5c-5,1.5-9.1,5.1-11.1,10h7.6
		C1117.2,246.5,1118.4,242.9,1120.1,240.5 M1130.1,240.5c1.7,2.4,2.9,6,3.5,10h7.6C1139.2,245.7,1135.1,242,1130.1,240.5
		 M1125.1,239.8c-2.8,0-5.2,4.4-6.2,10.7l12.4,0C1130.3,244.2,1127.9,239.8,1125.1,239.8"/>
	<path class="st0" d="M1209.5,587.4c2.2,0.3,6.1,0.9,11.4,1.4c5.3,0.5,11.9,0.9,19.5,0.9c16.1,0,36.7-1.7,58.8-8
		c22.1-6.3,45.6-17.3,67.4-35.7c31.2-26.4,46.3-57.5,53.3-75.8c0.9-2.3-0.3-4.9-2.6-5.8c-2.3-0.9-4.9,0.3-5.8,2.6
		c-6.7,17.5-21.1,47.1-50.7,72.2c-20.7,17.5-43,27.9-64.1,33.9c-21.1,6-40.9,7.7-56.3,7.7c-7.3,0-13.6-0.4-18.7-0.8
		c-5-0.5-8.7-1-10.8-1.3c-2.5-0.4-4.8,1.3-5.1,3.8C1205.3,584.8,1207,587,1209.5,587.4L1209.5,587.4z"/>
	<path class="st0" d="M1235.9,555.9l-32,24c-1.1,0.8-1.8,2.1-1.8,3.5c0,1.4,0.6,2.7,1.7,3.6l32,26c1.9,1.6,4.8,1.3,6.3-0.7
		s1.3-4.8-0.7-6.3l-27.5-22.4l27.4-20.5c2-1.5,2.4-4.3,0.9-6.3C1240.7,554.8,1237.9,554.4,1235.9,555.9L1235.9,555.9z"/>
	<g>
		<path class="st1" d="M1283.9,358h11.8v3.3h-7.8v4.7h6.7v3.3h-6.7v7.5h-4V358z"/>
		<path class="st1" d="M1299,359.7c-0.4-0.4-0.6-0.9-0.6-1.5c0-0.6,0.2-1.1,0.6-1.5c0.4-0.4,1-0.6,1.6-0.6c0.7,0,1.2,0.2,1.6,0.6
			c0.4,0.4,0.6,0.9,0.6,1.5c0,0.6-0.2,1.1-0.6,1.5c-0.4,0.4-1,0.6-1.6,0.6C1300,360.3,1299.4,360.1,1299,359.7z M1298.6,362.6h3.9
			v14.4h-3.9V362.6z"/>
		<path class="st1" d="M1306.5,362.6h3.2l0.3,1.9h0.1c0.7-0.7,1.4-1.2,2.2-1.6c0.7-0.4,1.6-0.6,2.5-0.6c1.5,0,2.6,0.5,3.3,1.5
			c0.7,1,1.1,2.4,1.1,4.3v8.9h-4v-8.4c0-1.1-0.2-1.8-0.4-2.2c-0.3-0.4-0.8-0.6-1.5-0.6c-0.5,0-1,0.1-1.4,0.3s-0.9,0.6-1.5,1.2v9.8
			h-3.9V362.6z"/>
		<path class="st1" d="M1323.5,376c-0.8-0.8-1.2-1.8-1.2-3.1c0-1.5,0.6-2.7,1.9-3.6c1.3-0.8,3.4-1.4,6.2-1.7
			c-0.1-1.5-0.9-2.3-2.4-2.3c-0.6,0-1.2,0.1-1.8,0.3c-0.6,0.2-1.3,0.6-2,1l-1.4-2.6c2-1.3,4-1.9,6-1.9c1.8,0,3.2,0.5,4.2,1.6
			c0.9,1.1,1.4,2.7,1.4,4.8v8.3h-3.2l-0.3-1.5h-0.1c-1.4,1.2-2.9,1.9-4.3,1.9C1325.3,377.3,1324.3,376.9,1323.5,376z M1329.2,373.8
			c0.4-0.2,0.8-0.6,1.3-1v-2.8c-1.6,0.2-2.7,0.5-3.4,1s-1,1-1,1.6c0,0.5,0.2,0.9,0.5,1.1c0.3,0.3,0.7,0.4,1.3,0.4
			C1328.4,374.2,1328.8,374.1,1329.2,373.8z"/>
		<path class="st1" d="M1339.1,376.1c-0.6-0.8-0.9-1.9-0.9-3.4v-16.2h3.9v16.4c0,0.4,0.1,0.7,0.2,0.9c0.2,0.2,0.3,0.3,0.5,0.3
			s0.4,0,0.5-0.1l0.5,3c-0.6,0.2-1.2,0.3-2,0.3C1340.6,377.3,1339.6,376.9,1339.1,376.1z"/>
		<path class="st1" d="M1345.7,382.3l0.7-3c0.4,0.1,0.7,0.2,1,0.2c1.3,0,2.1-0.7,2.6-2.1l0.2-0.8l-5.6-14h4l2.2,6.5
			c0.2,0.7,0.5,1.6,0.8,2.7c0.1,0.5,0.3,1,0.4,1.4h0.1c0.3-1.1,0.6-2.5,1-4.1l1.9-6.5h3.8l-5,14.7c-0.7,1.9-1.5,3.2-2.4,4.1
			c-0.9,0.9-2.1,1.3-3.7,1.3C1347,382.6,1346.4,382.5,1345.7,382.3z"/>
		<path class="st1" d="M1364,373.2c0.5,0.7,0.7,1.6,0.7,2.8c0,1.5-0.4,2.9-1.3,4c-0.9,1.1-2.1,1.9-3.7,2.4l-0.8-2.1
			c1-0.3,1.8-0.8,2.3-1.5c0.5-0.6,0.8-1.3,0.8-2.1h-0.2c-0.7,0-1.3-0.2-1.7-0.6c-0.5-0.4-0.7-1-0.7-1.7c0-0.7,0.2-1.2,0.7-1.7
			s1.1-0.7,1.8-0.7C1362.9,372.2,1363.6,372.5,1364,373.2z"/>
		<path class="st1" d="M1373.3,382.3l0.7-3c0.4,0.1,0.7,0.2,1,0.2c1.3,0,2.1-0.7,2.6-2.1l0.2-0.8l-5.6-14h4l2.2,6.5
			c0.2,0.7,0.5,1.6,0.8,2.7c0.1,0.5,0.3,1,0.4,1.4h0.1c0.3-1.1,0.6-2.5,1-4.1l1.9-6.5h3.8l-5,14.7c-0.7,1.9-1.5,3.2-2.4,4.1
			c-0.9,0.9-2.1,1.3-3.7,1.3C1374.6,382.6,1373.9,382.5,1373.3,382.3z"/>
		<path class="st1" d="M1391.1,376.4c-1.1-0.6-1.9-1.5-2.5-2.6c-0.6-1.1-1-2.5-1-4c0-1.5,0.3-2.9,1-4c0.6-1.1,1.5-2,2.5-2.6
			c1.1-0.6,2.2-0.9,3.4-0.9c1.2,0,2.4,0.3,3.4,0.9c1.1,0.6,1.9,1.5,2.6,2.6c0.6,1.2,1,2.5,1,4c0,1.5-0.3,2.9-1,4
			c-0.6,1.1-1.5,2-2.6,2.6c-1.1,0.6-2.2,0.9-3.4,0.9C1393.3,377.3,1392.2,377,1391.1,376.4z M1396.7,372.9c0.5-0.8,0.8-1.8,0.8-3.1
			s-0.3-2.4-0.8-3.2c-0.5-0.8-1.2-1.2-2.1-1.2c-0.9,0-1.6,0.4-2.1,1.2c-0.5,0.8-0.7,1.8-0.7,3.2s0.2,2.4,0.7,3.1
			c0.5,0.8,1.2,1.1,2.1,1.1C1395.5,374,1396.2,373.7,1396.7,372.9z"/>
		<path class="st1" d="M1405.5,375.8c-0.7-1-1.1-2.4-1.1-4.3v-8.9h3.9v8.4c0,1,0.2,1.8,0.5,2.2c0.3,0.4,0.8,0.7,1.5,0.7
			c0.6,0,1-0.1,1.4-0.4c0.4-0.3,0.8-0.7,1.3-1.3v-9.6h3.9v14.4h-3.2l-0.3-2h-0.1c-0.7,0.8-1.3,1.4-2.1,1.8c-0.7,0.4-1.5,0.6-2.5,0.6
			C1407.3,377.3,1406.2,376.8,1405.5,375.8z"/>
		<path class="st1" d="M1429.3,376.4c-1.1-0.6-1.9-1.5-2.5-2.6c-0.6-1.1-0.9-2.5-0.9-4c0-1.5,0.3-2.9,1-4s1.6-2,2.7-2.6
			c1.1-0.6,2.3-0.9,3.7-0.9c1.6,0,3,0.5,4.2,1.6l-1.9,2.6c-0.4-0.3-0.7-0.5-1-0.7c-0.3-0.1-0.7-0.2-1-0.2c-1.1,0-1.9,0.4-2.6,1.2
			c-0.6,0.8-1,1.8-1,3.1c0,1.3,0.3,2.3,0.9,3.1c0.6,0.8,1.4,1.2,2.5,1.2c0.9,0,1.8-0.4,2.7-1.1l1.6,2.6c-0.7,0.6-1.4,1-2.2,1.3
			c-0.8,0.3-1.6,0.4-2.5,0.4C1431.5,377.3,1430.3,377,1429.3,376.4z"/>
		<path class="st1" d="M1440.4,376c-0.8-0.8-1.2-1.8-1.2-3.1c0-1.5,0.6-2.7,1.9-3.6c1.3-0.8,3.4-1.4,6.2-1.7
			c-0.1-1.5-0.9-2.3-2.4-2.3c-0.6,0-1.2,0.1-1.8,0.3c-0.6,0.2-1.3,0.6-2,1l-1.4-2.6c2-1.3,4-1.9,6-1.9c1.8,0,3.2,0.5,4.2,1.6
			c0.9,1.1,1.4,2.7,1.4,4.8v8.3h-3.2l-0.3-1.5h-0.1c-1.4,1.2-2.9,1.9-4.3,1.9C1442.2,377.3,1441.2,376.9,1440.4,376z M1446.1,373.8
			c0.4-0.2,0.8-0.6,1.3-1v-2.8c-1.6,0.2-2.7,0.5-3.4,1s-1,1-1,1.6c0,0.5,0.2,0.9,0.5,1.1c0.3,0.3,0.7,0.4,1.3,0.4
			C1445.3,374.2,1445.7,374.1,1446.1,373.8z"/>
		<path class="st1" d="M1455.1,362.6h3.2l0.3,1.9h0.1c0.7-0.7,1.4-1.2,2.2-1.6c0.7-0.4,1.6-0.6,2.5-0.6c1.5,0,2.6,0.5,3.3,1.5
			c0.7,1,1.1,2.4,1.1,4.3v8.9h-4v-8.4c0-1.1-0.2-1.8-0.4-2.2c-0.3-0.4-0.8-0.6-1.5-0.6c-0.5,0-1,0.1-1.4,0.3s-0.9,0.6-1.5,1.2v9.8
			h-3.9V362.6z"/>
		<path class="st1" d="M1480,376.4c-1.1-0.6-1.9-1.5-2.5-2.6c-0.6-1.1-0.9-2.5-0.9-4c0-1.5,0.3-2.9,1-4s1.6-2,2.7-2.6
			c1.1-0.6,2.3-0.9,3.7-0.9c1.6,0,3,0.5,4.2,1.6l-1.9,2.6c-0.4-0.3-0.7-0.5-1-0.7c-0.3-0.1-0.7-0.2-1-0.2c-1.1,0-1.9,0.4-2.6,1.2
			c-0.6,0.8-1,1.8-1,3.1c0,1.3,0.3,2.3,0.9,3.1c0.6,0.8,1.4,1.2,2.5,1.2c0.9,0,1.8-0.4,2.7-1.1l1.6,2.6c-0.7,0.6-1.4,1-2.2,1.3
			c-0.8,0.3-1.6,0.4-2.5,0.4C1482.2,377.3,1481,377,1480,376.4z"/>
		<path class="st1" d="M1492.8,376.4c-1.1-0.6-1.9-1.5-2.5-2.6c-0.6-1.1-1-2.5-1-4c0-1.5,0.3-2.9,1-4c0.6-1.1,1.5-2,2.5-2.6
			c1.1-0.6,2.2-0.9,3.4-0.9c1.2,0,2.4,0.3,3.4,0.9c1.1,0.6,1.9,1.5,2.6,2.6c0.6,1.2,1,2.5,1,4c0,1.5-0.3,2.9-1,4
			c-0.6,1.1-1.5,2-2.6,2.6c-1.1,0.6-2.2,0.9-3.4,0.9C1495,377.3,1493.8,377,1492.8,376.4z M1498.3,372.9c0.5-0.8,0.8-1.8,0.8-3.1
			s-0.3-2.4-0.8-3.2c-0.5-0.8-1.2-1.2-2.1-1.2c-0.9,0-1.6,0.4-2.1,1.2c-0.5,0.8-0.7,1.8-0.7,3.2s0.2,2.4,0.7,3.1
			c0.5,0.8,1.2,1.1,2.1,1.1C1497.1,374,1497.8,373.7,1498.3,372.9z"/>
		<path class="st1" d="M1506.2,362.6h3.2l0.3,1.9h0.1c0.7-0.7,1.4-1.3,2.1-1.7c0.7-0.4,1.4-0.6,2.3-0.6c1,0,1.8,0.2,2.5,0.6
			c0.6,0.4,1.1,1,1.5,1.8c0.7-0.8,1.5-1.4,2.2-1.8c0.7-0.4,1.5-0.7,2.3-0.7c1.5,0,2.6,0.5,3.4,1.5c0.7,1,1.1,2.4,1.1,4.3v8.9h-3.9
			v-8.4c0-1-0.1-1.8-0.4-2.2c-0.3-0.4-0.8-0.7-1.5-0.7c-0.8,0-1.7,0.5-2.6,1.5v9.8h-3.9v-8.4c0-1-0.1-1.8-0.4-2.2
			c-0.3-0.4-0.8-0.7-1.5-0.7c-0.8,0-1.7,0.5-2.6,1.5v9.8h-3.9V362.6z"/>
		<path class="st1" d="M1542.6,370.9h-8.9c0.2,1.1,0.7,2,1.4,2.5c0.7,0.5,1.6,0.8,2.6,0.8c1,0,2.1-0.3,3.2-1l1.3,2.4
			c-0.7,0.5-1.5,0.9-2.4,1.2c-0.9,0.3-1.8,0.4-2.6,0.4c-1.4,0-2.6-0.3-3.7-0.9c-1.1-0.6-2-1.5-2.6-2.6c-0.6-1.1-0.9-2.5-0.9-4
			c0-1.5,0.3-2.8,0.9-4c0.6-1.1,1.5-2,2.5-2.6c1-0.6,2.1-0.9,3.3-0.9c2,0,3.5,0.6,4.5,1.9c1,1.3,1.6,2.9,1.6,5
			C1542.8,369.8,1542.8,370.4,1542.6,370.9z M1539.4,368.2c0-0.9-0.2-1.7-0.6-2.2c-0.4-0.5-1.1-0.8-1.9-0.8c-0.7,0-1.3,0.2-1.9,0.7
			s-0.9,1.2-1.1,2.2H1539.4z"/>
	</g>
	<g>
		<path class="st1" d="M1285.6,411.6c-0.6-0.3-1.3-0.8-1.8-1.4h-0.1l-0.3,1.5h-3.1v-20.4h3.9v5.1l-0.1,2.3c0.6-0.5,1.2-0.9,1.9-1.2
			s1.3-0.4,2-0.4c1.7,0,3.1,0.7,4.1,2c1,1.3,1.5,3.1,1.5,5.3c0,1.6-0.3,3-0.8,4.1c-0.6,1.2-1.3,2.1-2.2,2.7s-1.9,0.9-3,0.9
			C1286.9,412.1,1286.2,411.9,1285.6,411.6z M1288.7,407.7c0.5-0.8,0.8-1.9,0.8-3.3c0-2.7-0.9-4.1-2.7-4.1c-0.9,0-1.8,0.5-2.7,1.4
			v6.1c0.8,0.7,1.6,1,2.5,1C1287.5,408.8,1288.2,408.4,1288.7,407.7z"/>
		<path class="st1" d="M1296.9,410.8c-0.8-0.8-1.2-1.8-1.2-3.1c0-1.5,0.6-2.7,1.9-3.6c1.3-0.8,3.4-1.4,6.2-1.7
			c-0.1-1.5-0.9-2.3-2.4-2.3c-0.6,0-1.2,0.1-1.8,0.3c-0.6,0.2-1.3,0.6-2,1l-1.4-2.6c2-1.3,4-1.9,6-1.9c1.8,0,3.2,0.5,4.2,1.6
			c0.9,1.1,1.4,2.7,1.4,4.8v8.3h-3.2l-0.3-1.5h-0.1c-1.4,1.2-2.9,1.9-4.3,1.9C1298.7,412.1,1297.7,411.7,1296.9,410.8z
			 M1302.6,408.6c0.4-0.2,0.8-0.6,1.3-1v-2.8c-1.6,0.2-2.7,0.5-3.4,1s-1,1-1,1.6c0,0.5,0.2,0.9,0.5,1.1c0.3,0.3,0.7,0.4,1.3,0.4
			C1301.7,409,1302.2,408.9,1302.6,408.6z"/>
		<path class="st1" d="M1314.1,411.2c-1.1-0.6-1.9-1.5-2.5-2.6c-0.6-1.1-0.9-2.5-0.9-4c0-1.5,0.3-2.9,1-4s1.6-2,2.7-2.6
			c1.1-0.6,2.3-0.9,3.7-0.9c1.6,0,3,0.5,4.2,1.6l-1.9,2.6c-0.4-0.3-0.7-0.5-1-0.7c-0.3-0.1-0.7-0.2-1-0.2c-1.1,0-1.9,0.4-2.6,1.2
			c-0.6,0.8-1,1.8-1,3.1c0,1.3,0.3,2.3,0.9,3.1c0.6,0.8,1.4,1.2,2.5,1.2c0.9,0,1.8-0.4,2.7-1.1l1.6,2.6c-0.7,0.6-1.4,1-2.2,1.3
			c-0.8,0.3-1.6,0.4-2.5,0.4C1316.4,412.1,1315.2,411.8,1314.1,411.2z"/>
		<path class="st1" d="M1325.1,391.3h3.9v12h0.1l4.8-6h4.3l-5,5.9l5.4,8.5h-4.3l-3.4-5.8l-2,2.2v3.6h-3.9V391.3z"/>
		<path class="st1" d="M1347.4,410.9c-0.6-0.8-0.9-1.9-0.9-3.4v-16.2h3.9v16.4c0,0.4,0.1,0.7,0.2,0.9c0.2,0.2,0.3,0.3,0.5,0.3
			s0.4,0,0.5-0.1l0.5,3c-0.6,0.2-1.2,0.3-2,0.3C1348.9,412.1,1348,411.7,1347.4,410.9z"/>
		<path class="st1" d="M1355.2,410.8c-0.8-0.8-1.2-1.8-1.2-3.1c0-1.5,0.6-2.7,1.9-3.6c1.3-0.8,3.4-1.4,6.2-1.7
			c-0.1-1.5-0.9-2.3-2.4-2.3c-0.6,0-1.2,0.1-1.8,0.3c-0.6,0.2-1.3,0.6-2,1l-1.4-2.6c2-1.3,4-1.9,6-1.9c1.8,0,3.2,0.5,4.2,1.6
			c0.9,1.1,1.4,2.7,1.4,4.8v8.3h-3.2l-0.3-1.5h-0.1c-1.4,1.2-2.9,1.9-4.3,1.9C1357,412.1,1355.9,411.7,1355.2,410.8z M1360.9,408.6
			c0.4-0.2,0.8-0.6,1.3-1v-2.8c-1.6,0.2-2.7,0.5-3.4,1s-1,1-1,1.6c0,0.5,0.2,0.9,0.5,1.1c0.3,0.3,0.7,0.4,1.3,0.4
			C1360,409,1360.5,408.9,1360.9,408.6z"/>
		<path class="st1" d="M1371.1,410.6c-0.8-1-1.2-2.3-1.2-4v-6.1h-2v-3l2.2-0.2l0.5-3.8h3.3v3.8h3.5v3.1h-3.5v6.1
			c0,1.6,0.6,2.3,1.9,2.3c0.4,0,0.9-0.1,1.4-0.3l0.6,2.9c-1,0.3-2.1,0.5-3.1,0.5C1373.1,412.1,1371.9,411.6,1371.1,410.6z"/>
		<path class="st1" d="M1391.5,405.7h-8.9c0.2,1.1,0.7,2,1.4,2.5c0.7,0.5,1.6,0.8,2.6,0.8c1,0,2.1-0.3,3.2-1l1.3,2.4
			c-0.7,0.5-1.5,0.9-2.4,1.2c-0.9,0.3-1.8,0.4-2.6,0.4c-1.4,0-2.6-0.3-3.7-0.9c-1.1-0.6-2-1.5-2.6-2.6c-0.6-1.1-0.9-2.5-0.9-4
			c0-1.5,0.3-2.8,0.9-4c0.6-1.1,1.5-2,2.5-2.6c1-0.6,2.1-0.9,3.3-0.9c2,0,3.5,0.6,4.5,1.9c1,1.3,1.6,2.9,1.6,5
			C1391.7,404.6,1391.6,405.2,1391.5,405.7z M1388.3,403c0-0.9-0.2-1.7-0.6-2.2c-0.4-0.5-1.1-0.8-1.9-0.8c-0.7,0-1.3,0.2-1.9,0.7
			s-0.9,1.2-1.1,2.2H1388.3z"/>
		<path class="st1" d="M1394.7,397.4h3.2l0.3,2.5h0.1c0.5-0.9,1.1-1.6,1.8-2.1c0.7-0.5,1.5-0.7,2.2-0.7c0.7,0,1.2,0.1,1.7,0.3
			l-0.7,3.4c-0.1,0-0.2-0.1-0.5-0.1c-0.3-0.1-0.6-0.1-1-0.1c-0.6,0-1.2,0.2-1.8,0.7c-0.6,0.4-1.1,1.1-1.5,2.1v8.5h-3.9V397.4z"/>
		<path class="st1" d="M1412.3,410.8c-0.8-0.8-1.2-1.8-1.2-3.1c0-1.5,0.6-2.7,1.9-3.6c1.3-0.8,3.4-1.4,6.2-1.7
			c-0.1-1.5-0.9-2.3-2.4-2.3c-0.6,0-1.2,0.1-1.8,0.3c-0.6,0.2-1.3,0.6-2,1l-1.4-2.6c2-1.3,4-1.9,6-1.9c1.8,0,3.2,0.5,4.2,1.6
			c0.9,1.1,1.4,2.7,1.4,4.8v8.3h-3.2l-0.3-1.5h-0.1c-1.4,1.2-2.9,1.9-4.3,1.9C1414.1,412.1,1413,411.7,1412.3,410.8z M1418,408.6
			c0.4-0.2,0.8-0.6,1.3-1v-2.8c-1.6,0.2-2.7,0.5-3.4,1s-1,1-1,1.6c0,0.5,0.2,0.9,0.5,1.1c0.3,0.3,0.7,0.4,1.3,0.4
			C1417.1,409,1417.6,408.9,1418,408.6z"/>
		<path class="st1" d="M1427,397.4h3.2l0.3,1.9h0.1c0.7-0.7,1.4-1.2,2.2-1.6c0.7-0.4,1.6-0.6,2.5-0.6c1.5,0,2.6,0.5,3.3,1.5
			c0.7,1,1.1,2.4,1.1,4.3v8.9h-4v-8.4c0-1.1-0.2-1.8-0.4-2.2c-0.3-0.4-0.8-0.6-1.5-0.6c-0.5,0-1,0.1-1.4,0.3s-0.9,0.6-1.5,1.2v9.8
			h-3.9V397.4z"/>
		<path class="st1" d="M1444.2,410.1c-1.1-1.3-1.6-3.2-1.6-5.5c0-1.5,0.3-2.8,0.8-4c0.6-1.1,1.3-2,2.2-2.6c0.9-0.6,1.9-0.9,2.9-0.9
			c0.8,0,1.4,0.1,1.9,0.4c0.5,0.3,1.1,0.6,1.7,1.2l-0.1-2.2v-5h4v20.4h-3.2l-0.3-1.5h-0.1c-0.5,0.5-1.2,1-1.8,1.3
			c-0.7,0.3-1.4,0.5-2.1,0.5C1446.7,412.1,1445.3,411.4,1444.2,410.1z M1450.9,408.5c0.4-0.2,0.8-0.6,1.2-1.1v-6.1
			c-0.7-0.7-1.6-1-2.6-1c-0.8,0-1.5,0.4-2,1.1c-0.5,0.7-0.8,1.8-0.8,3.1c0,1.4,0.2,2.5,0.7,3.2c0.5,0.7,1.2,1.1,2.1,1.1
			C1450,408.8,1450.5,408.7,1450.9,408.5z"/>
		<path class="st1" d="M1477.5,405.7h-8.9c0.2,1.1,0.7,2,1.4,2.5c0.7,0.5,1.6,0.8,2.6,0.8c1,0,2.1-0.3,3.2-1l1.3,2.4
			c-0.7,0.5-1.5,0.9-2.4,1.2c-0.9,0.3-1.8,0.4-2.6,0.4c-1.4,0-2.6-0.3-3.7-0.9c-1.1-0.6-2-1.5-2.6-2.6c-0.6-1.1-0.9-2.5-0.9-4
			c0-1.5,0.3-2.8,0.9-4c0.6-1.1,1.5-2,2.5-2.6c1-0.6,2.1-0.9,3.3-0.9c2,0,3.5,0.6,4.5,1.9c1,1.3,1.6,2.9,1.6,5
			C1477.7,404.6,1477.6,405.2,1477.5,405.7z M1474.3,403c0-0.9-0.2-1.7-0.6-2.2c-0.4-0.5-1.1-0.8-1.9-0.8c-0.7,0-1.3,0.2-1.9,0.7
			s-0.9,1.2-1.1,2.2H1474.3z"/>
		<path class="st1" d="M1481.5,410.1c-1.1-1.3-1.6-3.2-1.6-5.5c0-1.5,0.3-2.8,0.8-4c0.6-1.1,1.3-2,2.2-2.6c0.9-0.6,1.9-0.9,2.9-0.9
			c0.8,0,1.4,0.1,1.9,0.4c0.5,0.3,1.1,0.6,1.7,1.2l-0.1-2.2v-5h4v20.4h-3.2l-0.3-1.5h-0.1c-0.5,0.5-1.2,1-1.8,1.3
			c-0.7,0.3-1.4,0.5-2.1,0.5C1484,412.1,1482.5,411.4,1481.5,410.1z M1488.1,408.5c0.4-0.2,0.8-0.6,1.2-1.1v-6.1
			c-0.7-0.7-1.6-1-2.6-1c-0.8,0-1.5,0.4-2,1.1c-0.5,0.7-0.8,1.8-0.8,3.1c0,1.4,0.2,2.5,0.7,3.2c0.5,0.7,1.2,1.1,2.1,1.1
			C1487.3,408.8,1487.7,408.7,1488.1,408.5z"/>
		<path class="st1" d="M1497.6,394.5c-0.4-0.4-0.6-0.9-0.6-1.5c0-0.6,0.2-1.1,0.6-1.5c0.4-0.4,1-0.6,1.6-0.6c0.7,0,1.2,0.2,1.6,0.6
			c0.4,0.4,0.6,0.9,0.6,1.5c0,0.6-0.2,1.1-0.6,1.5c-0.4,0.4-1,0.6-1.6,0.6C1498.5,395.1,1498,394.9,1497.6,394.5z M1497.2,397.4h3.9
			v14.4h-3.9V397.4z"/>
		<path class="st1" d="M1506.8,410.6c-0.8-1-1.2-2.3-1.2-4v-6.1h-2v-3l2.2-0.2l0.5-3.8h3.3v3.8h3.5v3.1h-3.5v6.1
			c0,1.6,0.6,2.3,1.9,2.3c0.4,0,0.9-0.1,1.4-0.3l0.6,2.9c-1,0.3-2.1,0.5-3.1,0.5C1508.8,412.1,1507.6,411.6,1506.8,410.6z"/>
		<path class="st1" d="M1524.4,411.2c-1.1-0.6-1.9-1.5-2.5-2.6c-0.6-1.1-1-2.5-1-4c0-1.5,0.3-2.9,1-4c0.6-1.1,1.5-2,2.5-2.6
			c1.1-0.6,2.2-0.9,3.4-0.9c1.2,0,2.4,0.3,3.4,0.9c1.1,0.6,1.9,1.5,2.6,2.6c0.6,1.2,1,2.5,1,4c0,1.5-0.3,2.9-1,4
			c-0.6,1.1-1.5,2-2.6,2.6c-1.1,0.6-2.2,0.9-3.4,0.9C1526.6,412.1,1525.5,411.8,1524.4,411.2z M1530,407.7c0.5-0.8,0.8-1.8,0.8-3.1
			s-0.3-2.4-0.8-3.2c-0.5-0.8-1.2-1.2-2.1-1.2c-0.9,0-1.6,0.4-2.1,1.2c-0.5,0.8-0.7,1.8-0.7,3.2s0.2,2.4,0.7,3.1
			c0.5,0.8,1.2,1.1,2.1,1.1C1528.8,408.8,1529.5,408.5,1530,407.7z"/>
		<path class="st1" d="M1537.8,397.4h3.2l0.3,2.5h0.1c0.5-0.9,1.1-1.6,1.8-2.1c0.7-0.5,1.5-0.7,2.2-0.7c0.7,0,1.2,0.1,1.7,0.3
			l-0.7,3.4c-0.1,0-0.2-0.1-0.5-0.1c-0.3-0.1-0.6-0.1-1-0.1c-0.6,0-1.2,0.2-1.8,0.7c-0.6,0.4-1.1,1.1-1.5,2.1v8.5h-3.9V397.4z"/>
	</g>
	<g>
		<path class="st1" d="M1258.8,444.9c-1.1-1.3-1.6-3.2-1.6-5.5c0-1.5,0.3-2.8,0.8-4c0.6-1.1,1.3-2,2.2-2.6c0.9-0.6,1.9-0.9,2.9-0.9
			c0.8,0,1.4,0.1,1.9,0.4c0.5,0.3,1.1,0.6,1.7,1.2l-0.1-2.2v-5h4v20.4h-3.2l-0.3-1.5h-0.1c-0.5,0.5-1.2,1-1.8,1.3
			c-0.7,0.3-1.4,0.5-2.1,0.5C1261.3,446.9,1259.9,446.2,1258.8,444.9z M1265.5,443.3c0.4-0.2,0.8-0.6,1.2-1.1v-6.1
			c-0.7-0.7-1.6-1-2.6-1c-0.8,0-1.5,0.4-2,1.1c-0.5,0.7-0.8,1.8-0.8,3.1c0,1.4,0.2,2.5,0.7,3.2c0.5,0.7,1.2,1.1,2.1,1.1
			C1264.6,443.6,1265.1,443.5,1265.5,443.3z"/>
		<path class="st1" d="M1286.3,440.5h-8.9c0.2,1.1,0.7,2,1.4,2.5c0.7,0.5,1.6,0.8,2.6,0.8c1,0,2.1-0.3,3.2-1l1.3,2.4
			c-0.7,0.5-1.5,0.9-2.4,1.2c-0.9,0.3-1.8,0.4-2.6,0.4c-1.4,0-2.6-0.3-3.7-0.9c-1.1-0.6-2-1.5-2.6-2.6c-0.6-1.1-0.9-2.5-0.9-4
			c0-1.5,0.3-2.8,0.9-4c0.6-1.1,1.5-2,2.5-2.6c1-0.6,2.1-0.9,3.3-0.9c2,0,3.5,0.6,4.5,1.9c1,1.3,1.6,2.9,1.6,5
			C1286.4,439.4,1286.4,440,1286.3,440.5z M1283,437.8c0-0.9-0.2-1.7-0.6-2.2c-0.4-0.5-1.1-0.8-1.9-0.8c-0.7,0-1.3,0.2-1.9,0.7
			s-0.9,1.2-1.1,2.2H1283z"/>
		<path class="st1" d="M1290.3,445.7c-0.6-0.8-0.9-1.9-0.9-3.4v-16.2h3.9v16.4c0,0.4,0.1,0.7,0.2,0.9c0.2,0.2,0.3,0.3,0.5,0.3
			s0.4,0,0.5-0.1l0.5,3c-0.6,0.2-1.2,0.3-2,0.3C1291.8,446.9,1290.9,446.5,1290.3,445.7z"/>
		<path class="st1" d="M1309.3,440.5h-8.9c0.2,1.1,0.7,2,1.4,2.5c0.7,0.5,1.6,0.8,2.6,0.8c1,0,2.1-0.3,3.2-1l1.3,2.4
			c-0.7,0.5-1.5,0.9-2.4,1.2c-0.9,0.3-1.8,0.4-2.6,0.4c-1.4,0-2.6-0.3-3.7-0.9c-1.1-0.6-2-1.5-2.6-2.6c-0.6-1.1-0.9-2.5-0.9-4
			c0-1.5,0.3-2.8,0.9-4c0.6-1.1,1.5-2,2.5-2.6c1-0.6,2.1-0.9,3.3-0.9c2,0,3.5,0.6,4.5,1.9c1,1.3,1.6,2.9,1.6,5
			C1309.5,439.4,1309.4,440,1309.3,440.5z M1306.1,437.8c0-0.9-0.2-1.7-0.6-2.2c-0.4-0.5-1.1-0.8-1.9-0.8c-0.7,0-1.3,0.2-1.9,0.7
			s-0.9,1.2-1.1,2.2H1306.1z"/>
		<path class="st1" d="M1313.9,445.4c-0.8-1-1.2-2.3-1.2-4v-6.1h-2v-3l2.2-0.2l0.5-3.8h3.3v3.8h3.5v3.1h-3.5v6.1
			c0,1.6,0.6,2.3,1.9,2.3c0.4,0,0.9-0.1,1.4-0.3l0.6,2.9c-1,0.3-2.1,0.5-3.1,0.5C1315.9,446.9,1314.7,446.4,1313.9,445.4z"/>
		<path class="st1" d="M1334.3,440.5h-8.9c0.2,1.1,0.7,2,1.4,2.5c0.7,0.5,1.6,0.8,2.6,0.8c1,0,2.1-0.3,3.2-1l1.3,2.4
			c-0.7,0.5-1.5,0.9-2.4,1.2c-0.9,0.3-1.8,0.4-2.6,0.4c-1.4,0-2.6-0.3-3.7-0.9c-1.1-0.6-2-1.5-2.6-2.6c-0.6-1.1-0.9-2.5-0.9-4
			c0-1.5,0.3-2.8,0.9-4c0.6-1.1,1.5-2,2.5-2.6c1-0.6,2.1-0.9,3.3-0.9c2,0,3.5,0.6,4.5,1.9c1,1.3,1.6,2.9,1.6,5
			C1334.5,439.4,1334.5,440,1334.3,440.5z M1331.1,437.8c0-0.9-0.2-1.7-0.6-2.2c-0.4-0.5-1.1-0.8-1.9-0.8c-0.7,0-1.3,0.2-1.9,0.7
			s-0.9,1.2-1.1,2.2H1331.1z"/>
		<path class="st1" d="M1345,445.4c-0.8-1-1.2-2.3-1.2-4v-6.1h-2v-3l2.2-0.2l0.5-3.8h3.3v3.8h3.5v3.1h-3.5v6.1
			c0,1.6,0.6,2.3,1.9,2.3c0.4,0,0.9-0.1,1.4-0.3l0.6,2.9c-1,0.3-2.1,0.5-3.1,0.5C1347,446.9,1345.8,446.4,1345,445.4z"/>
		<path class="st1" d="M1354.2,426.1h3.9v5.1l-0.2,2.7c0.7-0.6,1.4-1.1,2.1-1.5c0.7-0.4,1.5-0.6,2.4-0.6c1.5,0,2.6,0.5,3.3,1.5
			c0.7,1,1.1,2.4,1.1,4.3v8.9h-4v-8.4c0-1.1-0.2-1.8-0.4-2.2c-0.3-0.4-0.8-0.6-1.5-0.6c-0.5,0-1,0.1-1.4,0.3s-0.9,0.6-1.5,1.2v9.8
			h-3.9V426.1z"/>
		<path class="st1" d="M1382.4,440.5h-8.9c0.2,1.1,0.7,2,1.4,2.5c0.7,0.5,1.6,0.8,2.6,0.8c1,0,2.1-0.3,3.2-1l1.3,2.4
			c-0.7,0.5-1.5,0.9-2.4,1.2c-0.9,0.3-1.8,0.4-2.6,0.4c-1.4,0-2.6-0.3-3.7-0.9c-1.1-0.6-2-1.5-2.6-2.6c-0.6-1.1-0.9-2.5-0.9-4
			c0-1.5,0.3-2.8,0.9-4c0.6-1.1,1.5-2,2.5-2.6c1-0.6,2.1-0.9,3.3-0.9c2,0,3.5,0.6,4.5,1.9c1,1.3,1.6,2.9,1.6,5
			C1382.6,439.4,1382.5,440,1382.4,440.5z M1379.2,437.8c0-0.9-0.2-1.7-0.6-2.2c-0.4-0.5-1.1-0.8-1.9-0.8c-0.7,0-1.3,0.2-1.9,0.7
			s-0.9,1.2-1.1,2.2H1379.2z"/>
		<path class="st1" d="M1392.2,445.7c-0.6-0.8-0.9-1.9-0.9-3.4v-16.2h3.9v16.4c0,0.4,0.1,0.7,0.2,0.9c0.2,0.2,0.3,0.3,0.5,0.3
			s0.4,0,0.5-0.1l0.5,3c-0.6,0.2-1.2,0.3-2,0.3C1393.8,446.9,1392.8,446.5,1392.2,445.7z"/>
		<path class="st1" d="M1399.9,429.3c-0.4-0.4-0.6-0.9-0.6-1.5c0-0.6,0.2-1.1,0.6-1.5c0.4-0.4,1-0.6,1.6-0.6c0.7,0,1.2,0.2,1.6,0.6
			c0.4,0.4,0.6,0.9,0.6,1.5c0,0.6-0.2,1.1-0.6,1.5c-0.4,0.4-1,0.6-1.6,0.6C1400.8,429.9,1400.3,429.7,1399.9,429.3z M1399.5,432.2
			h3.9v14.4h-3.9V432.2z"/>
		<path class="st1" d="M1407.4,432.2h3.2l0.3,1.9h0.1c0.7-0.7,1.4-1.2,2.2-1.6c0.7-0.4,1.6-0.6,2.5-0.6c1.5,0,2.6,0.5,3.3,1.5
			c0.7,1,1.1,2.4,1.1,4.3v8.9h-4v-8.4c0-1.1-0.2-1.8-0.4-2.2c-0.3-0.4-0.8-0.6-1.5-0.6c-0.5,0-1,0.1-1.4,0.3s-0.9,0.6-1.5,1.2v9.8
			h-3.9V432.2z"/>
		<path class="st1" d="M1423.9,426.1h3.9v12h0.1l4.8-6h4.3l-5,5.9l5.4,8.5h-4.3l-3.4-5.8l-2,2.2v3.6h-3.9V426.1z"/>
		<path class="st1" d="M1445.7,429.3c-0.4-0.4-0.6-0.9-0.6-1.5c0-0.6,0.2-1.1,0.6-1.5c0.4-0.4,1-0.6,1.6-0.6c0.7,0,1.2,0.2,1.6,0.6
			c0.4,0.4,0.6,0.9,0.6,1.5c0,0.6-0.2,1.1-0.6,1.5c-0.4,0.4-1,0.6-1.6,0.6C1446.6,429.9,1446.1,429.7,1445.7,429.3z M1445.3,432.2
			h3.9v14.4h-3.9V432.2z"/>
		<path class="st1" d="M1457.8,431.1v1.1h2.6v3.1h-2.6v11.2h-4v-11.2h-1.9v-3l1.9-0.1v-1c0-1.6,0.4-2.9,1.2-3.9
			c0.8-1,2.1-1.5,3.9-1.5c1,0,1.9,0.2,2.8,0.5l-0.7,2.9c-0.5-0.2-1-0.3-1.5-0.3C1458.4,428.9,1457.8,429.6,1457.8,431.1z"/>
		<path class="st1" d="M1468.7,432.2h3.2l0.3,1.9h0.1c0.7-0.7,1.4-1.2,2.2-1.6c0.7-0.4,1.6-0.6,2.5-0.6c1.5,0,2.6,0.5,3.3,1.5
			c0.7,1,1.1,2.4,1.1,4.3v8.9h-4v-8.4c0-1.1-0.2-1.8-0.4-2.2c-0.3-0.4-0.8-0.6-1.5-0.6c-0.5,0-1,0.1-1.4,0.3s-0.9,0.6-1.5,1.2v9.8
			h-3.9V432.2z"/>
		<path class="st1" d="M1496.8,440.5h-8.9c0.2,1.1,0.7,2,1.4,2.5c0.7,0.5,1.6,0.8,2.6,0.8c1,0,2.1-0.3,3.2-1l1.3,2.4
			c-0.7,0.5-1.5,0.9-2.4,1.2c-0.9,0.3-1.8,0.4-2.6,0.4c-1.4,0-2.6-0.3-3.7-0.9c-1.1-0.6-2-1.5-2.6-2.6c-0.6-1.1-0.9-2.5-0.9-4
			c0-1.5,0.3-2.8,0.9-4c0.6-1.1,1.5-2,2.5-2.6c1-0.6,2.1-0.9,3.3-0.9c2,0,3.5,0.6,4.5,1.9c1,1.3,1.6,2.9,1.6,5
			C1497,439.4,1497,440,1496.8,440.5z M1493.6,437.8c0-0.9-0.2-1.7-0.6-2.2c-0.4-0.5-1.1-0.8-1.9-0.8c-0.7,0-1.3,0.2-1.9,0.7
			s-0.9,1.2-1.1,2.2H1493.6z"/>
		<path class="st1" d="M1511.8,440.5h-8.9c0.2,1.1,0.7,2,1.4,2.5c0.7,0.5,1.6,0.8,2.6,0.8c1,0,2.1-0.3,3.2-1l1.3,2.4
			c-0.7,0.5-1.5,0.9-2.4,1.2c-0.9,0.3-1.8,0.4-2.6,0.4c-1.4,0-2.6-0.3-3.7-0.9c-1.1-0.6-2-1.5-2.6-2.6c-0.6-1.1-0.9-2.5-0.9-4
			c0-1.5,0.3-2.8,0.9-4c0.6-1.1,1.5-2,2.5-2.6c1-0.6,2.1-0.9,3.3-0.9c2,0,3.5,0.6,4.5,1.9c1,1.3,1.6,2.9,1.6,5
			C1511.9,439.4,1511.9,440,1511.8,440.5z M1508.5,437.8c0-0.9-0.2-1.7-0.6-2.2c-0.4-0.5-1.1-0.8-1.9-0.8c-0.7,0-1.3,0.2-1.9,0.7
			s-0.9,1.2-1.1,2.2H1508.5z"/>
		<path class="st1" d="M1515.7,444.9c-1.1-1.3-1.6-3.2-1.6-5.5c0-1.5,0.3-2.8,0.8-4c0.6-1.1,1.3-2,2.2-2.6c0.9-0.6,1.9-0.9,2.9-0.9
			c0.8,0,1.4,0.1,1.9,0.4c0.5,0.3,1.1,0.6,1.7,1.2l-0.1-2.2v-5h4v20.4h-3.2l-0.3-1.5h-0.1c-0.5,0.5-1.2,1-1.8,1.3
			c-0.7,0.3-1.4,0.5-2.1,0.5C1518.2,446.9,1516.8,446.2,1515.7,444.9z M1522.4,443.3c0.4-0.2,0.8-0.6,1.2-1.1v-6.1
			c-0.7-0.7-1.6-1-2.6-1c-0.8,0-1.5,0.4-2,1.1c-0.5,0.7-0.8,1.8-0.8,3.1c0,1.4,0.2,2.5,0.7,3.2c0.5,0.7,1.2,1.1,2.1,1.1
			C1521.5,443.6,1522,443.5,1522.4,443.3z"/>
		<path class="st1" d="M1543.2,440.5h-8.9c0.2,1.1,0.7,2,1.4,2.5c0.7,0.5,1.6,0.8,2.6,0.8c1,0,2.1-0.3,3.2-1l1.3,2.4
			c-0.7,0.5-1.5,0.9-2.4,1.2c-0.9,0.3-1.8,0.4-2.6,0.4c-1.4,0-2.6-0.3-3.7-0.9c-1.1-0.6-2-1.5-2.6-2.6c-0.6-1.1-0.9-2.5-0.9-4
			c0-1.5,0.3-2.8,0.9-4c0.6-1.1,1.5-2,2.5-2.6c1-0.6,2.1-0.9,3.3-0.9c2,0,3.5,0.6,4.5,1.9c1,1.3,1.6,2.9,1.6,5
			C1543.4,439.4,1543.3,440,1543.2,440.5z M1540,437.8c0-0.9-0.2-1.7-0.6-2.2c-0.4-0.5-1.1-0.8-1.9-0.8c-0.7,0-1.3,0.2-1.9,0.7
			s-0.9,1.2-1.1,2.2H1540z"/>
		<path class="st1" d="M1547.2,444.9c-1.1-1.3-1.6-3.2-1.6-5.5c0-1.5,0.3-2.8,0.8-4c0.6-1.1,1.3-2,2.2-2.6c0.9-0.6,1.9-0.9,2.9-0.9
			c0.8,0,1.4,0.1,1.9,0.4c0.5,0.3,1.1,0.6,1.7,1.2l-0.1-2.2v-5h4v20.4h-3.2l-0.3-1.5h-0.1c-0.5,0.5-1.2,1-1.8,1.3
			c-0.7,0.3-1.4,0.5-2.1,0.5C1549.7,446.9,1548.2,446.2,1547.2,444.9z M1553.8,443.3c0.4-0.2,0.8-0.6,1.2-1.1v-6.1
			c-0.7-0.7-1.6-1-2.6-1c-0.8,0-1.5,0.4-2,1.1c-0.5,0.7-0.8,1.8-0.8,3.1c0,1.4,0.2,2.5,0.7,3.2c0.5,0.7,1.2,1.1,2.1,1.1
			C1553,443.6,1553.4,443.5,1553.8,443.3z"/>
		<path class="st1" d="M1563.4,446.1c-0.5-0.5-0.7-1.1-0.7-1.8c0-0.7,0.2-1.3,0.7-1.8s1-0.7,1.7-0.7c0.7,0,1.3,0.2,1.7,0.7
			c0.5,0.5,0.7,1.1,0.7,1.8c0,0.7-0.2,1.3-0.7,1.8c-0.5,0.5-1,0.7-1.7,0.7C1564.5,446.9,1563.9,446.6,1563.4,446.1z"/>
	</g>
</g>
</svg>
