<?xml version="1.0" encoding="utf-8"?>
<!-- Generator: Adobe Illustrator 24.2.3, SVG Export Plug-In . SVG Version: 6.00 Build 0)  -->
<svg version="1.1" id="Layer_1" xmlns="http://www.w3.org/2000/svg" xmlns:xlink="http://www.w3.org/1999/xlink" x="0px" y="0px"
	 width="1600px" height="1080px" viewBox="0 0 1600 1080" style="enable-background:new 0 0 1600 1080;" xml:space="preserve">
<style type="text/css">
	.st0{fill:#418BF9;}
	.st1{fill:#A82981;}
	.st2{clip-path:url(#SVGID_2_);}
	.st3{fill:#E5BED9;}
	.st4{fill:#FFFFFF;}
	.st5{fill:#C6DCFD;}
	.st6{fill:#FBFBFB;}
	.st7{fill:#F2F2F2;}
	.st8{fill:#C3D9FA;}
	.st9{fill:#356FC6;}
	.st10{clip-path:url(#SVGID_4_);fill:#FBFBFB;}
	.st11{clip-path:url(#SVGID_4_);}
	.st12{fill:#BFD1EB;}
	.st13{clip-path:url(#SVGID_6_);}
	.st14{clip-path:url(#SVGID_8_);fill:#FFFFFF;}
	.st15{clip-path:url(#SVGID_8_);}
	.st16{fill:#C5DCFD;}
	.st17{clip-path:url(#SVGID_10_);fill:#C6DCFD;}
	.st18{clip-path:url(#SVGID_10_);}
	.st19{fill:#D7E6FE;}
	.st20{clip-path:url(#SVGID_12_);}
	.st21{clip-path:url(#SVGID_14_);}
	.st22{clip-path:url(#SVGID_16_);fill:#FBFBFB;}
	.st23{clip-path:url(#SVGID_16_);}
	.st24{clip-path:url(#SVGID_18_);}
	.st25{clip-path:url(#SVGID_20_);}
	.st26{clip-path:url(#SVGID_22_);}
	.st27{clip-path:url(#SVGID_24_);}
	.st28{clip-path:url(#SVGID_26_);fill:#E5BED9;}
	.st29{clip-path:url(#SVGID_28_);}
	.st30{clip-path:url(#SVGID_30_);}
	.st31{clip-path:url(#SVGID_32_);}
</style>
<g>
	<path class="st0" d="M1178.3,614.4c2.2,0.3,6.1,0.9,11.4,1.4c5.3,0.5,11.9,0.9,19.5,0.9c16.1,0,36.7-1.7,58.8-8
		c22.1-6.3,45.6-17.3,67.4-35.7c31.2-26.4,46.3-57.5,53.3-75.8c0.9-2.3-0.3-4.9-2.6-5.8c-2.3-0.9-4.9,0.3-5.8,2.6
		c-6.7,17.5-21.1,47.1-50.7,72.2c-20.7,17.5-43,27.9-64.1,33.9c-21.1,6-40.9,7.7-56.3,7.7c-7.3,0-13.6-0.4-18.7-0.8
		c-5-0.5-8.7-1-10.8-1.3c-2.5-0.4-4.8,1.3-5.1,3.8C1174.2,611.8,1175.9,614.1,1178.3,614.4L1178.3,614.4z"/>
	<path class="st0" d="M1204.8,582.9l-32,24c-1.1,0.8-1.8,2.1-1.8,3.5c0,1.4,0.6,2.7,1.7,3.6l32,26c1.9,1.6,4.8,1.3,6.3-0.7
		c1.6-1.9,1.3-4.8-0.7-6.3l-27.5-22.4l27.4-20.5c2-1.5,2.4-4.3,0.9-6.3C1209.6,581.8,1206.8,581.4,1204.8,582.9L1204.8,582.9z"/>
	<path class="st0" d="M1215.8,700.9l-32,24c-1.1,0.8-1.8,2.1-1.8,3.5c0,1.4,0.6,2.7,1.7,3.6l32,26c1.9,1.6,4.8,1.3,6.3-0.7
		c1.6-1.9,1.3-4.8-0.7-6.3l-27.5-22.4l27.4-20.5c2-1.5,2.4-4.3,0.9-6.3C1220.6,699.8,1217.8,699.4,1215.8,700.9L1215.8,700.9z"/>
	<g>
		<path class="st1" d="M1267.8,378h6.3c2.3,0,4.1,0.5,5.4,1.4c1.3,0.9,2,2.5,2,4.6c0,2.1-0.7,3.7-2.1,4.7c-1.4,1.1-3.1,1.6-5.3,1.6
			h-2.5v6.6h-4V378z M1274,387.2c2.5,0,3.7-1.1,3.7-3.2c0-1-0.3-1.7-0.9-2.2s-1.6-0.7-2.9-0.7h-2.1v6H1274z"/>
		<path class="st1" d="M1284.2,396.1c-0.8-0.8-1.2-1.8-1.2-3.1c0-1.5,0.6-2.7,1.9-3.6c1.3-0.8,3.4-1.4,6.2-1.7
			c-0.1-1.5-0.9-2.3-2.4-2.3c-0.6,0-1.2,0.1-1.8,0.3c-0.6,0.2-1.3,0.6-2,1l-1.4-2.6c2-1.3,4-1.9,6-1.9c1.8,0,3.2,0.5,4.2,1.6
			c0.9,1.1,1.4,2.7,1.4,4.8v8.3h-3.2l-0.3-1.5h-0.1c-1.4,1.2-2.9,1.9-4.3,1.9C1286,397.3,1284.9,396.9,1284.2,396.1z M1289.9,393.9
			c0.4-0.2,0.8-0.6,1.3-1v-2.8c-1.6,0.2-2.7,0.5-3.4,1s-1,1-1,1.6c0,0.5,0.2,0.9,0.5,1.1c0.3,0.3,0.7,0.4,1.3,0.4
			C1289,394.2,1289.5,394.1,1289.9,393.9z"/>
		<path class="st1" d="M1300.1,396.7c-1-0.4-1.9-0.9-2.6-1.4l1.8-2.5c0.7,0.5,1.3,0.9,1.9,1.2c0.6,0.3,1.2,0.4,1.9,0.4
			c0.7,0,1.1-0.1,1.5-0.4c0.3-0.2,0.5-0.6,0.5-1c0-0.3-0.1-0.6-0.4-0.8s-0.6-0.4-1.1-0.7c-0.5-0.2-1-0.4-1.5-0.6
			c-1.1-0.4-2.1-1-2.8-1.6c-0.7-0.6-1.1-1.5-1.1-2.6c0-1.3,0.5-2.4,1.5-3.2c1-0.8,2.3-1.2,3.9-1.2c1.8,0,3.4,0.6,5,1.8l-1.8,2.4
			c-1.1-0.8-2.2-1.2-3.1-1.2c-0.6,0-1,0.1-1.3,0.3s-0.4,0.5-0.4,0.9s0.2,0.7,0.6,0.9c0.4,0.2,0.8,0.4,1.3,0.6c0.5,0.2,0.8,0.3,1,0.3
			c1.2,0.4,2.2,1,2.9,1.6s1.1,1.5,1.1,2.7c0,0.9-0.2,1.6-0.7,2.3c-0.5,0.7-1.1,1.2-2,1.6c-0.9,0.4-1.9,0.6-3.1,0.6
			C1302.1,397.3,1301.1,397.1,1300.1,396.7z"/>
		<path class="st1" d="M1313,395.9c-0.8-1-1.2-2.3-1.2-4v-6.1h-2v-3l2.2-0.2l0.5-3.8h3.3v3.8h3.5v3.1h-3.5v6.1
			c0,1.6,0.6,2.3,1.9,2.3c0.4,0,0.9-0.1,1.4-0.3l0.6,2.9c-1,0.3-2.1,0.5-3.1,0.5C1315,397.3,1313.8,396.8,1313,395.9z"/>
		<path class="st1" d="M1333.4,390.9h-8.9c0.2,1.1,0.7,2,1.4,2.5c0.7,0.5,1.6,0.8,2.6,0.8c1,0,2.1-0.3,3.2-1l1.3,2.4
			c-0.7,0.5-1.5,0.9-2.4,1.2c-0.9,0.3-1.8,0.4-2.6,0.4c-1.4,0-2.6-0.3-3.7-0.9c-1.1-0.6-2-1.5-2.6-2.6c-0.6-1.1-0.9-2.5-0.9-4
			c0-1.5,0.3-2.8,0.9-4c0.6-1.1,1.5-2,2.5-2.6c1-0.6,2.1-0.9,3.3-0.9c2,0,3.5,0.6,4.5,1.9c1,1.3,1.6,2.9,1.6,5
			C1333.6,389.8,1333.6,390.4,1333.4,390.9z M1330.2,388.3c0-0.9-0.2-1.7-0.6-2.2c-0.4-0.5-1.1-0.8-1.9-0.8c-0.7,0-1.3,0.2-1.9,0.7
			s-0.9,1.2-1.1,2.2H1330.2z"/>
		<path class="st1" d="M1342.8,379.8c-0.4-0.4-0.6-0.9-0.6-1.5c0-0.6,0.2-1.1,0.6-1.5c0.4-0.4,1-0.6,1.6-0.6c0.7,0,1.2,0.2,1.6,0.6
			c0.4,0.4,0.6,0.9,0.6,1.5c0,0.6-0.2,1.1-0.6,1.5c-0.4,0.4-1,0.6-1.6,0.6C1343.7,380.4,1343.2,380.2,1342.8,379.8z M1342.4,382.6
			h3.9v14.4h-3.9V382.6z"/>
		<path class="st1" d="M1350.3,382.6h3.2l0.3,1.9h0.1c0.7-0.7,1.4-1.2,2.2-1.6c0.7-0.4,1.6-0.6,2.5-0.6c1.5,0,2.6,0.5,3.3,1.5
			c0.7,1,1.1,2.4,1.1,4.3v8.9h-4v-8.4c0-1.1-0.2-1.8-0.4-2.2c-0.3-0.4-0.8-0.6-1.5-0.6c-0.5,0-1,0.1-1.4,0.3s-0.9,0.6-1.5,1.2v9.8
			h-3.9V382.6z"/>
		<path class="st1" d="M1372,402.4l0.7-3c0.4,0.1,0.7,0.2,1,0.2c1.3,0,2.1-0.7,2.6-2.1l0.2-0.8l-5.6-14h4l2.2,6.5
			c0.2,0.7,0.5,1.6,0.8,2.7c0.1,0.5,0.3,1,0.4,1.4h0.1c0.3-1.1,0.6-2.5,1-4.1l1.9-6.5h3.8l-5,14.7c-0.7,1.9-1.5,3.2-2.4,4.1
			c-0.9,0.9-2.1,1.3-3.7,1.3C1373.3,402.7,1372.6,402.6,1372,402.4z"/>
		<path class="st1" d="M1389.9,396.4c-1.1-0.6-1.9-1.5-2.5-2.6c-0.6-1.1-1-2.5-1-4c0-1.5,0.3-2.9,1-4c0.6-1.1,1.5-2,2.5-2.6
			c1.1-0.6,2.2-0.9,3.4-0.9c1.2,0,2.4,0.3,3.4,0.9c1.1,0.6,1.9,1.5,2.6,2.6c0.6,1.2,1,2.5,1,4c0,1.5-0.3,2.9-1,4
			c-0.6,1.1-1.5,2-2.6,2.6c-1.1,0.6-2.2,0.9-3.4,0.9C1392.1,397.3,1390.9,397,1389.9,396.4z M1395.4,392.9c0.5-0.8,0.8-1.8,0.8-3.1
			s-0.3-2.4-0.8-3.2c-0.5-0.8-1.2-1.2-2.1-1.2c-0.9,0-1.6,0.4-2.1,1.2c-0.5,0.8-0.7,1.8-0.7,3.2s0.2,2.4,0.7,3.1
			c0.5,0.8,1.2,1.1,2.1,1.1C1394.2,394.1,1394.9,393.7,1395.4,392.9z"/>
		<path class="st1" d="M1404.2,395.8c-0.7-1-1.1-2.4-1.1-4.3v-8.9h3.9v8.4c0,1,0.2,1.8,0.5,2.2c0.3,0.4,0.8,0.7,1.5,0.7
			c0.6,0,1-0.1,1.4-0.4c0.4-0.3,0.8-0.7,1.3-1.3v-9.6h3.9v14.4h-3.2l-0.3-2h-0.1c-0.7,0.8-1.3,1.4-2.1,1.8c-0.7,0.4-1.5,0.6-2.5,0.6
			C1406,397.3,1404.9,396.8,1404.2,395.8z"/>
		<path class="st1" d="M1419.7,382.6h3.2l0.3,2.5h0.1c0.5-0.9,1.1-1.6,1.8-2.1c0.7-0.5,1.5-0.7,2.2-0.7c0.7,0,1.2,0.1,1.7,0.3
			l-0.7,3.4c-0.1,0-0.2-0.1-0.5-0.1c-0.3-0.1-0.6-0.1-1-0.1c-0.6,0-1.2,0.2-1.8,0.7c-0.6,0.4-1.1,1.1-1.5,2.1v8.5h-3.9V382.6z"/>
		<path class="st1" d="M1436.8,382.6h3.2l0.3,1.9h0.1c0.7-0.7,1.4-1.3,2.1-1.7c0.7-0.4,1.4-0.6,2.3-0.6c1,0,1.8,0.2,2.5,0.6
			c0.6,0.4,1.1,1,1.5,1.8c0.7-0.8,1.5-1.4,2.2-1.8c0.7-0.4,1.5-0.7,2.3-0.7c1.5,0,2.6,0.5,3.4,1.5c0.7,1,1.1,2.4,1.1,4.3v8.9h-3.9
			v-8.4c0-1-0.1-1.8-0.4-2.2c-0.3-0.4-0.8-0.7-1.5-0.7c-0.8,0-1.7,0.5-2.6,1.5v9.8h-3.9v-8.4c0-1-0.1-1.8-0.4-2.2
			c-0.3-0.4-0.8-0.7-1.5-0.7c-0.8,0-1.7,0.5-2.6,1.5v9.8h-3.9V382.6z"/>
		<path class="st1" d="M1473.2,390.9h-8.9c0.2,1.1,0.7,2,1.4,2.5c0.7,0.5,1.6,0.8,2.6,0.8c1,0,2.1-0.3,3.2-1l1.3,2.4
			c-0.7,0.5-1.5,0.9-2.4,1.2c-0.9,0.3-1.8,0.4-2.6,0.4c-1.4,0-2.6-0.3-3.7-0.9c-1.1-0.6-2-1.5-2.6-2.6c-0.6-1.1-0.9-2.5-0.9-4
			c0-1.5,0.3-2.8,0.9-4c0.6-1.1,1.5-2,2.5-2.6c1-0.6,2.1-0.9,3.3-0.9c2,0,3.5,0.6,4.5,1.9c1,1.3,1.6,2.9,1.6,5
			C1473.4,389.8,1473.3,390.4,1473.2,390.9z M1470,388.3c0-0.9-0.2-1.7-0.6-2.2c-0.4-0.5-1.1-0.8-1.9-0.8c-0.7,0-1.3,0.2-1.9,0.7
			s-0.9,1.2-1.1,2.2H1470z"/>
		<path class="st1" d="M1488.1,390.9h-8.9c0.2,1.1,0.7,2,1.4,2.5c0.7,0.5,1.6,0.8,2.6,0.8c1,0,2.1-0.3,3.2-1l1.3,2.4
			c-0.7,0.5-1.5,0.9-2.4,1.2c-0.9,0.3-1.8,0.4-2.6,0.4c-1.4,0-2.6-0.3-3.7-0.9c-1.1-0.6-2-1.5-2.6-2.6c-0.6-1.1-0.9-2.5-0.9-4
			c0-1.5,0.3-2.8,0.9-4c0.6-1.1,1.5-2,2.5-2.6c1-0.6,2.1-0.9,3.3-0.9c2,0,3.5,0.6,4.5,1.9c1,1.3,1.6,2.9,1.6,5
			C1488.3,389.8,1488.2,390.4,1488.1,390.9z M1484.9,388.3c0-0.9-0.2-1.7-0.6-2.2c-0.4-0.5-1.1-0.8-1.9-0.8c-0.7,0-1.3,0.2-1.9,0.7
			s-0.9,1.2-1.1,2.2H1484.9z"/>
		<path class="st1" d="M1492.7,395.9c-0.8-1-1.2-2.3-1.2-4v-6.1h-2v-3l2.2-0.2l0.5-3.8h3.3v3.8h3.5v3.1h-3.5v6.1
			c0,1.6,0.6,2.3,1.9,2.3c0.4,0,0.9-0.1,1.4-0.3l0.6,2.9c-1,0.3-2.1,0.5-3.1,0.5C1494.7,397.3,1493.5,396.8,1492.7,395.9z"/>
		<path class="st1" d="M1502.3,379.8c-0.4-0.4-0.6-0.9-0.6-1.5c0-0.6,0.2-1.1,0.6-1.5c0.4-0.4,1-0.6,1.6-0.6c0.7,0,1.2,0.2,1.6,0.6
			c0.4,0.4,0.6,0.9,0.6,1.5c0,0.6-0.2,1.1-0.6,1.5c-0.4,0.4-1,0.6-1.6,0.6C1503.2,380.4,1502.7,380.2,1502.3,379.8z M1501.9,382.6
			h3.9v14.4h-3.9V382.6z"/>
		<path class="st1" d="M1509.8,382.6h3.2l0.3,1.9h0.1c0.7-0.7,1.4-1.2,2.2-1.6c0.7-0.4,1.6-0.6,2.5-0.6c1.5,0,2.6,0.5,3.3,1.5
			c0.7,1,1.1,2.4,1.1,4.3v8.9h-4v-8.4c0-1.1-0.2-1.8-0.4-2.2c-0.3-0.4-0.8-0.6-1.5-0.6c-0.5,0-1,0.1-1.4,0.3s-0.9,0.6-1.5,1.2v9.8
			h-3.9V382.6z"/>
		<path class="st1" d="M1527,402.2c-1.1-0.6-1.7-1.5-1.7-2.7s0.7-2.2,2.1-3v-0.1c-0.9-0.6-1.3-1.4-1.3-2.4c0-0.5,0.1-1,0.4-1.5
			s0.7-0.9,1.1-1.2v-0.1c-0.6-0.4-1-0.9-1.4-1.6c-0.4-0.7-0.5-1.4-0.5-2.2c0-1.1,0.3-2,0.8-2.8c0.5-0.8,1.2-1.4,2.1-1.8
			c0.9-0.4,1.9-0.6,2.9-0.6c0.7,0,1.5,0.1,2.2,0.3h5.2v2.9h-2.4c0.2,0.2,0.3,0.5,0.4,0.9c0.1,0.4,0.2,0.8,0.2,1.1
			c0,1.6-0.5,2.8-1.6,3.6s-2.4,1.2-4,1.2c-0.6,0-1.2-0.1-1.8-0.3c-0.2,0.2-0.3,0.3-0.4,0.5c-0.1,0.2-0.1,0.4-0.1,0.7
			c0,0.4,0.2,0.6,0.5,0.8c0.3,0.2,0.9,0.3,1.7,0.3h2.4c1.8,0,3.1,0.3,4,0.9c0.9,0.6,1.4,1.5,1.4,2.8c0,1-0.3,1.8-1,2.6
			c-0.6,0.8-1.6,1.4-2.8,1.8c-1.2,0.4-2.6,0.7-4.2,0.7C1529.6,403.1,1528.1,402.8,1527,402.2z M1534.5,400.1c0.7-0.4,1-0.8,1-1.4
			c0-0.5-0.2-0.8-0.6-1c-0.4-0.2-0.9-0.3-1.7-0.3h-1.7c-0.9,0-1.5-0.1-2-0.2c-0.6,0.5-0.9,1-0.9,1.6c0,0.6,0.3,1,0.9,1.3
			s1.4,0.5,2.4,0.5C1533,400.6,1533.8,400.4,1534.5,400.1z M1533.2,389.3c0.4-0.4,0.6-1.1,0.6-1.9c0-0.8-0.2-1.4-0.6-1.8
			s-0.9-0.7-1.6-0.7c-0.6,0-1.2,0.2-1.5,0.7c-0.4,0.4-0.6,1-0.6,1.8c0,0.8,0.2,1.4,0.6,1.9c0.4,0.5,0.9,0.7,1.5,0.7
			C1532.3,390,1532.8,389.8,1533.2,389.3z"/>
	</g>
	<g>
		<path class="st1" d="M1242,430.9c-0.6-0.8-0.9-1.9-0.9-3.4v-16.2h3.9v16.4c0,0.4,0.1,0.7,0.2,0.9c0.2,0.2,0.3,0.3,0.5,0.3
			s0.4,0,0.5-0.1l0.5,3c-0.6,0.2-1.2,0.3-2,0.3C1243.5,432.1,1242.5,431.7,1242,430.9z"/>
		<path class="st1" d="M1249.6,414.6c-0.4-0.4-0.6-0.9-0.6-1.5c0-0.6,0.2-1.1,0.6-1.5c0.4-0.4,1-0.6,1.6-0.6c0.7,0,1.2,0.2,1.6,0.6
			c0.4,0.4,0.6,0.9,0.6,1.5c0,0.6-0.2,1.1-0.6,1.5c-0.4,0.4-1,0.6-1.6,0.6C1250.5,415.2,1250,415,1249.6,414.6z M1249.2,417.4h3.9
			v14.4h-3.9V417.4z"/>
		<path class="st1" d="M1257.1,417.4h3.2l0.3,1.9h0.1c0.7-0.7,1.4-1.2,2.2-1.6c0.7-0.4,1.6-0.6,2.5-0.6c1.5,0,2.6,0.5,3.3,1.5
			c0.7,1,1.1,2.4,1.1,4.3v8.9h-4v-8.4c0-1.1-0.2-1.8-0.4-2.2c-0.3-0.4-0.8-0.6-1.5-0.6c-0.5,0-1,0.1-1.4,0.3s-0.9,0.6-1.5,1.2v9.8
			h-3.9V417.4z"/>
		<path class="st1" d="M1273.6,411.4h3.9v12h0.1l4.8-6h4.3l-5,5.9l5.4,8.5h-4.3l-3.4-5.8l-2,2.2v3.6h-3.9V411.4z"/>
		<path class="st1" d="M1296.2,430.6c-0.6-2.1-1-4.5-1-6.9c0-2.5,0.3-4.8,1-6.9s1.6-4.3,2.9-6.3l2.5,1c-1,1.8-1.8,3.8-2.3,5.9
			c-0.5,2.1-0.8,4.2-0.8,6.4s0.3,4.3,0.8,6.4c0.5,2.1,1.3,4,2.3,5.9l-2.5,1C1297.8,434.9,1296.8,432.8,1296.2,430.6z"/>
		<path class="st1" d="M1304.8,417.4h3.2l0.3,1.5h0.1c0.6-0.5,1.3-1,2-1.3c0.7-0.3,1.4-0.5,2.2-0.5c1.7,0,3.1,0.7,4.1,2
			c1,1.3,1.5,3.1,1.5,5.3c0,1.6-0.3,2.9-0.8,4.1c-0.6,1.2-1.3,2.1-2.2,2.7s-1.9,0.9-3,0.9c-1.2,0-2.4-0.5-3.5-1.5l0.1,2.3v4.3h-3.9
			V417.4z M1313.4,427.7c0.5-0.8,0.8-1.9,0.8-3.3c0-2.7-0.9-4.1-2.7-4.1c-0.9,0-1.8,0.5-2.7,1.4v6.1c0.8,0.7,1.6,1,2.5,1
			C1312.1,428.8,1312.8,428.5,1313.4,427.7z"/>
		<path class="st1" d="M1333.1,425.7h-8.9c0.2,1.1,0.7,2,1.4,2.5c0.7,0.5,1.6,0.8,2.6,0.8c1,0,2.1-0.3,3.2-1l1.3,2.4
			c-0.7,0.5-1.5,0.9-2.4,1.2c-0.9,0.3-1.8,0.4-2.6,0.4c-1.4,0-2.6-0.3-3.7-0.9c-1.1-0.6-2-1.5-2.6-2.6c-0.6-1.1-0.9-2.5-0.9-4
			c0-1.5,0.3-2.8,0.9-4c0.6-1.1,1.5-2,2.5-2.6c1-0.6,2.1-0.9,3.3-0.9c2,0,3.5,0.6,4.5,1.9c1,1.3,1.6,2.9,1.6,5
			C1333.2,424.6,1333.2,425.2,1333.1,425.7z M1329.9,423.1c0-0.9-0.2-1.7-0.6-2.2c-0.4-0.5-1.1-0.8-1.9-0.8c-0.7,0-1.3,0.2-1.9,0.7
			s-0.9,1.2-1.1,2.2H1329.9z"/>
		<path class="st1" d="M1336.3,417.4h3.2l0.3,2.5h0.1c0.5-0.9,1.1-1.6,1.8-2.1c0.7-0.5,1.5-0.7,2.2-0.7c0.7,0,1.2,0.1,1.7,0.3
			l-0.7,3.4c-0.1,0-0.2-0.1-0.5-0.1c-0.3-0.1-0.6-0.1-1-0.1c-0.6,0-1.2,0.2-1.8,0.7c-0.6,0.4-1.1,1.1-1.5,2.1v8.5h-3.9V417.4z"/>
		<path class="st1" d="M1352.2,416.3v1.1h2.6v3.1h-2.6v11.2h-4v-11.2h-1.9v-3l1.9-0.1v-1c0-1.6,0.4-2.9,1.2-3.9
			c0.8-1,2.1-1.5,3.9-1.5c1,0,1.9,0.2,2.8,0.5l-0.7,2.9c-0.5-0.2-1-0.3-1.5-0.3C1352.8,414.1,1352.2,414.9,1352.2,416.3z"/>
		<path class="st1" d="M1368.7,425.7h-8.9c0.2,1.1,0.7,2,1.4,2.5c0.7,0.5,1.6,0.8,2.6,0.8c1,0,2.1-0.3,3.2-1l1.3,2.4
			c-0.7,0.5-1.5,0.9-2.4,1.2c-0.9,0.3-1.8,0.4-2.6,0.4c-1.4,0-2.6-0.3-3.7-0.9c-1.1-0.6-2-1.5-2.6-2.6c-0.6-1.1-0.9-2.5-0.9-4
			c0-1.5,0.3-2.8,0.9-4c0.6-1.1,1.5-2,2.5-2.6c1-0.6,2.1-0.9,3.3-0.9c2,0,3.5,0.6,4.5,1.9c1,1.3,1.6,2.9,1.6,5
			C1368.8,424.6,1368.8,425.2,1368.7,425.7z M1365.4,423.1c0-0.9-0.2-1.7-0.6-2.2c-0.4-0.5-1.1-0.8-1.9-0.8c-0.7,0-1.3,0.2-1.9,0.7
			s-0.9,1.2-1.1,2.2H1365.4z"/>
		<path class="st1" d="M1371.8,417.4h3.2l0.3,2.5h0.1c0.5-0.9,1.1-1.6,1.8-2.1c0.7-0.5,1.5-0.7,2.2-0.7c0.7,0,1.2,0.1,1.7,0.3
			l-0.7,3.4c-0.1,0-0.2-0.1-0.5-0.1c-0.3-0.1-0.6-0.1-1-0.1c-0.6,0-1.2,0.2-1.8,0.7c-0.6,0.4-1.1,1.1-1.5,2.1v8.5h-3.9V417.4z"/>
		<path class="st1" d="M1394.6,425.7h-8.9c0.2,1.1,0.7,2,1.4,2.5c0.7,0.5,1.6,0.8,2.6,0.8c1,0,2.1-0.3,3.2-1l1.3,2.4
			c-0.7,0.5-1.5,0.9-2.4,1.2c-0.9,0.3-1.8,0.4-2.6,0.4c-1.4,0-2.6-0.3-3.7-0.9c-1.1-0.6-2-1.5-2.6-2.6c-0.6-1.1-0.9-2.5-0.9-4
			c0-1.5,0.3-2.8,0.9-4c0.6-1.1,1.5-2,2.5-2.6c1-0.6,2.1-0.9,3.3-0.9c2,0,3.5,0.6,4.5,1.9c1,1.3,1.6,2.9,1.6,5
			C1394.7,424.6,1394.7,425.2,1394.6,425.7z M1391.3,423.1c0-0.9-0.2-1.7-0.6-2.2c-0.4-0.5-1.1-0.8-1.9-0.8c-0.7,0-1.3,0.2-1.9,0.7
			s-0.9,1.2-1.1,2.2H1391.3z"/>
		<path class="st1" d="M1398.5,430.1c-1.1-1.3-1.6-3.2-1.6-5.5c0-1.5,0.3-2.8,0.8-4c0.6-1.1,1.3-2,2.2-2.6c0.9-0.6,1.9-0.9,2.9-0.9
			c0.8,0,1.4,0.1,1.9,0.4c0.5,0.3,1.1,0.6,1.7,1.2l-0.1-2.2v-5h4v20.4h-3.2l-0.3-1.5h-0.1c-0.5,0.5-1.2,1-1.8,1.3
			c-0.7,0.3-1.4,0.5-2.1,0.5C1401,432.1,1399.6,431.4,1398.5,430.1z M1405.2,428.5c0.4-0.2,0.8-0.6,1.2-1.1v-6.1
			c-0.7-0.7-1.6-1-2.6-1c-0.8,0-1.5,0.4-2,1.1c-0.5,0.7-0.8,1.8-0.8,3.1c0,1.4,0.2,2.5,0.7,3.2c0.5,0.7,1.2,1.1,2.1,1.1
			C1404.3,428.8,1404.8,428.7,1405.2,428.5z"/>
		<path class="st1" d="M1413.7,435.9c1-1.8,1.8-3.8,2.3-5.9s0.8-4.2,0.8-6.4s-0.3-4.3-0.8-6.4s-1.3-4-2.3-5.9l2.5-1
			c1.3,2.1,2.2,4.2,2.9,6.3c0.6,2.1,1,4.5,1,6.9c0,2.5-0.3,4.8-1,6.9c-0.6,2.1-1.6,4.3-2.9,6.3L1413.7,435.9z"/>
		<path class="st1" d="M1432.5,431.2c-1.1-0.6-1.9-1.5-2.5-2.6c-0.6-1.1-1-2.5-1-4c0-1.5,0.3-2.9,1-4c0.6-1.1,1.5-2,2.5-2.6
			c1.1-0.6,2.2-0.9,3.4-0.9c1.2,0,2.4,0.3,3.4,0.9c1.1,0.6,1.9,1.5,2.6,2.6c0.6,1.2,1,2.5,1,4c0,1.5-0.3,2.9-1,4
			c-0.6,1.1-1.5,2-2.6,2.6c-1.1,0.6-2.2,0.9-3.4,0.9C1434.7,432.1,1433.6,431.8,1432.5,431.2z M1438.1,427.7
			c0.5-0.8,0.8-1.8,0.8-3.1s-0.3-2.4-0.8-3.2c-0.5-0.8-1.2-1.2-2.1-1.2c-0.9,0-1.6,0.4-2.1,1.2c-0.5,0.8-0.7,1.8-0.7,3.2
			s0.2,2.4,0.7,3.1c0.5,0.8,1.2,1.1,2.1,1.1C1436.8,428.9,1437.5,428.5,1438.1,427.7z"/>
		<path class="st1" d="M1445.9,417.4h3.2l0.3,2.5h0.1c0.5-0.9,1.1-1.6,1.8-2.1c0.7-0.5,1.5-0.7,2.2-0.7c0.7,0,1.2,0.1,1.7,0.3
			l-0.7,3.4c-0.1,0-0.2-0.1-0.5-0.1c-0.3-0.1-0.6-0.1-1-0.1c-0.6,0-1.2,0.2-1.8,0.7c-0.6,0.4-1.1,1.1-1.5,2.1v8.5h-3.9V417.4z"/>
		<path class="st1" d="M1463,417.4h3.2l0.3,1.9h0.1c0.7-0.7,1.4-1.3,2.1-1.7c0.7-0.4,1.4-0.6,2.3-0.6c1,0,1.8,0.2,2.5,0.6
			c0.6,0.4,1.1,1,1.5,1.8c0.7-0.8,1.5-1.4,2.2-1.8c0.7-0.4,1.5-0.7,2.3-0.7c1.5,0,2.6,0.5,3.4,1.5c0.7,1,1.1,2.4,1.1,4.3v8.9h-3.9
			v-8.4c0-1-0.1-1.8-0.4-2.2c-0.3-0.4-0.8-0.7-1.5-0.7c-0.8,0-1.7,0.5-2.6,1.5v9.8h-3.9v-8.4c0-1-0.1-1.8-0.4-2.2
			c-0.3-0.4-0.8-0.7-1.5-0.7c-0.8,0-1.7,0.5-2.6,1.5v9.8h-3.9V417.4z"/>
		<path class="st1" d="M1499.5,425.7h-8.9c0.2,1.1,0.7,2,1.4,2.5c0.7,0.5,1.6,0.8,2.6,0.8c1,0,2.1-0.3,3.2-1l1.3,2.4
			c-0.7,0.5-1.5,0.9-2.4,1.2c-0.9,0.3-1.8,0.4-2.6,0.4c-1.4,0-2.6-0.3-3.7-0.9c-1.1-0.6-2-1.5-2.6-2.6c-0.6-1.1-0.9-2.5-0.9-4
			c0-1.5,0.3-2.8,0.9-4c0.6-1.1,1.5-2,2.5-2.6c1-0.6,2.1-0.9,3.3-0.9c2,0,3.5,0.6,4.5,1.9c1,1.3,1.6,2.9,1.6,5
			C1499.6,424.6,1499.6,425.2,1499.5,425.7z M1496.3,423.1c0-0.9-0.2-1.7-0.6-2.2c-0.4-0.5-1.1-0.8-1.9-0.8c-0.7,0-1.3,0.2-1.9,0.7
			s-0.9,1.2-1.1,2.2H1496.3z"/>
		<path class="st1" d="M1514.4,425.7h-8.9c0.2,1.1,0.7,2,1.4,2.5c0.7,0.5,1.6,0.8,2.6,0.8c1,0,2.1-0.3,3.2-1l1.3,2.4
			c-0.7,0.5-1.5,0.9-2.4,1.2c-0.9,0.3-1.8,0.4-2.6,0.4c-1.4,0-2.6-0.3-3.7-0.9c-1.1-0.6-2-1.5-2.6-2.6c-0.6-1.1-0.9-2.5-0.9-4
			c0-1.5,0.3-2.8,0.9-4c0.6-1.1,1.5-2,2.5-2.6c1-0.6,2.1-0.9,3.3-0.9c2,0,3.5,0.6,4.5,1.9c1,1.3,1.6,2.9,1.6,5
			C1514.6,424.6,1514.5,425.2,1514.4,425.7z M1511.2,423.1c0-0.9-0.2-1.7-0.6-2.2c-0.4-0.5-1.1-0.8-1.9-0.8c-0.7,0-1.3,0.2-1.9,0.7
			s-0.9,1.2-1.1,2.2H1511.2z"/>
		<path class="st1" d="M1519,430.7c-0.8-1-1.2-2.3-1.2-4v-6.1h-2v-3l2.2-0.2l0.5-3.8h3.3v3.8h3.5v3.1h-3.5v6.1
			c0,1.6,0.6,2.3,1.9,2.3c0.4,0,0.9-0.1,1.4-0.3l0.6,2.9c-1,0.3-2.1,0.5-3.1,0.5C1521,432.1,1519.8,431.6,1519,430.7z"/>
		<path class="st1" d="M1528.5,414.6c-0.4-0.4-0.6-0.9-0.6-1.5c0-0.6,0.2-1.1,0.6-1.5c0.4-0.4,1-0.6,1.6-0.6c0.7,0,1.2,0.2,1.6,0.6
			c0.4,0.4,0.6,0.9,0.6,1.5c0,0.6-0.2,1.1-0.6,1.5c-0.4,0.4-1,0.6-1.6,0.6C1529.5,415.2,1529,415,1528.5,414.6z M1528.2,417.4h3.9
			v14.4h-3.9V417.4z"/>
		<path class="st1" d="M1536.1,417.4h3.2l0.3,1.9h0.1c0.7-0.7,1.4-1.2,2.2-1.6c0.7-0.4,1.6-0.6,2.5-0.6c1.5,0,2.6,0.5,3.3,1.5
			c0.7,1,1.1,2.4,1.1,4.3v8.9h-4v-8.4c0-1.1-0.2-1.8-0.4-2.2c-0.3-0.4-0.8-0.6-1.5-0.6c-0.5,0-1,0.1-1.4,0.3s-0.9,0.6-1.5,1.2v9.8
			h-3.9V417.4z"/>
		<path class="st1" d="M1553.3,437c-1.1-0.6-1.7-1.5-1.7-2.7s0.7-2.2,2.1-3v-0.1c-0.9-0.6-1.3-1.4-1.3-2.4c0-0.5,0.1-1,0.4-1.5
			s0.7-0.9,1.1-1.2V426c-0.6-0.4-1-0.9-1.4-1.6c-0.4-0.7-0.5-1.4-0.5-2.2c0-1.1,0.3-2,0.8-2.8c0.5-0.8,1.2-1.4,2.1-1.8
			c0.9-0.4,1.9-0.6,2.9-0.6c0.7,0,1.5,0.1,2.2,0.3h5.2v2.9h-2.4c0.2,0.2,0.3,0.5,0.4,0.9c0.1,0.4,0.2,0.8,0.2,1.1
			c0,1.6-0.5,2.8-1.6,3.6s-2.4,1.2-4,1.2c-0.6,0-1.2-0.1-1.8-0.3c-0.2,0.2-0.3,0.3-0.4,0.5c-0.1,0.2-0.1,0.4-0.1,0.7
			c0,0.4,0.2,0.6,0.5,0.8c0.3,0.2,0.9,0.3,1.7,0.3h2.4c1.8,0,3.1,0.3,4,0.9c0.9,0.6,1.4,1.5,1.4,2.8c0,1-0.3,1.8-1,2.6
			c-0.6,0.8-1.6,1.4-2.8,1.8c-1.2,0.4-2.6,0.7-4.2,0.7C1555.8,437.9,1554.4,437.6,1553.3,437z M1560.7,434.9c0.7-0.4,1-0.8,1-1.4
			c0-0.5-0.2-0.8-0.6-1c-0.4-0.2-0.9-0.3-1.7-0.3h-1.7c-0.9,0-1.5-0.1-2-0.2c-0.6,0.5-0.9,1-0.9,1.6c0,0.6,0.3,1,0.9,1.3
			s1.4,0.5,2.4,0.5C1559.2,435.4,1560.1,435.2,1560.7,434.9z M1559.4,424.1c0.4-0.4,0.6-1.1,0.6-1.9c0-0.8-0.2-1.4-0.6-1.8
			s-0.9-0.7-1.6-0.7c-0.6,0-1.2,0.2-1.5,0.7c-0.4,0.4-0.6,1-0.6,1.8c0,0.8,0.2,1.4,0.6,1.9c0.4,0.5,0.9,0.7,1.5,0.7
			C1558.5,424.8,1559,424.6,1559.4,424.1z"/>
	</g>
	<g>
		<path class="st1" d="M1280.8,447.6h4v18.9h-4V447.6z"/>
		<path class="st1" d="M1289.4,447.6h5.2c3,0,5.3,0.8,6.9,2.3s2.5,3.9,2.5,7s-0.8,5.5-2.5,7.1s-3.9,2.4-6.7,2.4h-5.5V447.6z
			 M1294.4,463.3c3.7,0,5.6-2.1,5.6-6.3c0-2.2-0.5-3.8-1.4-4.7c-1-1-2.3-1.4-4.1-1.4h-1v12.5H1294.4z"/>
		<path class="st1" d="M1311.8,462.8c0.5,0.7,0.7,1.6,0.7,2.8c0,1.5-0.4,2.9-1.3,4c-0.9,1.1-2.1,1.9-3.7,2.4l-0.8-2.1
			c1-0.3,1.8-0.8,2.3-1.5c0.5-0.6,0.8-1.3,0.8-2.1h-0.2c-0.7,0-1.3-0.2-1.7-0.6c-0.5-0.4-0.7-1-0.7-1.7c0-0.7,0.2-1.2,0.7-1.7
			s1.1-0.7,1.8-0.7C1310.6,461.8,1311.3,462.1,1311.8,462.8z"/>
		<path class="st1" d="M1323.3,465.5c-0.8-1-1.2-2.3-1.2-4v-6.1h-2v-3l2.2-0.2l0.5-3.8h3.3v3.8h3.5v3.1h-3.5v6.1
			c0,1.6,0.6,2.3,1.9,2.3c0.4,0,0.9-0.1,1.4-0.3l0.6,2.9c-1,0.3-2.1,0.5-3.1,0.5C1325.3,466.9,1324.1,466.4,1323.3,465.5z"/>
		<path class="st1" d="M1332.5,446.2h3.9v5.1l-0.2,2.7c0.7-0.6,1.4-1.1,2.1-1.5c0.7-0.4,1.5-0.6,2.4-0.6c1.5,0,2.6,0.5,3.3,1.5
			c0.7,1,1.1,2.4,1.1,4.3v8.9h-4v-8.4c0-1.1-0.2-1.8-0.4-2.2c-0.3-0.4-0.8-0.6-1.5-0.6c-0.5,0-1,0.1-1.4,0.3s-0.9,0.6-1.5,1.2v9.8
			h-3.9V446.2z"/>
		<path class="st1" d="M1360.7,460.5h-8.9c0.2,1.1,0.7,2,1.4,2.5c0.7,0.5,1.6,0.8,2.6,0.8c1,0,2.1-0.3,3.2-1l1.3,2.4
			c-0.7,0.5-1.5,0.9-2.4,1.2c-0.9,0.3-1.8,0.4-2.6,0.4c-1.4,0-2.6-0.3-3.7-0.9c-1.1-0.6-2-1.5-2.6-2.6c-0.6-1.1-0.9-2.5-0.9-4
			c0-1.5,0.3-2.8,0.9-4c0.6-1.1,1.5-2,2.5-2.6c1-0.6,2.1-0.9,3.3-0.9c2,0,3.5,0.6,4.5,1.9c1,1.3,1.6,2.9,1.6,5
			C1360.9,459.4,1360.8,460,1360.7,460.5z M1357.5,457.9c0-0.9-0.2-1.7-0.6-2.2c-0.4-0.5-1.1-0.8-1.9-0.8c-0.7,0-1.3,0.2-1.9,0.7
			s-0.9,1.2-1.1,2.2H1357.5z"/>
		<path class="st1" d="M1363.9,452.2h3.2l0.3,1.9h0.1c0.7-0.7,1.4-1.2,2.2-1.6c0.7-0.4,1.6-0.6,2.5-0.6c1.5,0,2.6,0.5,3.3,1.5
			c0.7,1,1.1,2.4,1.1,4.3v8.9h-4v-8.4c0-1.1-0.2-1.8-0.4-2.2c-0.3-0.4-0.8-0.6-1.5-0.6c-0.5,0-1,0.1-1.4,0.3s-0.9,0.6-1.5,1.2v9.8
			h-3.9V452.2z"/>
		<path class="st1" d="M1388.7,466c-1.1-0.6-1.9-1.5-2.5-2.6c-0.6-1.1-0.9-2.5-0.9-4c0-1.5,0.3-2.9,1-4s1.6-2,2.7-2.6
			c1.1-0.6,2.3-0.9,3.7-0.9c1.6,0,3,0.5,4.2,1.6l-1.9,2.6c-0.4-0.3-0.7-0.5-1-0.7c-0.3-0.1-0.7-0.2-1-0.2c-1.1,0-1.9,0.4-2.6,1.2
			c-0.6,0.8-1,1.8-1,3.1c0,1.3,0.3,2.3,0.9,3.1c0.6,0.8,1.4,1.2,2.5,1.2c0.9,0,1.8-0.4,2.7-1.1l1.6,2.6c-0.7,0.6-1.4,1-2.2,1.3
			c-0.8,0.3-1.6,0.4-2.5,0.4C1391,466.9,1389.8,466.6,1388.7,466z"/>
		<path class="st1" d="M1400.5,465.7c-0.6-0.8-0.9-1.9-0.9-3.4v-16.2h3.9v16.4c0,0.4,0.1,0.7,0.2,0.9c0.2,0.2,0.3,0.3,0.5,0.3
			s0.4,0,0.5-0.1l0.5,3c-0.6,0.2-1.2,0.3-2,0.3C1402.1,466.9,1401.1,466.5,1400.5,465.7z"/>
		<path class="st1" d="M1408.2,449.4c-0.4-0.4-0.6-0.9-0.6-1.5c0-0.6,0.2-1.1,0.6-1.5c0.4-0.4,1-0.6,1.6-0.6c0.7,0,1.2,0.2,1.6,0.6
			c0.4,0.4,0.6,0.9,0.6,1.5c0,0.6-0.2,1.1-0.6,1.5c-0.4,0.4-1,0.6-1.6,0.6C1409.1,450,1408.6,449.8,1408.2,449.4z M1407.8,452.2h3.9
			v14.4h-3.9V452.2z"/>
		<path class="st1" d="M1418.3,466c-1.1-0.6-1.9-1.5-2.5-2.6c-0.6-1.1-0.9-2.5-0.9-4c0-1.5,0.3-2.9,1-4s1.6-2,2.7-2.6
			c1.1-0.6,2.3-0.9,3.7-0.9c1.6,0,3,0.5,4.2,1.6l-1.9,2.6c-0.4-0.3-0.7-0.5-1-0.7c-0.3-0.1-0.7-0.2-1-0.2c-1.1,0-1.9,0.4-2.6,1.2
			c-0.6,0.8-1,1.8-1,3.1c0,1.3,0.3,2.3,0.9,3.1c0.6,0.8,1.4,1.2,2.5,1.2c0.9,0,1.8-0.4,2.7-1.1l1.6,2.6c-0.7,0.6-1.4,1-2.2,1.3
			c-0.8,0.3-1.6,0.4-2.5,0.4C1420.5,466.9,1419.3,466.6,1418.3,466z"/>
		<path class="st1" d="M1429.2,446.2h3.9v12h0.1l4.8-6h4.3l-5,5.9l5.4,8.5h-4.3l-3.4-5.8l-2,2.2v3.6h-3.9V446.2z"/>
		<path class="st1" d="M1454.4,452.6c0.4,0.4,0.6,0.9,0.6,1.5c0,0.7-0.2,1.2-0.6,1.7c-0.4,0.4-0.9,0.6-1.5,0.6
			c-0.8,0-1.5-0.3-1.9-0.9c-0.4-0.6-0.7-1.5-0.7-2.7c0-2.7,1.3-4.7,4-6l0.9,1.7c-0.9,0.4-1.5,1-1.9,1.5s-0.6,1.3-0.6,2.1
			c0.1,0,0.1,0,0.3,0C1453.5,452,1454,452.2,1454.4,452.6z M1460.9,452.6c0.4,0.4,0.6,0.9,0.6,1.5c0,0.7-0.2,1.2-0.6,1.7
			c-0.4,0.4-0.9,0.6-1.5,0.6c-0.8,0-1.5-0.3-1.9-0.9c-0.4-0.6-0.7-1.5-0.7-2.7c0-2.7,1.3-4.7,4-6l0.9,1.7c-0.9,0.4-1.5,1-1.9,1.5
			s-0.6,1.3-0.6,2.1c0.1,0,0.1,0,0.3,0C1460,452,1460.5,452.2,1460.9,452.6z"/>
		<path class="st1" d="M1473.2,461.8h-5.9l-1.3,4.7h-4.1l6-18.9h4.7l6,18.9h-4.2L1473.2,461.8z M1472.3,458.7l-0.5-1.9
			c-0.2-0.9-0.6-2.2-1-4l-0.6-2.1h-0.1c-0.6,2.5-1.1,4.5-1.5,6.1l-0.5,1.9H1472.3z"/>
		<path class="st1" d="M1481.3,464.9c-1.1-1.3-1.6-3.2-1.6-5.5c0-1.5,0.3-2.8,0.8-4c0.6-1.1,1.3-2,2.2-2.6c0.9-0.6,1.9-0.9,2.9-0.9
			c0.8,0,1.4,0.1,1.9,0.4c0.5,0.3,1.1,0.6,1.7,1.2l-0.1-2.2v-5h4v20.4h-3.2l-0.3-1.5h-0.1c-0.5,0.5-1.2,1-1.8,1.3
			c-0.7,0.3-1.4,0.5-2.1,0.5C1483.7,466.9,1482.3,466.2,1481.3,464.9z M1487.9,463.3c0.4-0.2,0.8-0.6,1.2-1.1v-6.1
			c-0.7-0.7-1.6-1-2.6-1c-0.8,0-1.5,0.4-2,1.1c-0.5,0.7-0.8,1.8-0.8,3.1c0,1.4,0.2,2.5,0.7,3.2c0.5,0.7,1.2,1.1,2.1,1.1
			C1487.1,463.6,1487.5,463.5,1487.9,463.3z"/>
		<path class="st1" d="M1497.8,464.9c-1.1-1.3-1.6-3.2-1.6-5.5c0-1.5,0.3-2.8,0.8-4c0.6-1.1,1.3-2,2.2-2.6c0.9-0.6,1.9-0.9,2.9-0.9
			c0.8,0,1.4,0.1,1.9,0.4c0.5,0.3,1.1,0.6,1.7,1.2l-0.1-2.2v-5h4v20.4h-3.2l-0.3-1.5h-0.1c-0.5,0.5-1.2,1-1.8,1.3
			c-0.7,0.3-1.4,0.5-2.1,0.5C1500.3,466.9,1498.8,466.2,1497.8,464.9z M1504.4,463.3c0.4-0.2,0.8-0.6,1.2-1.1v-6.1
			c-0.7-0.7-1.6-1-2.6-1c-0.8,0-1.5,0.4-2,1.1c-0.5,0.7-0.8,1.8-0.8,3.1c0,1.4,0.2,2.5,0.7,3.2c0.5,0.7,1.2,1.1,2.1,1.1
			C1503.6,463.6,1504,463.5,1504.4,463.3z"/>
		<path class="st1" d="M1517.8,447.3c0.4,0.6,0.7,1.5,0.7,2.7c0,2.7-1.3,4.7-3.9,6l-0.9-1.7c0.9-0.4,1.5-1,1.9-1.5
			c0.4-0.6,0.6-1.3,0.6-2.1c-0.1,0-0.2,0-0.3,0c-0.6,0-1.1-0.2-1.5-0.6s-0.6-0.9-0.6-1.5c0-0.7,0.2-1.2,0.6-1.6s0.9-0.6,1.5-0.6
			C1516.7,446.3,1517.3,446.6,1517.8,447.3z M1524.3,447.3c0.4,0.6,0.7,1.5,0.7,2.7c0,2.7-1.3,4.7-3.9,6l-0.9-1.7
			c0.9-0.4,1.5-1,1.9-1.5c0.4-0.6,0.6-1.3,0.6-2.1c-0.1,0-0.2,0-0.3,0c-0.6,0-1.1-0.2-1.5-0.6s-0.6-0.9-0.6-1.5
			c0-0.7,0.2-1.2,0.6-1.6c0.4-0.4,0.9-0.6,1.5-0.6C1523.3,446.3,1523.9,446.6,1524.3,447.3z"/>
	</g>
	<g>
		<defs>
			<polyline id="SVGID_13_" points="869.7,387.3 610.2,387.3 610.2,412.8 869.7,412.8 869.7,387.3 			"/>
		</defs>
		<clipPath id="SVGID_2_">
			<use xlink:href="#SVGID_13_"  style="overflow:visible;"/>
		</clipPath>
		<g class="st2">
			<path class="st5" d="M616.3,387.3l4.7,13.7h0.1l4.4-13.7h6.2v20h-4.1v-14.2h-0.1l-4.9,14.2h-3.4l-4.9-14h-0.1v14h-4.1v-20H616.3z
				"/>
			<path class="st5" d="M639.4,403.8c0.6,0.6,1.5,0.9,2.6,0.9c0.8,0,1.5-0.2,2.1-0.6c0.6-0.4,0.9-0.8,1.1-1.3h3.5
				c-0.6,1.7-1.4,3-2.6,3.7c-1.2,0.7-2.6,1.1-4.2,1.1c-1.1,0-2.2-0.2-3.1-0.5c-0.9-0.4-1.7-0.9-2.3-1.6c-0.6-0.7-1.1-1.5-1.5-2.4
				c-0.3-0.9-0.5-2-0.5-3.1c0-1.1,0.2-2.1,0.5-3c0.4-0.9,0.9-1.7,1.5-2.4c0.7-0.7,1.4-1.2,2.3-1.6c0.9-0.4,1.9-0.6,3-0.6
				c1.2,0,2.3,0.2,3.2,0.7c0.9,0.5,1.7,1.1,2.3,1.9c0.6,0.8,1,1.7,1.3,2.7c0.3,1,0.4,2.1,0.3,3.2h-10.4
				C638.5,402.3,638.8,403.3,639.4,403.8z M643.9,396.2c-0.5-0.5-1.2-0.8-2.2-0.8c-0.6,0-1.2,0.1-1.6,0.3s-0.8,0.5-1,0.8
				s-0.4,0.7-0.5,1c-0.1,0.4-0.2,0.7-0.2,1h6.5C644.7,397.5,644.4,396.8,643.9,396.2z"/>
			<path class="st5" d="M655.5,403.8c0.6,0.6,1.5,0.9,2.6,0.9c0.8,0,1.5-0.2,2.1-0.6c0.6-0.4,0.9-0.8,1.1-1.3h3.5
				c-0.6,1.7-1.4,3-2.6,3.7c-1.2,0.7-2.6,1.1-4.2,1.1c-1.1,0-2.2-0.2-3.1-0.5c-0.9-0.4-1.7-0.9-2.3-1.6c-0.6-0.7-1.1-1.5-1.5-2.4
				c-0.3-0.9-0.5-2-0.5-3.1c0-1.1,0.2-2.1,0.5-3c0.4-0.9,0.9-1.7,1.5-2.4c0.7-0.7,1.4-1.2,2.3-1.6c0.9-0.4,1.9-0.6,3-0.6
				c1.2,0,2.3,0.2,3.2,0.7c0.9,0.5,1.7,1.1,2.3,1.9c0.6,0.8,1,1.7,1.3,2.7c0.3,1,0.4,2.1,0.3,3.2h-10.4
				C654.5,402.3,654.9,403.3,655.5,403.8z M659.9,396.2c-0.5-0.5-1.2-0.8-2.2-0.8c-0.6,0-1.2,0.1-1.6,0.3s-0.8,0.5-1,0.8
				s-0.4,0.7-0.5,1c-0.1,0.4-0.2,0.7-0.2,1h6.5C660.8,397.5,660.4,396.8,659.9,396.2z"/>
			<path class="st5" d="M675.2,392.8v2.7h-2.9v7.2c0,0.7,0.1,1.1,0.3,1.3c0.2,0.2,0.7,0.3,1.3,0.3c0.2,0,0.4,0,0.6,0
				c0.2,0,0.4,0,0.6-0.1v3.1c-0.3,0.1-0.7,0.1-1.1,0.1c-0.4,0-0.8,0-1.2,0c-0.6,0-1.2,0-1.8-0.1s-1-0.2-1.5-0.5
				c-0.4-0.2-0.8-0.6-1-1c-0.2-0.4-0.4-1-0.4-1.8v-8.5h-2.4v-2.7h2.4v-4.3h4v4.3H675.2z"/>
			<path class="st5" d="M677.2,390.6v-3.3h4v3.3H677.2z M681.2,392.8v14.5h-4v-14.5H681.2z"/>
			<path class="st5" d="M688.1,392.8v2h0.1c0.5-0.8,1.2-1.5,2-1.8c0.8-0.4,1.6-0.6,2.5-0.6c1.1,0,1.9,0.1,2.6,0.4
				c0.7,0.3,1.2,0.7,1.6,1.2c0.4,0.5,0.7,1.1,0.8,1.9c0.2,0.7,0.2,1.6,0.2,2.4v8.9h-4v-8.2c0-1.2-0.2-2.1-0.6-2.7
				c-0.4-0.6-1-0.9-2-0.9c-1.1,0-1.9,0.3-2.4,1s-0.7,1.7-0.7,3.2v7.6h-4v-14.5H688.1z"/>
			<path class="st5" d="M714.6,408.4c-0.2,0.7-0.5,1.4-1,2.1s-1.3,1.2-2.3,1.6c-1,0.4-2.3,0.7-4,0.7c-0.7,0-1.4-0.1-2.2-0.3
				s-1.4-0.5-2-0.8c-0.6-0.4-1.1-0.9-1.5-1.4c-0.4-0.6-0.6-1.3-0.7-2.1h3.9c0.2,0.7,0.5,1.3,1.1,1.6c0.5,0.3,1.2,0.4,1.9,0.4
				c1.1,0,1.9-0.3,2.5-1c0.5-0.7,0.8-1.5,0.7-2.5v-1.9H711c-0.4,0.8-1,1.3-1.8,1.7c-0.8,0.4-1.6,0.5-2.5,0.5c-1.1,0-2-0.2-2.8-0.6
				c-0.8-0.4-1.4-0.9-1.9-1.6c-0.5-0.7-0.9-1.4-1.1-2.3s-0.3-1.8-0.3-2.8c0-0.9,0.1-1.8,0.4-2.7c0.3-0.9,0.7-1.6,1.2-2.3
				c0.5-0.7,1.2-1.2,1.9-1.6c0.8-0.4,1.7-0.6,2.7-0.6c1,0,1.8,0.2,2.5,0.5c0.7,0.4,1.3,1,1.8,1.8h0.1v-1.9h3.8v13.6
				C714.9,407,714.8,407.6,714.6,408.4z M709.2,403.6c0.4-0.2,0.8-0.5,1.1-0.9c0.3-0.4,0.5-0.8,0.6-1.3c0.1-0.5,0.2-1,0.2-1.5
				c0-0.6-0.1-1.2-0.2-1.7c-0.1-0.5-0.3-1-0.6-1.4s-0.6-0.7-1-1s-1-0.4-1.6-0.4c-0.6,0-1,0.1-1.4,0.3c-0.4,0.2-0.7,0.5-1,0.9
				c-0.3,0.4-0.5,0.8-0.6,1.3c-0.1,0.5-0.2,1-0.2,1.6c0,0.5,0.1,1,0.2,1.6c0.1,0.5,0.3,1,0.5,1.4s0.6,0.7,1,1
				c0.4,0.3,0.9,0.4,1.5,0.4C708.3,403.9,708.8,403.8,709.2,403.6z"/>
			<path class="st5" d="M730.6,387.3l8.3,13.4h0.1v-13.4h4.1v20h-4.4l-8.3-13.4h-0.1v13.4h-4.1v-20H730.6z"/>
			<path class="st5" d="M746.7,390.6v-3.3h4v3.3H746.7z M750.7,392.8v14.5h-4v-14.5H750.7z"/>
			<path class="st5" d="M760.7,395.4c-0.6,0-1.2,0.1-1.6,0.4c-0.4,0.3-0.8,0.7-1,1.1c-0.3,0.5-0.5,1-0.6,1.5
				c-0.1,0.6-0.2,1.1-0.2,1.6c0,0.5,0.1,1.1,0.2,1.6c0.1,0.5,0.3,1,0.5,1.5c0.3,0.4,0.6,0.8,1,1.1c0.4,0.3,1,0.4,1.6,0.4
				c1,0,1.7-0.3,2.2-0.8c0.5-0.5,0.8-1.2,1-2.1h3.8c-0.3,1.9-1,3.4-2.2,4.4c-1.2,1-2.8,1.5-4.7,1.5c-1.1,0-2.1-0.2-3-0.5
				c-0.9-0.4-1.7-0.9-2.3-1.5c-0.6-0.7-1.1-1.4-1.5-2.3s-0.5-1.9-0.5-3c0-1.1,0.2-2.2,0.5-3.1c0.3-1,0.8-1.8,1.4-2.5
				c0.6-0.7,1.4-1.2,2.3-1.6c0.9-0.4,2-0.6,3.1-0.6c0.9,0,1.7,0.1,2.5,0.3c0.8,0.2,1.5,0.6,2.1,1c0.6,0.5,1.1,1,1.5,1.7
				c0.4,0.7,0.6,1.5,0.7,2.4h-3.9C763.4,396.3,762.4,395.4,760.7,395.4z"/>
			<path class="st5" d="M774.2,387.3v10.7l5-5.2h4.7l-5.5,5.3l6.1,9.2h-4.8l-4-6.5l-1.5,1.5v5h-4v-20H774.2z"/>
			<path class="st5" d="M798.5,387.3l8.3,13.4h0.1v-13.4h4.1v20h-4.4l-8.3-13.4h-0.1v13.4h-4.1v-20H798.5z"/>
			<path class="st5" d="M814.3,397.3c0.1-0.9,0.3-1.7,0.7-2.3c0.4-0.6,0.9-1.1,1.6-1.5c0.6-0.4,1.3-0.6,2.1-0.8
				c0.8-0.2,1.6-0.2,2.4-0.2c0.7,0,1.5,0.1,2.2,0.2c0.7,0.1,1.4,0.3,2,0.6c0.6,0.3,1.1,0.7,1.5,1.2c0.4,0.5,0.6,1.2,0.6,2.1v7.5
				c0,0.7,0,1.3,0.1,1.9c0.1,0.6,0.2,1,0.4,1.3h-4c-0.1-0.2-0.1-0.5-0.2-0.7c0-0.2-0.1-0.5-0.1-0.7c-0.6,0.7-1.4,1.1-2.2,1.4
				s-1.7,0.4-2.6,0.4c-0.7,0-1.3-0.1-1.9-0.3c-0.6-0.2-1.1-0.4-1.6-0.8s-0.8-0.8-1-1.3c-0.3-0.5-0.4-1.2-0.4-1.9
				c0-0.8,0.1-1.5,0.4-2c0.3-0.5,0.7-1,1.1-1.3c0.5-0.3,1-0.6,1.6-0.7c0.6-0.2,1.2-0.3,1.8-0.4s1.2-0.2,1.8-0.2
				c0.6-0.1,1.1-0.1,1.5-0.3c0.4-0.1,0.8-0.3,1.1-0.5c0.3-0.2,0.4-0.5,0.4-0.9c0-0.4-0.1-0.8-0.2-1c-0.1-0.3-0.3-0.4-0.6-0.6
				s-0.5-0.2-0.8-0.3c-0.3,0-0.6-0.1-1-0.1c-0.8,0-1.4,0.2-1.8,0.5c-0.4,0.3-0.7,0.9-0.8,1.7H814.3z M823.5,400.2
				c-0.2,0.1-0.4,0.3-0.6,0.4s-0.5,0.2-0.8,0.2c-0.3,0.1-0.6,0.1-0.9,0.1s-0.6,0.1-1,0.1c-0.3,0.1-0.6,0.1-0.9,0.2
				c-0.3,0.1-0.5,0.2-0.8,0.4c-0.2,0.2-0.4,0.4-0.5,0.6c-0.1,0.2-0.2,0.6-0.2,0.9c0,0.4,0.1,0.7,0.2,0.9c0.1,0.2,0.3,0.4,0.5,0.6
				c0.2,0.1,0.5,0.2,0.8,0.3s0.6,0.1,0.9,0.1c0.8,0,1.4-0.1,1.8-0.4c0.4-0.3,0.7-0.6,1-0.9c0.2-0.4,0.3-0.7,0.4-1.1
				c0-0.4,0.1-0.7,0.1-0.9V400.2z"/>
			<path class="st5" d="M834.4,392.8v2h0.1c0.5-0.7,1.2-1.3,1.9-1.7c0.7-0.4,1.6-0.6,2.5-0.6c0.9,0,1.8,0.2,2.5,0.5s1.3,1,1.7,1.9
				c0.4-0.6,1-1.2,1.8-1.7c0.7-0.5,1.6-0.7,2.6-0.7c0.8,0,1.5,0.1,2.1,0.3s1.2,0.5,1.7,0.9s0.8,0.9,1.1,1.6c0.3,0.7,0.4,1.5,0.4,2.4
				v9.7h-4v-8.2c0-0.5,0-0.9-0.1-1.4c0-0.4-0.1-0.8-0.3-1.1c-0.2-0.3-0.4-0.6-0.7-0.8c-0.3-0.2-0.8-0.3-1.3-0.3s-1,0.1-1.4,0.3
				c-0.3,0.2-0.6,0.5-0.8,0.8s-0.3,0.7-0.4,1.2c-0.1,0.4-0.1,0.9-0.1,1.3v8.1h-4v-8.1c0-0.4,0-0.9,0-1.3s-0.1-0.8-0.2-1.2
				c-0.1-0.4-0.4-0.6-0.7-0.9c-0.3-0.2-0.8-0.3-1.4-0.3c-0.2,0-0.4,0-0.7,0.1s-0.6,0.2-0.9,0.5c-0.3,0.2-0.5,0.6-0.7,1
				c-0.2,0.4-0.3,1-0.3,1.7v8.4h-4v-14.5H834.4z"/>
			<path class="st5" d="M860.2,403.8c0.6,0.6,1.5,0.9,2.6,0.9c0.8,0,1.5-0.2,2.1-0.6c0.6-0.4,0.9-0.8,1.1-1.3h3.5
				c-0.6,1.7-1.4,3-2.6,3.7c-1.2,0.7-2.6,1.1-4.2,1.1c-1.1,0-2.2-0.2-3.1-0.5c-0.9-0.4-1.7-0.9-2.3-1.6c-0.6-0.7-1.1-1.5-1.5-2.4
				c-0.3-0.9-0.5-2-0.5-3.1c0-1.1,0.2-2.1,0.5-3c0.4-0.9,0.9-1.7,1.5-2.4c0.7-0.7,1.4-1.2,2.3-1.6c0.9-0.4,1.9-0.6,3-0.6
				c1.2,0,2.3,0.2,3.2,0.7c0.9,0.5,1.7,1.1,2.3,1.9c0.6,0.8,1,1.7,1.3,2.7c0.3,1,0.4,2.1,0.3,3.2h-10.4
				C859.3,402.3,859.6,403.3,860.2,403.8z M864.7,396.2c-0.5-0.5-1.2-0.8-2.2-0.8c-0.6,0-1.2,0.1-1.6,0.3s-0.8,0.5-1,0.8
				s-0.4,0.7-0.5,1c-0.1,0.4-0.2,0.7-0.2,1h6.5C865.5,397.5,865.2,396.8,864.7,396.2z"/>
		</g>
	</g>
	<path class="st6" d="M633.9,477v-26.4h247.9V477H633.9 M1119.2,427.3h-497c-8.3,0-15,6.7-15,15v50h0.5l0-1l526.5-1v-48
		C1134.2,434,1127.5,427.3,1119.2,427.3"/>
	<path class="st7" d="M623.2,580.3h497c8.3,0,15,6.7,15,15v50h-527v-50C608.2,587,614.9,580.3,623.2,580.3z"/>
	<polyline class="st5" points="1134.7,490.3 1134.2,490.3 1134.2,492.3 607.7,492.3 607.7,496.3 1134.7,495.3 1134.7,490.3 	"/>
	<polyline class="st8" points="1134.2,490.3 607.7,491.3 607.7,492.3 1134.2,492.3 1134.2,490.3 	"/>
	<polyline class="st0" points="608.7,649.3 1135.7,648.3 1135.7,643.3 608.7,644.3 	"/>
	<g>
		<defs>
			<polyline id="SVGID_15_" points="881.7,450.6 633.9,450.6 633.9,477 881.7,477 881.7,450.6 			"/>
		</defs>
		<clipPath id="SVGID_4_">
			<use xlink:href="#SVGID_15_"  style="overflow:visible;"/>
		</clipPath>
		<rect x="633.9" y="450.6" class="st10" width="247.9" height="26.4"/>
		<g class="st11">
			<path class="st12" d="M640.3,450.6l4.8,14.2h0.1l4.6-14.2h6.4v20.7h-4.3v-14.7h-0.1l-5.1,14.7h-3.5l-5.1-14.5h-0.1v14.5h-4.3
				v-20.7H640.3z"/>
			<path class="st12" d="M665.3,475.8c-0.8,0.5-1.9,0.8-3.3,0.8c-0.4,0-0.8,0-1.3,0s-0.8-0.1-1.3-0.1V473c0.4,0,0.8,0.1,1.2,0.1
				c0.4,0,0.8,0,1.2,0c0.5-0.1,0.9-0.3,1.2-0.6s0.4-0.8,0.4-1.2c0-0.3-0.1-0.6-0.2-0.9l-5.2-14.1h4.4l3.4,10.3h0.1l3.3-10.3h4.3
				l-6.3,16.8C666.7,474.4,666.1,475.3,665.3,475.8z"/>
			<path class="st12" d="M689.7,450.6l4.8,14.2h0.1l4.6-14.2h6.4v20.7h-4.3v-14.7h-0.1l-5.1,14.7h-3.5l-5.1-14.5h-0.1v14.5h-4.3
				v-20.7H689.7z"/>
			<path class="st12" d="M713.5,467.7c0.6,0.6,1.5,0.9,2.7,0.9c0.8,0,1.5-0.2,2.1-0.6c0.6-0.4,1-0.9,1.1-1.3h3.6
				c-0.6,1.8-1.5,3.1-2.7,3.9c-1.2,0.8-2.6,1.2-4.3,1.2c-1.2,0-2.2-0.2-3.2-0.6s-1.8-0.9-2.4-1.6c-0.7-0.7-1.2-1.5-1.5-2.5
				c-0.4-1-0.5-2-0.5-3.2c0-1.1,0.2-2.2,0.6-3.1c0.4-1,0.9-1.8,1.6-2.5c0.7-0.7,1.5-1.3,2.4-1.7c0.9-0.4,2-0.6,3.1-0.6
				c1.3,0,2.4,0.2,3.3,0.7c0.9,0.5,1.7,1.2,2.3,2c0.6,0.8,1,1.8,1.3,2.8c0.3,1.1,0.4,2.2,0.3,3.3h-10.8
				C712.6,466.2,712.9,467.1,713.5,467.7z M718.2,459.8c-0.5-0.5-1.2-0.8-2.2-0.8c-0.7,0-1.2,0.1-1.6,0.3c-0.4,0.2-0.8,0.5-1,0.8
				c-0.3,0.3-0.4,0.7-0.6,1s-0.2,0.7-0.2,1h6.7C719,461.2,718.7,460.4,718.2,459.8z"/>
			<path class="st12" d="M730.2,467.7c0.6,0.6,1.5,0.9,2.7,0.9c0.8,0,1.5-0.2,2.1-0.6c0.6-0.4,1-0.9,1.1-1.3h3.6
				c-0.6,1.8-1.5,3.1-2.7,3.9c-1.2,0.8-2.6,1.2-4.3,1.2c-1.2,0-2.2-0.2-3.2-0.6s-1.8-0.9-2.4-1.6c-0.7-0.7-1.2-1.5-1.5-2.5
				c-0.4-1-0.5-2-0.5-3.2c0-1.1,0.2-2.2,0.6-3.1c0.4-1,0.9-1.8,1.6-2.5c0.7-0.7,1.5-1.3,2.4-1.7c0.9-0.4,2-0.6,3.1-0.6
				c1.3,0,2.4,0.2,3.3,0.7c0.9,0.5,1.7,1.2,2.3,2c0.6,0.8,1,1.8,1.3,2.8c0.3,1.1,0.4,2.2,0.3,3.3h-10.8
				C729.2,466.2,729.6,467.1,730.2,467.7z M734.8,459.8c-0.5-0.5-1.2-0.8-2.2-0.8c-0.7,0-1.2,0.1-1.6,0.3c-0.4,0.2-0.8,0.5-1,0.8
				c-0.3,0.3-0.4,0.7-0.6,1s-0.2,0.7-0.2,1h6.7C735.7,461.2,735.3,460.4,734.8,459.8z"/>
			<path class="st12" d="M750.7,456.3v2.8h-3v7.4c0,0.7,0.1,1.2,0.3,1.4c0.2,0.2,0.7,0.3,1.4,0.3c0.2,0,0.5,0,0.7,0
				c0.2,0,0.4,0,0.6-0.1v3.2c-0.3,0.1-0.7,0.1-1.2,0.1c-0.4,0-0.8,0-1.2,0c-0.6,0-1.2,0-1.8-0.1s-1.1-0.3-1.5-0.5
				c-0.4-0.3-0.8-0.6-1-1.1c-0.3-0.5-0.4-1.1-0.4-1.8v-8.8H741v-2.8h2.5v-4.5h4.1v4.5H750.7z"/>
			<path class="st12" d="M752.8,454v-3.4h4.1v3.4H752.8z M756.9,456.3v15h-4.1v-15H756.9z"/>
			<path class="st12" d="M764,456.3v2.1h0.1c0.5-0.9,1.2-1.5,2-1.9c0.8-0.4,1.7-0.6,2.6-0.6c1.1,0,2,0.1,2.7,0.4s1.3,0.7,1.7,1.2
				c0.4,0.5,0.7,1.2,0.9,1.9c0.2,0.8,0.2,1.6,0.2,2.5v9.2h-4.1v-8.5c0-1.2-0.2-2.2-0.6-2.8c-0.4-0.6-1.1-0.9-2.1-0.9
				c-1.1,0-1.9,0.3-2.4,1c-0.5,0.7-0.8,1.8-0.8,3.3v7.9h-4.1v-15H764z"/>
			<path class="st12" d="M791.5,472.4c-0.2,0.8-0.5,1.5-1.1,2.2s-1.3,1.2-2.3,1.7c-1,0.5-2.4,0.7-4.1,0.7c-0.7,0-1.5-0.1-2.2-0.3
				c-0.8-0.2-1.5-0.5-2.1-0.9c-0.6-0.4-1.2-0.9-1.6-1.5c-0.4-0.6-0.7-1.3-0.7-2.2h4.1c0.2,0.8,0.6,1.3,1.1,1.6
				c0.6,0.3,1.2,0.4,1.9,0.4c1.2,0,2-0.3,2.5-1c0.5-0.7,0.8-1.6,0.8-2.6v-2h-0.1c-0.4,0.8-1.1,1.4-1.9,1.8c-0.8,0.4-1.7,0.6-2.6,0.6
				c-1.1,0-2.1-0.2-2.9-0.6c-0.8-0.4-1.5-0.9-2-1.6c-0.5-0.7-0.9-1.5-1.1-2.4c-0.2-0.9-0.4-1.9-0.4-2.9c0-1,0.1-1.9,0.4-2.8
				s0.7-1.7,1.2-2.4c0.5-0.7,1.2-1.2,2-1.6c0.8-0.4,1.7-0.6,2.8-0.6c1,0,1.9,0.2,2.6,0.6c0.7,0.4,1.4,1,1.9,1.9h0.1v-2h3.9v14
				C791.7,471,791.6,471.6,791.5,472.4z M785.8,467.4c0.4-0.2,0.8-0.5,1.1-0.9c0.3-0.4,0.5-0.8,0.7-1.3c0.1-0.5,0.2-1,0.2-1.6
				c0-0.6-0.1-1.2-0.2-1.8c-0.1-0.6-0.3-1-0.6-1.5c-0.3-0.4-0.6-0.8-1.1-1c-0.4-0.3-1-0.4-1.7-0.4c-0.6,0-1.1,0.1-1.5,0.3
				c-0.4,0.2-0.8,0.5-1,0.9c-0.3,0.4-0.5,0.9-0.6,1.4c-0.1,0.5-0.2,1-0.2,1.6c0,0.5,0.1,1.1,0.2,1.6c0.1,0.5,0.3,1,0.6,1.4
				c0.3,0.4,0.6,0.8,1,1c0.4,0.3,1,0.4,1.6,0.4C784.9,467.8,785.4,467.7,785.8,467.4z"/>
			<path class="st12" d="M808.1,450.6l8.6,13.9h0.1v-13.9h4.3v20.7h-4.6l-8.6-13.9h-0.1v13.9h-4.3v-20.7H808.1z"/>
			<path class="st12" d="M824.4,460.9c0.1-1,0.3-1.8,0.7-2.4c0.4-0.6,1-1.1,1.6-1.5c0.7-0.4,1.4-0.7,2.2-0.8
				c0.8-0.2,1.6-0.2,2.5-0.2c0.8,0,1.5,0.1,2.3,0.2c0.8,0.1,1.5,0.3,2.1,0.6c0.6,0.3,1.2,0.7,1.6,1.3c0.4,0.6,0.6,1.3,0.6,2.2v7.8
				c0,0.7,0,1.3,0.1,1.9c0.1,0.6,0.2,1.1,0.4,1.4h-4.2c-0.1-0.2-0.1-0.5-0.2-0.7c0-0.2-0.1-0.5-0.1-0.7c-0.7,0.7-1.4,1.2-2.3,1.4
				s-1.8,0.4-2.7,0.4c-0.7,0-1.4-0.1-2-0.3c-0.6-0.2-1.2-0.4-1.6-0.8c-0.5-0.4-0.8-0.8-1.1-1.4c-0.3-0.6-0.4-1.2-0.4-2
				c0-0.9,0.1-1.6,0.5-2.1c0.3-0.6,0.7-1,1.2-1.3s1-0.6,1.6-0.7c0.6-0.2,1.2-0.3,1.8-0.4c0.6-0.1,1.2-0.2,1.8-0.2
				c0.6-0.1,1.1-0.1,1.6-0.3c0.5-0.1,0.8-0.3,1.1-0.5c0.3-0.2,0.4-0.5,0.4-1c0-0.4-0.1-0.8-0.2-1.1c-0.1-0.3-0.3-0.5-0.6-0.6
				c-0.2-0.1-0.5-0.2-0.8-0.3s-0.7-0.1-1-0.1c-0.8,0-1.5,0.2-1.9,0.5c-0.5,0.3-0.7,0.9-0.8,1.7H824.4z M833.9,464
				c-0.2,0.2-0.4,0.3-0.7,0.4c-0.3,0.1-0.5,0.2-0.8,0.2c-0.3,0.1-0.6,0.1-0.9,0.1c-0.3,0-0.7,0.1-1,0.1c-0.3,0.1-0.6,0.1-0.9,0.2
				s-0.6,0.2-0.8,0.4c-0.2,0.2-0.4,0.4-0.5,0.6c-0.1,0.3-0.2,0.6-0.2,1c0,0.4,0.1,0.7,0.2,0.9c0.1,0.3,0.3,0.4,0.6,0.6
				c0.2,0.1,0.5,0.2,0.8,0.3c0.3,0.1,0.6,0.1,1,0.1c0.8,0,1.4-0.1,1.9-0.4c0.4-0.3,0.8-0.6,1-1c0.2-0.4,0.3-0.8,0.4-1.1
				c0-0.4,0.1-0.7,0.1-0.9V464z"/>
			<path class="st12" d="M845.2,456.3v2h0.1c0.5-0.8,1.2-1.4,2-1.8c0.8-0.4,1.6-0.6,2.6-0.6c0.9,0,1.8,0.2,2.6,0.6
				c0.8,0.4,1.4,1,1.8,1.9c0.4-0.7,1-1.2,1.8-1.7c0.8-0.5,1.7-0.8,2.7-0.8c0.8,0,1.5,0.1,2.2,0.3c0.7,0.2,1.3,0.5,1.7,0.9
				c0.5,0.4,0.9,1,1.1,1.7c0.3,0.7,0.4,1.5,0.4,2.5v10h-4.1v-8.5c0-0.5,0-1-0.1-1.4c0-0.4-0.1-0.8-0.3-1.2c-0.2-0.3-0.4-0.6-0.8-0.8
				c-0.3-0.2-0.8-0.3-1.4-0.3s-1,0.1-1.4,0.3c-0.4,0.2-0.6,0.5-0.8,0.9c-0.2,0.4-0.3,0.8-0.4,1.2c-0.1,0.5-0.1,0.9-0.1,1.4v8.4h-4.1
				v-8.4c0-0.4,0-0.9,0-1.3s-0.1-0.8-0.2-1.2c-0.1-0.4-0.4-0.7-0.7-0.9c-0.3-0.2-0.8-0.3-1.5-0.3c-0.2,0-0.4,0-0.8,0.1
				s-0.6,0.3-0.9,0.5s-0.6,0.6-0.8,1c-0.2,0.5-0.3,1-0.3,1.8v8.7h-4.1v-15H845.2z"/>
			<path class="st12" d="M871.9,467.7c0.6,0.6,1.5,0.9,2.7,0.9c0.8,0,1.5-0.2,2.1-0.6c0.6-0.4,1-0.9,1.1-1.3h3.6
				c-0.6,1.8-1.5,3.1-2.7,3.9c-1.2,0.8-2.6,1.2-4.3,1.2c-1.2,0-2.2-0.2-3.2-0.6s-1.8-0.9-2.4-1.6c-0.7-0.7-1.2-1.5-1.5-2.5
				c-0.4-1-0.5-2-0.5-3.2c0-1.1,0.2-2.2,0.6-3.1c0.4-1,0.9-1.8,1.6-2.5c0.7-0.7,1.5-1.3,2.4-1.7c0.9-0.4,2-0.6,3.1-0.6
				c1.3,0,2.4,0.2,3.3,0.7c0.9,0.5,1.7,1.2,2.3,2c0.6,0.8,1,1.8,1.3,2.8c0.3,1.1,0.4,2.2,0.3,3.3h-10.8
				C871,466.2,871.3,467.1,871.9,467.7z M876.6,459.8c-0.5-0.5-1.2-0.8-2.2-0.8c-0.7,0-1.2,0.1-1.6,0.3c-0.4,0.2-0.8,0.5-1,0.8
				c-0.3,0.3-0.4,0.7-0.6,1s-0.2,0.7-0.2,1h6.7C877.4,461.2,877.1,460.4,876.6,459.8z"/>
		</g>
	</g>
	<g>
		<path class="st9" d="M640.8,624.3v-13.2h-5.1V608c0.7,0,1.4,0,2.1-0.2c0.7-0.1,1.3-0.3,1.8-0.7c0.5-0.3,1-0.7,1.3-1.3
			c0.4-0.5,0.6-1.2,0.7-1.9h3.3v20.3H640.8z"/>
		<path class="st9" d="M651.1,608.6c0.3-1,0.8-1.9,1.4-2.6c0.6-0.7,1.4-1.3,2.3-1.7c0.9-0.4,2-0.6,3.2-0.6c0.9,0,1.8,0.1,2.7,0.4
			s1.6,0.7,2.2,1.2c0.6,0.5,1.1,1.2,1.5,2c0.4,0.8,0.6,1.7,0.6,2.7c0,1-0.2,1.9-0.5,2.6c-0.3,0.7-0.8,1.4-1.3,2
			c-0.5,0.6-1.2,1.1-1.8,1.6c-0.7,0.5-1.4,0.9-2.1,1.4c-0.7,0.5-1.4,0.9-2,1.5c-0.7,0.5-1.2,1.1-1.7,1.8h9.6v3.5h-14.9
			c0-1.2,0.2-2.2,0.5-3.1c0.3-0.9,0.8-1.6,1.4-2.3c0.6-0.7,1.3-1.3,2-1.9c0.8-0.6,1.6-1.2,2.5-1.8c0.4-0.3,0.9-0.6,1.4-0.9
			c0.5-0.3,1-0.7,1.4-1.1c0.4-0.4,0.8-0.8,1-1.3s0.4-1,0.4-1.7c0-1-0.3-1.8-0.9-2.3c-0.6-0.6-1.3-0.8-2.2-0.8
			c-0.6,0-1.1,0.1-1.5,0.4c-0.4,0.3-0.8,0.6-1,1.1c-0.3,0.5-0.4,1-0.5,1.5c-0.1,0.6-0.2,1.1-0.2,1.6h-3.9
			C650.7,610.7,650.8,609.6,651.1,608.6z"/>
		<path class="st9" d="M673.8,612.2c0.5,0,1-0.1,1.4-0.3c0.4-0.2,0.8-0.4,1.1-0.8s0.4-0.8,0.4-1.4c0-0.9-0.3-1.5-0.9-2
			c-0.6-0.5-1.2-0.7-2-0.7c-1,0-1.8,0.3-2.4,1c-0.5,0.7-0.8,1.6-0.8,2.6h-3.9c0-1,0.2-2,0.6-2.9c0.3-0.9,0.8-1.6,1.4-2.2
			c0.6-0.6,1.3-1.1,2.2-1.4c0.9-0.3,1.8-0.5,2.8-0.5c0.8,0,1.6,0.1,2.4,0.4c0.8,0.2,1.5,0.6,2.2,1.1s1.2,1.1,1.6,1.8
			c0.4,0.7,0.6,1.5,0.6,2.4c0,1-0.2,1.9-0.7,2.6c-0.5,0.8-1.2,1.3-2.1,1.5v0.1c1.1,0.3,2,0.8,2.6,1.6c0.6,0.8,1,1.8,1,3
			c0,1.1-0.2,2-0.6,2.8c-0.4,0.8-1,1.5-1.7,2.1c-0.7,0.6-1.5,1-2.4,1.3c-0.9,0.3-1.9,0.4-2.8,0.4c-1.1,0-2.2-0.2-3.1-0.5
			c-0.9-0.3-1.7-0.8-2.4-1.4c-0.7-0.6-1.2-1.4-1.5-2.3s-0.5-2-0.5-3.1h3.9c0,0.5,0.1,1.1,0.3,1.6c0.2,0.5,0.4,0.9,0.7,1.3
			c0.3,0.4,0.7,0.6,1.1,0.9c0.4,0.2,1,0.3,1.6,0.3c0.9,0,1.7-0.3,2.3-0.9c0.6-0.6,1-1.3,1-2.3c0-0.8-0.1-1.4-0.4-1.8
			c-0.3-0.4-0.7-0.7-1.1-0.9c-0.5-0.2-1-0.3-1.5-0.3c-0.6,0-1.1,0-1.6,0v-2.9C672.8,612.3,673.3,612.3,673.8,612.2z"/>
		<path class="st9" d="M690.4,619.6v-3.8l8.8-11.8h3.7v12.2h2.7v3.4h-2.7v4.7H699v-4.7H690.4z M698.9,609.2l-5.2,7h5.3L698.9,609.2
			L698.9,609.2z"/>
		<path class="st9" d="M712.2,607.4l-0.8,4.6l0.1,0.1c0.6-0.6,1.2-1,1.8-1.2s1.4-0.4,2.2-0.4c1,0,1.9,0.2,2.7,0.6s1.4,0.9,2,1.5
			c0.5,0.6,0.9,1.3,1.2,2.2c0.3,0.8,0.4,1.7,0.4,2.7c0,1-0.2,2-0.6,2.9c-0.4,0.9-1,1.7-1.6,2.3s-1.5,1.2-2.4,1.5
			c-0.9,0.4-1.9,0.5-2.9,0.5c-1,0-1.9-0.1-2.8-0.4c-0.9-0.3-1.7-0.7-2.4-1.2c-0.7-0.5-1.3-1.2-1.7-2c-0.4-0.8-0.6-1.7-0.7-2.8h4.1
			c0.1,0.9,0.4,1.7,1,2.2c0.6,0.6,1.4,0.8,2.3,0.8c0.5,0,1-0.1,1.5-0.3s0.8-0.5,1.1-0.9c0.3-0.4,0.5-0.8,0.7-1.2
			c0.2-0.5,0.2-1,0.2-1.5c0-0.5-0.1-1-0.2-1.5c-0.2-0.5-0.4-0.9-0.7-1.2s-0.7-0.6-1.1-0.8c-0.4-0.2-0.9-0.3-1.5-0.3
			c-0.7,0-1.3,0.1-1.8,0.4c-0.5,0.3-0.9,0.7-1.3,1.2h-3.7l2-11.2h11.3v3.4H712.2z"/>
		<path class="st9" d="M732.5,607.5c-0.5-0.5-1.1-0.8-1.8-0.8c-0.7,0-1.3,0.2-1.8,0.7c-0.5,0.4-0.9,1-1.2,1.6
			c-0.3,0.6-0.5,1.3-0.6,2c-0.1,0.7-0.2,1.4-0.2,1.9l0.1,0.1c0.6-0.8,1.2-1.4,2-1.7s1.6-0.5,2.6-0.5c0.9,0,1.7,0.2,2.6,0.6
			s1.5,0.9,2.1,1.5c0.5,0.6,0.9,1.3,1.2,2.1s0.4,1.6,0.4,2.4c0,1-0.2,2-0.5,2.9c-0.3,0.9-0.8,1.7-1.5,2.3c-0.6,0.7-1.4,1.2-2.2,1.6
			c-0.9,0.4-1.8,0.6-2.9,0.6c-1.5,0-2.8-0.3-3.8-0.9c-1-0.6-1.8-1.4-2.4-2.4c-0.6-1-1-2.1-1.2-3.3s-0.3-2.5-0.3-3.8
			c0-1.3,0.1-2.5,0.4-3.8c0.3-1.3,0.8-2.4,1.4-3.4c0.6-1,1.5-1.8,2.5-2.5c1-0.6,2.2-1,3.7-1c0.9,0,1.7,0.1,2.4,0.4
			c0.8,0.3,1.4,0.6,2,1.1c0.6,0.5,1.1,1.1,1.4,1.8c0.4,0.7,0.6,1.5,0.7,2.4h-3.9C733.3,608.6,733,608,732.5,607.5z M729.1,614.1
			c-0.4,0.2-0.8,0.5-1,0.8c-0.3,0.3-0.5,0.7-0.6,1.2c-0.1,0.5-0.2,0.9-0.2,1.4c0,0.5,0.1,0.9,0.2,1.4c0.1,0.5,0.4,0.9,0.6,1.2
			c0.3,0.4,0.6,0.6,1,0.9c0.4,0.2,0.9,0.3,1.4,0.3c0.5,0,0.9-0.1,1.3-0.3c0.4-0.2,0.7-0.5,1-0.8s0.5-0.7,0.6-1.2
			c0.1-0.4,0.2-0.9,0.2-1.4c0-0.5-0.1-1-0.2-1.4c-0.1-0.5-0.3-0.9-0.6-1.2c-0.3-0.4-0.6-0.6-1-0.9c-0.4-0.2-0.9-0.3-1.4-0.3
			C730,613.8,729.5,613.9,729.1,614.1z"/>
		<path class="st9" d="M746.9,619.6v-3.8l8.8-11.8h3.7v12.2h2.7v3.4h-2.7v4.7h-3.9v-4.7H746.9z M755.4,609.2l-5.2,7h5.3L755.4,609.2
			L755.4,609.2z"/>
		<path class="st9" d="M768.6,607.4l-0.8,4.6l0.1,0.1c0.6-0.6,1.2-1,1.8-1.2s1.4-0.4,2.2-0.4c1,0,1.9,0.2,2.7,0.6s1.4,0.9,2,1.5
			c0.5,0.6,0.9,1.3,1.2,2.2c0.3,0.8,0.4,1.7,0.4,2.7c0,1-0.2,2-0.6,2.9c-0.4,0.9-1,1.7-1.6,2.3s-1.5,1.2-2.4,1.5
			c-0.9,0.4-1.9,0.5-2.9,0.5c-1,0-1.9-0.1-2.8-0.4c-0.9-0.3-1.7-0.7-2.4-1.2c-0.7-0.5-1.3-1.2-1.7-2c-0.4-0.8-0.6-1.7-0.7-2.8h4.1
			c0.1,0.9,0.4,1.7,1,2.2c0.6,0.6,1.4,0.8,2.3,0.8c0.5,0,1-0.1,1.5-0.3s0.8-0.5,1.1-0.9c0.3-0.4,0.5-0.8,0.7-1.2
			c0.2-0.5,0.2-1,0.2-1.5c0-0.5-0.1-1-0.2-1.5c-0.2-0.5-0.4-0.9-0.7-1.2s-0.7-0.6-1.1-0.8c-0.4-0.2-0.9-0.3-1.5-0.3
			c-0.7,0-1.3,0.1-1.8,0.4c-0.5,0.3-0.9,0.7-1.3,1.2h-3.7l2-11.2H777v3.4H768.6z"/>
		<path class="st9" d="M789,607.5c-0.5-0.5-1.1-0.8-1.8-0.8c-0.7,0-1.3,0.2-1.8,0.7c-0.5,0.4-0.9,1-1.2,1.6c-0.3,0.6-0.5,1.3-0.6,2
			c-0.1,0.7-0.2,1.4-0.2,1.9l0.1,0.1c0.6-0.8,1.2-1.4,2-1.7s1.6-0.5,2.6-0.5c0.9,0,1.7,0.2,2.6,0.6s1.5,0.9,2.1,1.5
			c0.5,0.6,0.9,1.3,1.2,2.1s0.4,1.6,0.4,2.4c0,1-0.2,2-0.5,2.9c-0.3,0.9-0.8,1.7-1.5,2.3c-0.6,0.7-1.4,1.2-2.2,1.6
			c-0.9,0.4-1.8,0.6-2.9,0.6c-1.5,0-2.8-0.3-3.8-0.9c-1-0.6-1.8-1.4-2.4-2.4c-0.6-1-1-2.1-1.2-3.3s-0.3-2.5-0.3-3.8
			c0-1.3,0.1-2.5,0.4-3.8c0.3-1.3,0.8-2.4,1.4-3.4c0.6-1,1.5-1.8,2.5-2.5c1-0.6,2.2-1,3.7-1c0.9,0,1.7,0.1,2.4,0.4
			c0.8,0.3,1.4,0.6,2,1.1c0.6,0.5,1.1,1.1,1.4,1.8c0.4,0.7,0.6,1.5,0.7,2.4h-3.9C789.8,608.6,789.5,608,789,607.5z M785.5,614.1
			c-0.4,0.2-0.8,0.5-1,0.8c-0.3,0.3-0.5,0.7-0.6,1.2c-0.1,0.5-0.2,0.9-0.2,1.4c0,0.5,0.1,0.9,0.2,1.4c0.1,0.5,0.4,0.9,0.6,1.2
			c0.3,0.4,0.6,0.6,1,0.9c0.4,0.2,0.9,0.3,1.4,0.3c0.5,0,0.9-0.1,1.3-0.3c0.4-0.2,0.7-0.5,1-0.8s0.5-0.7,0.6-1.2
			c0.1-0.4,0.2-0.9,0.2-1.4c0-0.5-0.1-1-0.2-1.4c-0.1-0.5-0.3-0.9-0.6-1.2c-0.3-0.4-0.6-0.6-1-0.9c-0.4-0.2-0.9-0.3-1.4-0.3
			C786.4,613.8,785.9,613.9,785.5,614.1z"/>
		<path class="st9" d="M806.9,611c-0.8,1.4-1.5,2.8-2.1,4.3c-0.6,1.5-1,3.1-1.3,4.6s-0.5,3-0.5,4.4h-4.4c0.2-3,0.9-6,2.1-8.8
			c1.2-2.8,2.8-5.4,4.7-7.7h-9.6V604h13.9v3.5C808.7,608.5,807.8,609.6,806.9,611z"/>
	</g>
	<g>
		<path class="st0" d="M617.3,537.3l4.7,13.7h0.1l4.4-13.7h6.2v20h-4.1v-14.2h-0.1l-4.9,14.2h-3.4l-4.9-14h-0.1v14h-4.1v-20H617.3z"
			/>
		<path class="st0" d="M640.4,553.8c0.6,0.6,1.5,0.9,2.6,0.9c0.8,0,1.5-0.2,2.1-0.6c0.6-0.4,0.9-0.8,1.1-1.3h3.5
			c-0.6,1.7-1.4,3-2.6,3.7c-1.2,0.7-2.6,1.1-4.2,1.1c-1.1,0-2.2-0.2-3.1-0.5c-0.9-0.4-1.7-0.9-2.3-1.6c-0.6-0.7-1.1-1.5-1.5-2.4
			c-0.3-0.9-0.5-2-0.5-3.1c0-1.1,0.2-2.1,0.5-3c0.4-0.9,0.9-1.7,1.5-2.4c0.7-0.7,1.4-1.2,2.3-1.6c0.9-0.4,1.9-0.6,3-0.6
			c1.2,0,2.3,0.2,3.2,0.7c0.9,0.5,1.7,1.1,2.3,1.9c0.6,0.8,1,1.7,1.3,2.7c0.3,1,0.4,2.1,0.3,3.2h-10.4
			C639.5,552.3,639.8,553.3,640.4,553.8z M644.9,546.2c-0.5-0.5-1.2-0.8-2.2-0.8c-0.6,0-1.2,0.1-1.6,0.3s-0.8,0.5-1,0.8
			s-0.4,0.7-0.5,1c-0.1,0.4-0.2,0.7-0.2,1h6.5C645.7,547.5,645.4,546.8,644.9,546.2z"/>
		<path class="st0" d="M656.5,553.8c0.6,0.6,1.5,0.9,2.6,0.9c0.8,0,1.5-0.2,2.1-0.6c0.6-0.4,0.9-0.8,1.1-1.3h3.5
			c-0.6,1.7-1.4,3-2.6,3.7c-1.2,0.7-2.6,1.1-4.2,1.1c-1.1,0-2.2-0.2-3.1-0.5c-0.9-0.4-1.7-0.9-2.3-1.6c-0.6-0.7-1.1-1.5-1.5-2.4
			c-0.3-0.9-0.5-2-0.5-3.1c0-1.1,0.2-2.1,0.5-3c0.4-0.9,0.9-1.7,1.5-2.4c0.7-0.7,1.4-1.2,2.3-1.6c0.9-0.4,1.9-0.6,3-0.6
			c1.2,0,2.3,0.2,3.2,0.7c0.9,0.5,1.7,1.1,2.3,1.9c0.6,0.8,1,1.7,1.3,2.7c0.3,1,0.4,2.1,0.3,3.2h-10.4
			C655.5,552.3,655.9,553.3,656.5,553.8z M660.9,546.2c-0.5-0.5-1.2-0.8-2.2-0.8c-0.6,0-1.2,0.1-1.6,0.3s-0.8,0.5-1,0.8
			s-0.4,0.7-0.5,1c-0.1,0.4-0.2,0.7-0.2,1h6.5C661.8,547.5,661.4,546.8,660.9,546.2z"/>
		<path class="st0" d="M676.2,542.8v2.7h-2.9v7.2c0,0.7,0.1,1.1,0.3,1.3c0.2,0.2,0.7,0.3,1.3,0.3c0.2,0,0.4,0,0.6,0
			c0.2,0,0.4,0,0.6-0.1v3.1c-0.3,0.1-0.7,0.1-1.1,0.1c-0.4,0-0.8,0-1.2,0c-0.6,0-1.2,0-1.8-0.1s-1-0.2-1.5-0.5c-0.4-0.2-0.8-0.6-1-1
			c-0.2-0.4-0.4-1-0.4-1.8v-8.5h-2.4v-2.7h2.4v-4.3h4v4.3H676.2z"/>
		<path class="st0" d="M678.2,540.6v-3.3h4v3.3H678.2z M682.2,542.8v14.5h-4v-14.5H682.2z"/>
		<path class="st0" d="M689.1,542.8v2h0.1c0.5-0.8,1.2-1.5,2-1.8c0.8-0.4,1.6-0.6,2.5-0.6c1.1,0,1.9,0.1,2.6,0.4
			c0.7,0.3,1.2,0.7,1.6,1.2c0.4,0.5,0.7,1.1,0.8,1.9c0.2,0.7,0.2,1.6,0.2,2.4v8.9h-4v-8.2c0-1.2-0.2-2.1-0.6-2.7
			c-0.4-0.6-1-0.9-2-0.9c-1.1,0-1.9,0.3-2.4,1s-0.7,1.7-0.7,3.2v7.6h-4v-14.5H689.1z"/>
		<path class="st0" d="M715.6,558.4c-0.2,0.7-0.5,1.4-1,2.1s-1.3,1.2-2.3,1.6c-1,0.4-2.3,0.7-4,0.7c-0.7,0-1.4-0.1-2.2-0.3
			s-1.4-0.5-2-0.8c-0.6-0.4-1.1-0.9-1.5-1.4c-0.4-0.6-0.6-1.3-0.7-2.1h3.9c0.2,0.7,0.5,1.3,1.1,1.6c0.5,0.3,1.2,0.4,1.9,0.4
			c1.1,0,1.9-0.3,2.5-1c0.5-0.7,0.8-1.5,0.7-2.5v-1.9H712c-0.4,0.8-1,1.3-1.8,1.7c-0.8,0.4-1.6,0.5-2.5,0.5c-1.1,0-2-0.2-2.8-0.6
			c-0.8-0.4-1.4-0.9-1.9-1.6c-0.5-0.7-0.9-1.4-1.1-2.3s-0.3-1.8-0.3-2.8c0-0.9,0.1-1.8,0.4-2.7c0.3-0.9,0.7-1.6,1.2-2.3
			c0.5-0.7,1.2-1.2,1.9-1.6c0.8-0.4,1.7-0.6,2.7-0.6c1,0,1.8,0.2,2.5,0.5c0.7,0.4,1.3,1,1.8,1.8h0.1v-1.9h3.8v13.6
			C715.9,557,715.8,557.6,715.6,558.4z M710.2,553.6c0.4-0.2,0.8-0.5,1.1-0.9c0.3-0.4,0.5-0.8,0.6-1.3c0.1-0.5,0.2-1,0.2-1.5
			c0-0.6-0.1-1.2-0.2-1.7c-0.1-0.5-0.3-1-0.6-1.4s-0.6-0.7-1-1s-1-0.4-1.6-0.4c-0.6,0-1,0.1-1.4,0.3c-0.4,0.2-0.7,0.5-1,0.9
			c-0.3,0.4-0.5,0.8-0.6,1.3c-0.1,0.5-0.2,1-0.2,1.6c0,0.5,0.1,1,0.2,1.6c0.1,0.5,0.3,1,0.5,1.4s0.6,0.7,1,1
			c0.4,0.3,0.9,0.4,1.5,0.4C709.3,553.9,709.8,553.8,710.2,553.6z"/>
		<path class="st0" d="M731.7,537.3v20h-4.4v-20H731.7z"/>
		<path class="st0" d="M744.1,537.3c1.3,0,2.5,0.2,3.6,0.6c1.1,0.4,2.1,1,2.9,1.8c0.8,0.8,1.4,1.8,1.9,3.1c0.5,1.2,0.7,2.7,0.7,4.3
			c0,1.5-0.2,2.8-0.6,4c-0.4,1.2-0.9,2.3-1.7,3.2c-0.8,0.9-1.7,1.6-2.8,2.1c-1.1,0.5-2.5,0.8-4,0.8h-8.6v-20H744.1z M743.8,553.6
			c0.6,0,1.2-0.1,1.8-0.3c0.6-0.2,1.1-0.5,1.6-1c0.5-0.5,0.8-1.1,1.1-1.9c0.3-0.8,0.4-1.7,0.4-2.8c0-1-0.1-1.9-0.3-2.7
			c-0.2-0.8-0.5-1.5-1-2.1c-0.4-0.6-1-1-1.8-1.3c-0.7-0.3-1.6-0.5-2.7-0.5h-3.1v12.6H743.8z"/>
		<path class="st0" d="M763.7,546.9c0.4-0.9,0.9-1.7,1.5-2.4c0.7-0.7,1.4-1.2,2.4-1.5c0.9-0.4,1.9-0.5,3.1-0.5s2.2,0.2,3.1,0.5
			c0.9,0.4,1.7,0.9,2.4,1.5c0.7,0.7,1.2,1.5,1.5,2.4c0.4,0.9,0.5,2,0.5,3.1c0,1.2-0.2,2.2-0.5,3.1s-0.9,1.7-1.5,2.4
			s-1.4,1.2-2.4,1.5s-2,0.5-3.1,0.5s-2.2-0.2-3.1-0.5c-0.9-0.4-1.7-0.9-2.4-1.5c-0.7-0.7-1.2-1.5-1.5-2.4s-0.5-2-0.5-3.1
			C763.2,548.9,763.4,547.9,763.7,546.9z M767.3,551.8c0.1,0.6,0.3,1,0.6,1.5c0.3,0.4,0.6,0.8,1.1,1c0.4,0.3,1,0.4,1.7,0.4
			s1.2-0.1,1.7-0.4c0.5-0.3,0.8-0.6,1.1-1s0.5-0.9,0.6-1.5c0.1-0.5,0.2-1.1,0.2-1.7c0-0.6-0.1-1.1-0.2-1.7c-0.1-0.6-0.3-1.1-0.6-1.5
			c-0.3-0.4-0.6-0.8-1.1-1c-0.5-0.3-1-0.4-1.7-0.4s-1.2,0.1-1.7,0.4c-0.4,0.3-0.8,0.6-1.1,1c-0.3,0.4-0.5,0.9-0.6,1.5
			s-0.2,1.1-0.2,1.7C767.2,550.7,767.2,551.2,767.3,551.8z"/>
		<path class="st0" d="M784.5,542.8v2.7h0.1c0.2-0.4,0.4-0.9,0.8-1.2c0.3-0.4,0.7-0.7,1.1-1c0.4-0.3,0.8-0.5,1.3-0.6
			c0.5-0.1,1-0.2,1.5-0.2c0.3,0,0.6,0,0.9,0.1v3.7c-0.2,0-0.4-0.1-0.7-0.1c-0.3,0-0.5,0-0.8,0c-0.7,0-1.3,0.1-1.8,0.4
			c-0.5,0.2-0.9,0.6-1.2,1c-0.3,0.4-0.5,0.9-0.7,1.5c-0.1,0.6-0.2,1.2-0.2,1.8v6.5h-4v-14.5H784.5z"/>
		<path class="st0" d="M804.2,537.3v16.3h9.7v3.7h-14.1v-20H804.2z"/>
		<path class="st0" d="M816.1,540.6v-3.3h4v3.3H816.1z M820.1,542.8v14.5h-4v-14.5H820.1z"/>
		<path class="st0" d="M827,542.8v2h0.1c0.5-0.8,1.2-1.5,2-1.8c0.8-0.4,1.6-0.6,2.5-0.6c1.1,0,1.9,0.1,2.6,0.4
			c0.7,0.3,1.2,0.7,1.6,1.2c0.4,0.5,0.7,1.1,0.8,1.9c0.2,0.7,0.2,1.6,0.2,2.4v8.9h-4v-8.2c0-1.2-0.2-2.1-0.6-2.7
			c-0.4-0.6-1-0.9-2-0.9c-1.1,0-1.9,0.3-2.4,1s-0.7,1.7-0.7,3.2v7.6h-4v-14.5H827z"/>
		<path class="st0" d="M844.2,537.3v10.7l5-5.2h4.7l-5.5,5.3l6.1,9.2h-4.8l-4-6.5l-1.5,1.5v5h-4v-20H844.2z"/>
	</g>
	<path class="st4" d="M627.2,695.3h86c16.6,0,30,13.4,30,30s-13.4,30-30,30h-86c-16.6,0-30-13.4-30-30S610.7,695.3,627.2,695.3z"/>
	<path class="st0" d="M627.2,697.8v2.5h86c6.9,0,13.1,2.8,17.7,7.3c4.5,4.5,7.3,10.8,7.3,17.7c0,6.9-2.8,13.1-7.3,17.7
		c-4.5,4.5-10.8,7.3-17.7,7.3h-86c-6.9,0-13.1-2.8-17.7-7.3c-4.5-4.5-7.3-10.8-7.3-17.7c0-6.9,2.8-13.1,7.3-17.7
		c4.5-4.5,10.8-7.3,17.7-7.3V697.8v-2.5c-16.6,0-30,13.4-30,30c0,16.6,13.4,30,30,30h86c16.6,0,30-13.4,30-30c0-16.6-13.4-30-30-30
		h-86V697.8z"/>
	<path class="st0" d="M1041.2,695.3h65c16.6,0,30,13.4,30,30s-13.4,30-30,30h-65c-16.6,0-30-13.4-30-30S1024.7,695.3,1041.2,695.3z"
		/>
	<g>
		<path class="st0" d="M639.7,721.2c-0.3-0.4-0.6-0.8-0.9-1.1c-0.4-0.3-0.8-0.5-1.3-0.7c-0.5-0.2-1-0.3-1.5-0.3
			c-1,0-1.8,0.2-2.4,0.6c-0.7,0.4-1.2,0.9-1.6,1.5s-0.7,1.3-0.9,2.1c-0.2,0.8-0.3,1.6-0.3,2.5c0,0.8,0.1,1.6,0.3,2.4
			c0.2,0.8,0.5,1.5,0.9,2.1s1,1.1,1.6,1.5c0.7,0.4,1.5,0.6,2.4,0.6c1.3,0,2.3-0.4,3-1.2c0.7-0.8,1.2-1.8,1.3-3.1h4.1
			c-0.1,1.2-0.4,2.3-0.8,3.3c-0.4,1-1,1.8-1.8,2.5c-0.7,0.7-1.6,1.2-2.6,1.6c-1,0.4-2.1,0.5-3.3,0.5c-1.5,0-2.8-0.3-4-0.8
			c-1.2-0.5-2.2-1.2-3-2.1c-0.8-0.9-1.4-2-1.9-3.2c-0.4-1.2-0.6-2.5-0.6-3.9c0-1.4,0.2-2.8,0.6-4c0.4-1.2,1.1-2.3,1.9-3.2
			c0.8-0.9,1.8-1.6,3-2.2c1.2-0.5,2.5-0.8,4-0.8c1.1,0,2.1,0.2,3,0.5c0.9,0.3,1.8,0.8,2.5,1.3c0.7,0.6,1.4,1.3,1.8,2.2
			c0.5,0.9,0.8,1.9,0.9,3h-4.1C640.1,722,640,721.6,639.7,721.2z"/>
		<path class="st0" d="M646.8,725.7c0.1-0.9,0.3-1.6,0.7-2.2c0.4-0.6,0.9-1.1,1.5-1.4c0.6-0.4,1.3-0.6,2.1-0.8
			c0.8-0.2,1.5-0.2,2.3-0.2c0.7,0,1.4,0,2.1,0.1c0.7,0.1,1.4,0.3,2,0.6c0.6,0.3,1.1,0.7,1.5,1.2c0.4,0.5,0.6,1.2,0.6,2v7.3
			c0,0.6,0,1.2,0.1,1.8s0.2,1,0.4,1.3h-3.9c-0.1-0.2-0.1-0.4-0.2-0.7c0-0.2-0.1-0.5-0.1-0.7c-0.6,0.6-1.3,1.1-2.2,1.3
			c-0.8,0.3-1.7,0.4-2.5,0.4c-0.7,0-1.3-0.1-1.9-0.2c-0.6-0.2-1.1-0.4-1.5-0.8c-0.4-0.3-0.8-0.8-1-1.3c-0.2-0.5-0.4-1.1-0.4-1.9
			c0-0.8,0.1-1.4,0.4-2s0.6-0.9,1.1-1.2c0.4-0.3,0.9-0.5,1.5-0.7c0.6-0.2,1.1-0.3,1.7-0.4s1.1-0.2,1.7-0.2c0.6-0.1,1.1-0.1,1.5-0.2
			c0.4-0.1,0.8-0.3,1-0.5s0.4-0.5,0.4-0.9c0-0.4-0.1-0.7-0.2-1c-0.1-0.2-0.3-0.4-0.5-0.6c-0.2-0.1-0.5-0.2-0.8-0.3
			c-0.3,0-0.6-0.1-1-0.1c-0.8,0-1.3,0.2-1.8,0.5c-0.4,0.3-0.7,0.9-0.8,1.6H646.8z M655.6,728.5c-0.2,0.1-0.4,0.3-0.6,0.3
			c-0.2,0.1-0.5,0.1-0.8,0.2c-0.3,0.1-0.6,0.1-0.9,0.1c-0.3,0-0.6,0.1-0.9,0.1c-0.3,0.1-0.6,0.1-0.9,0.2s-0.5,0.2-0.7,0.4
			c-0.2,0.2-0.4,0.3-0.5,0.6c-0.1,0.2-0.2,0.5-0.2,0.9c0,0.3,0.1,0.6,0.2,0.9c0.1,0.2,0.3,0.4,0.5,0.6c0.2,0.1,0.5,0.2,0.8,0.3
			c0.3,0.1,0.6,0.1,0.9,0.1c0.8,0,1.3-0.1,1.8-0.4s0.7-0.6,0.9-0.9c0.2-0.4,0.3-0.7,0.4-1.1c0-0.4,0.1-0.6,0.1-0.9V728.5z"/>
		<path class="st0" d="M666.1,721.4v1.9h0.1c0.5-0.8,1.1-1.4,1.9-1.8c0.8-0.4,1.6-0.6,2.4-0.6c1,0,1.9,0.1,2.5,0.4s1.2,0.7,1.6,1.2
			c0.4,0.5,0.6,1.1,0.8,1.8s0.2,1.5,0.2,2.4v8.6h-3.8v-7.9c0-1.2-0.2-2-0.5-2.6c-0.4-0.6-1-0.8-1.9-0.8c-1,0-1.8,0.3-2.3,0.9
			c-0.5,0.6-0.7,1.6-0.7,3.1v7.3h-3.8v-14H666.1z"/>
		<path class="st0" d="M685.1,723.9c-0.6,0-1.1,0.1-1.5,0.4s-0.8,0.6-1,1.1s-0.4,0.9-0.6,1.5c-0.1,0.5-0.2,1.1-0.2,1.6
			c0,0.5,0.1,1,0.2,1.5c0.1,0.5,0.3,1,0.5,1.4c0.2,0.4,0.6,0.8,1,1s0.9,0.4,1.5,0.4c0.9,0,1.6-0.3,2.1-0.8s0.8-1.2,0.9-2.1h3.7
			c-0.3,1.9-1,3.3-2.2,4.2c-1.2,1-2.7,1.5-4.6,1.5c-1,0-2-0.2-2.9-0.5c-0.9-0.4-1.6-0.8-2.2-1.5c-0.6-0.6-1.1-1.4-1.4-2.3
			s-0.5-1.8-0.5-2.9c0-1.1,0.2-2.1,0.5-3c0.3-0.9,0.8-1.7,1.4-2.4c0.6-0.7,1.4-1.2,2.2-1.6c0.9-0.4,1.9-0.6,3-0.6
			c0.8,0,1.6,0.1,2.4,0.3c0.8,0.2,1.4,0.5,2.1,1c0.6,0.4,1.1,1,1.5,1.6c0.4,0.7,0.6,1.4,0.6,2.3H688
			C687.7,724.7,686.8,723.9,685.1,723.9z"/>
		<path class="st0" d="M698.1,732c0.6,0.6,1.4,0.8,2.5,0.8c0.8,0,1.4-0.2,2-0.6c0.6-0.4,0.9-0.8,1-1.2h3.4c-0.5,1.7-1.4,2.9-2.5,3.6
			c-1.1,0.7-2.5,1.1-4,1.1c-1.1,0-2.1-0.2-3-0.5c-0.9-0.4-1.6-0.9-2.2-1.5c-0.6-0.6-1.1-1.4-1.4-2.3c-0.3-0.9-0.5-1.9-0.5-3
			c0-1,0.2-2,0.5-2.9s0.8-1.7,1.5-2.3c0.6-0.7,1.4-1.2,2.3-1.6c0.9-0.4,1.8-0.6,2.9-0.6c1.2,0,2.2,0.2,3.1,0.7s1.6,1.1,2.2,1.8
			s1,1.7,1.2,2.6c0.3,1,0.3,2,0.3,3.1h-10.1C697.2,730.5,697.5,731.4,698.1,732z M702.4,724.6c-0.5-0.5-1.2-0.8-2.1-0.8
			c-0.6,0-1.1,0.1-1.5,0.3c-0.4,0.2-0.7,0.5-1,0.8c-0.2,0.3-0.4,0.6-0.5,1c-0.1,0.3-0.2,0.6-0.2,0.9h6.2
			C703.2,725.9,702.8,725.1,702.4,724.6z"/>
		<path class="st0" d="M713.4,716v19.3h-3.8V716H713.4z"/>
	</g>
	<g>
		<path class="st4" d="M1059.9,716l7.2,19.3h-4.4l-1.5-4.3h-7.2l-1.5,4.3h-4.3l7.3-19.3H1059.9z M1060.2,727.9l-2.4-7.1h-0.1
			l-2.5,7.1H1060.2z"/>
		<path class="st4" d="M1078.3,733.5c-0.5,0.8-1,1.3-1.8,1.6c-0.7,0.3-1.6,0.5-2.5,0.5c-1,0-2-0.2-2.8-0.6c-0.8-0.4-1.4-1-2-1.6
			c-0.5-0.7-0.9-1.5-1.2-2.4c-0.3-0.9-0.4-1.8-0.4-2.8c0-0.9,0.1-1.8,0.4-2.7c0.3-0.9,0.6-1.6,1.2-2.3c0.5-0.7,1.2-1.2,1.9-1.6
			c0.8-0.4,1.7-0.6,2.7-0.6c0.8,0,1.6,0.2,2.4,0.5c0.7,0.4,1.3,0.9,1.8,1.6h0.1v-7h3.8v19.3h-3.6L1078.3,733.5L1078.3,733.5z
			 M1078.2,726.6c-0.1-0.5-0.3-1-0.6-1.4c-0.3-0.4-0.6-0.7-1-1c-0.4-0.3-0.9-0.4-1.6-0.4c-0.6,0-1.2,0.1-1.6,0.4
			c-0.4,0.3-0.8,0.6-1,1c-0.3,0.4-0.5,0.9-0.6,1.4s-0.2,1.1-0.2,1.7c0,0.5,0.1,1.1,0.2,1.6s0.3,1,0.6,1.4s0.6,0.8,1.1,1
			c0.4,0.3,0.9,0.4,1.5,0.4c0.6,0,1.2-0.1,1.6-0.4s0.8-0.6,1-1s0.4-0.9,0.5-1.4s0.2-1.1,0.2-1.7S1078.3,727.2,1078.2,726.6z"/>
		<path class="st4" d="M1094.8,733.5c-0.5,0.8-1,1.3-1.8,1.6c-0.7,0.3-1.6,0.5-2.5,0.5c-1,0-2-0.2-2.8-0.6c-0.8-0.4-1.4-1-2-1.6
			c-0.5-0.7-0.9-1.5-1.2-2.4c-0.3-0.9-0.4-1.8-0.4-2.8c0-0.9,0.1-1.8,0.4-2.7c0.3-0.9,0.6-1.6,1.2-2.3c0.5-0.7,1.2-1.2,1.9-1.6
			c0.8-0.4,1.7-0.6,2.7-0.6c0.8,0,1.6,0.2,2.4,0.5c0.7,0.4,1.3,0.9,1.8,1.6h0.1v-7h3.8v19.3h-3.6L1094.8,733.5L1094.8,733.5z
			 M1094.7,726.6c-0.1-0.5-0.3-1-0.6-1.4c-0.3-0.4-0.6-0.7-1-1c-0.4-0.3-0.9-0.4-1.6-0.4c-0.6,0-1.2,0.1-1.6,0.4
			c-0.4,0.3-0.8,0.6-1,1c-0.3,0.4-0.5,0.9-0.6,1.4s-0.2,1.1-0.2,1.7c0,0.5,0.1,1.1,0.2,1.6s0.3,1,0.6,1.4s0.6,0.8,1.1,1
			c0.4,0.3,0.9,0.4,1.5,0.4c0.6,0,1.2-0.1,1.6-0.4s0.8-0.6,1-1s0.4-0.9,0.5-1.4s0.2-1.1,0.2-1.7S1094.8,727.2,1094.7,726.6z"/>
	</g>
	<g>
		<defs>
			<polyline id="SVGID_17_" points="1033.4,278.8 675.9,278.8 675.9,318 1033.4,318 1033.4,278.8 			"/>
		</defs>
		<clipPath id="SVGID_6_">
			<use xlink:href="#SVGID_17_"  style="overflow:visible;"/>
		</clipPath>
		<g class="st13">
			<path class="st3" d="M699.2,278.8l14.4,38.6h-8.8l-2.9-8.6h-14.4l-3,8.6h-8.5l14.6-38.6H699.2z M699.7,302.4l-4.9-14.1h-0.1
				l-5,14.1H699.7z"/>
			<path class="st3" d="M735.9,313.8c-0.9,1.5-2.1,2.6-3.5,3.3c-1.5,0.7-3.1,1-4.9,1c-2.1,0-3.9-0.4-5.5-1.2
				c-1.6-0.8-2.9-1.9-3.9-3.3c-1-1.4-1.8-3-2.3-4.8c-0.5-1.8-0.8-3.7-0.8-5.6c0-1.9,0.3-3.7,0.8-5.4c0.5-1.7,1.3-3.3,2.3-4.6
				c1-1.3,2.3-2.4,3.9-3.2c1.5-0.8,3.3-1.2,5.4-1.2c1.7,0,3.2,0.4,4.7,1.1c1.5,0.7,2.7,1.7,3.5,3.1h0.1v-14h7.7v38.6h-7.3v-3.6
				H735.9z M735.6,300c-0.2-1.1-0.6-2-1.1-2.8c-0.5-0.8-1.2-1.5-2-2c-0.8-0.5-1.9-0.8-3.1-0.8c-1.3,0-2.3,0.3-3.2,0.8
				c-0.9,0.5-1.6,1.2-2.1,2c-0.5,0.8-0.9,1.8-1.1,2.8c-0.2,1.1-0.4,2.2-0.4,3.3c0,1.1,0.1,2.2,0.4,3.2c0.3,1.1,0.7,2,1.2,2.9
				c0.6,0.8,1.3,1.5,2.1,2.1c0.8,0.5,1.9,0.8,3.1,0.8c1.3,0,2.3-0.3,3.2-0.8c0.8-0.5,1.5-1.2,2-2c0.5-0.8,0.9-1.8,1.1-2.9
				c0.2-1.1,0.3-2.2,0.3-3.3C735.9,302.1,735.8,301,735.6,300z"/>
			<path class="st3" d="M768.9,313.8c-0.9,1.5-2.1,2.6-3.5,3.3c-1.5,0.7-3.1,1-4.9,1c-2.1,0-3.9-0.4-5.5-1.2
				c-1.6-0.8-2.9-1.9-3.9-3.3c-1-1.4-1.8-3-2.3-4.8c-0.5-1.8-0.8-3.7-0.8-5.6c0-1.9,0.3-3.7,0.8-5.4c0.5-1.7,1.3-3.3,2.3-4.6
				c1-1.3,2.3-2.4,3.9-3.2c1.5-0.8,3.3-1.2,5.4-1.2c1.7,0,3.2,0.4,4.7,1.1c1.5,0.7,2.7,1.7,3.5,3.1h0.1v-14h7.7v38.6H769v-3.6H768.9
				z M768.6,300c-0.2-1.1-0.6-2-1.1-2.8c-0.5-0.8-1.2-1.5-2-2c-0.8-0.5-1.9-0.8-3.1-0.8c-1.3,0-2.3,0.3-3.2,0.8
				c-0.9,0.5-1.6,1.2-2.1,2c-0.5,0.8-0.9,1.8-1.1,2.8c-0.2,1.1-0.4,2.2-0.4,3.3c0,1.1,0.1,2.2,0.4,3.2c0.3,1.1,0.7,2,1.2,2.9
				c0.6,0.8,1.3,1.5,2.1,2.1c0.8,0.5,1.9,0.8,3.1,0.8c1.3,0,2.3-0.3,3.2-0.8c0.8-0.5,1.5-1.2,2-2c0.5-0.8,0.9-1.8,1.1-2.9
				c0.2-1.1,0.3-2.2,0.3-3.3C768.9,302.1,768.8,301,768.6,300z"/>
			<path class="st3" d="M806.4,278.8l16.1,25.9h0.1v-25.9h7.9v38.6H822l-16-25.8h-0.1v25.8h-7.9v-38.6H806.4z"/>
			<path class="st3" d="M845.3,310.6c1.2,1.1,2.8,1.7,5,1.7c1.5,0,2.9-0.4,4-1.2c1.1-0.8,1.8-1.6,2.1-2.5h6.8
				c-1.1,3.3-2.7,5.7-5,7.2c-2.2,1.4-4.9,2.2-8.1,2.2c-2.2,0-4.2-0.4-5.9-1.1c-1.8-0.7-3.3-1.7-4.5-3c-1.2-1.3-2.2-2.8-2.8-4.6
				c-0.7-1.8-1-3.8-1-5.9c0-2.1,0.3-4,1-5.8c0.7-1.8,1.7-3.4,2.9-4.7c1.3-1.3,2.8-2.3,4.5-3.1s3.7-1.1,5.8-1.1
				c2.4,0,4.4,0.5,6.2,1.4c1.8,0.9,3.2,2.2,4.3,3.7c1.1,1.5,2,3.3,2.5,5.3c0.5,2,0.7,4.1,0.5,6.2h-20.1
				C843.6,307.7,844.2,309.5,845.3,310.6z M854,295.9c-0.9-1-2.3-1.5-4.2-1.5c-1.2,0-2.2,0.2-3.1,0.6c-0.8,0.4-1.5,0.9-1.9,1.5
				c-0.5,0.6-0.8,1.3-1,1.9c-0.2,0.7-0.3,1.3-0.4,1.8h12.5C855.6,298.4,854.9,296.9,854,295.9z"/>
			<path class="st3" d="M892.2,317.3l-5-18.7h-0.1l-4.8,18.7h-7.9l-8.9-27.9h8.1l5.1,19h0.1l4.6-19h7.5l4.8,18.9h0.1l5.1-18.9h7.9
				l-8.8,27.9H892.2z"/>
			<path class="st3" d="M936.4,278.8v31.4h18.8v7.1h-27.3v-38.6H936.4z"/>
			<path class="st3" d="M959.3,285.1v-6.3h7.7v6.3H959.3z M967,289.4v27.9h-7.7v-27.9H967z"/>
			<path class="st3" d="M980.3,289.4v3.9h0.2c1-1.6,2.2-2.8,3.8-3.5c1.5-0.7,3.1-1.1,4.8-1.1c2.1,0,3.7,0.3,5,0.8
				c1.3,0.6,2.3,1.3,3.1,2.3c0.8,1,1.3,2.2,1.6,3.6c0.3,1.4,0.5,3,0.5,4.7v17.2h-7.7v-15.8c0-2.3-0.4-4-1.1-5.2
				c-0.7-1.1-2-1.7-3.8-1.7c-2.1,0-3.6,0.6-4.5,1.9c-0.9,1.2-1.4,3.3-1.4,6.1v14.6h-7.7v-27.9H980.3z"/>
			<path class="st3" d="M1013.4,278.8v20.7l9.7-10h9.1l-10.5,10.3l11.7,17.7h-9.3l-7.7-12.5l-3,2.9v9.6h-7.7v-38.6H1013.4z"/>
		</g>
	</g>
	<path class="st0" d="M1421,488.9c0.4,4.8,0.7,11,0.7,18.3c0,13.9-1.2,31.9-5.9,51.8c-4.6,19.9-12.6,41.6-26.2,63.2
		c-15.7,24.9-35.1,43.8-55.7,58.1c-30.9,21.5-64.5,32.7-91.7,38.5c-27.2,5.8-47.9,6.2-53,6.2c-0.3,0-0.5,0-0.7,0
		c-2.5,0-4.5,2-4.5,4.5c0,2.5,2,4.5,4.5,4.5c0.2,0,0.5,0,0.8,0c7.3,0,42.8-0.8,84.8-14.5c21-6.9,43.6-17,65.1-31.9
		c21.5-14.9,41.8-34.7,58.2-60.7c14.1-22.5,22.5-45.2,27.3-65.9c4.8-20.7,6.1-39.4,6.1-53.8c0-7.6-0.4-14-0.7-19
		c-0.2-2.5-2.4-4.3-4.8-4.1C1422.7,484.2,1420.8,486.4,1421,488.9L1421,488.9z"/>
</g>
</svg>
