<?xml version="1.0" encoding="utf-8"?>
<!-- Generator: Adobe Illustrator 24.2.3, SVG Export Plug-In . SVG Version: 6.00 Build 0)  -->
<svg version="1.1" id="Layer_1" xmlns="http://www.w3.org/2000/svg" xmlns:xlink="http://www.w3.org/1999/xlink" x="0px" y="0px"
	 viewBox="0 0 130.9 51.2" style="enable-background:new 0 0 130.9 51.2;" xml:space="preserve">
<style type="text/css">
	.st0{fill:none;stroke:#6D72F2;stroke-width:5;stroke-linecap:round;stroke-miterlimit:10;}
	.st1{enable-background:new    ;}
	.st2{fill:#6D72F2;}
</style>
<path class="st0" d="M25.8,13.1l8.3-8.3c3-3.1,8-3.2,11.1-0.2s3.2,8,0.2,11.1c-0.1,0.1-0.2,0.2-0.2,0.2L34.5,26.5"/>
<path class="st0" d="M39.6,2.5H7.8c-2.9,0-5.3,2.4-5.3,5.3l0,0c0,2.9,2.4,5.3,5.3,5.3h18"/>
<line class="st0" x1="14.1" y1="36.4" x2="36.4" y2="14.1"/>
<path class="st0" d="M24.2,37.4l-8.3,8.3c-3.1,3-8.1,2.9-11.1-0.2c-2.9-3-2.9-7.8,0-10.9L15.4,24"/>
<path class="st0" d="M10.3,48h31.8c2.9,0,5.3-2.4,5.3-5.3l0,0l0,0c0-2.9-2.4-5.3-5.3-5.3l0,0h-18"/>
<g class="st1">
	<path class="st2" d="M55.4,48.8c-1.1-1.5-1.6-3.7-1.6-6.4V18.3h8v24.4c0,0.7,0.1,1.2,0.4,1.6c0.3,0.3,0.6,0.5,0.9,0.5
		c0.3,0,0.6,0,0.8-0.1l0.9,5.8c-1,0.4-2.3,0.6-3.9,0.6C58.3,51.1,56.5,50.3,55.4,48.8z"/>
	<path class="st2" d="M68.5,23.4c-0.8-0.7-1.2-1.7-1.2-2.9s0.4-2.1,1.2-2.9c0.8-0.7,1.8-1.1,3.1-1.1s2.3,0.4,3.1,1.1
		c0.8,0.7,1.2,1.7,1.2,2.9s-0.4,2.1-1.2,2.9c-0.8,0.7-1.8,1.1-3.1,1.1S69.3,24.1,68.5,23.4z M67.5,27.4h8v23.2h-8V27.4z"/>
	<path class="st2" d="M80.9,27.4h6.5l0.6,2.8h0.2c1.1-1,2.2-1.8,3.4-2.4c1.2-0.6,2.5-0.9,3.9-0.9c2.5,0,4.3,0.8,5.5,2.5
		c1.2,1.7,1.8,4,1.8,7v14.3h-8V37.3c0-1.4-0.2-2.4-0.5-2.9c-0.4-0.5-1-0.8-1.8-0.8c-0.7,0-1.3,0.1-1.8,0.4c-0.5,0.3-1.1,0.7-1.8,1.4
		v15.2h-8V27.4z"/>
	<path class="st2" d="M107.9,18.3h7.8v17.2h0.2l6.4-8.1h8.6l-8.3,9.6l8.7,13.5h-8.6l-4.6-8.3l-2.4,2.7v5.6h-7.8V18.3z"/>
</g>
</svg>
