<?xml version="1.0" encoding="utf-8"?>
<!-- Generator: Adobe Illustrator 24.2.3, SVG Export Plug-In . SVG Version: 6.00 Build 0)  -->
<svg version="1.1" id="Layer_1" xmlns="http://www.w3.org/2000/svg" xmlns:xlink="http://www.w3.org/1999/xlink" x="0px" y="0px"
	 viewBox="0 0 130.9 51.2" style="enable-background:new 0 0 130.9 51.2;" xml:space="preserve">
<style type="text/css">
	.st0{fill:none;stroke:#FFFFFF;stroke-width:5;stroke-linecap:round;stroke-miterlimit:10;}
	.st1{fill:#FFFFFF;}
	.st2{font-family:'Assistant-ExtraBold';}
	.st3{font-size:46.3747px;}
</style>
<path class="st0" d="M25.8,13.1l8.3-8.3c3-3.1,8-3.2,11.1-0.2s3.2,8,0.2,11.1c-0.1,0.1-0.2,0.2-0.2,0.2L34.5,26.5"/>
<path class="st0" d="M39.6,2.5H7.8c-2.9,0-5.3,2.4-5.3,5.3l0,0c0,2.9,2.4,5.3,5.3,5.3h18"/>
<line class="st0" x1="14.1" y1="36.4" x2="36.4" y2="14.1"/>
<path class="st0" d="M24.2,37.4l-8.3,8.3c-3.1,3-8.1,2.9-11.1-0.2c-2.9-3-2.9-7.8,0-10.9L15.4,24"/>
<path class="st0" d="M10.3,48h31.8c2.9,0,5.3-2.4,5.3-5.3c0,0,0,0,0,0l0,0c0-2.9-2.4-5.3-5.3-5.3c0,0,0,0,0,0h-18"/>
<text transform="matrix(1 0 0 1 51.0283 50.54)" class="st1 st2 st3">link</text>
</svg>
