<svg id="Layer_1" data-name="Layer 1" xmlns="http://www.w3.org/2000/svg" viewBox="0 0 49.94 50.54"><defs><style>.cls-1{fill:none;stroke:#418bf9;stroke-linecap:round;stroke-miterlimit:10;stroke-width:5px;}</style></defs><path class="cls-1" d="M78.33,62.83l8.31-8.31A7.84,7.84,0,1,1,97.72,65.61L87.1,76.23" transform="translate(-52.58 -49.73)"/><path class="cls-1" d="M92.18,52.23H60.38a5.3,5.3,0,0,0-5.3,5.3h0a5.3,5.3,0,0,0,5.3,5.3H78.33" transform="translate(-52.58 -49.73)"/><line class="cls-1" x1="14.08" y1="36.39" x2="36.39" y2="14.08"/><path class="cls-1" d="M76.77,87.17l-8.31,8.31A7.84,7.84,0,0,1,57.38,84.39L68,73.77" transform="translate(-52.58 -49.73)"/><path class="cls-1" d="M62.92,97.77h31.8a5.3,5.3,0,0,0,5.3-5.3h0a5.3,5.3,0,0,0-5.3-5.3h-18" transform="translate(-52.58 -49.73)"/></svg>